G04 Layer_Physical_Order=3*
G04 Layer_Color=36540*
%FSLAX44Y44*%
%MOMM*%
G71*
G01*
G75*
%ADD10C,0.1778*%
%ADD30C,0.2032*%
%ADD34C,0.2540*%
%ADD35C,0.5080*%
%ADD36C,0.3810*%
%ADD37C,0.3048*%
%ADD39R,2.6000X0.8000*%
%ADD40O,1.2000X2.1000*%
%ADD41C,1.6000*%
%ADD42C,0.6096*%
%ADD48C,0.6350*%
G36*
X58853Y54012D02*
X59005Y53908D01*
X59180Y53817D01*
X59376Y53737D01*
X59594Y53670D01*
X59834Y53615D01*
X60097Y53573D01*
X60381Y53542D01*
X61014Y53518D01*
Y50470D01*
X60686Y50464D01*
X60097Y50415D01*
X59834Y50372D01*
X59594Y50318D01*
X59376Y50250D01*
X59180Y50171D01*
X59005Y50080D01*
X58853Y49976D01*
X58723Y49860D01*
Y54127D01*
X58853Y54012D01*
D02*
G37*
G36*
X253770Y53937D02*
X253816Y53608D01*
X253878Y53295D01*
X253958Y53000D01*
X254053Y52721D01*
X254165Y52458D01*
X254294Y52213D01*
X254439Y51984D01*
X254601Y51773D01*
X254779Y51578D01*
X253614Y50229D01*
X253412Y50412D01*
X253196Y50573D01*
X252966Y50712D01*
X252720Y50828D01*
X252460Y50923D01*
X252185Y50995D01*
X251896Y51045D01*
X251592Y51074D01*
X251274Y51080D01*
X250940Y51064D01*
X253741Y54284D01*
X253770Y53937D01*
D02*
G37*
G36*
X368419Y61078D02*
X368208Y60830D01*
X368021Y60580D01*
X367859Y60327D01*
X367722Y60071D01*
X367610Y59813D01*
X367523Y59553D01*
X367461Y59290D01*
X367423Y59024D01*
X367411Y58756D01*
X365633D01*
X365621Y59024D01*
X365583Y59290D01*
X365521Y59553D01*
X365434Y59813D01*
X365322Y60071D01*
X365185Y60327D01*
X365023Y60580D01*
X364837Y60830D01*
X364625Y61078D01*
X364388Y61323D01*
X368656D01*
X368419Y61078D01*
D02*
G37*
G36*
X107168Y50867D02*
X106976Y50659D01*
X106804Y50440D01*
X106653Y50210D01*
X106523Y49969D01*
X106413Y49717D01*
X106324Y49454D01*
X106255Y49180D01*
X106207Y48894D01*
X106179Y48598D01*
X106172Y48291D01*
X103154Y51308D01*
X103462Y51315D01*
X103758Y51343D01*
X104044Y51391D01*
X104318Y51460D01*
X104581Y51549D01*
X104833Y51659D01*
X105074Y51789D01*
X105304Y51940D01*
X105523Y52112D01*
X105731Y52304D01*
X107168Y50867D01*
D02*
G37*
G36*
X466609Y51664D02*
X466643Y51388D01*
X466699Y51118D01*
X466777Y50856D01*
X466877Y50600D01*
X467000Y50351D01*
X467146Y50108D01*
X467313Y49872D01*
X467503Y49643D01*
X467716Y49421D01*
X463448D01*
X463661Y49643D01*
X463851Y49872D01*
X464018Y50108D01*
X464164Y50351D01*
X464287Y50600D01*
X464387Y50856D01*
X464465Y51118D01*
X464521Y51388D01*
X464555Y51664D01*
X464566Y51947D01*
X466598D01*
X466609Y51664D01*
D02*
G37*
G36*
X66645Y49795D02*
X66522Y49923D01*
X66376Y50038D01*
X66207Y50139D01*
X66016Y50227D01*
X65802Y50301D01*
X65566Y50362D01*
X65306Y50409D01*
X65024Y50443D01*
X64720Y50463D01*
X64392Y50470D01*
X64687Y53518D01*
X65016Y53523D01*
X65609Y53566D01*
X65873Y53603D01*
X66115Y53650D01*
X66336Y53709D01*
X66535Y53777D01*
X66712Y53857D01*
X66867Y53947D01*
X67000Y54047D01*
X66645Y49795D01*
D02*
G37*
G36*
X344671Y60479D02*
X344656Y60474D01*
X344627Y60454D01*
X344584Y60419D01*
X344366Y60218D01*
X343872Y59734D01*
X342436Y61170D01*
X343181Y61969D01*
X344671Y60479D01*
D02*
G37*
G36*
X383903Y72288D02*
X383681Y72501D01*
X383452Y72691D01*
X383216Y72858D01*
X382973Y73004D01*
X382724Y73127D01*
X382468Y73227D01*
X382206Y73305D01*
X381936Y73361D01*
X381660Y73395D01*
X381377Y73406D01*
Y75438D01*
X381660Y75449D01*
X381936Y75483D01*
X382206Y75539D01*
X382468Y75617D01*
X382724Y75717D01*
X382973Y75840D01*
X383216Y75986D01*
X383452Y76153D01*
X383681Y76343D01*
X383903Y76556D01*
Y72288D01*
D02*
G37*
G36*
X450557Y87167D02*
X449505Y84627D01*
X411994D01*
X411503Y85057D01*
X410237Y87167D01*
X410403Y88000D01*
X410067Y89685D01*
X409113Y91113D01*
X407685Y92067D01*
X406109Y92381D01*
X406020Y92422D01*
X405844Y92428D01*
X405732Y92443D01*
X405618Y92469D01*
X405499Y92507D01*
X405373Y92561D01*
X405238Y92631D01*
X405095Y92721D01*
X404943Y92832D01*
X404784Y92966D01*
X404590Y93149D01*
X404326Y94272D01*
X406059Y96729D01*
X440995D01*
X450557Y87167D01*
D02*
G37*
G36*
X309027Y88420D02*
X309061Y88144D01*
X309117Y87874D01*
X309195Y87612D01*
X309295Y87356D01*
X309418Y87107D01*
X309564Y86864D01*
X309731Y86628D01*
X309921Y86399D01*
X310134Y86177D01*
X305866D01*
X306079Y86399D01*
X306269Y86628D01*
X306436Y86864D01*
X306582Y87107D01*
X306705Y87356D01*
X306805Y87612D01*
X306883Y87874D01*
X306939Y88144D01*
X306973Y88420D01*
X306984Y88702D01*
X309016D01*
X309027Y88420D01*
D02*
G37*
G36*
X353325Y63856D02*
X353359Y63580D01*
X353415Y63310D01*
X353493Y63048D01*
X353593Y62792D01*
X353716Y62543D01*
X353862Y62300D01*
X354029Y62064D01*
X354219Y61835D01*
X354432Y61613D01*
X350164D01*
X350377Y61835D01*
X350567Y62064D01*
X350734Y62300D01*
X350880Y62543D01*
X351003Y62792D01*
X351103Y63048D01*
X351181Y63310D01*
X351237Y63580D01*
X351271Y63856D01*
X351282Y64138D01*
X353314D01*
X353325Y63856D01*
D02*
G37*
G36*
X338268Y62791D02*
X334735Y62738D01*
X334133Y64770D01*
X334439Y64782D01*
X334713Y64816D01*
X334957Y64874D01*
X335169Y64955D01*
X335350Y65059D01*
X335501Y65186D01*
X335620Y65336D01*
X335708Y65509D01*
X335765Y65706D01*
X335791Y65925D01*
X338268Y62791D01*
D02*
G37*
G36*
X137269Y62866D02*
X137209Y62910D01*
X137116Y62949D01*
X136992Y62983D01*
X136837Y63013D01*
X136649Y63038D01*
X136180Y63074D01*
X135238Y63095D01*
Y66905D01*
X135583Y66907D01*
X136837Y66987D01*
X136992Y67017D01*
X137116Y67051D01*
X137209Y67090D01*
X137269Y67133D01*
Y62866D01*
D02*
G37*
G36*
X158859Y7518D02*
X158683Y7682D01*
X158491Y7829D01*
X158286Y7959D01*
X158065Y8071D01*
X157830Y8166D01*
X157581Y8244D01*
X157317Y8304D01*
X157038Y8347D01*
X156744Y8373D01*
X156436Y8382D01*
Y10922D01*
X156744Y10931D01*
X157038Y10956D01*
X157317Y11000D01*
X157581Y11060D01*
X157830Y11138D01*
X158065Y11233D01*
X158286Y11345D01*
X158491Y11475D01*
X158683Y11622D01*
X158859Y11786D01*
Y7518D01*
D02*
G37*
G36*
X70113Y10896D02*
X70139Y10602D01*
X70182Y10323D01*
X70242Y10059D01*
X70320Y9810D01*
X70415Y9575D01*
X70527Y9354D01*
X70657Y9148D01*
X70803Y8957D01*
X70968Y8781D01*
X66700D01*
X66865Y8957D01*
X67011Y9148D01*
X67141Y9354D01*
X67253Y9575D01*
X67348Y9810D01*
X67426Y10059D01*
X67486Y10323D01*
X67530Y10602D01*
X67555Y10896D01*
X67564Y11204D01*
X70104D01*
X70113Y10896D01*
D02*
G37*
G36*
X115218Y13591D02*
X115443Y13402D01*
X115671Y13235D01*
X115900Y13091D01*
X116132Y12969D01*
X116365Y12871D01*
X116601Y12794D01*
X116838Y12740D01*
X117077Y12709D01*
X117317Y12700D01*
X114300Y9682D01*
X114291Y9923D01*
X114260Y10162D01*
X114206Y10400D01*
X114129Y10635D01*
X114031Y10868D01*
X113909Y11099D01*
X113765Y11329D01*
X113598Y11557D01*
X113409Y11782D01*
X113198Y12006D01*
X114994Y13802D01*
X115218Y13591D01*
D02*
G37*
G36*
X112151Y11186D02*
X112199Y11062D01*
X112382Y10868D01*
X112516Y10709D01*
X112627Y10557D01*
X112717Y10414D01*
X112787Y10279D01*
X112841Y10153D01*
X112879Y10034D01*
X112905Y9920D01*
X112920Y9808D01*
X112926Y9632D01*
X112967Y9543D01*
X113280Y7967D01*
X113566Y7540D01*
X112314Y5000D01*
X74553D01*
X73237Y6604D01*
X72902Y8289D01*
X72009Y9625D01*
X71975Y9716D01*
X71855Y9846D01*
X71786Y9935D01*
X71724Y10034D01*
X71667Y10145D01*
X71616Y10273D01*
X71570Y10417D01*
X71533Y10582D01*
X71504Y10768D01*
X71486Y10975D01*
X71478Y11242D01*
X71424Y11364D01*
Y15065D01*
X72914Y16940D01*
X72956Y16968D01*
X106369D01*
X112151Y11186D01*
D02*
G37*
G36*
X438832Y27352D02*
X439588Y26847D01*
X440383Y25490D01*
X439513Y22864D01*
X438085Y21909D01*
X437131Y20481D01*
X436795Y18796D01*
X437045Y17540D01*
X436192Y15906D01*
X435486Y15000D01*
X315000D01*
Y5000D01*
X166070D01*
X164818Y7540D01*
X165103Y7967D01*
X165439Y9652D01*
X165103Y11337D01*
X164149Y12765D01*
X162721Y13720D01*
X161036Y14055D01*
X159351Y13720D01*
X158015Y12827D01*
X157924Y12793D01*
X157794Y12672D01*
X157705Y12604D01*
X157606Y12542D01*
X157495Y12485D01*
X157367Y12434D01*
X157222Y12388D01*
X157058Y12351D01*
X156872Y12322D01*
X156665Y12304D01*
X156398Y12296D01*
X156276Y12242D01*
X132083D01*
X131901Y12447D01*
X130958Y14782D01*
X131848Y16113D01*
X132331Y18542D01*
X131848Y20971D01*
X131804Y21037D01*
X133161Y23577D01*
X166878D01*
X167770Y23755D01*
X168526Y24260D01*
X172269Y28003D01*
X438181D01*
X438832Y27352D01*
D02*
G37*
G36*
X119701Y11622D02*
X119893Y11475D01*
X120098Y11345D01*
X120319Y11233D01*
X120554Y11138D01*
X120803Y11060D01*
X121067Y11000D01*
X121346Y10956D01*
X121640Y10931D01*
X121948Y10922D01*
Y8382D01*
X121640Y8373D01*
X121346Y8347D01*
X121067Y8304D01*
X120803Y8244D01*
X120554Y8166D01*
X120319Y8071D01*
X120098Y7959D01*
X119893Y7829D01*
X119701Y7682D01*
X119525Y7518D01*
Y11786D01*
X119701Y11622D01*
D02*
G37*
G36*
X72644Y18288D02*
X72161Y18263D01*
X71730Y18186D01*
X71349Y18059D01*
X71018Y17882D01*
X70739Y17653D01*
X70510Y17374D01*
X70333Y17043D01*
X70206Y16662D01*
X70129Y16231D01*
X70104Y15748D01*
X67564D01*
X67539Y16231D01*
X67462Y16662D01*
X67335Y17043D01*
X67158Y17374D01*
X66929Y17653D01*
X66650Y17882D01*
X66319Y18059D01*
X65938Y18186D01*
X65507Y18263D01*
X65024Y18288D01*
X68834Y20828D01*
X72644Y18288D01*
D02*
G37*
G36*
X100564Y42906D02*
X100576Y42614D01*
X100610Y42332D01*
X100667Y42060D01*
X100746Y41799D01*
X100849Y41548D01*
X100974Y41307D01*
X101122Y41076D01*
X101292Y40856D01*
X101486Y40646D01*
X99951Y39307D01*
X99746Y39497D01*
X99529Y39670D01*
X99300Y39824D01*
X99059Y39959D01*
X98807Y40077D01*
X98543Y40176D01*
X98268Y40257D01*
X97981Y40320D01*
X97682Y40364D01*
X97372Y40390D01*
X100576Y43209D01*
X100564Y42906D01*
D02*
G37*
G36*
X105576Y46410D02*
X105310Y45861D01*
X105202Y45587D01*
X105110Y45314D01*
X105035Y45041D01*
X104977Y44769D01*
X104935Y44497D01*
X104910Y44226D01*
X104902Y43955D01*
X102870Y43394D01*
X102857Y43685D01*
X102819Y43961D01*
X102756Y44222D01*
X102667Y44467D01*
X102553Y44697D01*
X102414Y44912D01*
X102249Y45112D01*
X102059Y45296D01*
X101843Y45465D01*
X101602Y45619D01*
X105734Y46686D01*
X105576Y46410D01*
D02*
G37*
G36*
X98563Y47854D02*
X98597Y47578D01*
X98653Y47308D01*
X98731Y47046D01*
X98831Y46790D01*
X98954Y46541D01*
X99100Y46298D01*
X99267Y46062D01*
X99457Y45833D01*
X99670Y45611D01*
X95402D01*
X95615Y45833D01*
X95805Y46062D01*
X95972Y46298D01*
X96118Y46541D01*
X96241Y46790D01*
X96341Y47046D01*
X96419Y47308D01*
X96475Y47578D01*
X96509Y47854D01*
X96520Y48137D01*
X98552D01*
X98563Y47854D01*
D02*
G37*
G36*
X443597Y20717D02*
X443826Y20527D01*
X444062Y20360D01*
X444305Y20214D01*
X444554Y20091D01*
X444810Y19991D01*
X445072Y19913D01*
X445342Y19857D01*
X445618Y19823D01*
X445900Y19812D01*
Y17780D01*
X445618Y17769D01*
X445342Y17735D01*
X445072Y17679D01*
X444810Y17601D01*
X444554Y17501D01*
X444305Y17378D01*
X444062Y17232D01*
X443826Y17065D01*
X443597Y16875D01*
X443375Y16662D01*
Y20930D01*
X443597Y20717D01*
D02*
G37*
G36*
X35199Y21463D02*
X35401Y21330D01*
X35616Y21212D01*
X35844Y21110D01*
X36085Y21024D01*
X36339Y20953D01*
X36607Y20898D01*
X36887Y20859D01*
X37181Y20836D01*
X37488Y20828D01*
X37722Y18288D01*
X37413Y18279D01*
X37121Y18251D01*
X36844Y18204D01*
X36584Y18139D01*
X36341Y18056D01*
X36113Y17954D01*
X35902Y17833D01*
X35707Y17694D01*
X35529Y17536D01*
X35367Y17359D01*
X35011Y21612D01*
X35199Y21463D01*
D02*
G37*
G36*
X132769Y35559D02*
X132993Y35372D01*
X133216Y35210D01*
X133440Y35073D01*
X133663Y34961D01*
X133886Y34875D01*
X134109Y34813D01*
X134332Y34776D01*
X134554Y34764D01*
X134776Y34778D01*
X132100Y32102D01*
X132114Y32324D01*
X132102Y32546D01*
X132065Y32769D01*
X132003Y32992D01*
X131917Y33215D01*
X131805Y33438D01*
X131668Y33662D01*
X131506Y33885D01*
X131319Y34109D01*
X131108Y34334D01*
X132544Y35770D01*
X132769Y35559D01*
D02*
G37*
G36*
X141337Y138319D02*
X141566Y138129D01*
X141802Y137962D01*
X142045Y137816D01*
X142294Y137693D01*
X142550Y137593D01*
X142812Y137515D01*
X143082Y137459D01*
X143358Y137425D01*
X143640Y137414D01*
Y135382D01*
X143358Y135371D01*
X143082Y135337D01*
X142812Y135281D01*
X142550Y135203D01*
X142294Y135103D01*
X142045Y134980D01*
X141802Y134834D01*
X141566Y134667D01*
X141337Y134477D01*
X141115Y134264D01*
Y138532D01*
X141337Y138319D01*
D02*
G37*
G36*
X104411Y138751D02*
X104640Y138561D01*
X104876Y138393D01*
X105119Y138248D01*
X105368Y138125D01*
X105624Y138025D01*
X105886Y137947D01*
X106156Y137891D01*
X106432Y137857D01*
X106714Y137846D01*
Y135814D01*
X106432Y135803D01*
X106156Y135769D01*
X105886Y135713D01*
X105624Y135635D01*
X105368Y135534D01*
X105119Y135412D01*
X104876Y135266D01*
X104640Y135099D01*
X104411Y134909D01*
X104189Y134696D01*
Y138963D01*
X104411Y138751D01*
D02*
G37*
G36*
X353173Y138827D02*
X353402Y138637D01*
X353638Y138470D01*
X353881Y138324D01*
X354130Y138201D01*
X354386Y138101D01*
X354648Y138023D01*
X354918Y137967D01*
X355194Y137933D01*
X355476Y137922D01*
Y135890D01*
X355194Y135879D01*
X354918Y135845D01*
X354648Y135789D01*
X354386Y135711D01*
X354130Y135611D01*
X353881Y135488D01*
X353638Y135342D01*
X353402Y135175D01*
X353173Y134985D01*
X352951Y134772D01*
Y139040D01*
X353173Y138827D01*
D02*
G37*
G36*
X97447Y136492D02*
X97474Y136196D01*
X97523Y135910D01*
X97591Y135636D01*
X97681Y135373D01*
X97791Y135121D01*
X97921Y134880D01*
X98072Y134650D01*
X98243Y134431D01*
X98435Y134223D01*
X96999Y132786D01*
X96791Y132978D01*
X96572Y133150D01*
X96342Y133301D01*
X96101Y133431D01*
X95849Y133541D01*
X95586Y133630D01*
X95311Y133699D01*
X95026Y133747D01*
X94730Y133775D01*
X94422Y133782D01*
X97440Y136799D01*
X97447Y136492D01*
D02*
G37*
G36*
X143236Y124273D02*
X143044Y124065D01*
X142872Y123846D01*
X142721Y123616D01*
X142591Y123375D01*
X142481Y123123D01*
X142392Y122860D01*
X142323Y122586D01*
X142275Y122300D01*
X142247Y122004D01*
X142240Y121697D01*
X139222Y124714D01*
X139530Y124721D01*
X139826Y124749D01*
X140112Y124797D01*
X140386Y124866D01*
X140649Y124955D01*
X140901Y125065D01*
X141142Y125195D01*
X141372Y125346D01*
X141591Y125518D01*
X141799Y125710D01*
X143236Y124273D01*
D02*
G37*
G36*
X82699Y136369D02*
X82716Y136075D01*
X82755Y135792D01*
X82816Y135519D01*
X82899Y135257D01*
X83004Y135006D01*
X83131Y134765D01*
X83280Y134534D01*
X83451Y134314D01*
X83644Y134105D01*
X82144Y132731D01*
X81938Y132922D01*
X81720Y133094D01*
X81491Y133247D01*
X81250Y133381D01*
X80998Y133496D01*
X80734Y133591D01*
X80459Y133668D01*
X80173Y133726D01*
X79874Y133764D01*
X79565Y133783D01*
X82704Y136674D01*
X82699Y136369D01*
D02*
G37*
G36*
X90065D02*
X90082Y136075D01*
X90121Y135792D01*
X90182Y135519D01*
X90265Y135257D01*
X90370Y135006D01*
X90497Y134765D01*
X90646Y134534D01*
X90817Y134314D01*
X91010Y134105D01*
X89510Y132731D01*
X89304Y132922D01*
X89086Y133094D01*
X88857Y133247D01*
X88616Y133381D01*
X88364Y133496D01*
X88100Y133591D01*
X87825Y133668D01*
X87538Y133726D01*
X87240Y133764D01*
X86931Y133783D01*
X90070Y136674D01*
X90065Y136369D01*
D02*
G37*
G36*
X299623Y148467D02*
X299428Y148694D01*
X299222Y148897D01*
X299006Y149077D01*
X298780Y149232D01*
X298544Y149364D01*
X298298Y149471D01*
X298041Y149555D01*
X297775Y149615D01*
X297498Y149650D01*
X297212Y149663D01*
X297433Y151694D01*
X297711Y151705D01*
X297986Y151735D01*
X298257Y151786D01*
X298525Y151857D01*
X298789Y151949D01*
X299050Y152061D01*
X299307Y152193D01*
X299561Y152346D01*
X299811Y152519D01*
X300058Y152712D01*
X299623Y148467D01*
D02*
G37*
G36*
X274501Y172467D02*
X274409Y172306D01*
X274248Y172213D01*
X272857Y170401D01*
X272809Y170222D01*
X272678Y170090D01*
X271803Y167980D01*
Y167794D01*
X271710Y167633D01*
X271412Y165368D01*
X271465Y165170D01*
X271418Y164971D01*
X271440Y164835D01*
X271393Y164722D01*
X271429Y164634D01*
X271404Y164543D01*
X271487Y163917D01*
X269409Y161377D01*
X186309D01*
X184575Y161032D01*
X183104Y160050D01*
X171910Y148855D01*
X75997D01*
X74262Y148510D01*
X72792Y147528D01*
X65787Y140522D01*
X64805Y139052D01*
X64460Y137318D01*
Y111297D01*
X60873D01*
X59174Y113837D01*
X59267Y114300D01*
X58931Y115985D01*
X57977Y117413D01*
X56549Y118368D01*
X54864Y118703D01*
X53179Y118368D01*
X52140Y117673D01*
X51923Y117603D01*
X51720Y117429D01*
X51551Y117303D01*
X51385Y117196D01*
X51222Y117106D01*
X51061Y117032D01*
X50900Y116973D01*
X50739Y116928D01*
X50574Y116896D01*
X50406Y116876D01*
X50179Y116868D01*
X50050Y116809D01*
X45644D01*
X44752Y116631D01*
X43996Y116126D01*
X40516Y112646D01*
X40011Y111890D01*
X39833Y110998D01*
Y51836D01*
X40011Y50944D01*
X40516Y50188D01*
X54866Y35838D01*
X53247Y33865D01*
X52213Y34556D01*
X49784Y35039D01*
X47355Y34556D01*
X45296Y33180D01*
X43920Y31121D01*
X43437Y28692D01*
X43920Y26263D01*
X44973Y24688D01*
X44407Y22942D01*
X43848Y22148D01*
X37646D01*
X37523Y22202D01*
X37254Y22209D01*
X37037Y22226D01*
X36840Y22254D01*
X36661Y22291D01*
X36500Y22335D01*
X36356Y22387D01*
X36227Y22444D01*
X36111Y22508D01*
X36007Y22577D01*
X35864Y22690D01*
X35622Y22758D01*
X34705Y23372D01*
X33020Y23707D01*
X31335Y23372D01*
X29907Y22417D01*
X28953Y20989D01*
X28617Y19304D01*
X28953Y17619D01*
X29907Y16191D01*
X31335Y15237D01*
X33020Y14901D01*
X34705Y15237D01*
X36133Y16191D01*
X36253Y16371D01*
X36379Y16429D01*
X36493Y16553D01*
X36565Y16617D01*
X36645Y16674D01*
X36738Y16727D01*
X36846Y16776D01*
X36975Y16820D01*
X37125Y16858D01*
X37300Y16887D01*
X37499Y16906D01*
X37764Y16914D01*
X37805Y16933D01*
X37849Y16919D01*
X37942Y16968D01*
X47972D01*
X48222Y14428D01*
X47355Y14256D01*
X45296Y12880D01*
X43920Y10821D01*
X43437Y8392D01*
X43607Y7540D01*
X41741Y5000D01*
X5000D01*
Y175000D01*
X64652D01*
X65423Y174003D01*
X66207Y172460D01*
X65955Y171196D01*
X66290Y169511D01*
X67245Y168083D01*
X66544Y165515D01*
X66209Y163830D01*
X66544Y162145D01*
X67499Y160717D01*
Y159831D01*
X66544Y158403D01*
X66209Y156718D01*
X66544Y155033D01*
X67499Y153605D01*
X68927Y152650D01*
X70612Y152315D01*
X72297Y152650D01*
X73725Y153605D01*
X73956Y153950D01*
X74836Y155069D01*
X77216Y155617D01*
X78901Y155953D01*
X80329Y156907D01*
X81284Y158335D01*
X81619Y160020D01*
X81284Y161705D01*
X81214Y161809D01*
X80534Y163703D01*
X81214Y165597D01*
X81284Y165701D01*
X81619Y167386D01*
X81284Y169071D01*
X80329Y170499D01*
X78901Y171453D01*
X77216Y171789D01*
X76995Y171745D01*
X76453Y172460D01*
X77715Y175000D01*
X116021D01*
X117821Y172460D01*
X117771Y172212D01*
X118106Y170527D01*
X119061Y169099D01*
X120489Y168144D01*
X122174Y167809D01*
X123859Y168144D01*
X124490Y168566D01*
X126238Y168911D01*
X127986Y168566D01*
X128617Y168144D01*
X130302Y167809D01*
X131987Y168144D01*
X132558Y168526D01*
X132686Y168497D01*
X134528Y166620D01*
X134593Y166367D01*
X134362Y166023D01*
X134027Y164338D01*
X134362Y162653D01*
X135317Y161225D01*
X136745Y160271D01*
X138430Y159935D01*
X140115Y160271D01*
X141543Y161225D01*
X142498Y162653D01*
X142833Y164338D01*
X142498Y166023D01*
X143128Y167397D01*
X145127Y168144D01*
X146812Y167809D01*
X148085Y168063D01*
X149516Y167464D01*
X150784Y166618D01*
X151028Y166028D01*
X152000Y165625D01*
X178000D01*
X178972Y166028D01*
X179375Y167000D01*
Y170765D01*
X179663Y172212D01*
X179613Y172460D01*
X181301Y175000D01*
X273630D01*
X274501Y172467D01*
D02*
G37*
G36*
X285081Y173627D02*
X287326Y172698D01*
X289254Y171218D01*
X290733Y169291D01*
X291663Y167046D01*
X291980Y164636D01*
X291982D01*
X291656Y162161D01*
X290701Y159854D01*
X289181Y157873D01*
X287200Y156354D01*
X284893Y155398D01*
X282418Y155072D01*
Y155071D01*
X279920Y155400D01*
X277593Y156364D01*
X275594Y157898D01*
X274060Y159897D01*
X273096Y162224D01*
X272767Y164722D01*
X272850D01*
X272775Y165189D01*
X273073Y167453D01*
X273948Y169564D01*
X275338Y171377D01*
X277151Y172768D01*
X279261Y173642D01*
X281527Y173940D01*
Y173865D01*
X282672Y173945D01*
X285081Y173627D01*
D02*
G37*
G36*
X485000Y15000D02*
X452331D01*
X451704Y15993D01*
X451366Y17540D01*
X473834Y40008D01*
X474339Y40764D01*
X474517Y41656D01*
Y68834D01*
X474339Y69726D01*
X473834Y70482D01*
X443608Y100708D01*
X442852Y101213D01*
X441960Y101391D01*
X403047D01*
X365884Y138554D01*
X365128Y139059D01*
X364236Y139237D01*
X355658D01*
X355531Y139296D01*
X355304Y139305D01*
X355141Y139324D01*
X354985Y139357D01*
X354834Y139402D01*
X354686Y139460D01*
X354539Y139532D01*
X354391Y139621D01*
X354240Y139728D01*
X354088Y139855D01*
X353900Y140034D01*
X353817Y140066D01*
X352459Y140974D01*
X350774Y141309D01*
X349089Y140974D01*
X347661Y140019D01*
X346707Y138591D01*
X346371Y136906D01*
X346707Y135221D01*
X347661Y133793D01*
X349089Y132838D01*
X350774Y132503D01*
X352459Y132838D01*
X353817Y133746D01*
X353900Y133778D01*
X354088Y133957D01*
X354240Y134084D01*
X354391Y134191D01*
X354539Y134280D01*
X354686Y134352D01*
X354834Y134410D01*
X354985Y134455D01*
X355141Y134488D01*
X355304Y134508D01*
X355531Y134516D01*
X355658Y134575D01*
X363271D01*
X378716Y119130D01*
X377664Y116590D01*
X326760D01*
X326638Y116644D01*
X326371Y116652D01*
X326164Y116670D01*
X325978Y116699D01*
X325813Y116736D01*
X325669Y116782D01*
X325541Y116833D01*
X325430Y116890D01*
X325331Y116952D01*
X325242Y117021D01*
X325112Y117141D01*
X325021Y117175D01*
X323685Y118068D01*
X322000Y118403D01*
X320315Y118068D01*
X318887Y117113D01*
X317932Y115685D01*
X317597Y114000D01*
X317932Y112315D01*
X318887Y110887D01*
X320315Y109932D01*
X321565Y109684D01*
X322017Y109574D01*
X323511Y107442D01*
X323847Y105757D01*
X324801Y104329D01*
X326229Y103375D01*
X327914Y103039D01*
X329599Y103375D01*
X330957Y104282D01*
X331040Y104314D01*
X331228Y104493D01*
X331380Y104620D01*
X331531Y104727D01*
X331679Y104816D01*
X331826Y104888D01*
X331974Y104946D01*
X332125Y104991D01*
X332281Y105024D01*
X332444Y105043D01*
X332671Y105052D01*
X332798Y105111D01*
X378003D01*
X402466Y80648D01*
X403222Y80143D01*
X404114Y79965D01*
X451155D01*
X463251Y67869D01*
Y52128D01*
X463192Y52001D01*
X463184Y51774D01*
X463164Y51611D01*
X463131Y51455D01*
X463086Y51304D01*
X463028Y51156D01*
X462956Y51009D01*
X462867Y50861D01*
X462760Y50711D01*
X462633Y50558D01*
X462454Y50370D01*
X462422Y50287D01*
X461515Y48929D01*
X461179Y47244D01*
X461515Y45559D01*
X462469Y44131D01*
X463897Y43176D01*
X465582Y42841D01*
X466707Y43065D01*
X468132Y41140D01*
X468204Y40970D01*
X448361Y21127D01*
X446082D01*
X445955Y21186D01*
X445708Y21349D01*
X445141Y21967D01*
X444920Y22258D01*
X444901Y22289D01*
X444999Y22902D01*
X445685Y24932D01*
X447113Y25887D01*
X448068Y27315D01*
X448403Y29000D01*
X448068Y30685D01*
X447113Y32113D01*
X445685Y33067D01*
X444000Y33403D01*
X442315Y33067D01*
X440887Y32113D01*
X440038Y32487D01*
X439146Y32665D01*
X171304D01*
X170412Y32487D01*
X169656Y31982D01*
X165913Y28239D01*
X141030D01*
X140486Y28780D01*
X139337Y30779D01*
X139531Y31750D01*
X139195Y33435D01*
X138241Y34863D01*
Y37781D01*
X139195Y39209D01*
X139531Y40894D01*
X139195Y42579D01*
X138241Y44007D01*
X136855Y44934D01*
X136805Y44985D01*
X135902Y47732D01*
X136147Y48099D01*
X136330Y49015D01*
X138453Y49971D01*
X138921Y50015D01*
X139785Y49152D01*
X140541Y48647D01*
X141433Y48469D01*
X227584D01*
X228476Y48647D01*
X229232Y49152D01*
X238201Y58121D01*
X245135D01*
X246558Y55900D01*
X246590Y55581D01*
X246295Y54102D01*
X246630Y52417D01*
X247585Y50989D01*
X249013Y50034D01*
X250698Y49699D01*
X250881Y49736D01*
X251007Y49691D01*
X251294Y49704D01*
X251516Y49700D01*
X251715Y49682D01*
X251892Y49651D01*
X252049Y49609D01*
X252189Y49559D01*
X252314Y49499D01*
X252430Y49430D01*
X252537Y49349D01*
X252689Y49211D01*
X252707Y49205D01*
X252715Y49188D01*
X252839Y49147D01*
X255156Y46831D01*
X255870Y46353D01*
X256713Y46186D01*
X357708D01*
X358550Y46353D01*
X359264Y46831D01*
X368078Y55644D01*
X368556Y56359D01*
X368723Y57201D01*
Y58562D01*
X368784Y58692D01*
X368794Y58896D01*
X368813Y59035D01*
X368846Y59176D01*
X368895Y59321D01*
X368960Y59472D01*
X369046Y59631D01*
X369152Y59797D01*
X369282Y59972D01*
X369438Y60154D01*
X369645Y60369D01*
X369677Y60449D01*
X370589Y61815D01*
X370925Y63500D01*
X370589Y65185D01*
X369635Y66613D01*
X368207Y67568D01*
X366522Y67903D01*
X364837Y67568D01*
X363409Y66613D01*
X362454Y65185D01*
X361871Y63543D01*
X360172Y63839D01*
X358487Y63503D01*
X358032Y63199D01*
X356992Y62908D01*
X356249Y63200D01*
X354697Y63966D01*
X354688Y64193D01*
X354629Y64320D01*
Y65278D01*
X354451Y66170D01*
X353946Y66926D01*
X351128Y69745D01*
X352100Y72091D01*
X381196D01*
X381323Y72032D01*
X381550Y72024D01*
X381713Y72004D01*
X381869Y71971D01*
X382020Y71926D01*
X382168Y71868D01*
X382315Y71796D01*
X382463Y71707D01*
X382613Y71600D01*
X382766Y71473D01*
X382954Y71294D01*
X383037Y71262D01*
X384395Y70354D01*
X386080Y70019D01*
X387765Y70354D01*
X389193Y71309D01*
X390148Y72737D01*
X390483Y74422D01*
X390148Y76107D01*
X389193Y77535D01*
X387765Y78489D01*
X386080Y78825D01*
X384395Y78489D01*
X383037Y77582D01*
X382954Y77550D01*
X382766Y77371D01*
X382614Y77244D01*
X382463Y77137D01*
X382315Y77048D01*
X382168Y76976D01*
X382020Y76918D01*
X381869Y76873D01*
X381713Y76840D01*
X381550Y76821D01*
X381323Y76812D01*
X381196Y76753D01*
X334663D01*
X306214Y105202D01*
X306993Y107947D01*
X308421Y108901D01*
X309375Y110329D01*
X309711Y112014D01*
X309375Y113699D01*
X308468Y115057D01*
X308436Y115140D01*
X308257Y115328D01*
X308130Y115480D01*
X308023Y115631D01*
X307934Y115779D01*
X307862Y115926D01*
X307804Y116074D01*
X307759Y116225D01*
X307726Y116381D01*
X307707Y116544D01*
X307698Y116771D01*
X307639Y116898D01*
Y118872D01*
X307461Y119764D01*
X306956Y120520D01*
X281668Y145808D01*
X282514Y148256D01*
X282588Y148348D01*
X296969D01*
X297063Y148296D01*
X297110Y148310D01*
X297155Y148289D01*
X297381Y148280D01*
X297535Y148260D01*
X297677Y148228D01*
X297808Y148185D01*
X297933Y148131D01*
X298054Y148063D01*
X298176Y147979D01*
X298298Y147878D01*
X298422Y147755D01*
X298582Y147570D01*
X298734Y147493D01*
X298893Y147255D01*
X300321Y146300D01*
X302006Y145965D01*
X303691Y146300D01*
X305119Y147255D01*
X306073Y148683D01*
X306409Y150368D01*
X306073Y152053D01*
X305119Y153481D01*
X303691Y154436D01*
X302006Y154771D01*
X300321Y154436D01*
X299470Y153867D01*
X299210Y153794D01*
X298995Y153626D01*
X298815Y153501D01*
X298638Y153395D01*
X298464Y153305D01*
X298293Y153232D01*
X298123Y153173D01*
X297954Y153128D01*
X297783Y153096D01*
X297610Y153077D01*
X297383Y153068D01*
X297254Y153009D01*
X288971D01*
X288921Y153092D01*
X288595Y153894D01*
X288410Y155549D01*
X290018Y156783D01*
X290111Y156944D01*
X290272Y157037D01*
X291792Y159017D01*
X291840Y159197D01*
X291971Y159328D01*
X292927Y161635D01*
Y161821D01*
X293019Y161982D01*
X293345Y164457D01*
X293321Y164549D01*
X293357Y164636D01*
X293319Y164727D01*
X293343Y164816D01*
X293026Y167225D01*
X292933Y167386D01*
Y167572D01*
X292003Y169817D01*
X291872Y169948D01*
X291824Y170127D01*
X290345Y172055D01*
X290184Y172148D01*
X290091Y172309D01*
X289894Y172460D01*
X290756Y175000D01*
X485000D01*
Y15000D01*
D02*
G37*
G36*
X132080Y141148D02*
X130873Y141097D01*
X129794Y140945D01*
X128841Y140691D01*
X128016Y140335D01*
X127317Y139878D01*
X126746Y139319D01*
X126301Y138659D01*
X125984Y137897D01*
X125794Y137033D01*
X125730Y136068D01*
X120650D01*
X120587Y137033D01*
X120396Y137897D01*
X120078Y138659D01*
X119634Y139319D01*
X119062Y139878D01*
X118364Y140335D01*
X117538Y140691D01*
X116586Y140945D01*
X115506Y141097D01*
X114300Y141148D01*
X123190Y147498D01*
X132080Y141148D01*
D02*
G37*
G36*
X192542Y142296D02*
X192233Y142285D01*
X191936Y142254D01*
X191651Y142203D01*
X191376Y142132D01*
X191112Y142041D01*
X190860Y141929D01*
X190619Y141798D01*
X190390Y141646D01*
X190171Y141475D01*
X189964Y141283D01*
X188507Y142700D01*
X188699Y142908D01*
X188871Y143127D01*
X189021Y143357D01*
X189150Y143598D01*
X189258Y143850D01*
X189346Y144113D01*
X189412Y144387D01*
X189457Y144672D01*
X189482Y144967D01*
X189485Y145274D01*
X192542Y142296D01*
D02*
G37*
G36*
X273417Y146701D02*
X273646Y146511D01*
X273882Y146344D01*
X274125Y146198D01*
X274374Y146075D01*
X274630Y145975D01*
X274892Y145897D01*
X275162Y145841D01*
X275438Y145807D01*
X275721Y145796D01*
Y143764D01*
X275438Y143753D01*
X275162Y143719D01*
X274892Y143663D01*
X274630Y143585D01*
X274374Y143485D01*
X274125Y143362D01*
X273882Y143216D01*
X273646Y143049D01*
X273417Y142859D01*
X273195Y142646D01*
Y146914D01*
X273417Y146701D01*
D02*
G37*
G36*
X306335Y116434D02*
X306369Y116158D01*
X306425Y115888D01*
X306503Y115626D01*
X306603Y115370D01*
X306726Y115121D01*
X306872Y114878D01*
X307039Y114642D01*
X307229Y114413D01*
X307442Y114191D01*
X303174D01*
X303387Y114413D01*
X303577Y114642D01*
X303744Y114878D01*
X303890Y115121D01*
X304013Y115370D01*
X304113Y115626D01*
X304191Y115888D01*
X304247Y116158D01*
X304281Y116434D01*
X304292Y116716D01*
X306324D01*
X306335Y116434D01*
D02*
G37*
G36*
X64460Y65278D02*
Y54843D01*
X61173D01*
X61067Y54892D01*
X60480Y54914D01*
X60281Y54935D01*
X60098Y54965D01*
X59950Y54999D01*
X59836Y55034D01*
X59758Y55066D01*
X59713Y55089D01*
X59699Y55099D01*
X59635Y55156D01*
X59534Y55191D01*
X58231Y56061D01*
X56546Y56396D01*
X54861Y56061D01*
X53433Y55107D01*
X52478Y53679D01*
X52143Y51994D01*
X52478Y50309D01*
X53433Y48881D01*
X54861Y47926D01*
X56546Y47591D01*
X58231Y47926D01*
X59534Y48797D01*
X59635Y48832D01*
X59699Y48889D01*
X59713Y48899D01*
X59758Y48922D01*
X59836Y48954D01*
X59949Y48988D01*
X60098Y49022D01*
X60264Y49050D01*
X60756Y49090D01*
X61040Y49096D01*
X61154Y49145D01*
X64178D01*
X64260Y49102D01*
X64313Y49118D01*
X64364Y49096D01*
X64660Y49089D01*
X64897Y49074D01*
X65101Y49049D01*
X65271Y49018D01*
X65405Y48984D01*
X65503Y48950D01*
X65513Y48945D01*
X65787Y48535D01*
X67257Y47553D01*
X68992Y47208D01*
X70726Y47553D01*
X72196Y48535D01*
X73179Y50005D01*
X73524Y51740D01*
Y61763D01*
X101864D01*
X102916Y59223D01*
X96756Y53063D01*
X95213Y51524D01*
X93633Y52327D01*
X91948Y52663D01*
X90263Y52327D01*
X88835Y51373D01*
X87880Y49945D01*
X86360Y47837D01*
X84675Y47502D01*
X83247Y46547D01*
X82292Y45119D01*
X81957Y43434D01*
X82292Y41749D01*
X83247Y40321D01*
X84675Y39367D01*
X86360Y39031D01*
X88045Y39367D01*
X89473Y40321D01*
X90428Y41749D01*
X90487Y41832D01*
X93408D01*
X93469Y41749D01*
X94423Y40321D01*
X95851Y39367D01*
X97047Y39129D01*
X97256Y39021D01*
X97523Y38998D01*
X97733Y38967D01*
X97927Y38925D01*
X98107Y38872D01*
X98274Y38809D01*
X98430Y38736D01*
X98577Y38653D01*
X98716Y38559D01*
X98850Y38453D01*
X99017Y38299D01*
X99149Y38250D01*
X101132Y36267D01*
X101130Y36195D01*
X100131Y33675D01*
X99407Y33531D01*
X97979Y32577D01*
X97024Y31149D01*
X96689Y29464D01*
X96832Y28747D01*
X95474Y26563D01*
X95020Y26207D01*
X71089D01*
X44495Y52801D01*
Y103857D01*
X47035Y105214D01*
X47241Y105076D01*
X48926Y104741D01*
X50611Y105076D01*
X51650Y105771D01*
X51867Y105841D01*
X52070Y106015D01*
X52239Y106141D01*
X52404Y106248D01*
X52568Y106338D01*
X52729Y106412D01*
X52890Y106471D01*
X53051Y106516D01*
X53215Y106548D01*
X53384Y106568D01*
X53611Y106576D01*
X53739Y106635D01*
X64460D01*
Y65278D01*
D02*
G37*
G36*
X330313Y109363D02*
X330542Y109173D01*
X330778Y109006D01*
X331021Y108860D01*
X331270Y108737D01*
X331526Y108637D01*
X331788Y108559D01*
X332058Y108503D01*
X332334Y108469D01*
X332617Y108458D01*
Y106426D01*
X332334Y106415D01*
X332058Y106381D01*
X331788Y106325D01*
X331526Y106247D01*
X331270Y106147D01*
X331021Y106024D01*
X330778Y105878D01*
X330542Y105711D01*
X330313Y105521D01*
X330091Y105308D01*
Y109576D01*
X330313Y109363D01*
D02*
G37*
G36*
X403870Y91939D02*
X404095Y91750D01*
X404323Y91583D01*
X404552Y91439D01*
X404784Y91317D01*
X405017Y91219D01*
X405252Y91142D01*
X405490Y91088D01*
X405729Y91057D01*
X405970Y91048D01*
X402952Y88031D01*
X402943Y88271D01*
X402912Y88510D01*
X402858Y88748D01*
X402781Y88983D01*
X402683Y89216D01*
X402561Y89447D01*
X402417Y89677D01*
X402250Y89905D01*
X402061Y90131D01*
X401850Y90354D01*
X403646Y92150D01*
X403870Y91939D01*
D02*
G37*
G36*
X76084Y134409D02*
X76547Y133717D01*
X77975Y132762D01*
X79300Y132499D01*
X79479Y132411D01*
X79744Y132395D01*
X79949Y132368D01*
X80139Y132330D01*
X80315Y132281D01*
X80478Y132222D01*
X80631Y132153D01*
X80774Y132073D01*
X80912Y131981D01*
X81044Y131877D01*
X81210Y131722D01*
X81342Y131674D01*
X90712Y122304D01*
X91468Y121799D01*
X92360Y121621D01*
X108255D01*
X125098Y104778D01*
X125854Y104273D01*
X126746Y104095D01*
X153416D01*
X154308Y104273D01*
X155064Y104778D01*
X161239Y110953D01*
X162560D01*
X162811Y111003D01*
X194819D01*
X196572Y109250D01*
X196603Y108566D01*
X196004Y106226D01*
X195261Y105729D01*
X194350Y104366D01*
X193959Y104301D01*
X192121D01*
X191730Y104366D01*
X190819Y105729D01*
X189391Y106684D01*
X187706Y107019D01*
X186021Y106684D01*
X184593Y105729D01*
X183638Y104301D01*
X183540Y103805D01*
X180950D01*
X180851Y104301D01*
X179897Y105729D01*
X178469Y106684D01*
X176784Y107019D01*
X175099Y106684D01*
X173671Y105729D01*
X172956Y104659D01*
X171577Y104463D01*
X170198Y104659D01*
X169483Y105729D01*
X168055Y106684D01*
X166370Y107019D01*
X164685Y106684D01*
X163257Y105729D01*
X162302Y104301D01*
X161967Y102616D01*
X162302Y100931D01*
X163257Y99503D01*
X164685Y98548D01*
X166539Y96774D01*
X166875Y95089D01*
X167829Y93661D01*
X169257Y92706D01*
X170942Y92371D01*
X172627Y92706D01*
X174055Y93661D01*
X175009Y95089D01*
X175074Y95411D01*
X177500Y96148D01*
X177552Y96133D01*
X178004Y95841D01*
X178305Y94327D01*
X179259Y92899D01*
X180687Y91945D01*
X182372Y91609D01*
X184057Y91945D01*
X185485Y92899D01*
X186439Y94327D01*
X186775Y96012D01*
X186837Y96159D01*
X187684Y96324D01*
X190161Y95758D01*
X190497Y94073D01*
X191451Y92645D01*
X192879Y91691D01*
X194564Y91355D01*
X196249Y91691D01*
X197677Y92645D01*
X198631Y94073D01*
X198967Y95758D01*
X198631Y97443D01*
X200673Y98959D01*
X201487Y99503D01*
X202026Y100309D01*
X203048Y101141D01*
X204978Y101809D01*
X205009Y101809D01*
X289005D01*
X297033Y93781D01*
Y76810D01*
X297211Y75918D01*
X297716Y75162D01*
X303406Y69472D01*
X304162Y68967D01*
X305054Y68789D01*
X330150D01*
X331678Y66249D01*
X331591Y66085D01*
X235868D01*
X234976Y65907D01*
X234220Y65402D01*
X225251Y56433D01*
X143766D01*
X141571Y58627D01*
X142166Y61624D01*
X142559Y61887D01*
X143513Y63315D01*
X143849Y65000D01*
X143513Y66685D01*
X142559Y68113D01*
X141131Y69067D01*
X139446Y69402D01*
X137761Y69067D01*
X136710Y68365D01*
X136681Y68357D01*
X136675Y68357D01*
X136670Y68355D01*
X136663Y68354D01*
X135535Y68281D01*
X135229Y68280D01*
X135128Y68237D01*
X73524D01*
Y108712D01*
Y133669D01*
X76032Y134430D01*
X76084Y134409D01*
D02*
G37*
G36*
X52566Y112297D02*
X52359Y112518D01*
X52143Y112716D01*
X51918Y112891D01*
X51685Y113042D01*
X51443Y113171D01*
X51193Y113275D01*
X50934Y113357D01*
X50666Y113415D01*
X50390Y113450D01*
X50105Y113462D01*
X50231Y115494D01*
X50511Y115505D01*
X50786Y115536D01*
X51057Y115590D01*
X51323Y115664D01*
X51584Y115760D01*
X51840Y115877D01*
X52091Y116015D01*
X52337Y116174D01*
X52579Y116355D01*
X52815Y116557D01*
X52566Y112297D01*
D02*
G37*
G36*
X265723Y147751D02*
X266820Y145808D01*
X266615Y144780D01*
X266950Y143095D01*
X267905Y141667D01*
X269333Y140712D01*
X271018Y140377D01*
X272703Y140712D01*
X274061Y141620D01*
X274144Y141652D01*
X274332Y141831D01*
X274484Y141958D01*
X274635Y142065D01*
X274783Y142154D01*
X274930Y142226D01*
X275078Y142284D01*
X275229Y142329D01*
X275385Y142362D01*
X275548Y142381D01*
X275775Y142390D01*
X275902Y142449D01*
X278435D01*
X302977Y117907D01*
Y116898D01*
X302918Y116771D01*
X302910Y116544D01*
X302890Y116381D01*
X302857Y116225D01*
X302812Y116074D01*
X302754Y115926D01*
X302682Y115779D01*
X302593Y115631D01*
X302486Y115480D01*
X302359Y115328D01*
X302180Y115140D01*
X302148Y115057D01*
X301241Y113699D01*
X298496Y112920D01*
X295467Y115948D01*
X294711Y116453D01*
X293819Y116631D01*
X209949D01*
X201692Y124888D01*
X200935Y125393D01*
X200044Y125571D01*
X179430D01*
X178458Y127917D01*
X190765Y140225D01*
X190897Y140274D01*
X191064Y140428D01*
X191194Y140530D01*
X191328Y140619D01*
X191468Y140695D01*
X191616Y140760D01*
X191774Y140815D01*
X191945Y140859D01*
X192129Y140892D01*
X192330Y140913D01*
X192591Y140923D01*
X192710Y140977D01*
X194217Y141277D01*
X195645Y142231D01*
X196600Y143660D01*
X196935Y145344D01*
X196842Y145808D01*
X198541Y148348D01*
X265154D01*
X265723Y147751D01*
D02*
G37*
G36*
X51431Y110926D02*
X51647Y110728D01*
X51871Y110553D01*
X52105Y110401D01*
X52347Y110273D01*
X52597Y110168D01*
X52856Y110087D01*
X53124Y110029D01*
X53400Y109994D01*
X53685Y109982D01*
X53559Y107950D01*
X53279Y107939D01*
X53003Y107907D01*
X52733Y107854D01*
X52467Y107780D01*
X52206Y107684D01*
X51950Y107567D01*
X51699Y107429D01*
X51453Y107270D01*
X51211Y107089D01*
X50974Y106887D01*
X51223Y111147D01*
X51431Y110926D01*
D02*
G37*
G36*
X324353Y115969D02*
X324544Y115823D01*
X324750Y115693D01*
X324971Y115581D01*
X325206Y115486D01*
X325455Y115408D01*
X325719Y115348D01*
X325998Y115304D01*
X326292Y115279D01*
X326600Y115270D01*
Y112730D01*
X326292Y112721D01*
X325998Y112696D01*
X325719Y112652D01*
X325455Y112592D01*
X325206Y112514D01*
X324971Y112419D01*
X324750Y112307D01*
X324544Y112177D01*
X324353Y112030D01*
X324177Y111866D01*
Y116134D01*
X324353Y115969D01*
D02*
G37*
%LPC*%
G36*
X447250Y148903D02*
X445565Y148568D01*
X444125Y147621D01*
X442685Y148568D01*
X441000Y148903D01*
X439315Y148568D01*
X437750Y147690D01*
X436185Y148568D01*
X434500Y148903D01*
X432815Y148568D01*
X431250Y147690D01*
X429685Y148568D01*
X428000Y148903D01*
X426315Y148568D01*
X424887Y147613D01*
X423933Y146185D01*
X423597Y144500D01*
X423933Y142815D01*
X424887Y141387D01*
X426315Y140433D01*
X428000Y140098D01*
X429685Y140433D01*
X431250Y141310D01*
X432815Y140433D01*
X434500Y140098D01*
X436185Y140433D01*
X437750Y141310D01*
X439315Y140433D01*
X441000Y140098D01*
X442685Y140433D01*
X444125Y141379D01*
X445565Y140433D01*
X447250Y140098D01*
X448935Y140433D01*
X450363Y141387D01*
X451317Y142815D01*
X451653Y144500D01*
X451317Y146185D01*
X450363Y147613D01*
X448935Y148568D01*
X447250Y148903D01*
D02*
G37*
G36*
X218000Y97350D02*
X215580Y97031D01*
X213325Y96097D01*
X211389Y94611D01*
X209903Y92675D01*
X208969Y90420D01*
X208650Y88000D01*
X208969Y85580D01*
X209903Y83325D01*
X211389Y81389D01*
X213325Y79903D01*
X215580Y78969D01*
X218000Y78650D01*
X220420Y78969D01*
X222675Y79903D01*
X224611Y81389D01*
X226097Y83325D01*
X227031Y85580D01*
X227350Y88000D01*
X227031Y90420D01*
X226097Y92675D01*
X224611Y94611D01*
X222675Y96097D01*
X220420Y97031D01*
X218000Y97350D01*
D02*
G37*
G36*
X263000D02*
X260580Y97031D01*
X258325Y96097D01*
X256389Y94611D01*
X254903Y92675D01*
X254375Y91400D01*
X251625D01*
X251097Y92675D01*
X249611Y94611D01*
X247675Y96097D01*
X245420Y97031D01*
X243000Y97350D01*
X240580Y97031D01*
X238325Y96097D01*
X236389Y94611D01*
X234903Y92675D01*
X233969Y90420D01*
X233650Y88000D01*
X233969Y85580D01*
X234903Y83325D01*
X236389Y81389D01*
X238325Y79903D01*
X240580Y78969D01*
X243000Y78650D01*
X245420Y78969D01*
X247675Y79903D01*
X249611Y81389D01*
X251097Y83325D01*
X251625Y84600D01*
X254375D01*
X254903Y83325D01*
X256389Y81389D01*
X258325Y79903D01*
X260580Y78969D01*
X263000Y78650D01*
X265420Y78969D01*
X267675Y79903D01*
X269611Y81389D01*
X271097Y83325D01*
X272031Y85580D01*
X272350Y88000D01*
X272031Y90420D01*
X271097Y92675D01*
X269611Y94611D01*
X267675Y96097D01*
X265420Y97031D01*
X263000Y97350D01*
D02*
G37*
G36*
X452000Y71403D02*
X450315Y71067D01*
X449000Y70189D01*
X447685Y71067D01*
X446000Y71403D01*
X444315Y71067D01*
X443000Y70189D01*
X441685Y71067D01*
X440000Y71403D01*
X438315Y71067D01*
X437000Y70189D01*
X435685Y71067D01*
X434000Y71403D01*
X432315Y71067D01*
X431000Y70189D01*
X429685Y71067D01*
X428000Y71403D01*
X426315Y71067D01*
X425000Y70189D01*
X423685Y71067D01*
X422000Y71403D01*
X420315Y71067D01*
X419000Y70189D01*
X417685Y71067D01*
X416000Y71403D01*
X414315Y71067D01*
X413000Y70189D01*
X411685Y71067D01*
X410000Y71403D01*
X408315Y71067D01*
X407000Y70189D01*
X405685Y71067D01*
X404000Y71403D01*
X402315Y71067D01*
X401000Y70189D01*
X399685Y71067D01*
X398000Y71403D01*
X396315Y71067D01*
X394887Y70113D01*
X393932Y68685D01*
X393597Y67000D01*
X393932Y65315D01*
X394887Y63887D01*
X396315Y62933D01*
X398000Y62597D01*
X399685Y62933D01*
X401000Y63811D01*
X402315Y62933D01*
X404000Y62597D01*
X405685Y62933D01*
X407000Y63811D01*
X408315Y62933D01*
X410000Y62597D01*
X411685Y62933D01*
X413000Y63811D01*
X414315Y62933D01*
X416000Y62597D01*
X417685Y62933D01*
X419000Y63811D01*
X420315Y62933D01*
X422000Y62597D01*
X423685Y62933D01*
X425000Y63811D01*
X426315Y62933D01*
X428000Y62597D01*
X429685Y62933D01*
X431000Y63811D01*
X432315Y62933D01*
X434000Y62597D01*
X435685Y62933D01*
X437000Y63811D01*
X438315Y62933D01*
X440000Y62597D01*
X441685Y62933D01*
X443000Y63811D01*
X444315Y62933D01*
X446000Y62597D01*
X447685Y62933D01*
X449000Y63811D01*
X450315Y62933D01*
X452000Y62597D01*
X453685Y62933D01*
X455113Y63887D01*
X456068Y65315D01*
X456403Y67000D01*
X456068Y68685D01*
X455113Y70113D01*
X453685Y71067D01*
X452000Y71403D01*
D02*
G37*
G36*
X55118Y83651D02*
X53433Y83315D01*
X52005Y82361D01*
X51051Y80933D01*
X50715Y79248D01*
X51051Y77563D01*
X51472Y76932D01*
X51817Y75184D01*
X51472Y73436D01*
X51051Y72805D01*
X50715Y71120D01*
X51051Y69435D01*
X52005Y68007D01*
X53433Y67052D01*
X55118Y66717D01*
X56803Y67052D01*
X58231Y68007D01*
X59186Y69435D01*
X59521Y71120D01*
X59186Y72805D01*
X58764Y73436D01*
X58419Y75184D01*
X58764Y76932D01*
X59186Y77563D01*
X59521Y79248D01*
X59186Y80933D01*
X58231Y82361D01*
X56803Y83315D01*
X55118Y83651D01*
D02*
G37*
G36*
X139446Y81365D02*
X137761Y81030D01*
X136333Y80075D01*
X135379Y78647D01*
X135043Y76962D01*
X135379Y75277D01*
X136333Y73849D01*
X137761Y72895D01*
X139446Y72559D01*
X141131Y72895D01*
X142559Y73849D01*
X143513Y75277D01*
X143849Y76962D01*
X143513Y78647D01*
X142559Y80075D01*
X141131Y81030D01*
X139446Y81365D01*
D02*
G37*
G36*
X55022Y100338D02*
X53337Y100003D01*
X51909Y99049D01*
X50954Y97621D01*
X50619Y95936D01*
X50954Y94251D01*
X51909Y92823D01*
X53337Y91868D01*
X55022Y91533D01*
X56707Y91868D01*
X58135Y92823D01*
X59089Y94251D01*
X59424Y95936D01*
X59089Y97621D01*
X58135Y99049D01*
X56707Y100003D01*
X55022Y100338D01*
D02*
G37*
%LPD*%
D10*
X355854Y51562D02*
X360172Y55880D01*
X261620Y51562D02*
X355854D01*
X259080Y54102D02*
X261620Y51562D01*
X256713Y48387D02*
X357708D01*
X366522Y57201D01*
X250444Y55372D02*
X250744D01*
X250698Y54102D02*
X250998D01*
X256713Y48387D01*
X360172Y55880D02*
Y59436D01*
X366522Y57201D02*
Y63500D01*
D30*
X189795Y150679D02*
X301695D01*
X302006Y150368D01*
X175514Y136398D02*
X189795Y150679D01*
X192532Y145288D02*
Y145344D01*
X173786Y126542D02*
X192532Y145288D01*
X226216Y54102D02*
X235868Y63754D01*
X227584Y50800D02*
X237236Y60452D01*
X166878Y25908D02*
X171304Y30334D01*
X131092Y25908D02*
X166878D01*
X129568Y27432D02*
X131092Y25908D01*
X131826Y35052D02*
X135128Y31750D01*
X105643Y35052D02*
X131826D01*
X132588Y38354D02*
X135128Y40894D01*
X107011Y38354D02*
X132588D01*
X110236Y27432D02*
X129568D01*
X106680Y23876D02*
X110236Y27432D01*
X70124Y23876D02*
X106680D01*
X171304Y30334D02*
X439146D01*
X440480Y29000D01*
X299364Y76810D02*
X305054Y71120D01*
X299364Y76810D02*
Y94746D01*
X289970Y104140D02*
X299364Y94746D01*
X204978Y104140D02*
X289970D01*
X195784Y113334D02*
X204978Y104140D01*
X333697Y74422D02*
X386080D01*
X293819Y114300D02*
X333697Y74422D01*
X308000Y84000D02*
Y95450D01*
X207616Y110998D02*
X292452D01*
X308000Y95450D01*
X302666Y81791D02*
Y96114D01*
X291338Y107442D02*
X302666Y96114D01*
X206502Y107442D02*
X291338D01*
X197308Y116636D02*
X206502Y107442D01*
X198676Y119938D02*
X207616Y110998D01*
X208983Y114300D02*
X293819D01*
X200044Y123240D02*
X208983Y114300D01*
X305308Y112014D02*
Y118872D01*
X103886Y41479D02*
X107011Y38354D01*
X97536Y43159D02*
X105643Y35052D01*
X103124Y48260D02*
X110490Y55626D01*
X97536Y50546D02*
X106680Y59690D01*
X97536Y43434D02*
Y50546D01*
X106680Y59690D02*
X137212D01*
X103124Y48260D02*
X103886Y47498D01*
Y41479D02*
Y47498D01*
X42164Y51836D02*
X70124Y23876D01*
X42164Y51836D02*
Y110998D01*
X440480Y29000D02*
X444000D01*
X97536Y43159D02*
Y43434D01*
X138938Y136398D02*
X175514D01*
X144068Y126542D02*
X173786D01*
X139192Y121666D02*
X144068Y126542D01*
X150164Y123240D02*
X200044D01*
X143256Y116332D02*
X150164Y123240D01*
X132842Y116332D02*
X143256D01*
X42164Y110998D02*
X45644Y114478D01*
X54686D02*
X54864Y114300D01*
X45644Y114478D02*
X54686D01*
X343154Y60452D02*
X345948Y63246D01*
X237236Y60452D02*
X343154D01*
X336804Y63754D02*
X338836Y65786D01*
X235868Y63754D02*
X336804D01*
X110490Y55626D02*
X136607D01*
X141433Y50800D02*
X227584D01*
X137212Y59690D02*
X142801Y54102D01*
X226216D01*
X136607Y55626D02*
X141433Y50800D01*
X352298Y59436D02*
Y65278D01*
X346456Y71120D02*
X352298Y65278D01*
X465582Y47244D02*
Y68834D01*
X327914Y107442D02*
X378968D01*
X404114Y82296D01*
X452120D01*
X465582Y68834D01*
X441198Y18796D02*
X449326D01*
X472186Y41656D01*
Y68834D01*
X350774Y136906D02*
X364236D01*
X402082Y99060D01*
X441960D01*
X472186Y68834D01*
X302666Y81791D02*
X305791Y78666D01*
X305890D01*
X308102Y76454D01*
X305054Y71120D02*
X346456D01*
X94392Y136830D02*
X99726Y131496D01*
X87026Y136652D02*
Y136830D01*
X79660Y136652D02*
Y136830D01*
X162510Y113334D02*
X195784D01*
X153416Y106426D02*
X160274Y113284D01*
X162560D01*
X150114Y109728D02*
X157022Y116636D01*
X197308D01*
X146812Y113030D02*
X153720Y119938D01*
X198676D01*
X126746Y106426D02*
X153416D01*
X129032Y109728D02*
X150114D01*
X99726Y131496D02*
X112852D01*
X131318Y113030D01*
X146812D01*
X102012Y136830D02*
X112344D01*
X132842Y116332D01*
X79660Y136652D02*
X92360Y123952D01*
X109220D01*
X126746Y106426D01*
X87026Y136652D02*
X96170Y127508D01*
X111252D01*
X129032Y109728D01*
X279400Y144780D02*
X305308Y118872D01*
X271018Y144780D02*
X279400D01*
X48926Y109144D02*
X49104Y108966D01*
X68738D01*
X68992Y108712D01*
D34*
X68834Y19558D02*
X107442D01*
X33274D02*
X68834D01*
Y6604D02*
Y19558D01*
X33020Y19304D02*
X33274Y19558D01*
X107442D02*
X117348Y9652D01*
X161036D01*
X380000Y114000D02*
X406000Y88000D01*
X322000Y114000D02*
X380000D01*
X-288039Y172716D02*
X-290578Y175255D01*
X-295657D01*
X-298196Y172716D01*
Y170177D01*
X-295657Y167638D01*
X-290578D01*
X-288039Y165098D01*
Y162559D01*
X-290578Y160020D01*
X-295657D01*
X-298196Y162559D01*
X-282961Y160020D02*
X-277883D01*
X-280422D01*
Y170177D01*
X-282961D01*
X-265187Y154942D02*
X-262647D01*
X-260108Y157481D01*
Y170177D01*
X-267726D01*
X-270265Y167638D01*
Y162559D01*
X-267726Y160020D01*
X-260108D01*
X-255030D02*
Y170177D01*
X-247412D01*
X-244873Y167638D01*
Y160020D01*
X-237256Y170177D02*
X-232177D01*
X-229638Y167638D01*
Y160020D01*
X-237256D01*
X-239795Y162559D01*
X-237256Y165098D01*
X-229638D01*
X-224560Y160020D02*
X-219482D01*
X-222021D01*
Y175255D01*
X-224560D01*
X-196629D02*
Y160020D01*
X-186472D01*
X-178855Y170177D02*
X-173776D01*
X-171237Y167638D01*
Y160020D01*
X-178855D01*
X-181394Y162559D01*
X-178855Y165098D01*
X-171237D01*
X-166159Y170177D02*
Y162559D01*
X-163619Y160020D01*
X-156002D01*
Y157481D01*
X-158541Y154942D01*
X-161080D01*
X-156002Y160020D02*
Y170177D01*
X-143306Y160020D02*
X-148385D01*
X-150924Y162559D01*
Y167638D01*
X-148385Y170177D01*
X-143306D01*
X-140767Y167638D01*
Y165098D01*
X-150924D01*
X-135689Y170177D02*
Y160020D01*
Y165098D01*
X-133149Y167638D01*
X-130610Y170177D01*
X-128071D01*
X-105218Y160020D02*
X-100140D01*
X-102679D01*
Y175255D01*
X-105218Y172716D01*
X-300330Y313416D02*
Y328651D01*
X-295252Y323573D01*
X-290173Y328651D01*
Y313416D01*
X-285095Y323573D02*
Y315955D01*
X-282556Y313416D01*
X-274938D01*
Y323573D01*
X-269860Y313416D02*
X-264781D01*
X-267321D01*
Y328651D01*
X-269860D01*
X-254625Y326112D02*
Y323573D01*
X-257164D01*
X-252085D01*
X-254625D01*
Y315955D01*
X-252085Y313416D01*
X-244468D02*
X-239390D01*
X-241929D01*
Y323573D01*
X-244468D01*
X-231772Y321034D02*
X-221615D01*
X-216537Y328651D02*
Y313416D01*
X-206380D01*
X-198763Y323573D02*
X-193684D01*
X-191145Y321034D01*
Y313416D01*
X-198763D01*
X-201302Y315955D01*
X-198763Y318494D01*
X-191145D01*
X-186067Y323573D02*
Y315955D01*
X-183528Y313416D01*
X-175910D01*
Y310877D01*
X-178449Y308338D01*
X-180989D01*
X-175910Y313416D02*
Y323573D01*
X-163214Y313416D02*
X-168293D01*
X-170832Y315955D01*
Y321034D01*
X-168293Y323573D01*
X-163214D01*
X-160675Y321034D01*
Y318494D01*
X-170832D01*
X-155597Y323573D02*
Y313416D01*
Y318494D01*
X-153058Y321034D01*
X-150518Y323573D01*
X-147979D01*
D35*
X123190Y134112D02*
Y144323D01*
Y134112D02*
X128270Y129032D01*
X132588D01*
X138938D01*
D36*
X69270Y65000D02*
X139446D01*
X68992Y65278D02*
X69270Y65000D01*
D37*
X56546Y51994D02*
X68738D01*
X68992Y51740D01*
D39*
X165000Y171000D02*
D03*
D40*
X189000Y14500D02*
D03*
X317000D02*
D03*
D41*
X288000Y88000D02*
D03*
D42*
X360000Y92000D02*
D03*
Y83000D02*
D03*
X351000Y92000D02*
D03*
X360000Y101000D02*
D03*
X369000Y92000D02*
D03*
Y83000D02*
D03*
X351000D02*
D03*
Y101000D02*
D03*
X369000D02*
D03*
X302006Y150368D02*
D03*
X192532Y145344D02*
D03*
X277114Y164846D02*
D03*
X287274D02*
D03*
X281940Y160274D02*
D03*
Y169418D02*
D03*
X259080Y54102D02*
D03*
X135128Y31750D02*
D03*
X410000Y25000D02*
D03*
X278130Y7112D02*
D03*
X252984D02*
D03*
X227584D02*
D03*
X204724Y59944D02*
D03*
X189484D02*
D03*
X175006Y62738D02*
D03*
X171958Y76708D02*
D03*
X236982Y98806D02*
D03*
X218948Y59944D02*
D03*
X192278Y132080D02*
D03*
X186182Y129032D02*
D03*
X135128Y40894D02*
D03*
X68834Y6604D02*
D03*
X103124Y48260D02*
D03*
X93980Y6858D02*
D03*
X33020Y19304D02*
D03*
X444000Y29000D02*
D03*
X361188Y171196D02*
D03*
X305000Y130000D02*
D03*
X270000Y120000D02*
D03*
X285000Y130000D02*
D03*
X270000D02*
D03*
X255000Y145000D02*
D03*
X240000D02*
D03*
X225000D02*
D03*
X245110Y167386D02*
D03*
X52832Y129794D02*
D03*
X23622Y60706D02*
D03*
X169926Y7112D02*
D03*
X416560Y39624D02*
D03*
X451104Y48514D02*
D03*
X460000Y55000D02*
D03*
Y65000D02*
D03*
X465000Y85000D02*
D03*
Y100000D02*
D03*
Y115000D02*
D03*
X455000Y125000D02*
D03*
Y135000D02*
D03*
X465000Y150000D02*
D03*
X480000Y140000D02*
D03*
Y120000D02*
D03*
Y105000D02*
D03*
Y90000D02*
D03*
Y75000D02*
D03*
X481330Y47244D02*
D03*
X379984Y20828D02*
D03*
X364984D02*
D03*
X349984D02*
D03*
X200000Y7112D02*
D03*
X35000Y30000D02*
D03*
X30000Y10000D02*
D03*
X10000Y35000D02*
D03*
Y50000D02*
D03*
Y65000D02*
D03*
Y80000D02*
D03*
Y95000D02*
D03*
Y110000D02*
D03*
Y125000D02*
D03*
X35000D02*
D03*
X132588Y129032D02*
D03*
X138938D02*
D03*
X118618Y152146D02*
D03*
X97536Y43434D02*
D03*
X117348Y9652D02*
D03*
X331442Y89274D02*
D03*
X283082Y120000D02*
D03*
X386080Y74422D02*
D03*
X446000Y67000D02*
D03*
X440000D02*
D03*
X434000D02*
D03*
X416000D02*
D03*
X410000D02*
D03*
X404000D02*
D03*
X398000D02*
D03*
X428000D02*
D03*
X452000D02*
D03*
X422000D02*
D03*
X98000Y108000D02*
D03*
X112250D02*
D03*
X98000Y93750D02*
D03*
X83750D02*
D03*
Y107750D02*
D03*
X112250Y93750D02*
D03*
X276541Y120000D02*
D03*
X327914Y107442D02*
D03*
X139446Y65000D02*
D03*
X296164Y120000D02*
D03*
X289623D02*
D03*
X68992Y51740D02*
D03*
X54768Y103302D02*
D03*
X54864Y114300D02*
D03*
X48926Y109144D02*
D03*
X102012Y136830D02*
D03*
X94392D02*
D03*
X87026D02*
D03*
X79660D02*
D03*
X49180Y52502D02*
D03*
Y62408D02*
D03*
X56546Y51994D02*
D03*
X406000Y88000D02*
D03*
X308000Y84000D02*
D03*
X322000Y114000D02*
D03*
X415290Y130048D02*
D03*
X409194Y130302D02*
D03*
Y124206D02*
D03*
X415290D02*
D03*
X175260Y172212D02*
D03*
X164846D02*
D03*
X154940D02*
D03*
X139192Y121666D02*
D03*
X138938Y136398D02*
D03*
X199898Y164338D02*
D03*
X191770D02*
D03*
X199898Y172212D02*
D03*
X191770D02*
D03*
X183896D02*
D03*
X207772D02*
D03*
Y164338D02*
D03*
X441198Y18796D02*
D03*
X360172Y59436D02*
D03*
X345948Y63246D02*
D03*
X352298Y59436D02*
D03*
X338836Y65786D02*
D03*
X366522Y63500D02*
D03*
X250698Y54102D02*
D03*
X305308Y112014D02*
D03*
X205740Y72390D02*
D03*
X188214Y91186D02*
D03*
X198374Y89408D02*
D03*
X308102Y76454D02*
D03*
X465582Y47244D02*
D03*
X410972Y93472D02*
D03*
X415036Y88900D02*
D03*
X350774Y136906D02*
D03*
X176022Y91186D02*
D03*
X166370Y90932D02*
D03*
X271018Y144780D02*
D03*
X161036Y9652D02*
D03*
X82042Y6858D02*
D03*
X476758Y38608D02*
D03*
D48*
X186309Y156845D02*
X273685D01*
X275844Y159004D01*
X123190Y144323D02*
X173787D01*
X75997D02*
X123190D01*
X173787D02*
X186309Y156845D01*
X68992Y137318D02*
X75997Y144323D01*
X68992Y108712D02*
Y137318D01*
Y51740D02*
Y65278D01*
Y108712D01*
M02*
