G04 Layer_Color=2752767*
%FSLAX44Y44*%
%MOMM*%
G71*
G01*
G75*
%ADD34C,0.2540*%
%ADD36C,0.3810*%
%ADD128C,0.0847*%
%ADD129C,0.4064*%
%ADD130C,0.3556*%
D34*
X537915Y-97416D02*
X541081D01*
X539498D01*
Y-87917D01*
X537915Y-89500D01*
X545831Y-97416D02*
Y-95833D01*
X547415D01*
Y-97416D01*
X545831D01*
X560080Y-87917D02*
X553747D01*
Y-92667D01*
X556914Y-91083D01*
X558497D01*
X560080Y-92667D01*
Y-95833D01*
X558497Y-97416D01*
X555331D01*
X553747Y-95833D01*
X563247Y-89500D02*
X564830Y-87917D01*
X567997D01*
X569580Y-89500D01*
Y-95833D01*
X567997Y-97416D01*
X564830D01*
X563247Y-95833D01*
Y-89500D01*
X572747D02*
X574330Y-87917D01*
X577496D01*
X579080Y-89500D01*
Y-95833D01*
X577496Y-97416D01*
X574330D01*
X572747Y-95833D01*
Y-89500D01*
X582246Y-97416D02*
Y-91083D01*
X583829D01*
X585413Y-92667D01*
Y-97416D01*
Y-92667D01*
X586996Y-91083D01*
X588579Y-92667D01*
Y-97416D01*
X591746D02*
Y-91083D01*
X593329D01*
X594912Y-92667D01*
Y-97416D01*
Y-92667D01*
X596496Y-91083D01*
X598079Y-92667D01*
Y-97416D01*
X613911D02*
X610745Y-94250D01*
Y-91083D01*
X613911Y-87917D01*
X624994D02*
X618661D01*
Y-92667D01*
X621828Y-91083D01*
X623411D01*
X624994Y-92667D01*
Y-95833D01*
X623411Y-97416D01*
X620244D01*
X618661Y-95833D01*
X628161D02*
X629744Y-97416D01*
X632910D01*
X634494Y-95833D01*
Y-89500D01*
X632910Y-87917D01*
X629744D01*
X628161Y-89500D01*
Y-91083D01*
X629744Y-92667D01*
X634494D01*
X637660Y-97416D02*
Y-95833D01*
X639244D01*
Y-97416D01*
X637660D01*
X645576Y-89500D02*
X647160Y-87917D01*
X650326D01*
X651909Y-89500D01*
Y-95833D01*
X650326Y-97416D01*
X647160D01*
X645576Y-95833D01*
Y-89500D01*
X661409Y-87917D02*
X658242Y-89500D01*
X655076Y-92667D01*
Y-95833D01*
X656659Y-97416D01*
X659826D01*
X661409Y-95833D01*
Y-94250D01*
X659826Y-92667D01*
X655076D01*
X664576Y-97416D02*
Y-91083D01*
X666159D01*
X667742Y-92667D01*
Y-97416D01*
Y-92667D01*
X669325Y-91083D01*
X670909Y-92667D01*
Y-97416D01*
X674075D02*
X677242D01*
X675658D01*
Y-91083D01*
X674075D01*
X681991Y-97416D02*
X685158D01*
X683575D01*
Y-87917D01*
X681991D01*
X689908Y-97416D02*
X693074Y-94250D01*
Y-91083D01*
X689908Y-87917D01*
X424971Y-89500D02*
X423387Y-87917D01*
X420221D01*
X418638Y-89500D01*
Y-91083D01*
X420221Y-92667D01*
X423387D01*
X424971Y-94250D01*
Y-95833D01*
X423387Y-97416D01*
X420221D01*
X418638Y-95833D01*
X428137Y-97416D02*
X431304D01*
X429721D01*
Y-87917D01*
X428137D01*
X437637Y-97416D02*
X440803D01*
X442387Y-95833D01*
Y-92667D01*
X440803Y-91083D01*
X437637D01*
X436054Y-92667D01*
Y-95833D01*
X437637Y-97416D01*
X447136Y-89500D02*
Y-91083D01*
X445553D01*
X448720D01*
X447136D01*
Y-95833D01*
X448720Y-97416D01*
X418638Y-121173D02*
Y-111673D01*
X423387D01*
X424971Y-113257D01*
Y-116423D01*
X423387Y-118007D01*
X418638D01*
X421804D02*
X424971Y-121173D01*
X429721D02*
X432887D01*
X434470Y-119590D01*
Y-116423D01*
X432887Y-114840D01*
X429721D01*
X428137Y-116423D01*
Y-119590D01*
X429721Y-121173D01*
X437637Y-114840D02*
Y-119590D01*
X439220Y-121173D01*
X443970D01*
Y-114840D01*
X447136Y-121173D02*
Y-114840D01*
X451886D01*
X453469Y-116423D01*
Y-121173D01*
X462969Y-111673D02*
Y-121173D01*
X458219D01*
X456636Y-119590D01*
Y-116423D01*
X458219Y-114840D01*
X462969D01*
X418638Y-144930D02*
Y-135430D01*
X423387D01*
X424971Y-137013D01*
Y-140180D01*
X423387Y-141763D01*
X418638D01*
X421804D02*
X424971Y-144930D01*
X429721D02*
X432887D01*
X434470Y-143346D01*
Y-140180D01*
X432887Y-138597D01*
X429721D01*
X428137Y-140180D01*
Y-143346D01*
X429721Y-144930D01*
X437637Y-138597D02*
Y-143346D01*
X439220Y-144930D01*
X443970D01*
Y-138597D01*
X447136Y-144930D02*
Y-138597D01*
X451886D01*
X453469Y-140180D01*
Y-144930D01*
X462969Y-135430D02*
Y-144930D01*
X458219D01*
X456636Y-143346D01*
Y-140180D01*
X458219Y-138597D01*
X462969D01*
X418638Y-168686D02*
Y-159187D01*
X423387D01*
X424971Y-160770D01*
Y-163936D01*
X423387Y-165520D01*
X418638D01*
X421804D02*
X424971Y-168686D01*
X429721D02*
X432887D01*
X434470Y-167103D01*
Y-163936D01*
X432887Y-162353D01*
X429721D01*
X428137Y-163936D01*
Y-167103D01*
X429721Y-168686D01*
X437637Y-162353D02*
Y-167103D01*
X439220Y-168686D01*
X443970D01*
Y-162353D01*
X447136Y-168686D02*
Y-162353D01*
X451886D01*
X453469Y-163936D01*
Y-168686D01*
X462969Y-159187D02*
Y-168686D01*
X458219D01*
X456636Y-167103D01*
Y-163936D01*
X458219Y-162353D01*
X462969D01*
X335459Y-97416D02*
Y-87917D01*
X340209D01*
X341792Y-89500D01*
Y-92667D01*
X340209Y-94250D01*
X335459D01*
X344958Y-87917D02*
X351291D01*
X348125D01*
Y-97416D01*
X354458Y-87917D02*
Y-97416D01*
Y-92667D01*
X360791D01*
Y-87917D01*
Y-97416D01*
X335459Y-121173D02*
Y-111673D01*
X341792Y-121173D01*
Y-111673D01*
X344958Y-121173D02*
Y-111673D01*
X349708D01*
X351291Y-113257D01*
Y-116423D01*
X349708Y-118007D01*
X344958D01*
X354458Y-111673D02*
X360791D01*
X357624D01*
Y-121173D01*
X363957Y-111673D02*
Y-121173D01*
Y-116423D01*
X370290D01*
Y-111673D01*
Y-121173D01*
X335459Y-144930D02*
Y-135430D01*
X340209D01*
X341792Y-137013D01*
Y-140180D01*
X340209Y-141763D01*
X335459D01*
X344958Y-135430D02*
X351291D01*
X348125D01*
Y-144930D01*
X354458Y-135430D02*
Y-144930D01*
Y-140180D01*
X360791D01*
Y-135430D01*
Y-144930D01*
X335459Y-168686D02*
Y-159187D01*
X340209D01*
X341792Y-160770D01*
Y-163936D01*
X340209Y-165520D01*
X335459D01*
X344958Y-159187D02*
X351291D01*
X348125D01*
Y-168686D01*
X354458Y-159187D02*
Y-168686D01*
Y-163936D01*
X360791D01*
Y-159187D01*
Y-168686D01*
X119286Y-89500D02*
X120870Y-87917D01*
X124036D01*
X125619Y-89500D01*
Y-95833D01*
X124036Y-97416D01*
X120870D01*
X119286Y-95833D01*
Y-89500D01*
X128786Y-97416D02*
Y-95833D01*
X130369D01*
Y-97416D01*
X128786D01*
X143035Y-87917D02*
X139869Y-89500D01*
X136702Y-92667D01*
Y-95833D01*
X138286Y-97416D01*
X141452D01*
X143035Y-95833D01*
Y-94250D01*
X141452Y-92667D01*
X136702D01*
X146202Y-89500D02*
X147785Y-87917D01*
X150952D01*
X152535Y-89500D01*
Y-95833D01*
X150952Y-97416D01*
X147785D01*
X146202Y-95833D01*
Y-89500D01*
X155701D02*
X157285Y-87917D01*
X160451D01*
X162034Y-89500D01*
Y-95833D01*
X160451Y-97416D01*
X157285D01*
X155701Y-95833D01*
Y-89500D01*
X165201Y-97416D02*
Y-91083D01*
X166784D01*
X168367Y-92667D01*
Y-97416D01*
Y-92667D01*
X169951Y-91083D01*
X171534Y-92667D01*
Y-97416D01*
X174700D02*
Y-91083D01*
X176284D01*
X177867Y-92667D01*
Y-97416D01*
Y-92667D01*
X179450Y-91083D01*
X181033Y-92667D01*
Y-97416D01*
X196866D02*
X193699Y-94250D01*
Y-91083D01*
X196866Y-87917D01*
X207949Y-97416D02*
X201616D01*
X207949Y-91083D01*
Y-89500D01*
X206366Y-87917D01*
X203199D01*
X201616Y-89500D01*
X211115D02*
X212699Y-87917D01*
X215865D01*
X217448Y-89500D01*
Y-91083D01*
X215865Y-92667D01*
X214282D01*
X215865D01*
X217448Y-94250D01*
Y-95833D01*
X215865Y-97416D01*
X212699D01*
X211115Y-95833D01*
X220615Y-97416D02*
Y-95833D01*
X222198D01*
Y-97416D01*
X220615D01*
X234864Y-87917D02*
X231698Y-89500D01*
X228531Y-92667D01*
Y-95833D01*
X230114Y-97416D01*
X233281D01*
X234864Y-95833D01*
Y-94250D01*
X233281Y-92667D01*
X228531D01*
X244364Y-97416D02*
X238031D01*
X244364Y-91083D01*
Y-89500D01*
X242780Y-87917D01*
X239614D01*
X238031Y-89500D01*
X247530Y-97416D02*
Y-91083D01*
X249114D01*
X250697Y-92667D01*
Y-97416D01*
Y-92667D01*
X252280Y-91083D01*
X253863Y-92667D01*
Y-97416D01*
X257030D02*
X260196D01*
X258613D01*
Y-91083D01*
X257030D01*
X264946Y-97416D02*
X268113D01*
X266529D01*
Y-87917D01*
X264946D01*
X272862Y-97416D02*
X276029Y-94250D01*
Y-91083D01*
X272862Y-87917D01*
X119286Y-113257D02*
X120870Y-111673D01*
X124036D01*
X125619Y-113257D01*
Y-119590D01*
X124036Y-121173D01*
X120870D01*
X119286Y-119590D01*
Y-113257D01*
X128786Y-121173D02*
Y-119590D01*
X130369D01*
Y-121173D01*
X128786D01*
X136702Y-119590D02*
X138286Y-121173D01*
X141452D01*
X143035Y-119590D01*
Y-113257D01*
X141452Y-111673D01*
X138286D01*
X136702Y-113257D01*
Y-114840D01*
X138286Y-116423D01*
X143035D01*
X146202Y-119590D02*
X147785Y-121173D01*
X150952D01*
X152535Y-119590D01*
Y-113257D01*
X150952Y-111673D01*
X147785D01*
X146202Y-113257D01*
Y-114840D01*
X147785Y-116423D01*
X152535D01*
X155701Y-121173D02*
X158868D01*
X157285D01*
Y-111673D01*
X155701Y-113257D01*
X163618Y-121173D02*
Y-114840D01*
X165201D01*
X166784Y-116423D01*
Y-121173D01*
Y-116423D01*
X168367Y-114840D01*
X169951Y-116423D01*
Y-121173D01*
X173117D02*
Y-114840D01*
X174700D01*
X176284Y-116423D01*
Y-121173D01*
Y-116423D01*
X177867Y-114840D01*
X179450Y-116423D01*
Y-121173D01*
X195283D02*
X192116Y-118007D01*
Y-114840D01*
X195283Y-111673D01*
X200033Y-113257D02*
X201616Y-111673D01*
X204782D01*
X206366Y-113257D01*
Y-114840D01*
X204782Y-116423D01*
X203199D01*
X204782D01*
X206366Y-118007D01*
Y-119590D01*
X204782Y-121173D01*
X201616D01*
X200033Y-119590D01*
X209532D02*
X211115Y-121173D01*
X214282D01*
X215865Y-119590D01*
Y-113257D01*
X214282Y-111673D01*
X211115D01*
X209532Y-113257D01*
Y-114840D01*
X211115Y-116423D01*
X215865D01*
X219032Y-121173D02*
Y-119590D01*
X220615D01*
Y-121173D01*
X219032D01*
X226948Y-113257D02*
X228531Y-111673D01*
X231698D01*
X233281Y-113257D01*
Y-119590D01*
X231698Y-121173D01*
X228531D01*
X226948Y-119590D01*
Y-113257D01*
X242780Y-121173D02*
X236448D01*
X242780Y-114840D01*
Y-113257D01*
X241197Y-111673D01*
X238031D01*
X236448Y-113257D01*
X245947Y-121173D02*
Y-114840D01*
X247530D01*
X249114Y-116423D01*
Y-121173D01*
Y-116423D01*
X250697Y-114840D01*
X252280Y-116423D01*
Y-121173D01*
X255447D02*
X258613D01*
X257030D01*
Y-114840D01*
X255447D01*
X263363Y-121173D02*
X266529D01*
X264946D01*
Y-111673D01*
X263363D01*
X271279Y-121173D02*
X274446Y-118007D01*
Y-114840D01*
X271279Y-111673D01*
X119286Y-137013D02*
X120870Y-135430D01*
X124036D01*
X125619Y-137013D01*
Y-143346D01*
X124036Y-144930D01*
X120870D01*
X119286Y-143346D01*
Y-137013D01*
X128786Y-144930D02*
Y-143346D01*
X130369D01*
Y-144930D01*
X128786D01*
X136702Y-143346D02*
X138286Y-144930D01*
X141452D01*
X143035Y-143346D01*
Y-137013D01*
X141452Y-135430D01*
X138286D01*
X136702Y-137013D01*
Y-138597D01*
X138286Y-140180D01*
X143035D01*
X152535Y-144930D02*
X146202D01*
X152535Y-138597D01*
Y-137013D01*
X150952Y-135430D01*
X147785D01*
X146202Y-137013D01*
X155701D02*
X157285Y-135430D01*
X160451D01*
X162034Y-137013D01*
Y-143346D01*
X160451Y-144930D01*
X157285D01*
X155701Y-143346D01*
Y-137013D01*
X165201Y-144930D02*
Y-138597D01*
X166784D01*
X168367Y-140180D01*
Y-144930D01*
Y-140180D01*
X169951Y-138597D01*
X171534Y-140180D01*
Y-144930D01*
X174700D02*
Y-138597D01*
X176284D01*
X177867Y-140180D01*
Y-144930D01*
Y-140180D01*
X179450Y-138597D01*
X181033Y-140180D01*
Y-144930D01*
X196866D02*
X193699Y-141763D01*
Y-138597D01*
X196866Y-135430D01*
X201616Y-137013D02*
X203199Y-135430D01*
X206366D01*
X207949Y-137013D01*
Y-138597D01*
X206366Y-140180D01*
X204782D01*
X206366D01*
X207949Y-141763D01*
Y-143346D01*
X206366Y-144930D01*
X203199D01*
X201616Y-143346D01*
X217448Y-135430D02*
X214282Y-137013D01*
X211115Y-140180D01*
Y-143346D01*
X212699Y-144930D01*
X215865D01*
X217448Y-143346D01*
Y-141763D01*
X215865Y-140180D01*
X211115D01*
X220615Y-144930D02*
Y-143346D01*
X222198D01*
Y-144930D01*
X220615D01*
X234864D02*
X228531D01*
X234864Y-138597D01*
Y-137013D01*
X233281Y-135430D01*
X230114D01*
X228531Y-137013D01*
X244364Y-144930D02*
X238031D01*
X244364Y-138597D01*
Y-137013D01*
X242780Y-135430D01*
X239614D01*
X238031Y-137013D01*
X247530Y-144930D02*
Y-138597D01*
X249114D01*
X250697Y-140180D01*
Y-144930D01*
Y-140180D01*
X252280Y-138597D01*
X253863Y-140180D01*
Y-144930D01*
X257030D02*
X260196D01*
X258613D01*
Y-138597D01*
X257030D01*
X264946Y-144930D02*
X268113D01*
X266529D01*
Y-135430D01*
X264946D01*
X272862Y-144930D02*
X276029Y-141763D01*
Y-138597D01*
X272862Y-135430D01*
X119286Y-160770D02*
X120870Y-159187D01*
X124036D01*
X125619Y-160770D01*
Y-167103D01*
X124036Y-168686D01*
X120870D01*
X119286Y-167103D01*
Y-160770D01*
X128786Y-168686D02*
Y-167103D01*
X130369D01*
Y-168686D01*
X128786D01*
X136702Y-160770D02*
X138286Y-159187D01*
X141452D01*
X143035Y-160770D01*
Y-162353D01*
X141452Y-163936D01*
X139869D01*
X141452D01*
X143035Y-165520D01*
Y-167103D01*
X141452Y-168686D01*
X138286D01*
X136702Y-167103D01*
X146202Y-160770D02*
X147785Y-159187D01*
X150952D01*
X152535Y-160770D01*
Y-167103D01*
X150952Y-168686D01*
X147785D01*
X146202Y-167103D01*
Y-160770D01*
X162034Y-159187D02*
X155701D01*
Y-163936D01*
X158868Y-162353D01*
X160451D01*
X162034Y-163936D01*
Y-167103D01*
X160451Y-168686D01*
X157285D01*
X155701Y-167103D01*
X165201Y-168686D02*
Y-162353D01*
X166784D01*
X168367Y-163936D01*
Y-168686D01*
Y-163936D01*
X169951Y-162353D01*
X171534Y-163936D01*
Y-168686D01*
X174700D02*
Y-162353D01*
X176284D01*
X177867Y-163936D01*
Y-168686D01*
Y-163936D01*
X179450Y-162353D01*
X181033Y-163936D01*
Y-168686D01*
X196866D02*
X193699Y-165520D01*
Y-162353D01*
X196866Y-159187D01*
X201616Y-168686D02*
X204782D01*
X203199D01*
Y-159187D01*
X201616Y-160770D01*
X215865Y-168686D02*
X209532D01*
X215865Y-162353D01*
Y-160770D01*
X214282Y-159187D01*
X211115D01*
X209532Y-160770D01*
X219032Y-168686D02*
Y-167103D01*
X220615D01*
Y-168686D01*
X219032D01*
X226948Y-160770D02*
X228531Y-159187D01*
X231698D01*
X233281Y-160770D01*
Y-167103D01*
X231698Y-168686D01*
X228531D01*
X226948Y-167103D01*
Y-160770D01*
X236448D02*
X238031Y-159187D01*
X241197D01*
X242780Y-160770D01*
Y-167103D01*
X241197Y-168686D01*
X238031D01*
X236448Y-167103D01*
Y-160770D01*
X245947Y-168686D02*
Y-162353D01*
X247530D01*
X249114Y-163936D01*
Y-168686D01*
Y-163936D01*
X250697Y-162353D01*
X252280Y-163936D01*
Y-168686D01*
X255447D02*
X258613D01*
X257030D01*
Y-162353D01*
X255447D01*
X263363Y-168686D02*
X266529D01*
X264946D01*
Y-159187D01*
X263363D01*
X271279Y-168686D02*
X274446Y-165520D01*
Y-162353D01*
X271279Y-159187D01*
X5709Y-192443D02*
X8875D01*
X7292D01*
Y-182943D01*
X5709Y-184526D01*
X13625Y-190860D02*
X15208Y-192443D01*
X18375D01*
X19958Y-190860D01*
Y-184526D01*
X18375Y-182943D01*
X15208D01*
X13625Y-184526D01*
Y-186110D01*
X15208Y-187693D01*
X19958D01*
X23125Y-190860D02*
X24708Y-192443D01*
X27875D01*
X29458Y-190860D01*
Y-184526D01*
X27875Y-182943D01*
X24708D01*
X23125Y-184526D01*
Y-186110D01*
X24708Y-187693D01*
X29458D01*
X42124Y-182943D02*
X48457D01*
X45290D01*
Y-192443D01*
X53207D02*
X56373D01*
X57957Y-190860D01*
Y-187693D01*
X56373Y-186110D01*
X53207D01*
X51623Y-187693D01*
Y-190860D01*
X53207Y-192443D01*
X62706Y-184526D02*
Y-186110D01*
X61123D01*
X64289D01*
X62706D01*
Y-190860D01*
X64289Y-192443D01*
X70623Y-186110D02*
X73789D01*
X75372Y-187693D01*
Y-192443D01*
X70623D01*
X69039Y-190860D01*
X70623Y-189276D01*
X75372D01*
X78539Y-192443D02*
X81705D01*
X80122D01*
Y-182943D01*
X78539D01*
X12042Y-97416D02*
X5709D01*
X12042Y-91083D01*
Y-89500D01*
X10459Y-87917D01*
X7292D01*
X5709Y-89500D01*
Y-113257D02*
X7292Y-111673D01*
X10459D01*
X12042Y-113257D01*
Y-114840D01*
X10459Y-116423D01*
X8875D01*
X10459D01*
X12042Y-118007D01*
Y-119590D01*
X10459Y-121173D01*
X7292D01*
X5709Y-119590D01*
X10459Y-144930D02*
Y-135430D01*
X5709Y-140180D01*
X12042D01*
X5709Y-168686D02*
X8875D01*
X7292D01*
Y-159187D01*
X5709Y-160770D01*
X13625Y-167103D02*
X15208Y-168686D01*
X18375D01*
X19958Y-167103D01*
Y-160770D01*
X18375Y-159187D01*
X15208D01*
X13625Y-160770D01*
Y-162353D01*
X15208Y-163936D01*
X19958D01*
X23125Y-160770D02*
X24708Y-159187D01*
X27875D01*
X29458Y-160770D01*
Y-167103D01*
X27875Y-168686D01*
X24708D01*
X23125Y-167103D01*
Y-160770D01*
X247077Y-231895D02*
X253410D01*
X247077Y-228729D02*
X253410D01*
X266076Y-235062D02*
Y-225562D01*
X270826D01*
X272409Y-227146D01*
Y-230312D01*
X270826Y-231895D01*
X266076D01*
X269243D02*
X272409Y-235062D01*
X277159D02*
X280326D01*
X281909Y-233479D01*
Y-230312D01*
X280326Y-228729D01*
X277159D01*
X275576Y-230312D01*
Y-233479D01*
X277159Y-235062D01*
X285075Y-228729D02*
Y-233479D01*
X286659Y-235062D01*
X291408D01*
Y-228729D01*
X296158Y-227146D02*
Y-228729D01*
X294575D01*
X297742D01*
X296158D01*
Y-233479D01*
X297742Y-235062D01*
X311991D02*
Y-225562D01*
X316741D01*
X318324Y-227146D01*
Y-230312D01*
X316741Y-231895D01*
X311991D01*
X323074Y-228729D02*
X326240D01*
X327823Y-230312D01*
Y-235062D01*
X323074D01*
X321490Y-233479D01*
X323074Y-231895D01*
X327823D01*
X332573Y-227146D02*
Y-228729D01*
X330990D01*
X334156D01*
X332573D01*
Y-233479D01*
X334156Y-235062D01*
X338906Y-225562D02*
Y-235062D01*
Y-230312D01*
X340489Y-228729D01*
X343656D01*
X345239Y-230312D01*
Y-235062D01*
X357905Y-225562D02*
Y-235062D01*
X364238D01*
X372155D02*
X368988D01*
X367405Y-233479D01*
Y-230312D01*
X368988Y-228729D01*
X372155D01*
X373738Y-230312D01*
Y-231895D01*
X367405D01*
X376904Y-235062D02*
Y-228729D01*
X381654D01*
X383237Y-230312D01*
Y-235062D01*
X389570Y-238228D02*
X391154D01*
X392737Y-236645D01*
Y-228729D01*
X387987D01*
X386404Y-230312D01*
Y-233479D01*
X387987Y-235062D01*
X392737D01*
X397487Y-227146D02*
Y-228729D01*
X395904D01*
X399070D01*
X397487D01*
Y-233479D01*
X399070Y-235062D01*
X403820Y-225562D02*
Y-235062D01*
Y-230312D01*
X405403Y-228729D01*
X408569D01*
X410153Y-230312D01*
Y-235062D01*
X422819Y-230312D02*
X429152D01*
X425985Y-227146D02*
Y-233479D01*
X441818Y-225562D02*
X448151D01*
X444985D01*
Y-235062D01*
X452901D02*
X456067D01*
X457650Y-233479D01*
Y-230312D01*
X456067Y-228729D01*
X452901D01*
X451317Y-230312D01*
Y-233479D01*
X452901Y-235062D01*
X462400D02*
X465567D01*
X467150Y-233479D01*
Y-230312D01*
X465567Y-228729D01*
X462400D01*
X460817Y-230312D01*
Y-233479D01*
X462400Y-235062D01*
X470317D02*
X473483D01*
X471900D01*
Y-225562D01*
X470317D01*
X494066Y-227146D02*
X492482Y-225562D01*
X489316D01*
X487733Y-227146D01*
Y-228729D01*
X489316Y-230312D01*
X492482D01*
X494066Y-231895D01*
Y-233479D01*
X492482Y-235062D01*
X489316D01*
X487733Y-233479D01*
X497232Y-235062D02*
X500398D01*
X498815D01*
Y-228729D01*
X497232D01*
X505148D02*
X511481D01*
X505148Y-235062D01*
X511481D01*
X519398D02*
X516231D01*
X514648Y-233479D01*
Y-230312D01*
X516231Y-228729D01*
X519398D01*
X520981Y-230312D01*
Y-231895D01*
X514648D01*
X533647D02*
X539980D01*
X533647Y-228729D02*
X539980D01*
X558979Y-227146D02*
X557396Y-225562D01*
X554229D01*
X552646Y-227146D01*
Y-228729D01*
X554229Y-230312D01*
X557396D01*
X558979Y-231895D01*
Y-233479D01*
X557396Y-235062D01*
X554229D01*
X552646Y-233479D01*
X562146Y-235062D02*
X565312D01*
X563729D01*
Y-225562D01*
X562146D01*
X571645Y-235062D02*
X574812D01*
X576395Y-233479D01*
Y-230312D01*
X574812Y-228729D01*
X571645D01*
X570062Y-230312D01*
Y-233479D01*
X571645Y-235062D01*
X581145Y-227146D02*
Y-228729D01*
X579561D01*
X582728D01*
X581145D01*
Y-233479D01*
X582728Y-235062D01*
X596977D02*
X600144D01*
X598560D01*
Y-225562D01*
X596977D01*
X609643Y-235062D02*
X606477D01*
X604894Y-233479D01*
Y-230312D01*
X606477Y-228729D01*
X609643D01*
X611227Y-230312D01*
Y-231895D01*
X604894D01*
X614393Y-235062D02*
Y-228729D01*
X619143D01*
X620726Y-230312D01*
Y-235062D01*
X627059Y-238228D02*
X628642D01*
X630226Y-236645D01*
Y-228729D01*
X625476D01*
X623893Y-230312D01*
Y-233479D01*
X625476Y-235062D01*
X630226D01*
X634976Y-227146D02*
Y-228729D01*
X633392D01*
X636559D01*
X634976D01*
Y-233479D01*
X636559Y-235062D01*
X641309Y-225562D02*
Y-235062D01*
Y-230312D01*
X642892Y-228729D01*
X646058D01*
X647642Y-230312D01*
Y-235062D01*
X661891Y-228729D02*
X665057D01*
X666641Y-230312D01*
Y-235062D01*
X661891D01*
X660308Y-233479D01*
X661891Y-231895D01*
X666641D01*
X669807Y-235062D02*
X674557D01*
X676140Y-233479D01*
X674557Y-231895D01*
X671390D01*
X669807Y-230312D01*
X671390Y-228729D01*
X676140D01*
X695139Y-225562D02*
Y-235062D01*
X690389D01*
X688806Y-233479D01*
Y-230312D01*
X690389Y-228729D01*
X695139D01*
X703056Y-235062D02*
X699889D01*
X698306Y-233479D01*
Y-230312D01*
X699889Y-228729D01*
X703056D01*
X704639Y-230312D01*
Y-231895D01*
X698306D01*
X709389Y-235062D02*
Y-227146D01*
Y-230312D01*
X707805D01*
X710972D01*
X709389D01*
Y-227146D01*
X710972Y-225562D01*
X715722Y-235062D02*
X718888D01*
X717305D01*
Y-228729D01*
X715722D01*
X723638Y-235062D02*
Y-228729D01*
X728388D01*
X729971Y-230312D01*
Y-235062D01*
X737887D02*
X734721D01*
X733138Y-233479D01*
Y-230312D01*
X734721Y-228729D01*
X737887D01*
X739471Y-230312D01*
Y-231895D01*
X733138D01*
X748970Y-225562D02*
Y-235062D01*
X744220D01*
X742637Y-233479D01*
Y-230312D01*
X744220Y-228729D01*
X748970D01*
X761636Y-235062D02*
X764803D01*
X763219D01*
Y-228729D01*
X761636D01*
X769552Y-235062D02*
Y-228729D01*
X774302D01*
X775885Y-230312D01*
Y-235062D01*
X790135Y-227146D02*
Y-228729D01*
X788551D01*
X791718D01*
X790135D01*
Y-233479D01*
X791718Y-235062D01*
X796468Y-225562D02*
Y-235062D01*
Y-230312D01*
X798051Y-228729D01*
X801218D01*
X802801Y-230312D01*
Y-235062D01*
X810717D02*
X807551D01*
X805967Y-233479D01*
Y-230312D01*
X807551Y-228729D01*
X810717D01*
X812300Y-230312D01*
Y-231895D01*
X805967D01*
X824966Y-235062D02*
Y-225562D01*
X829716D01*
X831300Y-227146D01*
Y-230312D01*
X829716Y-231895D01*
X824966D01*
X840799Y-227146D02*
X839216Y-225562D01*
X836049D01*
X834466Y-227146D01*
Y-233479D01*
X836049Y-235062D01*
X839216D01*
X840799Y-233479D01*
X843966Y-225562D02*
Y-235062D01*
X848715D01*
X850299Y-233479D01*
Y-231895D01*
X848715Y-230312D01*
X843966D01*
X848715D01*
X850299Y-228729D01*
Y-227146D01*
X848715Y-225562D01*
X843966D01*
X862965Y-235062D02*
X866131D01*
X864548D01*
Y-225562D01*
X862965D01*
X872464Y-228729D02*
X875631D01*
X877214Y-230312D01*
Y-235062D01*
X872464D01*
X870881Y-233479D01*
X872464Y-231895D01*
X877214D01*
X880380Y-228729D02*
Y-233479D01*
X881964Y-235062D01*
X886713D01*
Y-236645D01*
X885130Y-238228D01*
X883547D01*
X886713Y-235062D02*
Y-228729D01*
X891463Y-235062D02*
X894630D01*
X896213Y-233479D01*
Y-230312D01*
X894630Y-228729D01*
X891463D01*
X889880Y-230312D01*
Y-233479D01*
X891463Y-235062D01*
X899380Y-228729D02*
Y-233479D01*
X900963Y-235062D01*
X905713D01*
Y-228729D01*
X910462Y-227146D02*
Y-228729D01*
X908879D01*
X912046D01*
X910462D01*
Y-233479D01*
X912046Y-235062D01*
X247077Y-214149D02*
X253410D01*
X247077Y-210983D02*
X253410D01*
X272409Y-209400D02*
X270826Y-207816D01*
X267660D01*
X266076Y-209400D01*
Y-215732D01*
X267660Y-217316D01*
X270826D01*
X272409Y-215732D01*
X277159Y-210983D02*
X280326D01*
X281909Y-212566D01*
Y-217316D01*
X277159D01*
X275576Y-215732D01*
X277159Y-214149D01*
X281909D01*
X285075Y-217316D02*
X288242D01*
X286659D01*
Y-207816D01*
X285075D01*
X299325Y-210983D02*
X294575D01*
X292992Y-212566D01*
Y-215732D01*
X294575Y-217316D01*
X299325D01*
X302491Y-210983D02*
Y-215732D01*
X304074Y-217316D01*
X308824D01*
Y-210983D01*
X311991Y-217316D02*
X315157D01*
X313574D01*
Y-207816D01*
X311991D01*
X321490Y-210983D02*
X324657D01*
X326240Y-212566D01*
Y-217316D01*
X321490D01*
X319907Y-215732D01*
X321490Y-214149D01*
X326240D01*
X330990Y-209400D02*
Y-210983D01*
X329407D01*
X332573D01*
X330990D01*
Y-215732D01*
X332573Y-217316D01*
X342073D02*
X338906D01*
X337323Y-215732D01*
Y-212566D01*
X338906Y-210983D01*
X342073D01*
X343656Y-212566D01*
Y-214149D01*
X337323D01*
X353156Y-207816D02*
Y-217316D01*
X348406D01*
X346823Y-215732D01*
Y-212566D01*
X348406Y-210983D01*
X353156D01*
X367405Y-217316D02*
Y-209400D01*
Y-212566D01*
X365822D01*
X368988D01*
X367405D01*
Y-209400D01*
X368988Y-207816D01*
X373738Y-210983D02*
Y-217316D01*
Y-214149D01*
X375321Y-212566D01*
X376904Y-210983D01*
X378488D01*
X384821Y-217316D02*
X387987D01*
X389570Y-215732D01*
Y-212566D01*
X387987Y-210983D01*
X384821D01*
X383237Y-212566D01*
Y-215732D01*
X384821Y-217316D01*
X392737D02*
Y-210983D01*
X394320D01*
X395904Y-212566D01*
Y-217316D01*
Y-212566D01*
X397487Y-210983D01*
X399070Y-212566D01*
Y-217316D01*
X413319Y-209400D02*
Y-210983D01*
X411736D01*
X414903D01*
X413319D01*
Y-215732D01*
X414903Y-217316D01*
X421236D02*
X424402D01*
X425985Y-215732D01*
Y-212566D01*
X424402Y-210983D01*
X421236D01*
X419652Y-212566D01*
Y-215732D01*
X421236Y-217316D01*
X430735D02*
X433902D01*
X435485Y-215732D01*
Y-212566D01*
X433902Y-210983D01*
X430735D01*
X429152Y-212566D01*
Y-215732D01*
X430735Y-217316D01*
X438651D02*
X441818D01*
X440235D01*
Y-207816D01*
X438651D01*
X456067Y-217316D02*
X460817D01*
X462400Y-215732D01*
X460817Y-214149D01*
X457650D01*
X456067Y-212566D01*
X457650Y-210983D01*
X462400D01*
X467150Y-209400D02*
Y-210983D01*
X465567D01*
X468733D01*
X467150D01*
Y-215732D01*
X468733Y-217316D01*
X475066Y-210983D02*
X478233D01*
X479816Y-212566D01*
Y-217316D01*
X475066D01*
X473483Y-215732D01*
X475066Y-214149D01*
X479816D01*
X482983Y-210983D02*
Y-217316D01*
Y-214149D01*
X484566Y-212566D01*
X486149Y-210983D01*
X487733D01*
X494066Y-209400D02*
Y-210983D01*
X492482D01*
X495649D01*
X494066D01*
Y-215732D01*
X495649Y-217316D01*
X516231Y-210983D02*
X511481D01*
X509898Y-212566D01*
Y-215732D01*
X511481Y-217316D01*
X516231D01*
X524147D02*
X520981D01*
X519398Y-215732D01*
Y-212566D01*
X520981Y-210983D01*
X524147D01*
X525731Y-212566D01*
Y-214149D01*
X519398D01*
X528897Y-217316D02*
Y-210983D01*
X533647D01*
X535230Y-212566D01*
Y-217316D01*
X539980Y-209400D02*
Y-210983D01*
X538397D01*
X541563D01*
X539980D01*
Y-215732D01*
X541563Y-217316D01*
X546313Y-210983D02*
Y-217316D01*
Y-214149D01*
X547896Y-212566D01*
X549479Y-210983D01*
X551063D01*
X560562Y-217316D02*
X557396D01*
X555813Y-215732D01*
Y-212566D01*
X557396Y-210983D01*
X560562D01*
X562146Y-212566D01*
Y-214149D01*
X555813D01*
X574812Y-220482D02*
Y-210983D01*
X579561D01*
X581145Y-212566D01*
Y-215732D01*
X579561Y-217316D01*
X574812D01*
X585895D02*
X589061D01*
X590644Y-215732D01*
Y-212566D01*
X589061Y-210983D01*
X585895D01*
X584311Y-212566D01*
Y-215732D01*
X585895Y-217316D01*
X593811D02*
X598560D01*
X600144Y-215732D01*
X598560Y-214149D01*
X595394D01*
X593811Y-212566D01*
X595394Y-210983D01*
X600144D01*
X603310Y-217316D02*
X606477D01*
X604894D01*
Y-210983D01*
X603310D01*
X612810Y-209400D02*
Y-210983D01*
X611227D01*
X614393D01*
X612810D01*
Y-215732D01*
X614393Y-217316D01*
X619143D02*
X622309D01*
X620726D01*
Y-210983D01*
X619143D01*
X628642Y-217316D02*
X631809D01*
X633392Y-215732D01*
Y-212566D01*
X631809Y-210983D01*
X628642D01*
X627059Y-212566D01*
Y-215732D01*
X628642Y-217316D01*
X636559D02*
Y-210983D01*
X641309D01*
X642892Y-212566D01*
Y-217316D01*
X657141Y-209400D02*
Y-210983D01*
X655558D01*
X658724D01*
X657141D01*
Y-215732D01*
X658724Y-217316D01*
X665057D02*
X668224D01*
X669807Y-215732D01*
Y-212566D01*
X668224Y-210983D01*
X665057D01*
X663474Y-212566D01*
Y-215732D01*
X665057Y-217316D01*
X684056Y-209400D02*
Y-210983D01*
X682473D01*
X685640D01*
X684056D01*
Y-215732D01*
X685640Y-217316D01*
X691973D02*
X695139D01*
X696722Y-215732D01*
Y-212566D01*
X695139Y-210983D01*
X691973D01*
X690389Y-212566D01*
Y-215732D01*
X691973Y-217316D01*
X701472D02*
X704639D01*
X706222Y-215732D01*
Y-212566D01*
X704639Y-210983D01*
X701472D01*
X699889Y-212566D01*
Y-215732D01*
X701472Y-217316D01*
X709389D02*
X712555D01*
X710972D01*
Y-207816D01*
X709389D01*
X731554Y-217316D02*
X728388D01*
X726804Y-215732D01*
Y-212566D01*
X728388Y-210983D01*
X731554D01*
X733138Y-212566D01*
Y-214149D01*
X726804D01*
X736304Y-217316D02*
Y-210983D01*
X741054D01*
X742637Y-212566D01*
Y-217316D01*
X752137Y-207816D02*
Y-217316D01*
X747387D01*
X745804Y-215732D01*
Y-212566D01*
X747387Y-210983D01*
X752137D01*
X771136D02*
X766386D01*
X764803Y-212566D01*
Y-215732D01*
X766386Y-217316D01*
X771136D01*
X779052D02*
X775885D01*
X774302Y-215732D01*
Y-212566D01*
X775885Y-210983D01*
X779052D01*
X780635Y-212566D01*
Y-214149D01*
X774302D01*
X783802Y-217316D02*
Y-210983D01*
X788551D01*
X790135Y-212566D01*
Y-217316D01*
X794884Y-209400D02*
Y-210983D01*
X793301D01*
X796468D01*
X794884D01*
Y-215732D01*
X796468Y-217316D01*
X801218Y-210983D02*
Y-217316D01*
Y-214149D01*
X802801Y-212566D01*
X804384Y-210983D01*
X805967D01*
X815467Y-217316D02*
X812300D01*
X810717Y-215732D01*
Y-212566D01*
X812300Y-210983D01*
X815467D01*
X817050Y-212566D01*
Y-214149D01*
X810717D01*
X829716Y-220482D02*
Y-210983D01*
X834466D01*
X836049Y-212566D01*
Y-215732D01*
X834466Y-217316D01*
X829716D01*
X840799D02*
X843966D01*
X845549Y-215732D01*
Y-212566D01*
X843966Y-210983D01*
X840799D01*
X839216Y-212566D01*
Y-215732D01*
X840799Y-217316D01*
X848715D02*
X853465D01*
X855048Y-215732D01*
X853465Y-214149D01*
X850299D01*
X848715Y-212566D01*
X850299Y-210983D01*
X855048D01*
X858215Y-217316D02*
X861381D01*
X859798D01*
Y-210983D01*
X858215D01*
X867714Y-209400D02*
Y-210983D01*
X866131D01*
X869298D01*
X867714D01*
Y-215732D01*
X869298Y-217316D01*
X874047D02*
X877214D01*
X875631D01*
Y-210983D01*
X874047D01*
X883547Y-217316D02*
X886713D01*
X888297Y-215732D01*
Y-212566D01*
X886713Y-210983D01*
X883547D01*
X881964Y-212566D01*
Y-215732D01*
X883547Y-217316D01*
X891463D02*
Y-210983D01*
X896213D01*
X897796Y-212566D01*
Y-217316D01*
X900963D02*
Y-215732D01*
X902546D01*
Y-217316D01*
X900963D01*
X-306832Y-123195D02*
Y-138430D01*
X-299214D01*
X-296675Y-135891D01*
Y-125734D01*
X-299214Y-123195D01*
X-306832D01*
X-291597Y-128273D02*
Y-138430D01*
Y-133352D01*
X-289058Y-130813D01*
X-286519Y-128273D01*
X-283979D01*
X-276362Y-138430D02*
X-271283D01*
X-273823D01*
Y-128273D01*
X-276362D01*
X-263666Y-138430D02*
X-258588D01*
X-261127D01*
Y-123195D01*
X-263666D01*
X-250970Y-138430D02*
X-245892D01*
X-248431D01*
Y-123195D01*
X-250970D01*
X-223039D02*
Y-138430D01*
X-215422D01*
X-212882Y-135891D01*
Y-125734D01*
X-215422Y-123195D01*
X-223039D01*
X-207804Y-128273D02*
Y-138430D01*
Y-133352D01*
X-205265Y-130813D01*
X-202726Y-128273D01*
X-200187D01*
X-190030D02*
X-184951D01*
X-182412Y-130813D01*
Y-138430D01*
X-190030D01*
X-192569Y-135891D01*
X-190030Y-133352D01*
X-182412D01*
X-177334Y-128273D02*
Y-135891D01*
X-174795Y-138430D01*
X-172256Y-135891D01*
X-169716Y-138430D01*
X-167177Y-135891D01*
Y-128273D01*
X-162099Y-138430D02*
X-157021D01*
X-159560D01*
Y-128273D01*
X-162099D01*
X-149403Y-138430D02*
Y-128273D01*
X-141785D01*
X-139246Y-130813D01*
Y-138430D01*
X-129089Y-143508D02*
X-126550D01*
X-124011Y-140969D01*
Y-128273D01*
X-131629D01*
X-134168Y-130813D01*
Y-135891D01*
X-131629Y-138430D01*
X-124011D01*
D36*
X-91724Y-80787D02*
X721789D01*
X-91724Y-175813D02*
X721789D01*
X-91724Y-199570D02*
X721789D01*
Y-57030D01*
X-91724D02*
X721789D01*
X-91724Y-199570D02*
Y-57030D01*
X530788Y-199570D02*
Y-57030D01*
X411511Y-199570D02*
Y-57030D01*
X328332Y-199570D02*
Y-57030D01*
X112159Y-199570D02*
Y-57030D01*
X-1418Y-199570D02*
Y-57030D01*
D128*
X-72717Y-140970D02*
G03*
X-72717Y-140970I-3959J0D01*
G01*
X267233Y88000D02*
G03*
X267233Y88000I-4233J0D01*
G01*
X247233D02*
G03*
X247233Y88000I-4233J0D01*
G01*
X292233D02*
G03*
X292233Y88000I-4233J0D01*
G01*
X222233D02*
G03*
X222233Y88000I-4233J0D01*
G01*
X-76676Y-97416D02*
X-72717Y-89498D01*
X-80636D02*
X-72717D01*
X-80636D02*
X-76676Y-97416D01*
X-80636Y-121173D02*
X-72717D01*
Y-113254D01*
X-80636D02*
X-72717D01*
X-80636Y-121173D02*
Y-113254D01*
X-78656Y-166706D02*
X-76676Y-168686D01*
X-80636Y-166706D02*
X-78656D01*
X-80636D02*
X-78656Y-164727D01*
X-80636Y-162747D02*
X-78656Y-164727D01*
X-80636Y-162747D02*
X-78656D01*
X-76676Y-160767D01*
X-74696Y-162747D01*
X-72717D01*
X-74696Y-164727D02*
X-72717Y-162747D01*
X-74696Y-164727D02*
X-72717Y-166706D01*
X-74696D02*
X-72717D01*
X-76676Y-168686D02*
X-74696Y-166706D01*
X474641Y36491D02*
X476758Y34375D01*
X472525Y36491D02*
X474641D01*
X472525D02*
X474641Y38608D01*
X472525Y40725D02*
X474641Y38608D01*
X472525Y40725D02*
X474641D01*
X476758Y42841D01*
X478875Y40725D01*
X480991D01*
X478875Y38608D02*
X480991Y40725D01*
X478875Y38608D02*
X480991Y36491D01*
X478875D02*
X480991D01*
X476758Y34375D02*
X478875Y36491D01*
X89831Y46143D02*
X91948Y44027D01*
X87715Y46143D02*
X89831D01*
X87715D02*
X89831Y48260D01*
X87715Y50377D02*
X89831Y48260D01*
X87715Y50377D02*
X89831D01*
X91948Y52493D01*
X94065Y50377D01*
X96181D01*
X94065Y48260D02*
X96181Y50377D01*
X94065Y48260D02*
X96181Y46143D01*
X94065D02*
X96181D01*
X91948Y44027D02*
X94065Y46143D01*
X79925Y4741D02*
X82042Y2625D01*
X77809Y4741D02*
X79925D01*
X77809D02*
X79925Y6858D01*
X77809Y8975D02*
X79925Y6858D01*
X77809Y8975D02*
X79925D01*
X82042Y11091D01*
X84159Y8975D01*
X86275D01*
X84159Y6858D02*
X86275Y8975D01*
X84159Y6858D02*
X86275Y4741D01*
X84159D02*
X86275D01*
X82042Y2625D02*
X84159Y4741D01*
X158919Y7535D02*
X161036Y5419D01*
X156803Y7535D02*
X158919D01*
X156803D02*
X158919Y9652D01*
X156803Y11769D02*
X158919Y9652D01*
X156803Y11769D02*
X158919D01*
X161036Y13885D01*
X163153Y11769D01*
X165269D01*
X163153Y9652D02*
X165269Y11769D01*
X163153Y9652D02*
X165269Y7535D01*
X163153D02*
X165269D01*
X161036Y5419D02*
X163153Y7535D01*
X268901Y142663D02*
X271018Y140547D01*
X266785Y142663D02*
X268901D01*
X266785D02*
X268901Y144780D01*
X266785Y146897D02*
X268901Y144780D01*
X266785Y146897D02*
X268901D01*
X271018Y149013D01*
X273135Y146897D01*
X275251D01*
X273135Y144780D02*
X275251Y146897D01*
X273135Y144780D02*
X275251Y142663D01*
X273135D02*
X275251D01*
X271018Y140547D02*
X273135Y142663D01*
X168825Y94657D02*
X170942Y92541D01*
X166709Y94657D02*
X168825D01*
X166709D02*
X168825Y96774D01*
X166709Y98891D02*
X168825Y96774D01*
X166709Y98891D02*
X168825D01*
X170942Y101007D01*
X173059Y98891D01*
X175175D01*
X173059Y96774D02*
X175175Y98891D01*
X173059Y96774D02*
X175175Y94657D01*
X173059D02*
X175175D01*
X170942Y92541D02*
X173059Y94657D01*
X164253Y88815D02*
X166370Y86699D01*
X162137Y88815D02*
X164253D01*
X162137D02*
X164253Y90932D01*
X162137Y93049D02*
X164253Y90932D01*
X162137Y93049D02*
X164253D01*
X166370Y95165D01*
X168487Y93049D01*
X170603D01*
X168487Y90932D02*
X170603Y93049D01*
X168487Y90932D02*
X170603Y88815D01*
X168487D02*
X170603D01*
X166370Y86699D02*
X168487Y88815D01*
X173905Y89069D02*
X176022Y86953D01*
X171789Y89069D02*
X173905D01*
X171789D02*
X173905Y91186D01*
X171789Y93303D02*
X173905Y91186D01*
X171789Y93303D02*
X173905D01*
X176022Y95419D01*
X178139Y93303D01*
X180255D01*
X178139Y91186D02*
X180255Y93303D01*
X178139Y91186D02*
X180255Y89069D01*
X178139D02*
X180255D01*
X176022Y86953D02*
X178139Y89069D01*
X174667Y100499D02*
X176784Y98383D01*
X172551Y100499D02*
X174667D01*
X172551D02*
X174667Y102616D01*
X172551Y104733D02*
X174667Y102616D01*
X172551Y104733D02*
X174667D01*
X176784Y106849D01*
X178901Y104733D01*
X181017D01*
X178901Y102616D02*
X181017Y104733D01*
X178901Y102616D02*
X181017Y100499D01*
X178901D02*
X181017D01*
X176784Y98383D02*
X178901Y100499D01*
X185589D02*
X187706Y98383D01*
X183473Y100499D02*
X185589D01*
X183473D02*
X185589Y102616D01*
X183473Y104733D02*
X185589Y102616D01*
X183473Y104733D02*
X185589D01*
X187706Y106849D01*
X189823Y104733D01*
X191939D01*
X189823Y102616D02*
X191939Y104733D01*
X189823Y102616D02*
X191939Y100499D01*
X189823D02*
X191939D01*
X187706Y98383D02*
X189823Y100499D01*
X196257D02*
X198374Y98383D01*
X194141Y100499D02*
X196257D01*
X194141D02*
X196257Y102616D01*
X194141Y104733D02*
X196257Y102616D01*
X194141Y104733D02*
X196257D01*
X198374Y106849D01*
X200491Y104733D01*
X202607D01*
X200491Y102616D02*
X202607Y104733D01*
X200491Y102616D02*
X202607Y100499D01*
X200491D02*
X202607D01*
X198374Y98383D02*
X200491Y100499D01*
X348657Y134789D02*
X350774Y132673D01*
X346541Y134789D02*
X348657D01*
X346541D02*
X348657Y136906D01*
X346541Y139023D02*
X348657Y136906D01*
X346541Y139023D02*
X348657D01*
X350774Y141139D01*
X352891Y139023D01*
X355007D01*
X352891Y136906D02*
X355007Y139023D01*
X352891Y136906D02*
X355007Y134789D01*
X352891D02*
X355007D01*
X350774Y132673D02*
X352891Y134789D01*
X412919Y86783D02*
X415036Y84667D01*
X410803Y86783D02*
X412919D01*
X410803D02*
X412919Y88900D01*
X410803Y91017D02*
X412919Y88900D01*
X410803Y91017D02*
X412919D01*
X415036Y93133D01*
X417153Y91017D01*
X419269D01*
X417153Y88900D02*
X419269Y91017D01*
X417153Y88900D02*
X419269Y86783D01*
X417153D02*
X419269D01*
X415036Y84667D02*
X417153Y86783D01*
X408855Y91355D02*
X410972Y89239D01*
X406739Y91355D02*
X408855D01*
X406739D02*
X408855Y93472D01*
X406739Y95589D02*
X408855Y93472D01*
X406739Y95589D02*
X408855D01*
X410972Y97705D01*
X413089Y95589D01*
X415205D01*
X413089Y93472D02*
X415205Y95589D01*
X413089Y93472D02*
X415205Y91355D01*
X413089D02*
X415205D01*
X410972Y89239D02*
X413089Y91355D01*
X463465Y45127D02*
X465582Y43011D01*
X461349Y45127D02*
X463465D01*
X461349D02*
X463465Y47244D01*
X461349Y49361D02*
X463465Y47244D01*
X461349Y49361D02*
X463465D01*
X465582Y51477D01*
X467699Y49361D01*
X469815D01*
X467699Y47244D02*
X469815Y49361D01*
X467699Y47244D02*
X469815Y45127D01*
X467699D02*
X469815D01*
X465582Y43011D02*
X467699Y45127D01*
X305985Y74337D02*
X308102Y72221D01*
X303869Y74337D02*
X305985D01*
X303869D02*
X305985Y76454D01*
X303869Y78571D02*
X305985Y76454D01*
X303869Y78571D02*
X305985D01*
X308102Y80687D01*
X310219Y78571D01*
X312335D01*
X310219Y76454D02*
X312335Y78571D01*
X310219Y76454D02*
X312335Y74337D01*
X310219D02*
X312335D01*
X308102Y72221D02*
X310219Y74337D01*
X196257Y87291D02*
X198374Y85175D01*
X194141Y87291D02*
X196257D01*
X194141D02*
X196257Y89408D01*
X194141Y91525D02*
X196257Y89408D01*
X194141Y91525D02*
X196257D01*
X198374Y93641D01*
X200491Y91525D01*
X202607D01*
X200491Y89408D02*
X202607Y91525D01*
X200491Y89408D02*
X202607Y87291D01*
X200491D02*
X202607D01*
X198374Y85175D02*
X200491Y87291D01*
X186097Y89069D02*
X188214Y86953D01*
X183981Y89069D02*
X186097D01*
X183981D02*
X186097Y91186D01*
X183981Y93303D02*
X186097Y91186D01*
X183981Y93303D02*
X186097D01*
X188214Y95419D01*
X190331Y93303D01*
X192447D01*
X190331Y91186D02*
X192447Y93303D01*
X190331Y91186D02*
X192447Y89069D01*
X190331D02*
X192447D01*
X188214Y86953D02*
X190331Y89069D01*
X203623Y70273D02*
X205740Y68157D01*
X201507Y70273D02*
X203623D01*
X201507D02*
X203623Y72390D01*
X201507Y74507D02*
X203623Y72390D01*
X201507Y74507D02*
X203623D01*
X205740Y76623D01*
X207857Y74507D01*
X209973D01*
X207857Y72390D02*
X209973Y74507D01*
X207857Y72390D02*
X209973Y70273D01*
X207857D02*
X209973D01*
X205740Y68157D02*
X207857Y70273D01*
X303191Y109897D02*
X305308Y107781D01*
X301075Y109897D02*
X303191D01*
X301075D02*
X303191Y112014D01*
X301075Y114131D02*
X303191Y112014D01*
X301075Y114131D02*
X303191D01*
X305308Y116247D01*
X307425Y114131D01*
X309541D01*
X307425Y112014D02*
X309541Y114131D01*
X307425Y112014D02*
X309541Y109897D01*
X307425D02*
X309541D01*
X305308Y107781D02*
X307425Y109897D01*
X248581Y51985D02*
X250698Y49869D01*
X246465Y51985D02*
X248581D01*
X246465D02*
X248581Y54102D01*
X246465Y56219D02*
X248581Y54102D01*
X246465Y56219D02*
X248581D01*
X250698Y58335D01*
X252815Y56219D01*
X254931D01*
X252815Y54102D02*
X254931Y56219D01*
X252815Y54102D02*
X254931Y51985D01*
X252815D02*
X254931D01*
X250698Y49869D02*
X252815Y51985D01*
X364405Y61383D02*
X366522Y59267D01*
X362289Y61383D02*
X364405D01*
X362289D02*
X364405Y63500D01*
X362289Y65617D02*
X364405Y63500D01*
X362289Y65617D02*
X364405D01*
X366522Y67733D01*
X368639Y65617D01*
X370755D01*
X368639Y63500D02*
X370755Y65617D01*
X368639Y63500D02*
X370755Y61383D01*
X368639D02*
X370755D01*
X366522Y59267D02*
X368639Y61383D01*
X336719Y63669D02*
X338836Y61553D01*
X334603Y63669D02*
X336719D01*
X334603D02*
X336719Y65786D01*
X334603Y67903D02*
X336719Y65786D01*
X334603Y67903D02*
X336719D01*
X338836Y70019D01*
X340953Y67903D01*
X343069D01*
X340953Y65786D02*
X343069Y67903D01*
X340953Y65786D02*
X343069Y63669D01*
X340953D02*
X343069D01*
X338836Y61553D02*
X340953Y63669D01*
X350181Y57319D02*
X352298Y55203D01*
X348065Y57319D02*
X350181D01*
X348065D02*
X350181Y59436D01*
X348065Y61553D02*
X350181Y59436D01*
X348065Y61553D02*
X350181D01*
X352298Y63669D01*
X354415Y61553D01*
X356531D01*
X354415Y59436D02*
X356531Y61553D01*
X354415Y59436D02*
X356531Y57319D01*
X354415D02*
X356531D01*
X352298Y55203D02*
X354415Y57319D01*
X343831Y61129D02*
X345948Y59013D01*
X341715Y61129D02*
X343831D01*
X341715D02*
X343831Y63246D01*
X341715Y65363D02*
X343831Y63246D01*
X341715Y65363D02*
X343831D01*
X345948Y67479D01*
X348065Y65363D01*
X350181D01*
X348065Y63246D02*
X350181Y65363D01*
X348065Y63246D02*
X350181Y61129D01*
X348065D02*
X350181D01*
X345948Y59013D02*
X348065Y61129D01*
X358055Y57319D02*
X360172Y55203D01*
X355939Y57319D02*
X358055D01*
X355939D02*
X358055Y59436D01*
X355939Y61553D02*
X358055Y59436D01*
X355939Y61553D02*
X358055D01*
X360172Y63669D01*
X362289Y61553D01*
X364405D01*
X362289Y59436D02*
X364405Y61553D01*
X362289Y59436D02*
X364405Y57319D01*
X362289D02*
X364405D01*
X360172Y55203D02*
X362289Y57319D01*
X439081Y16679D02*
X441198Y14563D01*
X436965Y16679D02*
X439081D01*
X436965D02*
X439081Y18796D01*
X436965Y20913D02*
X439081Y18796D01*
X436965Y20913D02*
X439081D01*
X441198Y23029D01*
X443315Y20913D01*
X445431D01*
X443315Y18796D02*
X445431Y20913D01*
X443315Y18796D02*
X445431Y16679D01*
X443315D02*
X445431D01*
X441198Y14563D02*
X443315Y16679D01*
X136313Y162221D02*
X138430Y160105D01*
X134197Y162221D02*
X136313D01*
X134197D02*
X136313Y164338D01*
X134197Y166455D02*
X136313Y164338D01*
X134197Y166455D02*
X136313D01*
X138430Y168571D01*
X140547Y166455D01*
X142663D01*
X140547Y164338D02*
X142663Y166455D01*
X140547Y164338D02*
X142663Y162221D01*
X140547D02*
X142663D01*
X138430Y160105D02*
X140547Y162221D01*
X128185Y170095D02*
X130302Y167979D01*
X126069Y170095D02*
X128185D01*
X126069D02*
X128185Y172212D01*
X126069Y174329D02*
X128185Y172212D01*
X126069Y174329D02*
X128185D01*
X130302Y176445D01*
X132419Y174329D01*
X134535D01*
X132419Y172212D02*
X134535Y174329D01*
X132419Y172212D02*
X134535Y170095D01*
X132419D02*
X134535D01*
X130302Y167979D02*
X132419Y170095D01*
X144695D02*
X146812Y167979D01*
X142579Y170095D02*
X144695D01*
X142579D02*
X144695Y172212D01*
X142579Y174329D02*
X144695Y172212D01*
X142579Y174329D02*
X144695D01*
X146812Y176445D01*
X148929Y174329D01*
X151045D01*
X148929Y172212D02*
X151045Y174329D01*
X148929Y172212D02*
X151045Y170095D01*
X148929D02*
X151045D01*
X146812Y167979D02*
X148929Y170095D01*
X136313D02*
X138430Y167979D01*
X134197Y170095D02*
X136313D01*
X134197D02*
X136313Y172212D01*
X134197Y174329D02*
X136313Y172212D01*
X134197Y174329D02*
X136313D01*
X138430Y176445D01*
X140547Y174329D01*
X142663D01*
X140547Y172212D02*
X142663Y174329D01*
X140547Y172212D02*
X142663Y170095D01*
X140547D02*
X142663D01*
X138430Y167979D02*
X140547Y170095D01*
X120057D02*
X122174Y167979D01*
X117941Y170095D02*
X120057D01*
X117941D02*
X120057Y172212D01*
X117941Y174329D02*
X120057Y172212D01*
X117941Y174329D02*
X120057D01*
X122174Y176445D01*
X124291Y174329D01*
X126407D01*
X124291Y172212D02*
X126407Y174329D01*
X124291Y172212D02*
X126407Y170095D01*
X124291D02*
X126407D01*
X122174Y167979D02*
X124291Y170095D01*
X205655Y162221D02*
X207772Y160105D01*
X203539Y162221D02*
X205655D01*
X203539D02*
X205655Y164338D01*
X203539Y166455D02*
X205655Y164338D01*
X203539Y166455D02*
X205655D01*
X207772Y168571D01*
X209889Y166455D01*
X212005D01*
X209889Y164338D02*
X212005Y166455D01*
X209889Y164338D02*
X212005Y162221D01*
X209889D02*
X212005D01*
X207772Y160105D02*
X209889Y162221D01*
X205655Y170095D02*
X207772Y167979D01*
X203539Y170095D02*
X205655D01*
X203539D02*
X205655Y172212D01*
X203539Y174329D02*
X205655Y172212D01*
X203539Y174329D02*
X205655D01*
X207772Y176445D01*
X209889Y174329D01*
X212005D01*
X209889Y172212D02*
X212005Y174329D01*
X209889Y172212D02*
X212005Y170095D01*
X209889D02*
X212005D01*
X207772Y167979D02*
X209889Y170095D01*
X181779D02*
X183896Y167979D01*
X179663Y170095D02*
X181779D01*
X179663D02*
X181779Y172212D01*
X179663Y174329D02*
X181779Y172212D01*
X179663Y174329D02*
X181779D01*
X183896Y176445D01*
X186013Y174329D01*
X188129D01*
X186013Y172212D02*
X188129Y174329D01*
X186013Y172212D02*
X188129Y170095D01*
X186013D02*
X188129D01*
X183896Y167979D02*
X186013Y170095D01*
X189653D02*
X191770Y167979D01*
X187537Y170095D02*
X189653D01*
X187537D02*
X189653Y172212D01*
X187537Y174329D02*
X189653Y172212D01*
X187537Y174329D02*
X189653D01*
X191770Y176445D01*
X193887Y174329D01*
X196003D01*
X193887Y172212D02*
X196003Y174329D01*
X193887Y172212D02*
X196003Y170095D01*
X193887D02*
X196003D01*
X191770Y167979D02*
X193887Y170095D01*
X197781D02*
X199898Y167979D01*
X195665Y170095D02*
X197781D01*
X195665D02*
X197781Y172212D01*
X195665Y174329D02*
X197781Y172212D01*
X195665Y174329D02*
X197781D01*
X199898Y176445D01*
X202015Y174329D01*
X204131D01*
X202015Y172212D02*
X204131Y174329D01*
X202015Y172212D02*
X204131Y170095D01*
X202015D02*
X204131D01*
X199898Y167979D02*
X202015Y170095D01*
X189653Y162221D02*
X191770Y160105D01*
X187537Y162221D02*
X189653D01*
X187537D02*
X189653Y164338D01*
X187537Y166455D02*
X189653Y164338D01*
X187537Y166455D02*
X189653D01*
X191770Y168571D01*
X193887Y166455D01*
X196003D01*
X193887Y164338D02*
X196003Y166455D01*
X193887Y164338D02*
X196003Y162221D01*
X193887D02*
X196003D01*
X191770Y160105D02*
X193887Y162221D01*
X197781D02*
X199898Y160105D01*
X195665Y162221D02*
X197781D01*
X195665D02*
X197781Y164338D01*
X195665Y166455D02*
X197781Y164338D01*
X195665Y166455D02*
X197781D01*
X199898Y168571D01*
X202015Y166455D01*
X204131D01*
X202015Y164338D02*
X204131Y166455D01*
X202015Y164338D02*
X204131Y162221D01*
X202015D02*
X204131D01*
X199898Y160105D02*
X202015Y162221D01*
X75099Y157903D02*
X77216Y155787D01*
X72983Y157903D02*
X75099D01*
X72983D02*
X75099Y160020D01*
X72983Y162137D02*
X75099Y160020D01*
X72983Y162137D02*
X75099D01*
X77216Y164253D01*
X79333Y162137D01*
X81449D01*
X79333Y160020D02*
X81449Y162137D01*
X79333Y160020D02*
X81449Y157903D01*
X79333D02*
X81449D01*
X77216Y155787D02*
X79333Y157903D01*
X75099Y165269D02*
X77216Y163153D01*
X72983Y165269D02*
X75099D01*
X72983D02*
X75099Y167386D01*
X72983Y169503D02*
X75099Y167386D01*
X72983Y169503D02*
X75099D01*
X77216Y171619D01*
X79333Y169503D01*
X81449D01*
X79333Y167386D02*
X81449Y169503D01*
X79333Y167386D02*
X81449Y165269D01*
X79333D02*
X81449D01*
X77216Y163153D02*
X79333Y165269D01*
X68495Y154601D02*
X70612Y152485D01*
X66379Y154601D02*
X68495D01*
X66379D02*
X68495Y156718D01*
X66379Y158835D02*
X68495Y156718D01*
X66379Y158835D02*
X68495D01*
X70612Y160951D01*
X72729Y158835D01*
X74845D01*
X72729Y156718D02*
X74845Y158835D01*
X72729Y156718D02*
X74845Y154601D01*
X72729D02*
X74845D01*
X70612Y152485D02*
X72729Y154601D01*
X68495Y161713D02*
X70612Y159597D01*
X66379Y161713D02*
X68495D01*
X66379D02*
X68495Y163830D01*
X66379Y165947D02*
X68495Y163830D01*
X66379Y165947D02*
X68495D01*
X70612Y168063D01*
X72729Y165947D01*
X74845D01*
X72729Y163830D02*
X74845Y165947D01*
X72729Y163830D02*
X74845Y161713D01*
X72729D02*
X74845D01*
X70612Y159597D02*
X72729Y161713D01*
X68241Y169079D02*
X70358Y166963D01*
X66125Y169079D02*
X68241D01*
X66125D02*
X68241Y171196D01*
X66125Y173313D02*
X68241Y171196D01*
X66125Y173313D02*
X68241D01*
X70358Y175429D01*
X72475Y173313D01*
X74591D01*
X72475Y171196D02*
X74591Y173313D01*
X72475Y171196D02*
X74591Y169079D01*
X72475D02*
X74591D01*
X70358Y166963D02*
X72475Y169079D01*
X136821Y134281D02*
X138938Y132165D01*
X134705Y134281D02*
X136821D01*
X134705D02*
X136821Y136398D01*
X134705Y138515D02*
X136821Y136398D01*
X134705Y138515D02*
X136821D01*
X138938Y140631D01*
X141055Y138515D01*
X143171D01*
X141055Y136398D02*
X143171Y138515D01*
X141055Y136398D02*
X143171Y134281D01*
X141055D02*
X143171D01*
X138938Y132165D02*
X141055Y134281D01*
X129455D02*
X131572Y132165D01*
X127339Y134281D02*
X129455D01*
X127339D02*
X129455Y136398D01*
X127339Y138515D02*
X129455Y136398D01*
X127339Y138515D02*
X129455D01*
X131572Y140631D01*
X133689Y138515D01*
X135805D01*
X133689Y136398D02*
X135805Y138515D01*
X133689Y136398D02*
X135805Y134281D01*
X133689D02*
X135805D01*
X131572Y132165D02*
X133689Y134281D01*
X137075Y119549D02*
X139192Y117433D01*
X134959Y119549D02*
X137075D01*
X134959D02*
X137075Y121666D01*
X134959Y123783D02*
X137075Y121666D01*
X134959Y123783D02*
X137075D01*
X139192Y125899D01*
X141309Y123783D01*
X143425D01*
X141309Y121666D02*
X143425Y123783D01*
X141309Y121666D02*
X143425Y119549D01*
X141309D02*
X143425D01*
X139192Y117433D02*
X141309Y119549D01*
X152823Y170095D02*
X154940Y167979D01*
X150707Y170095D02*
X152823D01*
X150707D02*
X152823Y172212D01*
X150707Y174329D02*
X152823Y172212D01*
X150707Y174329D02*
X152823D01*
X154940Y176445D01*
X157057Y174329D01*
X159173D01*
X157057Y172212D02*
X159173Y174329D01*
X157057Y172212D02*
X159173Y170095D01*
X157057D02*
X159173D01*
X154940Y167979D02*
X157057Y170095D01*
X162729D02*
X164846Y167979D01*
X160613Y170095D02*
X162729D01*
X160613D02*
X162729Y172212D01*
X160613Y174329D02*
X162729Y172212D01*
X160613Y174329D02*
X162729D01*
X164846Y176445D01*
X166963Y174329D01*
X169079D01*
X166963Y172212D02*
X169079Y174329D01*
X166963Y172212D02*
X169079Y170095D01*
X166963D02*
X169079D01*
X164846Y167979D02*
X166963Y170095D01*
X173143D02*
X175260Y167979D01*
X171027Y170095D02*
X173143D01*
X171027D02*
X173143Y172212D01*
X171027Y174329D02*
X173143Y172212D01*
X171027Y174329D02*
X173143D01*
X175260Y176445D01*
X177377Y174329D01*
X179493D01*
X177377Y172212D02*
X179493Y174329D01*
X177377Y172212D02*
X179493Y170095D01*
X177377D02*
X179493D01*
X175260Y167979D02*
X177377Y170095D01*
X413173Y122089D02*
X415290Y119973D01*
X411057Y122089D02*
X413173D01*
X411057D02*
X413173Y124206D01*
X411057Y126323D02*
X413173Y124206D01*
X411057Y126323D02*
X413173D01*
X415290Y128439D01*
X417407Y126323D01*
X419523D01*
X417407Y124206D02*
X419523Y126323D01*
X417407Y124206D02*
X419523Y122089D01*
X417407D02*
X419523D01*
X415290Y119973D02*
X417407Y122089D01*
X407077D02*
X409194Y119973D01*
X404961Y122089D02*
X407077D01*
X404961D02*
X407077Y124206D01*
X404961Y126323D02*
X407077Y124206D01*
X404961Y126323D02*
X407077D01*
X409194Y128439D01*
X411311Y126323D01*
X413427D01*
X411311Y124206D02*
X413427Y126323D01*
X411311Y124206D02*
X413427Y122089D01*
X411311D02*
X413427D01*
X409194Y119973D02*
X411311Y122089D01*
X407077Y128185D02*
X409194Y126069D01*
X404961Y128185D02*
X407077D01*
X404961D02*
X407077Y130302D01*
X404961Y132419D02*
X407077Y130302D01*
X404961Y132419D02*
X407077D01*
X409194Y134535D01*
X411311Y132419D01*
X413427D01*
X411311Y130302D02*
X413427Y132419D01*
X411311Y130302D02*
X413427Y128185D01*
X411311D02*
X413427D01*
X409194Y126069D02*
X411311Y128185D01*
X413173Y127931D02*
X415290Y125815D01*
X411057Y127931D02*
X413173D01*
X411057D02*
X413173Y130048D01*
X411057Y132165D02*
X413173Y130048D01*
X411057Y132165D02*
X413173D01*
X415290Y134281D01*
X417407Y132165D01*
X419523D01*
X417407Y130048D02*
X419523Y132165D01*
X417407Y130048D02*
X419523Y127931D01*
X417407D02*
X419523D01*
X415290Y125815D02*
X417407Y127931D01*
X319883Y111883D02*
X322000Y109767D01*
X317767Y111883D02*
X319883D01*
X317767D02*
X319883Y114000D01*
X317767Y116117D02*
X319883Y114000D01*
X317767Y116117D02*
X319883D01*
X322000Y118233D01*
X324117Y116117D01*
X326233D01*
X324117Y114000D02*
X326233Y116117D01*
X324117Y114000D02*
X326233Y111883D01*
X324117D02*
X326233D01*
X322000Y109767D02*
X324117Y111883D01*
X305883Y81883D02*
X308000Y79767D01*
X303767Y81883D02*
X305883D01*
X303767D02*
X305883Y84000D01*
X303767Y86117D02*
X305883Y84000D01*
X303767Y86117D02*
X305883D01*
X308000Y88233D01*
X310117Y86117D01*
X312233D01*
X310117Y84000D02*
X312233Y86117D01*
X310117Y84000D02*
X312233Y81883D01*
X310117D02*
X312233D01*
X308000Y79767D02*
X310117Y81883D01*
X403883Y85883D02*
X406000Y83767D01*
X401767Y85883D02*
X403883D01*
X401767D02*
X403883Y88000D01*
X401767Y90117D02*
X403883Y88000D01*
X401767Y90117D02*
X403883D01*
X406000Y92233D01*
X408117Y90117D01*
X410233D01*
X408117Y88000D02*
X410233Y90117D01*
X408117Y88000D02*
X410233Y85883D01*
X408117D02*
X410233D01*
X406000Y83767D02*
X408117Y85883D01*
X54429Y49877D02*
X56546Y47761D01*
X52312Y49877D02*
X54429D01*
X52312D02*
X54429Y51994D01*
X52312Y54110D02*
X54429Y51994D01*
X52312Y54110D02*
X54429D01*
X56546Y56227D01*
X58663Y54110D01*
X60779D01*
X58663Y51994D02*
X60779Y54110D01*
X58663Y51994D02*
X60779Y49877D01*
X58663D02*
X60779D01*
X56546Y47761D02*
X58663Y49877D01*
X47063Y60291D02*
X49180Y58175D01*
X44946Y60291D02*
X47063D01*
X44946D02*
X47063Y62408D01*
X44946Y64524D02*
X47063Y62408D01*
X44946Y64524D02*
X47063D01*
X49180Y66641D01*
X51297Y64524D01*
X53413D01*
X51297Y62408D02*
X53413Y64524D01*
X51297Y62408D02*
X53413Y60291D01*
X51297D02*
X53413D01*
X49180Y58175D02*
X51297Y60291D01*
X47063Y50385D02*
X49180Y48269D01*
X44946Y50385D02*
X47063D01*
X44946D02*
X47063Y52502D01*
X44946Y54619D02*
X47063Y52502D01*
X44946Y54619D02*
X47063D01*
X49180Y56735D01*
X51297Y54619D01*
X53413D01*
X51297Y52502D02*
X53413Y54619D01*
X51297Y52502D02*
X53413Y50385D01*
X51297D02*
X53413D01*
X49180Y48269D02*
X51297Y50385D01*
X77543Y134713D02*
X79660Y132597D01*
X75427Y134713D02*
X77543D01*
X75427D02*
X77543Y136830D01*
X75427Y138947D02*
X77543Y136830D01*
X75427Y138947D02*
X77543D01*
X79660Y141063D01*
X81777Y138947D01*
X83893D01*
X81777Y136830D02*
X83893Y138947D01*
X81777Y136830D02*
X83893Y134713D01*
X81777D02*
X83893D01*
X79660Y132597D02*
X81777Y134713D01*
X84909D02*
X87026Y132597D01*
X82793Y134713D02*
X84909D01*
X82793D02*
X84909Y136830D01*
X82793Y138947D02*
X84909Y136830D01*
X82793Y138947D02*
X84909D01*
X87026Y141063D01*
X89143Y138947D01*
X91259D01*
X89143Y136830D02*
X91259Y138947D01*
X89143Y136830D02*
X91259Y134713D01*
X89143D02*
X91259D01*
X87026Y132597D02*
X89143Y134713D01*
X92275D02*
X94392Y132597D01*
X90159Y134713D02*
X92275D01*
X90159D02*
X92275Y136830D01*
X90159Y138947D02*
X92275Y136830D01*
X90159Y138947D02*
X92275D01*
X94392Y141063D01*
X96509Y138947D01*
X98625D01*
X96509Y136830D02*
X98625Y138947D01*
X96509Y136830D02*
X98625Y134713D01*
X96509D02*
X98625D01*
X94392Y132597D02*
X96509Y134713D01*
X99895D02*
X102012Y132597D01*
X97779Y134713D02*
X99895D01*
X97779D02*
X99895Y136830D01*
X97779Y138947D02*
X99895Y136830D01*
X97779Y138947D02*
X99895D01*
X102012Y141063D01*
X104129Y138947D01*
X106245D01*
X104129Y136830D02*
X106245Y138947D01*
X104129Y136830D02*
X106245Y134713D01*
X104129D02*
X106245D01*
X102012Y132597D02*
X104129Y134713D01*
X46809Y107027D02*
X48926Y104911D01*
X44693Y107027D02*
X46809D01*
X44693D02*
X46809Y109144D01*
X44693Y111260D02*
X46809Y109144D01*
X44693Y111260D02*
X46809D01*
X48926Y113377D01*
X51042Y111260D01*
X53159D01*
X51042Y109144D02*
X53159Y111260D01*
X51042Y109144D02*
X53159Y107027D01*
X51042D02*
X53159D01*
X48926Y104911D02*
X51042Y107027D01*
X52747Y112183D02*
X54864Y110067D01*
X50631Y112183D02*
X52747D01*
X50631D02*
X52747Y114300D01*
X50631Y116417D02*
X52747Y114300D01*
X50631Y116417D02*
X52747D01*
X54864Y118533D01*
X56981Y116417D01*
X59097D01*
X56981Y114300D02*
X59097Y116417D01*
X56981Y114300D02*
X59097Y112183D01*
X56981D02*
X59097D01*
X54864Y110067D02*
X56981Y112183D01*
X52651Y101185D02*
X54768Y99069D01*
X50535Y101185D02*
X52651D01*
X50535D02*
X52651Y103302D01*
X50535Y105419D02*
X52651Y103302D01*
X50535Y105419D02*
X52651D01*
X54768Y107535D01*
X56884Y105419D01*
X59001D01*
X56884Y103302D02*
X59001Y105419D01*
X56884Y103302D02*
X59001Y101185D01*
X56884D02*
X59001D01*
X54768Y99069D02*
X56884Y101185D01*
X52905Y93819D02*
X55022Y91703D01*
X50788Y93819D02*
X52905D01*
X50788D02*
X52905Y95936D01*
X50788Y98053D02*
X52905Y95936D01*
X50788Y98053D02*
X52905D01*
X55022Y100169D01*
X57139Y98053D01*
X59255D01*
X57139Y95936D02*
X59255Y98053D01*
X57139Y95936D02*
X59255Y93819D01*
X57139D02*
X59255D01*
X55022Y91703D02*
X57139Y93819D01*
X66875Y49623D02*
X68992Y47507D01*
X64759Y49623D02*
X66875D01*
X64759D02*
X66875Y51740D01*
X64759Y53857D02*
X66875Y51740D01*
X64759Y53857D02*
X66875D01*
X68992Y55973D01*
X71108Y53857D01*
X73225D01*
X71108Y51740D02*
X73225Y53857D01*
X71108Y51740D02*
X73225Y49623D01*
X71108D02*
X73225D01*
X68992Y47507D02*
X71108Y49623D01*
X287506Y117883D02*
X289623Y115767D01*
X285390Y117883D02*
X287506D01*
X285390D02*
X287506Y120000D01*
X285390Y122117D02*
X287506Y120000D01*
X285390Y122117D02*
X287506D01*
X289623Y124233D01*
X291740Y122117D01*
X293856D01*
X291740Y120000D02*
X293856Y122117D01*
X291740Y120000D02*
X293856Y117883D01*
X291740D02*
X293856D01*
X289623Y115767D02*
X291740Y117883D01*
X445133Y142383D02*
X447250Y140267D01*
X443017Y142383D02*
X445133D01*
X443017D02*
X445133Y144500D01*
X443017Y146617D02*
X445133Y144500D01*
X443017Y146617D02*
X445133D01*
X447250Y148734D01*
X449367Y146617D01*
X451483D01*
X449367Y144500D02*
X451483Y146617D01*
X449367Y144500D02*
X451483Y142383D01*
X449367D02*
X451483D01*
X447250Y140267D02*
X449367Y142383D01*
X438883D02*
X441000Y140267D01*
X436767Y142383D02*
X438883D01*
X436767D02*
X438883Y144500D01*
X436767Y146617D02*
X438883Y144500D01*
X436767Y146617D02*
X438883D01*
X441000Y148734D01*
X443117Y146617D01*
X445233D01*
X443117Y144500D02*
X445233Y146617D01*
X443117Y144500D02*
X445233Y142383D01*
X443117D02*
X445233D01*
X441000Y140267D02*
X443117Y142383D01*
X425883D02*
X428000Y140267D01*
X423767Y142383D02*
X425883D01*
X423767D02*
X425883Y144500D01*
X423767Y146617D02*
X425883Y144500D01*
X423767Y146617D02*
X425883D01*
X428000Y148734D01*
X430117Y146617D01*
X432233D01*
X430117Y144500D02*
X432233Y146617D01*
X430117Y144500D02*
X432233Y142383D01*
X430117D02*
X432233D01*
X428000Y140267D02*
X430117Y142383D01*
X432383D02*
X434500Y140267D01*
X430267Y142383D02*
X432383D01*
X430267D02*
X432383Y144500D01*
X430267Y146617D02*
X432383Y144500D01*
X430267Y146617D02*
X432383D01*
X434500Y148734D01*
X436617Y146617D01*
X438733D01*
X436617Y144500D02*
X438733Y146617D01*
X436617Y144500D02*
X438733Y142383D01*
X436617D02*
X438733D01*
X434500Y140267D02*
X436617Y142383D01*
X294047Y117883D02*
X296164Y115767D01*
X291931Y117883D02*
X294047D01*
X291931D02*
X294047Y120000D01*
X291931Y122117D02*
X294047Y120000D01*
X291931Y122117D02*
X294047D01*
X296164Y124233D01*
X298281Y122117D01*
X300397D01*
X298281Y120000D02*
X300397Y122117D01*
X298281Y120000D02*
X300397Y117883D01*
X298281D02*
X300397D01*
X296164Y115767D02*
X298281Y117883D01*
X137329Y62883D02*
X139446Y60767D01*
X135213Y62883D02*
X137329D01*
X135213D02*
X137329Y65000D01*
X135213Y67116D02*
X137329Y65000D01*
X135213Y67116D02*
X137329D01*
X139446Y69233D01*
X141563Y67116D01*
X143679D01*
X141563Y65000D02*
X143679Y67116D01*
X141563Y65000D02*
X143679Y62883D01*
X141563D02*
X143679D01*
X139446Y60767D02*
X141563Y62883D01*
X325797Y105325D02*
X327914Y103209D01*
X323681Y105325D02*
X325797D01*
X323681D02*
X325797Y107442D01*
X323681Y109559D02*
X325797Y107442D01*
X323681Y109559D02*
X325797D01*
X327914Y111675D01*
X330031Y109559D01*
X332147D01*
X330031Y107442D02*
X332147Y109559D01*
X330031Y107442D02*
X332147Y105325D01*
X330031D02*
X332147D01*
X327914Y103209D02*
X330031Y105325D01*
X274424Y117883D02*
X276541Y115767D01*
X272308Y117883D02*
X274424D01*
X272308D02*
X274424Y120000D01*
X272308Y122117D02*
X274424Y120000D01*
X272308Y122117D02*
X274424D01*
X276541Y124233D01*
X278658Y122117D01*
X280774D01*
X278658Y120000D02*
X280774Y122117D01*
X278658Y120000D02*
X280774Y117883D01*
X278658D02*
X280774D01*
X276541Y115767D02*
X278658Y117883D01*
X110133Y91633D02*
X112250Y89517D01*
X108017Y91633D02*
X110133D01*
X108017D02*
X110133Y93750D01*
X108017Y95866D02*
X110133Y93750D01*
X108017Y95866D02*
X110133D01*
X112250Y97983D01*
X114367Y95866D01*
X116483D01*
X114367Y93750D02*
X116483Y95866D01*
X114367Y93750D02*
X116483Y91633D01*
X114367D02*
X116483D01*
X112250Y89517D02*
X114367Y91633D01*
X81633Y105633D02*
X83750Y103517D01*
X79517Y105633D02*
X81633D01*
X79517D02*
X81633Y107750D01*
X79517Y109867D02*
X81633Y107750D01*
X79517Y109867D02*
X81633D01*
X83750Y111983D01*
X85866Y109867D01*
X87983D01*
X85866Y107750D02*
X87983Y109867D01*
X85866Y107750D02*
X87983Y105633D01*
X85866D02*
X87983D01*
X83750Y103517D02*
X85866Y105633D01*
X81633Y91633D02*
X83750Y89517D01*
X79517Y91633D02*
X81633D01*
X79517D02*
X81633Y93750D01*
X79517Y95866D02*
X81633Y93750D01*
X79517Y95866D02*
X81633D01*
X83750Y97983D01*
X85866Y95866D01*
X87983D01*
X85866Y93750D02*
X87983Y95866D01*
X85866Y93750D02*
X87983Y91633D01*
X85866D02*
X87983D01*
X83750Y89517D02*
X85866Y91633D01*
X95883D02*
X98000Y89517D01*
X93766Y91633D02*
X95883D01*
X93766D02*
X95883Y93750D01*
X93766Y95866D02*
X95883Y93750D01*
X93766Y95866D02*
X95883D01*
X98000Y97983D01*
X100117Y95866D01*
X102233D01*
X100117Y93750D02*
X102233Y95866D01*
X100117Y93750D02*
X102233Y91633D01*
X100117D02*
X102233D01*
X98000Y89517D02*
X100117Y91633D01*
X110133Y105883D02*
X112250Y103767D01*
X108017Y105883D02*
X110133D01*
X108017D02*
X110133Y108000D01*
X108017Y110117D02*
X110133Y108000D01*
X108017Y110117D02*
X110133D01*
X112250Y112233D01*
X114367Y110117D01*
X116483D01*
X114367Y108000D02*
X116483Y110117D01*
X114367Y108000D02*
X116483Y105883D01*
X114367D02*
X116483D01*
X112250Y103767D02*
X114367Y105883D01*
X95883D02*
X98000Y103767D01*
X93766Y105883D02*
X95883D01*
X93766D02*
X95883Y108000D01*
X93766Y110117D02*
X95883Y108000D01*
X93766Y110117D02*
X95883D01*
X98000Y112233D01*
X100117Y110117D01*
X102233D01*
X100117Y108000D02*
X102233Y110117D01*
X100117Y108000D02*
X102233Y105883D01*
X100117D02*
X102233D01*
X98000Y103767D02*
X100117Y105883D01*
X192447Y93641D02*
X194564Y91525D01*
X190331Y93641D02*
X192447D01*
X190331D02*
X192447Y95758D01*
X190331Y97875D02*
X192447Y95758D01*
X190331Y97875D02*
X192447D01*
X194564Y99991D01*
X196681Y97875D01*
X198797D01*
X196681Y95758D02*
X198797Y97875D01*
X196681Y95758D02*
X198797Y93641D01*
X196681D02*
X198797D01*
X194564Y91525D02*
X196681Y93641D01*
X180255Y93895D02*
X182372Y91779D01*
X178139Y93895D02*
X180255D01*
X178139D02*
X180255Y96012D01*
X178139Y98129D02*
X180255Y96012D01*
X178139Y98129D02*
X180255D01*
X182372Y100245D01*
X184489Y98129D01*
X186605D01*
X184489Y96012D02*
X186605Y98129D01*
X184489Y96012D02*
X186605Y93895D01*
X184489D02*
X186605D01*
X182372Y91779D02*
X184489Y93895D01*
X419883Y64883D02*
X422000Y62767D01*
X417767Y64883D02*
X419883D01*
X417767D02*
X419883Y67000D01*
X417767Y69117D02*
X419883Y67000D01*
X417767Y69117D02*
X419883D01*
X422000Y71233D01*
X424117Y69117D01*
X426233D01*
X424117Y67000D02*
X426233Y69117D01*
X424117Y67000D02*
X426233Y64883D01*
X424117D02*
X426233D01*
X422000Y62767D02*
X424117Y64883D01*
X449883D02*
X452000Y62767D01*
X447767Y64883D02*
X449883D01*
X447767D02*
X449883Y67000D01*
X447767Y69117D02*
X449883Y67000D01*
X447767Y69117D02*
X449883D01*
X452000Y71233D01*
X454117Y69117D01*
X456233D01*
X454117Y67000D02*
X456233Y69117D01*
X454117Y67000D02*
X456233Y64883D01*
X454117D02*
X456233D01*
X452000Y62767D02*
X454117Y64883D01*
X425883D02*
X428000Y62767D01*
X423767Y64883D02*
X425883D01*
X423767D02*
X425883Y67000D01*
X423767Y69117D02*
X425883Y67000D01*
X423767Y69117D02*
X425883D01*
X428000Y71233D01*
X430117Y69117D01*
X432233D01*
X430117Y67000D02*
X432233Y69117D01*
X430117Y67000D02*
X432233Y64883D01*
X430117D02*
X432233D01*
X428000Y62767D02*
X430117Y64883D01*
X395883D02*
X398000Y62767D01*
X393767Y64883D02*
X395883D01*
X393767D02*
X395883Y67000D01*
X393767Y69117D02*
X395883Y67000D01*
X393767Y69117D02*
X395883D01*
X398000Y71233D01*
X400117Y69117D01*
X402233D01*
X400117Y67000D02*
X402233Y69117D01*
X400117Y67000D02*
X402233Y64883D01*
X400117D02*
X402233D01*
X398000Y62767D02*
X400117Y64883D01*
X401883D02*
X404000Y62767D01*
X399767Y64883D02*
X401883D01*
X399767D02*
X401883Y67000D01*
X399767Y69117D02*
X401883Y67000D01*
X399767Y69117D02*
X401883D01*
X404000Y71233D01*
X406117Y69117D01*
X408233D01*
X406117Y67000D02*
X408233Y69117D01*
X406117Y67000D02*
X408233Y64883D01*
X406117D02*
X408233D01*
X404000Y62767D02*
X406117Y64883D01*
X407883D02*
X410000Y62767D01*
X405767Y64883D02*
X407883D01*
X405767D02*
X407883Y67000D01*
X405767Y69117D02*
X407883Y67000D01*
X405767Y69117D02*
X407883D01*
X410000Y71233D01*
X412117Y69117D01*
X414233D01*
X412117Y67000D02*
X414233Y69117D01*
X412117Y67000D02*
X414233Y64883D01*
X412117D02*
X414233D01*
X410000Y62767D02*
X412117Y64883D01*
X413883D02*
X416000Y62767D01*
X411767Y64883D02*
X413883D01*
X411767D02*
X413883Y67000D01*
X411767Y69117D02*
X413883Y67000D01*
X411767Y69117D02*
X413883D01*
X416000Y71233D01*
X418117Y69117D01*
X420233D01*
X418117Y67000D02*
X420233Y69117D01*
X418117Y67000D02*
X420233Y64883D01*
X418117D02*
X420233D01*
X416000Y62767D02*
X418117Y64883D01*
X431883D02*
X434000Y62767D01*
X429767Y64883D02*
X431883D01*
X429767D02*
X431883Y67000D01*
X429767Y69117D02*
X431883Y67000D01*
X429767Y69117D02*
X431883D01*
X434000Y71233D01*
X436117Y69117D01*
X438233D01*
X436117Y67000D02*
X438233Y69117D01*
X436117Y67000D02*
X438233Y64883D01*
X436117D02*
X438233D01*
X434000Y62767D02*
X436117Y64883D01*
X437883D02*
X440000Y62767D01*
X435767Y64883D02*
X437883D01*
X435767D02*
X437883Y67000D01*
X435767Y69117D02*
X437883Y67000D01*
X435767Y69117D02*
X437883D01*
X440000Y71233D01*
X442117Y69117D01*
X444233D01*
X442117Y67000D02*
X444233Y69117D01*
X442117Y67000D02*
X444233Y64883D01*
X442117D02*
X444233D01*
X440000Y62767D02*
X442117Y64883D01*
X443883D02*
X446000Y62767D01*
X441767Y64883D02*
X443883D01*
X441767D02*
X443883Y67000D01*
X441767Y69117D02*
X443883Y67000D01*
X441767Y69117D02*
X443883D01*
X446000Y71233D01*
X448117Y69117D01*
X450233D01*
X448117Y67000D02*
X450233Y69117D01*
X448117Y67000D02*
X450233Y64883D01*
X448117D02*
X450233D01*
X446000Y62767D02*
X448117Y64883D01*
X383963Y72305D02*
X386080Y70189D01*
X381847Y72305D02*
X383963D01*
X381847D02*
X383963Y74422D01*
X381847Y76539D02*
X383963Y74422D01*
X381847Y76539D02*
X383963D01*
X386080Y78655D01*
X388197Y76539D01*
X390313D01*
X388197Y74422D02*
X390313Y76539D01*
X388197Y74422D02*
X390313Y72305D01*
X388197D02*
X390313D01*
X386080Y70189D02*
X388197Y72305D01*
X280965Y117883D02*
X283082Y115767D01*
X278849Y117883D02*
X280965D01*
X278849D02*
X280965Y120000D01*
X278849Y122117D02*
X280965Y120000D01*
X278849Y122117D02*
X280965D01*
X283082Y124233D01*
X285199Y122117D01*
X287315D01*
X285199Y120000D02*
X287315Y122117D01*
X285199Y120000D02*
X287315Y117883D01*
X285199D02*
X287315D01*
X283082Y115767D02*
X285199Y117883D01*
X329325Y87157D02*
X331442Y85041D01*
X327209Y87157D02*
X329325D01*
X327209D02*
X329325Y89274D01*
X327209Y91391D02*
X329325Y89274D01*
X327209Y91391D02*
X329325D01*
X331442Y93507D01*
X333559Y91391D01*
X335676D01*
X333559Y89274D02*
X335676Y91391D01*
X333559Y89274D02*
X335676Y87157D01*
X333559D02*
X335676D01*
X331442Y85041D02*
X333559Y87157D01*
X164253Y100499D02*
X166370Y98383D01*
X162137Y100499D02*
X164253D01*
X162137D02*
X164253Y102616D01*
X162137Y104733D02*
X164253Y102616D01*
X162137Y104733D02*
X164253D01*
X166370Y106849D01*
X168487Y104733D01*
X170603D01*
X168487Y102616D02*
X170603Y104733D01*
X168487Y102616D02*
X170603Y100499D01*
X168487D02*
X170603D01*
X166370Y98383D02*
X168487Y100499D01*
X137329Y74845D02*
X139446Y72729D01*
X135213Y74845D02*
X137329D01*
X135213D02*
X137329Y76962D01*
X135213Y79079D02*
X137329Y76962D01*
X135213Y79079D02*
X137329D01*
X139446Y81195D01*
X141563Y79079D01*
X143679D01*
X141563Y76962D02*
X143679Y79079D01*
X141563Y76962D02*
X143679Y74845D01*
X141563D02*
X143679D01*
X139446Y72729D02*
X141563Y74845D01*
X53001Y69003D02*
X55118Y66887D01*
X50885Y69003D02*
X53001D01*
X50885D02*
X53001Y71120D01*
X50885Y73237D02*
X53001Y71120D01*
X50885Y73237D02*
X53001D01*
X55118Y75353D01*
X57235Y73237D01*
X59351D01*
X57235Y71120D02*
X59351Y73237D01*
X57235Y71120D02*
X59351Y69003D01*
X57235D02*
X59351D01*
X55118Y66887D02*
X57235Y69003D01*
X53001Y77131D02*
X55118Y75015D01*
X50885Y77131D02*
X53001D01*
X50885D02*
X53001Y79248D01*
X50885Y81365D02*
X53001Y79248D01*
X50885Y81365D02*
X53001D01*
X55118Y83481D01*
X57235Y81365D01*
X59351D01*
X57235Y79248D02*
X59351Y81365D01*
X57235Y79248D02*
X59351Y77131D01*
X57235D02*
X59351D01*
X55118Y75015D02*
X57235Y77131D01*
X115231Y7535D02*
X117348Y5419D01*
X113115Y7535D02*
X115231D01*
X113115D02*
X115231Y9652D01*
X113115Y11769D02*
X115231Y9652D01*
X113115Y11769D02*
X115231D01*
X117348Y13885D01*
X119465Y11769D01*
X121581D01*
X119465Y9652D02*
X121581Y11769D01*
X119465Y9652D02*
X121581Y7535D01*
X119465D02*
X121581D01*
X117348Y5419D02*
X119465Y7535D01*
X129963Y47667D02*
X132080Y45551D01*
X127847Y47667D02*
X129963D01*
X127847D02*
X129963Y49784D01*
X127847Y51901D02*
X129963Y49784D01*
X127847Y51901D02*
X129963D01*
X132080Y54017D01*
X134197Y51901D01*
X136313D01*
X134197Y49784D02*
X136313Y51901D01*
X134197Y49784D02*
X136313Y47667D01*
X134197D02*
X136313D01*
X132080Y45551D02*
X134197Y47667D01*
X107103Y41571D02*
X109220Y39455D01*
X104987Y41571D02*
X107103D01*
X104987D02*
X107103Y43688D01*
X104987Y45805D02*
X107103Y43688D01*
X104987Y45805D02*
X107103D01*
X109220Y47921D01*
X111337Y45805D01*
X113453D01*
X111337Y43688D02*
X113453Y45805D01*
X111337Y43688D02*
X113453Y41571D01*
X111337D02*
X113453D01*
X109220Y39455D02*
X111337Y41571D01*
X111675Y47413D02*
X113792Y45297D01*
X109559Y47413D02*
X111675D01*
X109559D02*
X111675Y49530D01*
X109559Y51647D02*
X111675Y49530D01*
X109559Y51647D02*
X111675D01*
X113792Y53763D01*
X115909Y51647D01*
X118025D01*
X115909Y49530D02*
X118025Y51647D01*
X115909Y49530D02*
X118025Y47413D01*
X115909D02*
X118025D01*
X113792Y45297D02*
X115909Y47413D01*
X84243Y41317D02*
X86360Y39201D01*
X82127Y41317D02*
X84243D01*
X82127D02*
X84243Y43434D01*
X82127Y45551D02*
X84243Y43434D01*
X82127Y45551D02*
X84243D01*
X86360Y47667D01*
X88477Y45551D01*
X90593D01*
X88477Y43434D02*
X90593Y45551D01*
X88477Y43434D02*
X90593Y41317D01*
X88477D02*
X90593D01*
X86360Y39201D02*
X88477Y41317D01*
X95419D02*
X97536Y39201D01*
X93303Y41317D02*
X95419D01*
X93303D02*
X95419Y43434D01*
X93303Y45551D02*
X95419Y43434D01*
X93303Y45551D02*
X95419D01*
X97536Y47667D01*
X99653Y45551D01*
X101769D01*
X99653Y43434D02*
X101769Y45551D01*
X99653Y43434D02*
X101769Y41317D01*
X99653D02*
X101769D01*
X97536Y39201D02*
X99653Y41317D01*
X98975Y27347D02*
X101092Y25231D01*
X96859Y27347D02*
X98975D01*
X96859D02*
X98975Y29464D01*
X96859Y31581D02*
X98975Y29464D01*
X96859Y31581D02*
X98975D01*
X101092Y33697D01*
X103209Y31581D01*
X105325D01*
X103209Y29464D02*
X105325Y31581D01*
X103209Y29464D02*
X105325Y27347D01*
X103209D02*
X105325D01*
X101092Y25231D02*
X103209Y27347D01*
X116501Y150029D02*
X118618Y147913D01*
X114385Y150029D02*
X116501D01*
X114385D02*
X116501Y152146D01*
X114385Y154263D02*
X116501Y152146D01*
X114385Y154263D02*
X116501D01*
X118618Y156379D01*
X120735Y154263D01*
X122851D01*
X120735Y152146D02*
X122851Y154263D01*
X120735Y152146D02*
X122851Y150029D01*
X120735D02*
X122851D01*
X118618Y147913D02*
X120735Y150029D01*
X136821Y126915D02*
X138938Y124799D01*
X134705Y126915D02*
X136821D01*
X134705D02*
X136821Y129032D01*
X134705Y131149D02*
X136821Y129032D01*
X134705Y131149D02*
X136821D01*
X138938Y133265D01*
X141055Y131149D01*
X143171D01*
X141055Y129032D02*
X143171Y131149D01*
X141055Y129032D02*
X143171Y126915D01*
X141055D02*
X143171D01*
X138938Y124799D02*
X141055Y126915D01*
X130471D02*
X132588Y124799D01*
X128355Y126915D02*
X130471D01*
X128355D02*
X130471Y129032D01*
X128355Y131149D02*
X130471Y129032D01*
X128355Y131149D02*
X130471D01*
X132588Y133265D01*
X134705Y131149D01*
X136821D01*
X134705Y129032D02*
X136821Y131149D01*
X134705Y129032D02*
X136821Y126915D01*
X134705D02*
X136821D01*
X132588Y124799D02*
X134705Y126915D01*
X32883Y122883D02*
X35000Y120767D01*
X30767Y122883D02*
X32883D01*
X30767D02*
X32883Y125000D01*
X30767Y127117D02*
X32883Y125000D01*
X30767Y127117D02*
X32883D01*
X35000Y129233D01*
X37117Y127117D01*
X39233D01*
X37117Y125000D02*
X39233Y127117D01*
X37117Y125000D02*
X39233Y122883D01*
X37117D02*
X39233D01*
X35000Y120767D02*
X37117Y122883D01*
X7883D02*
X10000Y120767D01*
X5767Y122883D02*
X7883D01*
X5767D02*
X7883Y125000D01*
X5767Y127117D02*
X7883Y125000D01*
X5767Y127117D02*
X7883D01*
X10000Y129233D01*
X12117Y127117D01*
X14233D01*
X12117Y125000D02*
X14233Y127117D01*
X12117Y125000D02*
X14233Y122883D01*
X12117D02*
X14233D01*
X10000Y120767D02*
X12117Y122883D01*
X7883Y107883D02*
X10000Y105767D01*
X5767Y107883D02*
X7883D01*
X5767D02*
X7883Y110000D01*
X5767Y112117D02*
X7883Y110000D01*
X5767Y112117D02*
X7883D01*
X10000Y114233D01*
X12117Y112117D01*
X14233D01*
X12117Y110000D02*
X14233Y112117D01*
X12117Y110000D02*
X14233Y107883D01*
X12117D02*
X14233D01*
X10000Y105767D02*
X12117Y107883D01*
X7883Y92883D02*
X10000Y90767D01*
X5767Y92883D02*
X7883D01*
X5767D02*
X7883Y95000D01*
X5767Y97117D02*
X7883Y95000D01*
X5767Y97117D02*
X7883D01*
X10000Y99233D01*
X12117Y97117D01*
X14233D01*
X12117Y95000D02*
X14233Y97117D01*
X12117Y95000D02*
X14233Y92883D01*
X12117D02*
X14233D01*
X10000Y90767D02*
X12117Y92883D01*
X7883Y77883D02*
X10000Y75767D01*
X5767Y77883D02*
X7883D01*
X5767D02*
X7883Y80000D01*
X5767Y82117D02*
X7883Y80000D01*
X5767Y82117D02*
X7883D01*
X10000Y84233D01*
X12117Y82117D01*
X14233D01*
X12117Y80000D02*
X14233Y82117D01*
X12117Y80000D02*
X14233Y77883D01*
X12117D02*
X14233D01*
X10000Y75767D02*
X12117Y77883D01*
X7883Y62883D02*
X10000Y60767D01*
X5767Y62883D02*
X7883D01*
X5767D02*
X7883Y65000D01*
X5767Y67117D02*
X7883Y65000D01*
X5767Y67117D02*
X7883D01*
X10000Y69233D01*
X12117Y67117D01*
X14233D01*
X12117Y65000D02*
X14233Y67117D01*
X12117Y65000D02*
X14233Y62883D01*
X12117D02*
X14233D01*
X10000Y60767D02*
X12117Y62883D01*
X7883Y47883D02*
X10000Y45767D01*
X5767Y47883D02*
X7883D01*
X5767D02*
X7883Y50000D01*
X5767Y52117D02*
X7883Y50000D01*
X5767Y52117D02*
X7883D01*
X10000Y54233D01*
X12117Y52117D01*
X14233D01*
X12117Y50000D02*
X14233Y52117D01*
X12117Y50000D02*
X14233Y47883D01*
X12117D02*
X14233D01*
X10000Y45767D02*
X12117Y47883D01*
X7883Y32883D02*
X10000Y30767D01*
X5767Y32883D02*
X7883D01*
X5767D02*
X7883Y35000D01*
X5767Y37117D02*
X7883Y35000D01*
X5767Y37117D02*
X7883D01*
X10000Y39233D01*
X12117Y37117D01*
X14233D01*
X12117Y35000D02*
X14233Y37117D01*
X12117Y35000D02*
X14233Y32883D01*
X12117D02*
X14233D01*
X10000Y30767D02*
X12117Y32883D01*
X27883Y7883D02*
X30000Y5767D01*
X25767Y7883D02*
X27883D01*
X25767D02*
X27883Y10000D01*
X25767Y12117D02*
X27883Y10000D01*
X25767Y12117D02*
X27883D01*
X30000Y14233D01*
X32117Y12117D01*
X34233D01*
X32117Y10000D02*
X34233Y12117D01*
X32117Y10000D02*
X34233Y7883D01*
X32117D02*
X34233D01*
X30000Y5767D02*
X32117Y7883D01*
X32883Y27883D02*
X35000Y25767D01*
X30767Y27883D02*
X32883D01*
X30767D02*
X32883Y30000D01*
X30767Y32117D02*
X32883Y30000D01*
X30767Y32117D02*
X32883D01*
X35000Y34233D01*
X37117Y32117D01*
X39233D01*
X37117Y30000D02*
X39233Y32117D01*
X37117Y30000D02*
X39233Y27883D01*
X37117D02*
X39233D01*
X35000Y25767D02*
X37117Y27883D01*
X197883Y4995D02*
X200000Y2879D01*
X195767Y4995D02*
X197883D01*
X195767D02*
X197883Y7112D01*
X195767Y9229D02*
X197883Y7112D01*
X195767Y9229D02*
X197883D01*
X200000Y11345D01*
X202117Y9229D01*
X204233D01*
X202117Y7112D02*
X204233Y9229D01*
X202117Y7112D02*
X204233Y4995D01*
X202117D02*
X204233D01*
X200000Y2879D02*
X202117Y4995D01*
X347867Y18711D02*
X349984Y16595D01*
X345751Y18711D02*
X347867D01*
X345751D02*
X347867Y20828D01*
X345751Y22945D02*
X347867Y20828D01*
X345751Y22945D02*
X347867D01*
X349984Y25061D01*
X352101Y22945D01*
X354217D01*
X352101Y20828D02*
X354217Y22945D01*
X352101Y20828D02*
X354217Y18711D01*
X352101D02*
X354217D01*
X349984Y16595D02*
X352101Y18711D01*
X362867D02*
X364984Y16595D01*
X360751Y18711D02*
X362867D01*
X360751D02*
X362867Y20828D01*
X360751Y22945D02*
X362867Y20828D01*
X360751Y22945D02*
X362867D01*
X364984Y25061D01*
X367101Y22945D01*
X369217D01*
X367101Y20828D02*
X369217Y22945D01*
X367101Y20828D02*
X369217Y18711D01*
X367101D02*
X369217D01*
X364984Y16595D02*
X367101Y18711D01*
X377867D02*
X379984Y16595D01*
X375751Y18711D02*
X377867D01*
X375751D02*
X377867Y20828D01*
X375751Y22945D02*
X377867Y20828D01*
X375751Y22945D02*
X377867D01*
X379984Y25061D01*
X382101Y22945D01*
X384217D01*
X382101Y20828D02*
X384217Y22945D01*
X382101Y20828D02*
X384217Y18711D01*
X382101D02*
X384217D01*
X379984Y16595D02*
X382101Y18711D01*
X479213Y45127D02*
X481330Y43011D01*
X477097Y45127D02*
X479213D01*
X477097D02*
X479213Y47244D01*
X477097Y49361D02*
X479213Y47244D01*
X477097Y49361D02*
X479213D01*
X481330Y51477D01*
X483447Y49361D01*
X485563D01*
X483447Y47244D02*
X485563Y49361D01*
X483447Y47244D02*
X485563Y45127D01*
X483447D02*
X485563D01*
X481330Y43011D02*
X483447Y45127D01*
X477883Y72883D02*
X480000Y70767D01*
X475767Y72883D02*
X477883D01*
X475767D02*
X477883Y75000D01*
X475767Y77117D02*
X477883Y75000D01*
X475767Y77117D02*
X477883D01*
X480000Y79233D01*
X482117Y77117D01*
X484233D01*
X482117Y75000D02*
X484233Y77117D01*
X482117Y75000D02*
X484233Y72883D01*
X482117D02*
X484233D01*
X480000Y70767D02*
X482117Y72883D01*
X477883Y87883D02*
X480000Y85767D01*
X475767Y87883D02*
X477883D01*
X475767D02*
X477883Y90000D01*
X475767Y92117D02*
X477883Y90000D01*
X475767Y92117D02*
X477883D01*
X480000Y94233D01*
X482117Y92117D01*
X484233D01*
X482117Y90000D02*
X484233Y92117D01*
X482117Y90000D02*
X484233Y87883D01*
X482117D02*
X484233D01*
X480000Y85767D02*
X482117Y87883D01*
X477883Y102883D02*
X480000Y100767D01*
X475767Y102883D02*
X477883D01*
X475767D02*
X477883Y105000D01*
X475767Y107117D02*
X477883Y105000D01*
X475767Y107117D02*
X477883D01*
X480000Y109233D01*
X482117Y107117D01*
X484233D01*
X482117Y105000D02*
X484233Y107117D01*
X482117Y105000D02*
X484233Y102883D01*
X482117D02*
X484233D01*
X480000Y100767D02*
X482117Y102883D01*
X477883Y117883D02*
X480000Y115767D01*
X475767Y117883D02*
X477883D01*
X475767D02*
X477883Y120000D01*
X475767Y122117D02*
X477883Y120000D01*
X475767Y122117D02*
X477883D01*
X480000Y124233D01*
X482117Y122117D01*
X484233D01*
X482117Y120000D02*
X484233Y122117D01*
X482117Y120000D02*
X484233Y117883D01*
X482117D02*
X484233D01*
X480000Y115767D02*
X482117Y117883D01*
X477883Y137883D02*
X480000Y135767D01*
X475767Y137883D02*
X477883D01*
X475767D02*
X477883Y140000D01*
X475767Y142117D02*
X477883Y140000D01*
X475767Y142117D02*
X477883D01*
X480000Y144233D01*
X482117Y142117D01*
X484233D01*
X482117Y140000D02*
X484233Y142117D01*
X482117Y140000D02*
X484233Y137883D01*
X482117D02*
X484233D01*
X480000Y135767D02*
X482117Y137883D01*
X462883Y147883D02*
X465000Y145767D01*
X460767Y147883D02*
X462883D01*
X460767D02*
X462883Y150000D01*
X460767Y152117D02*
X462883Y150000D01*
X460767Y152117D02*
X462883D01*
X465000Y154233D01*
X467117Y152117D01*
X469233D01*
X467117Y150000D02*
X469233Y152117D01*
X467117Y150000D02*
X469233Y147883D01*
X467117D02*
X469233D01*
X465000Y145767D02*
X467117Y147883D01*
X452883Y132883D02*
X455000Y130767D01*
X450767Y132883D02*
X452883D01*
X450767D02*
X452883Y135000D01*
X450767Y137117D02*
X452883Y135000D01*
X450767Y137117D02*
X452883D01*
X455000Y139233D01*
X457117Y137117D01*
X459233D01*
X457117Y135000D02*
X459233Y137117D01*
X457117Y135000D02*
X459233Y132883D01*
X457117D02*
X459233D01*
X455000Y130767D02*
X457117Y132883D01*
X452883Y122883D02*
X455000Y120767D01*
X450767Y122883D02*
X452883D01*
X450767D02*
X452883Y125000D01*
X450767Y127117D02*
X452883Y125000D01*
X450767Y127117D02*
X452883D01*
X455000Y129233D01*
X457117Y127117D01*
X459233D01*
X457117Y125000D02*
X459233Y127117D01*
X457117Y125000D02*
X459233Y122883D01*
X457117D02*
X459233D01*
X455000Y120767D02*
X457117Y122883D01*
X462883Y112883D02*
X465000Y110767D01*
X460767Y112883D02*
X462883D01*
X460767D02*
X462883Y115000D01*
X460767Y117117D02*
X462883Y115000D01*
X460767Y117117D02*
X462883D01*
X465000Y119233D01*
X467117Y117117D01*
X469233D01*
X467117Y115000D02*
X469233Y117117D01*
X467117Y115000D02*
X469233Y112883D01*
X467117D02*
X469233D01*
X465000Y110767D02*
X467117Y112883D01*
X462883Y97883D02*
X465000Y95767D01*
X460767Y97883D02*
X462883D01*
X460767D02*
X462883Y100000D01*
X460767Y102117D02*
X462883Y100000D01*
X460767Y102117D02*
X462883D01*
X465000Y104233D01*
X467117Y102117D01*
X469233D01*
X467117Y100000D02*
X469233Y102117D01*
X467117Y100000D02*
X469233Y97883D01*
X467117D02*
X469233D01*
X465000Y95767D02*
X467117Y97883D01*
X462883Y82883D02*
X465000Y80767D01*
X460767Y82883D02*
X462883D01*
X460767D02*
X462883Y85000D01*
X460767Y87117D02*
X462883Y85000D01*
X460767Y87117D02*
X462883D01*
X465000Y89233D01*
X467117Y87117D01*
X469233D01*
X467117Y85000D02*
X469233Y87117D01*
X467117Y85000D02*
X469233Y82883D01*
X467117D02*
X469233D01*
X465000Y80767D02*
X467117Y82883D01*
X457883Y62883D02*
X460000Y60767D01*
X455767Y62883D02*
X457883D01*
X455767D02*
X457883Y65000D01*
X455767Y67117D02*
X457883Y65000D01*
X455767Y67117D02*
X457883D01*
X460000Y69233D01*
X462117Y67117D01*
X464233D01*
X462117Y65000D02*
X464233Y67117D01*
X462117Y65000D02*
X464233Y62883D01*
X462117D02*
X464233D01*
X460000Y60767D02*
X462117Y62883D01*
X457883Y52883D02*
X460000Y50767D01*
X455767Y52883D02*
X457883D01*
X455767D02*
X457883Y55000D01*
X455767Y57117D02*
X457883Y55000D01*
X455767Y57117D02*
X457883D01*
X460000Y59233D01*
X462117Y57117D01*
X464233D01*
X462117Y55000D02*
X464233Y57117D01*
X462117Y55000D02*
X464233Y52883D01*
X462117D02*
X464233D01*
X460000Y50767D02*
X462117Y52883D01*
X448987Y46397D02*
X451104Y44281D01*
X446871Y46397D02*
X448987D01*
X446871D02*
X448987Y48514D01*
X446871Y50631D02*
X448987Y48514D01*
X446871Y50631D02*
X448987D01*
X451104Y52747D01*
X453221Y50631D01*
X455337D01*
X453221Y48514D02*
X455337Y50631D01*
X453221Y48514D02*
X455337Y46397D01*
X453221D02*
X455337D01*
X451104Y44281D02*
X453221Y46397D01*
X414443Y37507D02*
X416560Y35391D01*
X412327Y37507D02*
X414443D01*
X412327D02*
X414443Y39624D01*
X412327Y41741D02*
X414443Y39624D01*
X412327Y41741D02*
X414443D01*
X416560Y43857D01*
X418677Y41741D01*
X420793D01*
X418677Y39624D02*
X420793Y41741D01*
X418677Y39624D02*
X420793Y37507D01*
X418677D02*
X420793D01*
X416560Y35391D02*
X418677Y37507D01*
X167809Y4995D02*
X169926Y2879D01*
X165693Y4995D02*
X167809D01*
X165693D02*
X167809Y7112D01*
X165693Y9229D02*
X167809Y7112D01*
X165693Y9229D02*
X167809D01*
X169926Y11345D01*
X172043Y9229D01*
X174159D01*
X172043Y7112D02*
X174159Y9229D01*
X172043Y7112D02*
X174159Y4995D01*
X172043D02*
X174159D01*
X169926Y2879D02*
X172043Y4995D01*
X21505Y58589D02*
X23622Y56473D01*
X19389Y58589D02*
X21505D01*
X19389D02*
X21505Y60706D01*
X19389Y62823D02*
X21505Y60706D01*
X19389Y62823D02*
X21505D01*
X23622Y64939D01*
X25739Y62823D01*
X27855D01*
X25739Y60706D02*
X27855Y62823D01*
X25739Y60706D02*
X27855Y58589D01*
X25739D02*
X27855D01*
X23622Y56473D02*
X25739Y58589D01*
X50715Y127677D02*
X52832Y125561D01*
X48599Y127677D02*
X50715D01*
X48599D02*
X50715Y129794D01*
X48599Y131911D02*
X50715Y129794D01*
X48599Y131911D02*
X50715D01*
X52832Y134027D01*
X54949Y131911D01*
X57065D01*
X54949Y129794D02*
X57065Y131911D01*
X54949Y129794D02*
X57065Y127677D01*
X54949D02*
X57065D01*
X52832Y125561D02*
X54949Y127677D01*
X242993Y165269D02*
X245110Y163153D01*
X240877Y165269D02*
X242993D01*
X240877D02*
X242993Y167386D01*
X240877Y169503D02*
X242993Y167386D01*
X240877Y169503D02*
X242993D01*
X245110Y171619D01*
X247227Y169503D01*
X249343D01*
X247227Y167386D02*
X249343Y169503D01*
X247227Y167386D02*
X249343Y165269D01*
X247227D02*
X249343D01*
X245110Y163153D02*
X247227Y165269D01*
X222883Y142883D02*
X225000Y140767D01*
X220767Y142883D02*
X222883D01*
X220767D02*
X222883Y145000D01*
X220767Y147117D02*
X222883Y145000D01*
X220767Y147117D02*
X222883D01*
X225000Y149233D01*
X227117Y147117D01*
X229233D01*
X227117Y145000D02*
X229233Y147117D01*
X227117Y145000D02*
X229233Y142883D01*
X227117D02*
X229233D01*
X225000Y140767D02*
X227117Y142883D01*
X237883D02*
X240000Y140767D01*
X235767Y142883D02*
X237883D01*
X235767D02*
X237883Y145000D01*
X235767Y147117D02*
X237883Y145000D01*
X235767Y147117D02*
X237883D01*
X240000Y149233D01*
X242117Y147117D01*
X244233D01*
X242117Y145000D02*
X244233Y147117D01*
X242117Y145000D02*
X244233Y142883D01*
X242117D02*
X244233D01*
X240000Y140767D02*
X242117Y142883D01*
X252883D02*
X255000Y140767D01*
X250767Y142883D02*
X252883D01*
X250767D02*
X252883Y145000D01*
X250767Y147117D02*
X252883Y145000D01*
X250767Y147117D02*
X252883D01*
X255000Y149233D01*
X257117Y147117D01*
X259233D01*
X257117Y145000D02*
X259233Y147117D01*
X257117Y145000D02*
X259233Y142883D01*
X257117D02*
X259233D01*
X255000Y140767D02*
X257117Y142883D01*
X267883Y127883D02*
X270000Y125767D01*
X265767Y127883D02*
X267883D01*
X265767D02*
X267883Y130000D01*
X265767Y132117D02*
X267883Y130000D01*
X265767Y132117D02*
X267883D01*
X270000Y134233D01*
X272117Y132117D01*
X274233D01*
X272117Y130000D02*
X274233Y132117D01*
X272117Y130000D02*
X274233Y127883D01*
X272117D02*
X274233D01*
X270000Y125767D02*
X272117Y127883D01*
X282883D02*
X285000Y125767D01*
X280767Y127883D02*
X282883D01*
X280767D02*
X282883Y130000D01*
X280767Y132117D02*
X282883Y130000D01*
X280767Y132117D02*
X282883D01*
X285000Y134233D01*
X287117Y132117D01*
X289233D01*
X287117Y130000D02*
X289233Y132117D01*
X287117Y130000D02*
X289233Y127883D01*
X287117D02*
X289233D01*
X285000Y125767D02*
X287117Y127883D01*
X267883Y117883D02*
X270000Y115767D01*
X265767Y117883D02*
X267883D01*
X265767D02*
X267883Y120000D01*
X265767Y122117D02*
X267883Y120000D01*
X265767Y122117D02*
X267883D01*
X270000Y124233D01*
X272117Y122117D01*
X274233D01*
X272117Y120000D02*
X274233Y122117D01*
X272117Y120000D02*
X274233Y117883D01*
X272117D02*
X274233D01*
X270000Y115767D02*
X272117Y117883D01*
X302883Y127883D02*
X305000Y125767D01*
X300767Y127883D02*
X302883D01*
X300767D02*
X302883Y130000D01*
X300767Y132117D02*
X302883Y130000D01*
X300767Y132117D02*
X302883D01*
X305000Y134233D01*
X307117Y132117D01*
X309233D01*
X307117Y130000D02*
X309233Y132117D01*
X307117Y130000D02*
X309233Y127883D01*
X307117D02*
X309233D01*
X305000Y125767D02*
X307117Y127883D01*
X359071Y169079D02*
X361188Y166963D01*
X356955Y169079D02*
X359071D01*
X356955D02*
X359071Y171196D01*
X356955Y173313D02*
X359071Y171196D01*
X356955Y173313D02*
X359071D01*
X361188Y175429D01*
X363305Y173313D01*
X365421D01*
X363305Y171196D02*
X365421Y173313D01*
X363305Y171196D02*
X365421Y169079D01*
X363305D02*
X365421D01*
X361188Y166963D02*
X363305Y169079D01*
X441883Y26883D02*
X444000Y24767D01*
X439767Y26883D02*
X441883D01*
X439767D02*
X441883Y29000D01*
X439767Y31117D02*
X441883Y29000D01*
X439767Y31117D02*
X441883D01*
X444000Y33233D01*
X446117Y31117D01*
X448233D01*
X446117Y29000D02*
X448233Y31117D01*
X446117Y29000D02*
X448233Y26883D01*
X446117D02*
X448233D01*
X444000Y24767D02*
X446117Y26883D01*
X30903Y17187D02*
X33020Y15071D01*
X28787Y17187D02*
X30903D01*
X28787D02*
X30903Y19304D01*
X28787Y21421D02*
X30903Y19304D01*
X28787Y21421D02*
X30903D01*
X33020Y23537D01*
X35137Y21421D01*
X37253D01*
X35137Y19304D02*
X37253Y21421D01*
X35137Y19304D02*
X37253Y17187D01*
X35137D02*
X37253D01*
X33020Y15071D02*
X35137Y17187D01*
X91863Y4741D02*
X93980Y2625D01*
X89747Y4741D02*
X91863D01*
X89747D02*
X91863Y6858D01*
X89747Y8975D02*
X91863Y6858D01*
X89747Y8975D02*
X91863D01*
X93980Y11091D01*
X96097Y8975D01*
X98213D01*
X96097Y6858D02*
X98213Y8975D01*
X96097Y6858D02*
X98213Y4741D01*
X96097D02*
X98213D01*
X93980Y2625D02*
X96097Y4741D01*
X101007Y46143D02*
X103124Y44027D01*
X98891Y46143D02*
X101007D01*
X98891D02*
X101007Y48260D01*
X98891Y50377D02*
X101007Y48260D01*
X98891Y50377D02*
X101007D01*
X103124Y52493D01*
X105241Y50377D01*
X107357D01*
X105241Y48260D02*
X107357Y50377D01*
X105241Y48260D02*
X107357Y46143D01*
X105241D02*
X107357D01*
X103124Y44027D02*
X105241Y46143D01*
X66717Y4487D02*
X68834Y2371D01*
X64601Y4487D02*
X66717D01*
X64601D02*
X66717Y6604D01*
X64601Y8721D02*
X66717Y6604D01*
X64601Y8721D02*
X66717D01*
X68834Y10837D01*
X70951Y8721D01*
X73067D01*
X70951Y6604D02*
X73067Y8721D01*
X70951Y6604D02*
X73067Y4487D01*
X70951D02*
X73067D01*
X68834Y2371D02*
X70951Y4487D01*
X133011Y38777D02*
X135128Y36661D01*
X130895Y38777D02*
X133011D01*
X130895D02*
X133011Y40894D01*
X130895Y43011D02*
X133011Y40894D01*
X130895Y43011D02*
X133011D01*
X135128Y45127D01*
X137245Y43011D01*
X139361D01*
X137245Y40894D02*
X139361Y43011D01*
X137245Y40894D02*
X139361Y38777D01*
X137245D02*
X139361D01*
X135128Y36661D02*
X137245Y38777D01*
X184065Y126915D02*
X186182Y124799D01*
X181949Y126915D02*
X184065D01*
X181949D02*
X184065Y129032D01*
X181949Y131149D02*
X184065Y129032D01*
X181949Y131149D02*
X184065D01*
X186182Y133265D01*
X188299Y131149D01*
X190415D01*
X188299Y129032D02*
X190415Y131149D01*
X188299Y129032D02*
X190415Y126915D01*
X188299D02*
X190415D01*
X186182Y124799D02*
X188299Y126915D01*
X190161Y129963D02*
X192278Y127847D01*
X188045Y129963D02*
X190161D01*
X188045D02*
X190161Y132080D01*
X188045Y134197D02*
X190161Y132080D01*
X188045Y134197D02*
X190161D01*
X192278Y136313D01*
X194395Y134197D01*
X196511D01*
X194395Y132080D02*
X196511Y134197D01*
X194395Y132080D02*
X196511Y129963D01*
X194395D02*
X196511D01*
X192278Y127847D02*
X194395Y129963D01*
X216831Y57827D02*
X218948Y55711D01*
X214715Y57827D02*
X216831D01*
X214715D02*
X216831Y59944D01*
X214715Y62061D02*
X216831Y59944D01*
X214715Y62061D02*
X216831D01*
X218948Y64177D01*
X221065Y62061D01*
X223181D01*
X221065Y59944D02*
X223181Y62061D01*
X221065Y59944D02*
X223181Y57827D01*
X221065D02*
X223181D01*
X218948Y55711D02*
X221065Y57827D01*
X234865Y96689D02*
X236982Y94573D01*
X232749Y96689D02*
X234865D01*
X232749D02*
X234865Y98806D01*
X232749Y100923D02*
X234865Y98806D01*
X232749Y100923D02*
X234865D01*
X236982Y103039D01*
X239099Y100923D01*
X241215D01*
X239099Y98806D02*
X241215Y100923D01*
X239099Y98806D02*
X241215Y96689D01*
X239099D02*
X241215D01*
X236982Y94573D02*
X239099Y96689D01*
X169841Y74591D02*
X171958Y72475D01*
X167725Y74591D02*
X169841D01*
X167725D02*
X169841Y76708D01*
X167725Y78825D02*
X169841Y76708D01*
X167725Y78825D02*
X169841D01*
X171958Y80941D01*
X174075Y78825D01*
X176191D01*
X174075Y76708D02*
X176191Y78825D01*
X174075Y76708D02*
X176191Y74591D01*
X174075D02*
X176191D01*
X171958Y72475D02*
X174075Y74591D01*
X172889Y60621D02*
X175006Y58505D01*
X170773Y60621D02*
X172889D01*
X170773D02*
X172889Y62738D01*
X170773Y64855D02*
X172889Y62738D01*
X170773Y64855D02*
X172889D01*
X175006Y66971D01*
X177123Y64855D01*
X179239D01*
X177123Y62738D02*
X179239Y64855D01*
X177123Y62738D02*
X179239Y60621D01*
X177123D02*
X179239D01*
X175006Y58505D02*
X177123Y60621D01*
X187367Y57827D02*
X189484Y55711D01*
X185251Y57827D02*
X187367D01*
X185251D02*
X187367Y59944D01*
X185251Y62061D02*
X187367Y59944D01*
X185251Y62061D02*
X187367D01*
X189484Y64177D01*
X191601Y62061D01*
X193717D01*
X191601Y59944D02*
X193717Y62061D01*
X191601Y59944D02*
X193717Y57827D01*
X191601D02*
X193717D01*
X189484Y55711D02*
X191601Y57827D01*
X202607D02*
X204724Y55711D01*
X200491Y57827D02*
X202607D01*
X200491D02*
X202607Y59944D01*
X200491Y62061D02*
X202607Y59944D01*
X200491Y62061D02*
X202607D01*
X204724Y64177D01*
X206841Y62061D01*
X208957D01*
X206841Y59944D02*
X208957Y62061D01*
X206841Y59944D02*
X208957Y57827D01*
X206841D02*
X208957D01*
X204724Y55711D02*
X206841Y57827D01*
X225467Y4995D02*
X227584Y2879D01*
X223351Y4995D02*
X225467D01*
X223351D02*
X225467Y7112D01*
X223351Y9229D02*
X225467Y7112D01*
X223351Y9229D02*
X225467D01*
X227584Y11345D01*
X229701Y9229D01*
X231817D01*
X229701Y7112D02*
X231817Y9229D01*
X229701Y7112D02*
X231817Y4995D01*
X229701D02*
X231817D01*
X227584Y2879D02*
X229701Y4995D01*
X250867D02*
X252984Y2879D01*
X248751Y4995D02*
X250867D01*
X248751D02*
X250867Y7112D01*
X248751Y9229D02*
X250867Y7112D01*
X248751Y9229D02*
X250867D01*
X252984Y11345D01*
X255101Y9229D01*
X257217D01*
X255101Y7112D02*
X257217Y9229D01*
X255101Y7112D02*
X257217Y4995D01*
X255101D02*
X257217D01*
X252984Y2879D02*
X255101Y4995D01*
X276013D02*
X278130Y2879D01*
X273897Y4995D02*
X276013D01*
X273897D02*
X276013Y7112D01*
X273897Y9229D02*
X276013Y7112D01*
X273897Y9229D02*
X276013D01*
X278130Y11345D01*
X280247Y9229D01*
X282363D01*
X280247Y7112D02*
X282363Y9229D01*
X280247Y7112D02*
X282363Y4995D01*
X280247D02*
X282363D01*
X278130Y2879D02*
X280247Y4995D01*
X407883Y22883D02*
X410000Y20767D01*
X405767Y22883D02*
X407883D01*
X405767D02*
X407883Y25000D01*
X405767Y27117D02*
X407883Y25000D01*
X405767Y27117D02*
X407883D01*
X410000Y29233D01*
X412117Y27117D01*
X414233D01*
X412117Y25000D02*
X414233Y27117D01*
X412117Y25000D02*
X414233Y22883D01*
X412117D02*
X414233D01*
X410000Y20767D02*
X412117Y22883D01*
X133011Y29633D02*
X135128Y27517D01*
X130895Y29633D02*
X133011D01*
X130895D02*
X133011Y31750D01*
X130895Y33867D02*
X133011Y31750D01*
X130895Y33867D02*
X133011D01*
X135128Y35983D01*
X137245Y33867D01*
X139361D01*
X137245Y31750D02*
X139361Y33867D01*
X137245Y31750D02*
X139361Y29633D01*
X137245D02*
X139361D01*
X135128Y27517D02*
X137245Y29633D01*
X256963Y51985D02*
X259080Y49869D01*
X254847Y51985D02*
X256963D01*
X254847D02*
X256963Y54102D01*
X254847Y56219D02*
X256963Y54102D01*
X254847Y56219D02*
X256963D01*
X259080Y58335D01*
X261197Y56219D01*
X263313D01*
X261197Y54102D02*
X263313Y56219D01*
X261197Y54102D02*
X263313Y51985D01*
X261197D02*
X263313D01*
X259080Y49869D02*
X261197Y51985D01*
X279823Y167301D02*
X281940Y165185D01*
X277707Y167301D02*
X279823D01*
X277707D02*
X279823Y169418D01*
X277707Y171535D02*
X279823Y169418D01*
X277707Y171535D02*
X279823D01*
X281940Y173651D01*
X284057Y171535D01*
X286173D01*
X284057Y169418D02*
X286173Y171535D01*
X284057Y169418D02*
X286173Y167301D01*
X284057D02*
X286173D01*
X281940Y165185D02*
X284057Y167301D01*
X279823Y158157D02*
X281940Y156041D01*
X277707Y158157D02*
X279823D01*
X277707D02*
X279823Y160274D01*
X277707Y162391D02*
X279823Y160274D01*
X277707Y162391D02*
X279823D01*
X281940Y164507D01*
X284057Y162391D01*
X286173D01*
X284057Y160274D02*
X286173Y162391D01*
X284057Y160274D02*
X286173Y158157D01*
X284057D02*
X286173D01*
X281940Y156041D02*
X284057Y158157D01*
X285157Y162729D02*
X287274Y160613D01*
X283041Y162729D02*
X285157D01*
X283041D02*
X285157Y164846D01*
X283041Y166963D02*
X285157Y164846D01*
X283041Y166963D02*
X285157D01*
X287274Y169079D01*
X289391Y166963D01*
X291507D01*
X289391Y164846D02*
X291507Y166963D01*
X289391Y164846D02*
X291507Y162729D01*
X289391D02*
X291507D01*
X287274Y160613D02*
X289391Y162729D01*
X274997D02*
X277114Y160613D01*
X272881Y162729D02*
X274997D01*
X272881D02*
X274997Y164846D01*
X272881Y166963D02*
X274997Y164846D01*
X272881Y166963D02*
X274997D01*
X277114Y169079D01*
X279231Y166963D01*
X281347D01*
X279231Y164846D02*
X281347Y166963D01*
X279231Y164846D02*
X281347Y162729D01*
X279231D02*
X281347D01*
X277114Y160613D02*
X279231Y162729D01*
X190415Y143228D02*
X192532Y141111D01*
X188299Y143228D02*
X190415D01*
X188299D02*
X190415Y145344D01*
X188299Y147461D02*
X190415Y145344D01*
X188299Y147461D02*
X190415D01*
X192532Y149578D01*
X194649Y147461D01*
X196765D01*
X194649Y145344D02*
X196765Y147461D01*
X194649Y145344D02*
X196765Y143228D01*
X194649D02*
X196765D01*
X192532Y141111D02*
X194649Y143228D01*
X299889Y148251D02*
X302006Y146135D01*
X297773Y148251D02*
X299889D01*
X297773D02*
X299889Y150368D01*
X297773Y152485D02*
X299889Y150368D01*
X297773Y152485D02*
X299889D01*
X302006Y154601D01*
X304123Y152485D01*
X306239D01*
X304123Y150368D02*
X306239Y152485D01*
X304123Y150368D02*
X306239Y148251D01*
X304123D02*
X306239D01*
X302006Y146135D02*
X304123Y148251D01*
X366884Y98883D02*
X369000Y96767D01*
X364767Y98883D02*
X366884D01*
X364767D02*
X366884Y101000D01*
X364767Y103117D02*
X366884Y101000D01*
X364767Y103117D02*
X366884D01*
X369000Y105233D01*
X371117Y103117D01*
X373233D01*
X371117Y101000D02*
X373233Y103117D01*
X371117Y101000D02*
X373233Y98883D01*
X371117D02*
X373233D01*
X369000Y96767D02*
X371117Y98883D01*
X348884D02*
X351000Y96767D01*
X346767Y98883D02*
X348884D01*
X346767D02*
X348884Y101000D01*
X346767Y103117D02*
X348884Y101000D01*
X346767Y103117D02*
X348884D01*
X351000Y105233D01*
X353117Y103117D01*
X355233D01*
X353117Y101000D02*
X355233Y103117D01*
X353117Y101000D02*
X355233Y98883D01*
X353117D02*
X355233D01*
X351000Y96767D02*
X353117Y98883D01*
X348884Y80884D02*
X351000Y78767D01*
X346767Y80884D02*
X348884D01*
X346767D02*
X348884Y83000D01*
X346767Y85117D02*
X348884Y83000D01*
X346767Y85117D02*
X348884D01*
X351000Y87233D01*
X353117Y85117D01*
X355233D01*
X353117Y83000D02*
X355233Y85117D01*
X353117Y83000D02*
X355233Y80884D01*
X353117D02*
X355233D01*
X351000Y78767D02*
X353117Y80884D01*
X366884D02*
X369000Y78767D01*
X364767Y80884D02*
X366884D01*
X364767D02*
X366884Y83000D01*
X364767Y85117D02*
X366884Y83000D01*
X364767Y85117D02*
X366884D01*
X369000Y87233D01*
X371117Y85117D01*
X373233D01*
X371117Y83000D02*
X373233Y85117D01*
X371117Y83000D02*
X373233Y80884D01*
X371117D02*
X373233D01*
X369000Y78767D02*
X371117Y80884D01*
X366884Y89883D02*
X369000Y87767D01*
X364767Y89883D02*
X366884D01*
X364767D02*
X366884Y92000D01*
X364767Y94117D02*
X366884Y92000D01*
X364767Y94117D02*
X366884D01*
X369000Y96233D01*
X371117Y94117D01*
X373233D01*
X371117Y92000D02*
X373233Y94117D01*
X371117Y92000D02*
X373233Y89883D01*
X371117D02*
X373233D01*
X369000Y87767D02*
X371117Y89883D01*
X357883Y98883D02*
X360000Y96767D01*
X355767Y98883D02*
X357883D01*
X355767D02*
X357883Y101000D01*
X355767Y103117D02*
X357883Y101000D01*
X355767Y103117D02*
X357883D01*
X360000Y105233D01*
X362117Y103117D01*
X364234D01*
X362117Y101000D02*
X364234Y103117D01*
X362117Y101000D02*
X364234Y98883D01*
X362117D02*
X364234D01*
X360000Y96767D02*
X362117Y98883D01*
X348884Y89883D02*
X351000Y87767D01*
X346767Y89883D02*
X348884D01*
X346767D02*
X348884Y92000D01*
X346767Y94117D02*
X348884Y92000D01*
X346767Y94117D02*
X348884D01*
X351000Y96233D01*
X353117Y94117D01*
X355233D01*
X353117Y92000D02*
X355233Y94117D01*
X353117Y92000D02*
X355233Y89883D01*
X353117D02*
X355233D01*
X351000Y87767D02*
X353117Y89883D01*
X357883Y80884D02*
X360000Y78767D01*
X355767Y80884D02*
X357883D01*
X355767D02*
X357883Y83000D01*
X355767Y85117D02*
X357883Y83000D01*
X355767Y85117D02*
X357883D01*
X360000Y87233D01*
X362117Y85117D01*
X364234D01*
X362117Y83000D02*
X364234Y85117D01*
X362117Y83000D02*
X364234Y80884D01*
X362117D02*
X364234D01*
X360000Y78767D02*
X362117Y80884D01*
X357883Y89883D02*
X360000Y87767D01*
X355767Y89883D02*
X357883D01*
X355767D02*
X357883Y92000D01*
X355767Y94117D02*
X357883Y92000D01*
X355767Y94117D02*
X357883D01*
X360000Y96233D01*
X362117Y94117D01*
X364234D01*
X362117Y92000D02*
X364234Y94117D01*
X362117Y92000D02*
X364234Y89883D01*
X362117D02*
X364234D01*
X360000Y87767D02*
X362117Y89883D01*
X317000Y10267D02*
X321233Y18733D01*
X312767D02*
X321233D01*
X312767D02*
X317000Y10267D01*
X189000D02*
X193233Y18733D01*
X184767D02*
X193233D01*
X184767D02*
X189000Y10267D01*
X45551Y24459D02*
X54017D01*
Y32925D01*
X45551D02*
X54017D01*
X45551Y24459D02*
Y32925D01*
Y4159D02*
X54017D01*
Y12625D01*
X45551D02*
X54017D01*
X45551Y4159D02*
Y12625D01*
X121751Y14309D02*
X130217D01*
Y22775D01*
X121751D02*
X130217D01*
X121751Y14309D02*
Y22775D01*
D129*
X537915Y-73660D02*
Y-62261D01*
X543615D01*
X545515Y-64160D01*
Y-67960D01*
X543615Y-69860D01*
X537915D01*
X549314Y-62261D02*
Y-73660D01*
Y-67960D01*
X551214Y-66060D01*
X555014D01*
X556914Y-67960D01*
Y-73660D01*
X560714Y-66060D02*
Y-71760D01*
X562614Y-73660D01*
X568313D01*
Y-75560D01*
X566413Y-77460D01*
X564514D01*
X568313Y-73660D02*
Y-66060D01*
X572113Y-73660D02*
X577813D01*
X579713Y-71760D01*
X577813Y-69860D01*
X574013D01*
X572113Y-67960D01*
X574013Y-66060D01*
X579713D01*
X583513Y-73660D02*
X587313D01*
X585413D01*
Y-66060D01*
X583513D01*
X600612D02*
X594912D01*
X593012Y-67960D01*
Y-71760D01*
X594912Y-73660D01*
X600612D01*
X606312Y-66060D02*
X610111D01*
X612011Y-67960D01*
Y-73660D01*
X606312D01*
X604412Y-71760D01*
X606312Y-69860D01*
X612011D01*
X615811Y-73660D02*
X619611D01*
X617711D01*
Y-62261D01*
X615811D01*
X636710D02*
Y-73660D01*
X644310D01*
X653809D02*
X650009D01*
X648110Y-71760D01*
Y-67960D01*
X650009Y-66060D01*
X653809D01*
X655709Y-67960D01*
Y-69860D01*
X648110D01*
X659509Y-73660D02*
Y-66060D01*
X665209D01*
X667109Y-67960D01*
Y-73660D01*
X674708Y-77460D02*
X676608D01*
X678508Y-75560D01*
Y-66060D01*
X672808D01*
X670908Y-67960D01*
Y-71760D01*
X672808Y-73660D01*
X678508D01*
X684208Y-64160D02*
Y-66060D01*
X682308D01*
X686108D01*
X684208D01*
Y-71760D01*
X686108Y-73660D01*
X691807Y-62261D02*
Y-73660D01*
Y-67960D01*
X693707Y-66060D01*
X697507D01*
X699407Y-67960D01*
Y-73660D01*
X418638Y-62261D02*
Y-73660D01*
Y-67960D01*
X426237D01*
Y-62261D01*
Y-73660D01*
X431937D02*
X435737D01*
X437637Y-71760D01*
Y-67960D01*
X435737Y-66060D01*
X431937D01*
X430037Y-67960D01*
Y-71760D01*
X431937Y-73660D01*
X441437D02*
X445236D01*
X443336D01*
Y-62261D01*
X441437D01*
X456636Y-73660D02*
X452836D01*
X450936Y-71760D01*
Y-67960D01*
X452836Y-66060D01*
X456636D01*
X458536Y-67960D01*
Y-69860D01*
X450936D01*
X473735Y-62261D02*
X481335D01*
X477535D01*
Y-73660D01*
X485135Y-66060D02*
Y-71760D01*
X487034Y-73660D01*
X492734D01*
Y-75560D01*
X490834Y-77460D01*
X488934D01*
X492734Y-73660D02*
Y-66060D01*
X496534Y-77460D02*
Y-66060D01*
X502234D01*
X504134Y-67960D01*
Y-71760D01*
X502234Y-73660D01*
X496534D01*
X513633D02*
X509833D01*
X507933Y-71760D01*
Y-67960D01*
X509833Y-66060D01*
X513633D01*
X515533Y-67960D01*
Y-69860D01*
X507933D01*
X335459Y-73660D02*
Y-62261D01*
X341158D01*
X343058Y-64160D01*
Y-67960D01*
X341158Y-69860D01*
X335459D01*
X346858Y-73660D02*
X350658D01*
X348758D01*
Y-62261D01*
X346858D01*
X358258Y-66060D02*
X362057D01*
X363957Y-67960D01*
Y-73660D01*
X358258D01*
X356358Y-71760D01*
X358258Y-69860D01*
X363957D01*
X369657Y-64160D02*
Y-66060D01*
X367757D01*
X371557D01*
X369657D01*
Y-71760D01*
X371557Y-73660D01*
X382957D02*
X379157D01*
X377257Y-71760D01*
Y-67960D01*
X379157Y-66060D01*
X382957D01*
X384856Y-67960D01*
Y-69860D01*
X377257D01*
X396256Y-62261D02*
Y-73660D01*
X390556D01*
X388656Y-71760D01*
Y-67960D01*
X390556Y-66060D01*
X396256D01*
X126886Y-62261D02*
X119286D01*
Y-67960D01*
X123086D01*
X119286D01*
Y-73660D01*
X130686D02*
X134486D01*
X132586D01*
Y-66060D01*
X130686D01*
X140185Y-73660D02*
Y-66060D01*
X145885D01*
X147785Y-67960D01*
Y-73660D01*
X151585D02*
X155385D01*
X153485D01*
Y-66060D01*
X151585D01*
X161084Y-73660D02*
X166784D01*
X168684Y-71760D01*
X166784Y-69860D01*
X162984D01*
X161084Y-67960D01*
X162984Y-66060D01*
X168684D01*
X172484Y-62261D02*
Y-73660D01*
Y-67960D01*
X174384Y-66060D01*
X178183D01*
X180083Y-67960D01*
Y-73660D01*
X189583D02*
X185783D01*
X183883Y-71760D01*
Y-67960D01*
X185783Y-66060D01*
X189583D01*
X191483Y-67960D01*
Y-69860D01*
X183883D01*
X202882Y-62261D02*
Y-73660D01*
X197183D01*
X195283Y-71760D01*
Y-67960D01*
X197183Y-66060D01*
X202882D01*
X218082Y-62261D02*
Y-73660D01*
Y-67960D01*
X225681D01*
Y-62261D01*
Y-73660D01*
X231381D02*
X235181D01*
X237081Y-71760D01*
Y-67960D01*
X235181Y-66060D01*
X231381D01*
X229481Y-67960D01*
Y-71760D01*
X231381Y-73660D01*
X240880D02*
X244680D01*
X242780D01*
Y-62261D01*
X240880D01*
X256080Y-73660D02*
X252280D01*
X250380Y-71760D01*
Y-67960D01*
X252280Y-66060D01*
X256080D01*
X257980Y-67960D01*
Y-69860D01*
X250380D01*
X280779Y-64160D02*
X278879Y-62261D01*
X275079D01*
X273179Y-64160D01*
Y-66060D01*
X275079Y-67960D01*
X278879D01*
X280779Y-69860D01*
Y-71760D01*
X278879Y-73660D01*
X275079D01*
X273179Y-71760D01*
X284578Y-73660D02*
X288378D01*
X286478D01*
Y-66060D01*
X284578D01*
X294078D02*
X301677D01*
X294078Y-73660D01*
X301677D01*
X311177D02*
X307377D01*
X305477Y-71760D01*
Y-67960D01*
X307377Y-66060D01*
X311177D01*
X313077Y-67960D01*
Y-69860D01*
X305477D01*
X5709Y-62261D02*
Y-73660D01*
Y-67960D01*
X13309D01*
Y-62261D01*
Y-73660D01*
X17108D02*
X20908D01*
X19008D01*
Y-66060D01*
X17108D01*
X28508Y-64160D02*
Y-66060D01*
X26608D01*
X30408D01*
X28508D01*
Y-71760D01*
X30408Y-73660D01*
X55107Y-64160D02*
X53207Y-62261D01*
X49407D01*
X47507Y-64160D01*
Y-71760D01*
X49407Y-73660D01*
X53207D01*
X55107Y-71760D01*
X60806Y-73660D02*
X64606D01*
X66506Y-71760D01*
Y-67960D01*
X64606Y-66060D01*
X60806D01*
X58906Y-67960D01*
Y-71760D01*
X60806Y-73660D01*
X70306Y-66060D02*
Y-71760D01*
X72206Y-73660D01*
X77905D01*
Y-66060D01*
X81705Y-73660D02*
Y-66060D01*
X87405D01*
X89305Y-67960D01*
Y-73660D01*
X95005Y-64160D02*
Y-66060D01*
X93105D01*
X96904D01*
X95005D01*
Y-71760D01*
X96904Y-73660D01*
X-69870Y-64160D02*
X-71770Y-62261D01*
X-75570D01*
X-77470Y-64160D01*
Y-66060D01*
X-75570Y-67960D01*
X-71770D01*
X-69870Y-69860D01*
Y-71760D01*
X-71770Y-73660D01*
X-75570D01*
X-77470Y-71760D01*
X-66071Y-66060D02*
Y-71760D01*
X-64171Y-73660D01*
X-58471D01*
Y-75560D01*
X-60371Y-77460D01*
X-62271D01*
X-58471Y-73660D02*
Y-66060D01*
X-54671Y-73660D02*
Y-66060D01*
X-52771D01*
X-50871Y-67960D01*
Y-73660D01*
Y-67960D01*
X-48971Y-66060D01*
X-47071Y-67960D01*
Y-73660D01*
X-43272Y-62261D02*
Y-73660D01*
X-37572D01*
X-35672Y-71760D01*
Y-69860D01*
Y-67960D01*
X-37572Y-66060D01*
X-43272D01*
X-29972Y-73660D02*
X-26172D01*
X-24273Y-71760D01*
Y-67960D01*
X-26172Y-66060D01*
X-29972D01*
X-31872Y-67960D01*
Y-71760D01*
X-29972Y-73660D01*
X-20473D02*
X-16673D01*
X-18573D01*
Y-62261D01*
X-20473D01*
D130*
X88762Y-235062D02*
Y-225562D01*
X93511D01*
X95095Y-227146D01*
Y-230312D01*
X93511Y-231895D01*
X88762D01*
X98261Y-225562D02*
Y-235062D01*
Y-230312D01*
X99845Y-228729D01*
X103011D01*
X104594Y-230312D01*
Y-235062D01*
X107761Y-228729D02*
Y-233479D01*
X109344Y-235062D01*
X114094D01*
Y-236645D01*
X112511Y-238228D01*
X110927D01*
X114094Y-235062D02*
Y-228729D01*
X117260Y-235062D02*
X122010D01*
X123593Y-233479D01*
X122010Y-231895D01*
X118844D01*
X117260Y-230312D01*
X118844Y-228729D01*
X123593D01*
X126760Y-235062D02*
X129927D01*
X128343D01*
Y-228729D01*
X126760D01*
X141009D02*
X136259D01*
X134676Y-230312D01*
Y-233479D01*
X136259Y-235062D01*
X141009D01*
X145759Y-228729D02*
X148926D01*
X150509Y-230312D01*
Y-235062D01*
X145759D01*
X144176Y-233479D01*
X145759Y-231895D01*
X150509D01*
X153675Y-235062D02*
X156842D01*
X155259D01*
Y-225562D01*
X153675D01*
X171091D02*
Y-235062D01*
X177424D01*
X185340D02*
X182174D01*
X180591Y-233479D01*
Y-230312D01*
X182174Y-228729D01*
X185340D01*
X186924Y-230312D01*
Y-231895D01*
X180591D01*
X190090Y-235062D02*
Y-228729D01*
X194840D01*
X196423Y-230312D01*
Y-235062D01*
X202756Y-238228D02*
X204340D01*
X205923Y-236645D01*
Y-228729D01*
X201173D01*
X199590Y-230312D01*
Y-233479D01*
X201173Y-235062D01*
X205923D01*
X210673Y-227146D02*
Y-228729D01*
X209089D01*
X212256D01*
X210673D01*
Y-233479D01*
X212256Y-235062D01*
X217006Y-225562D02*
Y-235062D01*
Y-230312D01*
X218589Y-228729D01*
X221755D01*
X223339Y-230312D01*
Y-235062D01*
X88762Y-217316D02*
Y-207816D01*
X93511D01*
X95095Y-209400D01*
Y-212566D01*
X93511Y-214149D01*
X88762D01*
X91928D02*
X95095Y-217316D01*
X99845D02*
X103011D01*
X104594Y-215732D01*
Y-212566D01*
X103011Y-210983D01*
X99845D01*
X98261Y-212566D01*
Y-215732D01*
X99845Y-217316D01*
X107761Y-210983D02*
Y-215732D01*
X109344Y-217316D01*
X114094D01*
Y-210983D01*
X118844Y-209400D02*
Y-210983D01*
X117260D01*
X120427D01*
X118844D01*
Y-215732D01*
X120427Y-217316D01*
X134676D02*
Y-207816D01*
X139426D01*
X141009Y-209400D01*
Y-212566D01*
X139426Y-214149D01*
X134676D01*
X145759Y-210983D02*
X148926D01*
X150509Y-212566D01*
Y-217316D01*
X145759D01*
X144176Y-215732D01*
X145759Y-214149D01*
X150509D01*
X155259Y-209400D02*
Y-210983D01*
X153675D01*
X156842D01*
X155259D01*
Y-215732D01*
X156842Y-217316D01*
X161592Y-207816D02*
Y-217316D01*
Y-212566D01*
X163175Y-210983D01*
X166341D01*
X167925Y-212566D01*
Y-217316D01*
X180591Y-207816D02*
Y-217316D01*
X186924D01*
X194840D02*
X191674D01*
X190090Y-215732D01*
Y-212566D01*
X191674Y-210983D01*
X194840D01*
X196423Y-212566D01*
Y-214149D01*
X190090D01*
X199590Y-217316D02*
Y-210983D01*
X204340D01*
X205923Y-212566D01*
Y-217316D01*
X212256Y-220482D02*
X213839D01*
X215422Y-218899D01*
Y-210983D01*
X210673D01*
X209089Y-212566D01*
Y-215732D01*
X210673Y-217316D01*
X215422D01*
X220172Y-209400D02*
Y-210983D01*
X218589D01*
X221755D01*
X220172D01*
Y-215732D01*
X221755Y-217316D01*
X226505Y-207816D02*
Y-217316D01*
Y-212566D01*
X228088Y-210983D01*
X231255D01*
X232838Y-212566D01*
Y-217316D01*
X-71137Y-209400D02*
X-72720Y-207816D01*
X-75887D01*
X-77470Y-209400D01*
Y-210983D01*
X-75887Y-212566D01*
X-72720D01*
X-71137Y-214149D01*
Y-215732D01*
X-72720Y-217316D01*
X-75887D01*
X-77470Y-215732D01*
X-67970Y-217316D02*
X-64804D01*
X-66387D01*
Y-207816D01*
X-67970D01*
X-58471Y-217316D02*
X-55304D01*
X-53721Y-215732D01*
Y-212566D01*
X-55304Y-210983D01*
X-58471D01*
X-60054Y-212566D01*
Y-215732D01*
X-58471Y-217316D01*
X-48971Y-209400D02*
Y-210983D01*
X-50555D01*
X-47388D01*
X-48971D01*
Y-215732D01*
X-47388Y-217316D01*
X-26806Y-207816D02*
Y-217316D01*
X-31556D01*
X-33139Y-215732D01*
Y-212566D01*
X-31556Y-210983D01*
X-26806D01*
X-18889Y-217316D02*
X-22056D01*
X-23639Y-215732D01*
Y-212566D01*
X-22056Y-210983D01*
X-18889D01*
X-17306Y-212566D01*
Y-214149D01*
X-23639D01*
X-12556Y-217316D02*
Y-209400D01*
Y-212566D01*
X-14140D01*
X-10973D01*
X-12556D01*
Y-209400D01*
X-10973Y-207816D01*
X-6223Y-217316D02*
X-3057D01*
X-4640D01*
Y-210983D01*
X-6223D01*
X1693Y-217316D02*
Y-210983D01*
X6443D01*
X8026Y-212566D01*
Y-217316D01*
X11193D02*
X14359D01*
X12776D01*
Y-210983D01*
X11193D01*
X20692Y-209400D02*
Y-210983D01*
X19109D01*
X22275D01*
X20692D01*
Y-215732D01*
X22275Y-217316D01*
X27025D02*
X30192D01*
X28608D01*
Y-210983D01*
X27025D01*
X36525Y-217316D02*
X39691D01*
X41274Y-215732D01*
Y-212566D01*
X39691Y-210983D01*
X36525D01*
X34941Y-212566D01*
Y-215732D01*
X36525Y-217316D01*
X44441D02*
Y-210983D01*
X49191D01*
X50774Y-212566D01*
Y-217316D01*
X53940D02*
X58690D01*
X60273Y-215732D01*
X58690Y-214149D01*
X55524D01*
X53940Y-212566D01*
X55524Y-210983D01*
X60273D01*
X72940D02*
X74523D01*
Y-212566D01*
X72940D01*
Y-210983D01*
Y-215732D02*
X74523D01*
Y-217316D01*
X72940D01*
Y-215732D01*
M02*
