G04 Layer_Physical_Order=4*
G04 Layer_Color=16711680*
%FSLAX44Y44*%
%MOMM*%
G71*
G01*
G75*
%ADD10C,0.1778*%
%ADD17R,0.5000X0.6000*%
%ADD18R,0.8500X1.4000*%
%ADD22R,0.6000X0.5000*%
%ADD23R,0.2500X0.4000*%
%ADD24R,1.2000X0.5000*%
%ADD25R,0.9000X0.8000*%
%ADD26R,0.8000X0.9000*%
%ADD27R,1.4000X0.8500*%
%ADD28C,1.0000*%
%ADD30C,0.2032*%
%ADD32C,0.4572*%
%ADD33C,0.2794*%
%ADD34C,0.2540*%
%ADD35C,0.5080*%
%ADD36C,0.3810*%
%ADD37C,0.3048*%
%ADD40O,1.2000X2.1000*%
%ADD41C,1.6000*%
%ADD42C,0.6096*%
%ADD49R,0.4000X0.4000*%
%ADD50R,2.5000X1.5000*%
%ADD51R,2.5000X0.5500*%
%ADD52R,2.7000X2.7000*%
%ADD53R,0.8500X0.2800*%
%ADD54R,0.2800X0.8500*%
%ADD55R,0.6000X0.3048*%
%ADD56R,0.3048X0.6000*%
%ADD57R,5.6000X5.6000*%
%ADD58C,0.7870*%
%ADD59R,3.5000X2.9500*%
G04:AMPARAMS|DCode=60|XSize=2mm|YSize=2mm|CornerRadius=0.5mm|HoleSize=0mm|Usage=FLASHONLY|Rotation=0.000|XOffset=0mm|YOffset=0mm|HoleType=Round|Shape=RoundedRectangle|*
%AMROUNDEDRECTD60*
21,1,2.0000,1.0000,0,0,0.0*
21,1,1.0000,2.0000,0,0,0.0*
1,1,1.0000,0.5000,-0.5000*
1,1,1.0000,-0.5000,-0.5000*
1,1,1.0000,-0.5000,0.5000*
1,1,1.0000,0.5000,0.5000*
%
%ADD60ROUNDEDRECTD60*%
%ADD61R,1.2000X1.4000*%
G04:AMPARAMS|DCode=62|XSize=1.4mm|YSize=1.2mm|CornerRadius=0.3mm|HoleSize=0mm|Usage=FLASHONLY|Rotation=270.000|XOffset=0mm|YOffset=0mm|HoleType=Round|Shape=RoundedRectangle|*
%AMROUNDEDRECTD62*
21,1,1.4000,0.6000,0,0,270.0*
21,1,0.8000,1.2000,0,0,270.0*
1,1,0.6000,-0.3000,-0.4000*
1,1,0.6000,-0.3000,0.4000*
1,1,0.6000,0.3000,0.4000*
1,1,0.6000,0.3000,-0.4000*
%
%ADD62ROUNDEDRECTD62*%
%ADD63R,0.8800X0.6000*%
%ADD64R,0.4700X0.6000*%
%ADD65R,5.0000X3.0000*%
G04:AMPARAMS|DCode=66|XSize=0.6mm|YSize=0.3mm|CornerRadius=0.075mm|HoleSize=0mm|Usage=FLASHONLY|Rotation=180.000|XOffset=0mm|YOffset=0mm|HoleType=Round|Shape=RoundedRectangle|*
%AMROUNDEDRECTD66*
21,1,0.6000,0.1500,0,0,180.0*
21,1,0.4500,0.3000,0,0,180.0*
1,1,0.1500,-0.2250,0.0750*
1,1,0.1500,0.2250,0.0750*
1,1,0.1500,0.2250,-0.0750*
1,1,0.1500,-0.2250,-0.0750*
%
%ADD66ROUNDEDRECTD66*%
%ADD67R,2.1000X1.6000*%
%ADD68R,1.9000X1.9000*%
%ADD69R,0.4000X1.3500*%
%ADD70C,0.1524*%
%ADD71R,0.8171X1.5500*%
%ADD72R,2.4638X1.6510*%
G36*
X358802Y68010D02*
X358742Y67949D01*
X358689Y67848D01*
X358643Y67705D01*
X358605Y67523D01*
X358573Y67299D01*
X358530Y66730D01*
X358516Y65999D01*
X356484D01*
X356481Y66385D01*
X356396Y67523D01*
X356357Y67705D01*
X356311Y67848D01*
X356258Y67949D01*
X356198Y68010D01*
X356131Y68031D01*
X358870D01*
X358802Y68010D01*
D02*
G37*
G36*
X137551Y66121D02*
Y65012D01*
X137069Y65010D01*
X137043Y65008D01*
X136574Y63980D01*
X136488Y64176D01*
X136376Y64351D01*
X136239Y64506D01*
X136077Y64640D01*
X135889Y64754D01*
X135676Y64847D01*
X135451Y64915D01*
X135240Y64902D01*
X135113Y64869D01*
X135037Y64831D01*
X135011Y64788D01*
Y64988D01*
X134884Y65002D01*
X134569Y65012D01*
X135011Y65825D01*
Y67775D01*
X135037Y67733D01*
X135113Y67695D01*
X135240Y67661D01*
X135418Y67632D01*
X135646Y67608D01*
X136485Y67568D01*
X137373Y67624D01*
X137602Y67655D01*
X138006Y67735D01*
X138180Y67784D01*
X138336Y67838D01*
X137551Y66121D01*
D02*
G37*
G36*
X350255Y64084D02*
X350058Y63882D01*
X349523Y63256D01*
X349362Y63042D01*
X348935Y62381D01*
X348811Y62155D01*
X348695Y61926D01*
X347412Y65920D01*
X347644Y65809D01*
X347875Y65733D01*
X348105Y65693D01*
X348333Y65686D01*
X348560Y65714D01*
X348786Y65777D01*
X349010Y65875D01*
X349232Y66007D01*
X349454Y66175D01*
X349673Y66376D01*
X350255Y64084D01*
D02*
G37*
G36*
X32410Y69236D02*
X32359Y69079D01*
X32359Y68895D01*
X32411Y68684D01*
X32514Y68446D01*
X32668Y68181D01*
X32874Y67889D01*
X33132Y67570D01*
X33801Y66852D01*
X32429Y65709D01*
X32067Y66059D01*
X31416Y66612D01*
X31128Y66814D01*
X30864Y66968D01*
X30625Y67072D01*
X30411Y67127D01*
X30221Y67133D01*
X30055Y67089D01*
X29915Y66997D01*
X32513Y69367D01*
X32410Y69236D01*
D02*
G37*
G36*
X135039Y72757D02*
X135123Y72741D01*
X135263Y72726D01*
X136017Y72694D01*
X137805Y72679D01*
Y69885D01*
X135011Y69788D01*
Y72775D01*
X135039Y72757D01*
D02*
G37*
G36*
X346161Y70218D02*
X346141Y70411D01*
X346079Y70584D01*
X345975Y70736D01*
X345831Y70868D01*
X345645Y70980D01*
X345419Y71072D01*
X345150Y71143D01*
X344841Y71193D01*
X344491Y71224D01*
X344099Y71234D01*
Y73266D01*
X344491Y73276D01*
X344841Y73307D01*
X345150Y73358D01*
X345419Y73429D01*
X345645Y73520D01*
X345831Y73632D01*
X345975Y73764D01*
X346079Y73916D01*
X346141Y74089D01*
X346161Y74282D01*
Y70218D01*
D02*
G37*
G36*
X339863Y70196D02*
X339894Y69914D01*
X339947Y69642D01*
X340021Y69380D01*
X340117Y69128D01*
X340233Y68886D01*
X340371Y68654D01*
X340529Y68433D01*
X340709Y68221D01*
X340910Y68019D01*
X336762D01*
X336963Y68221D01*
X337143Y68433D01*
X337301Y68654D01*
X337439Y68886D01*
X337555Y69128D01*
X337651Y69380D01*
X337725Y69642D01*
X337778Y69914D01*
X337809Y70196D01*
X337820Y70489D01*
X339852D01*
X339863Y70196D01*
D02*
G37*
G36*
X57414Y73163D02*
X57654Y72982D01*
X57900Y72821D01*
X58150Y72682D01*
X58406Y72565D01*
X58666Y72469D01*
X58931Y72394D01*
X59202Y72341D01*
X59478Y72309D01*
X59494Y72308D01*
X60341Y72374D01*
X60564Y72417D01*
X60747Y72470D01*
X60889Y72532D01*
X60991Y72604D01*
X61052Y72685D01*
X61072Y72775D01*
Y69788D01*
X61052Y69879D01*
X60991Y69960D01*
X60889Y70032D01*
X60747Y70094D01*
X60564Y70146D01*
X60341Y70189D01*
X60077Y70223D01*
X59573Y70252D01*
X59312Y70219D01*
X59044Y70161D01*
X58784Y70080D01*
X58533Y69976D01*
X58291Y69848D01*
X58057Y69697D01*
X57831Y69523D01*
X57614Y69326D01*
X57405Y69105D01*
X57178Y73366D01*
X57414Y73163D01*
D02*
G37*
G36*
X141464Y62693D02*
X141360Y62540D01*
X141269Y62366D01*
X141189Y62170D01*
X141122Y61951D01*
X141067Y61711D01*
X141025Y61449D01*
X140994Y61165D01*
X140970Y60531D01*
X137922D01*
X137916Y60859D01*
X137867Y61449D01*
X137824Y61711D01*
X137770Y61951D01*
X137703Y62170D01*
X137623Y62366D01*
X137532Y62540D01*
X137428Y62693D01*
X137312Y62823D01*
X141580D01*
X141464Y62693D01*
D02*
G37*
G36*
X34918Y61992D02*
X34944Y61689D01*
X34989Y61423D01*
X35051Y61192D01*
X35131Y60996D01*
X35229Y60836D01*
X35345Y60711D01*
X35478Y60623D01*
X35629Y60569D01*
X35798Y60551D01*
X32242D01*
X32411Y60569D01*
X32562Y60623D01*
X32695Y60711D01*
X32811Y60836D01*
X32909Y60996D01*
X32989Y61192D01*
X33051Y61423D01*
X33095Y61689D01*
X33122Y61992D01*
X33131Y62329D01*
X34909D01*
X34918Y61992D01*
D02*
G37*
G36*
X116941Y56828D02*
X116860Y56782D01*
X116790Y56706D01*
X116728Y56600D01*
X116676Y56463D01*
X116634Y56296D01*
X116600Y56098D01*
X116577Y55870D01*
X116558Y55324D01*
X114526D01*
X114521Y55612D01*
X114483Y56098D01*
X114450Y56296D01*
X114408Y56463D01*
X114356Y56600D01*
X114294Y56706D01*
X114223Y56782D01*
X114143Y56828D01*
X114053Y56843D01*
X117031D01*
X116941Y56828D01*
D02*
G37*
G36*
X356342Y62043D02*
X356150Y61835D01*
X355978Y61616D01*
X355827Y61386D01*
X355697Y61145D01*
X355587Y60893D01*
X355498Y60630D01*
X355429Y60356D01*
X355381Y60070D01*
X355353Y59774D01*
X355346Y59467D01*
X352328Y62484D01*
X352636Y62491D01*
X352932Y62519D01*
X353218Y62567D01*
X353492Y62636D01*
X353755Y62725D01*
X354007Y62835D01*
X354248Y62965D01*
X354478Y63116D01*
X354697Y63288D01*
X354905Y63480D01*
X356342Y62043D01*
D02*
G37*
G36*
X158902Y63095D02*
X158178Y63076D01*
X157530Y63019D01*
X156958Y62923D01*
X156463Y62790D01*
X156044Y62619D01*
X155701Y62409D01*
X155434Y62161D01*
X155244Y61876D01*
X155130Y61552D01*
X155091Y61190D01*
Y66049D01*
X155130Y66212D01*
X155244Y66357D01*
X155434Y66486D01*
X155701Y66597D01*
X156044Y66691D01*
X156463Y66768D01*
X156958Y66828D01*
X158178Y66896D01*
X158902Y66905D01*
Y63095D01*
D02*
G37*
G36*
X367573Y68031D02*
X368870D01*
X368778Y68013D01*
X368697Y67959D01*
X368625Y67871D01*
X368562Y67746D01*
X368509Y67586D01*
X368466Y67390D01*
X368435Y67176D01*
X368466Y66986D01*
X368526Y66715D01*
X368696Y66143D01*
X368807Y65841D01*
X369079Y65208D01*
X369241Y64877D01*
X365200Y66246D01*
X365468Y66390D01*
X365708Y66549D01*
X365920Y66723D01*
X366103Y66913D01*
X366258Y67118D01*
X366385Y67339D01*
X366484Y67575D01*
X366489Y67592D01*
X366438Y67746D01*
X366376Y67871D01*
X366304Y67959D01*
X366222Y68013D01*
X366131Y68031D01*
X366587D01*
X366597Y68093D01*
X366611Y68376D01*
X367573Y68031D01*
D02*
G37*
G36*
X361696Y63904D02*
X361706Y63651D01*
X361737Y63393D01*
X361787Y63128D01*
X361859Y62858D01*
X361950Y62583D01*
X362062Y62302D01*
X362194Y62015D01*
X362519Y61424D01*
X362712Y61121D01*
X358539Y62010D01*
X358801Y62190D01*
X359035Y62381D01*
X359242Y62583D01*
X359422Y62797D01*
X359573Y63020D01*
X359697Y63255D01*
X359794Y63501D01*
X359863Y63757D01*
X359904Y64024D01*
X359918Y64302D01*
X361696Y63904D01*
D02*
G37*
G36*
X141683Y67090D02*
X141776Y67051D01*
X141900Y67017D01*
X142055Y66987D01*
X142243Y66962D01*
X142712Y66925D01*
X143654Y66905D01*
Y66610D01*
X146152Y66049D01*
X146183Y61190D01*
X146142Y61552D01*
X146025Y61876D01*
X145832Y62161D01*
X145563Y62409D01*
X145217Y62619D01*
X144795Y62790D01*
X144296Y62923D01*
X143721Y63019D01*
X143070Y63076D01*
X143053Y63076D01*
X142055Y63013D01*
X141900Y62983D01*
X141776Y62949D01*
X141683Y62910D01*
X141623Y62866D01*
Y67133D01*
X141683Y67090D01*
D02*
G37*
G36*
X258462Y76348D02*
X258523Y76186D01*
X258624Y76043D01*
X258767Y75919D01*
X258950Y75814D01*
X259173Y75729D01*
X259437Y75662D01*
X259742Y75614D01*
X260087Y75585D01*
X260473Y75576D01*
Y73544D01*
X260087Y73534D01*
X259742Y73506D01*
X259437Y73458D01*
X259173Y73391D01*
X258950Y73306D01*
X258767Y73201D01*
X258624Y73077D01*
X258523Y72934D01*
X258462Y72772D01*
X258442Y72590D01*
Y76529D01*
X258462Y76348D01*
D02*
G37*
G36*
X33801Y80823D02*
X33449Y80460D01*
X32895Y79807D01*
X32692Y79518D01*
X32538Y79254D01*
X32434Y79015D01*
X32380Y78801D01*
X32375Y78612D01*
X32419Y78448D01*
X32513Y78309D01*
X30111Y80875D01*
X30243Y80774D01*
X30401Y80724D01*
X30586Y80725D01*
X30798Y80777D01*
X31036Y80880D01*
X31301Y81034D01*
X31592Y81240D01*
X31910Y81496D01*
X32625Y82163D01*
X33801Y80823D01*
D02*
G37*
G36*
X408917Y87048D02*
X408894Y86808D01*
X408894Y86565D01*
X408915Y86319D01*
X408959Y86069D01*
X409025Y85816D01*
X409114Y85560D01*
X409122Y85541D01*
X409376Y85208D01*
X409683Y84881D01*
X409976Y84627D01*
X410252Y84445D01*
X410513Y84335D01*
X410758Y84297D01*
X410988Y84332D01*
X411202Y84439D01*
X407061Y81559D01*
X407231Y81732D01*
X407333Y81968D01*
X407367Y82267D01*
X407332Y82628D01*
X407228Y83052D01*
X407056Y83538D01*
X406816Y84087D01*
X406758Y84203D01*
X406637Y84324D01*
X406439Y84494D01*
X406234Y84643D01*
X406022Y84770D01*
X405803Y84876D01*
X405577Y84961D01*
X405344Y85023D01*
X406058Y85469D01*
X405684Y86109D01*
X407703Y86497D01*
X408963Y87285D01*
X408917Y87048D01*
D02*
G37*
G36*
X372500Y79500D02*
X346600D01*
Y104500D01*
X372500D01*
Y79500D01*
D02*
G37*
G36*
X135021Y82196D02*
X135048Y82190D01*
X135094Y82186D01*
X135342Y82176D01*
X135931Y82171D01*
Y80393D01*
X135011Y80362D01*
Y82201D01*
X135021Y82196D01*
D02*
G37*
G36*
X449644Y90095D02*
X449548Y90061D01*
X450078D01*
X449644Y90015D01*
X449255Y89877D01*
X448912Y89647D01*
X448615Y89325D01*
X448364Y88911D01*
X448158Y88404D01*
X447998Y87806D01*
X447884Y87115D01*
X447834Y86546D01*
X447876Y86026D01*
X447980Y85340D01*
X448125Y84746D01*
X448313Y84243D01*
X448542Y83831D01*
X448813Y83511D01*
X449126Y83282D01*
X449480Y83145D01*
X449876Y83100D01*
X441137D01*
X441533Y83145D01*
X441887Y83282D01*
X442199Y83511D01*
X442470Y83831D01*
X442699Y84243D01*
X442887Y84746D01*
X443033Y85340D01*
X443137Y86026D01*
X443179Y86546D01*
X443129Y87115D01*
X443014Y87806D01*
X442854Y88404D01*
X442649Y88911D01*
X442397Y89325D01*
X442100Y89647D01*
X441757Y89877D01*
X441368Y90015D01*
X440934Y90061D01*
X441464D01*
X441368Y90095D01*
X440934Y90141D01*
X450078D01*
X449644Y90095D01*
D02*
G37*
G36*
X61072Y84788D02*
X61055Y84903D01*
X61001Y85006D01*
X60912Y85097D01*
X60788Y85175D01*
X60628Y85242D01*
X60432Y85296D01*
X60201Y85338D01*
X59934Y85369D01*
X59632Y85387D01*
X59294Y85393D01*
Y87171D01*
X59632Y87177D01*
X60201Y87225D01*
X60432Y87268D01*
X60628Y87322D01*
X60788Y87388D01*
X60912Y87467D01*
X61001Y87558D01*
X61055Y87661D01*
X61072Y87775D01*
Y84788D01*
D02*
G37*
G36*
X310436Y85875D02*
X310660Y85682D01*
X310893Y85512D01*
X311132Y85365D01*
X311379Y85240D01*
X311633Y85138D01*
X311894Y85058D01*
X312163Y85001D01*
X312439Y84967D01*
X312723Y84956D01*
X312681Y82924D01*
X312399Y82913D01*
X312123Y82880D01*
X311853Y82825D01*
X311589Y82748D01*
X311332Y82649D01*
X311080Y82528D01*
X310835Y82385D01*
X310595Y82220D01*
X310362Y82033D01*
X310134Y81824D01*
X310218Y86090D01*
X310436Y85875D01*
D02*
G37*
G36*
X336031Y83131D02*
X333999Y82924D01*
Y84956D01*
X334385Y84965D01*
X334730Y84993D01*
X335035Y85038D01*
X335299Y85102D01*
X335523Y85184D01*
X335705Y85285D01*
X335848Y85404D01*
X335949Y85541D01*
X336010Y85696D01*
X336031Y85870D01*
Y83131D01*
D02*
G37*
G36*
X61072Y74788D02*
X61052Y74879D01*
X60991Y74960D01*
X60889Y75032D01*
X60747Y75094D01*
X60564Y75146D01*
X60341Y75189D01*
X60077Y75223D01*
X59426Y75261D01*
X59040Y75266D01*
Y77298D01*
X59426Y77303D01*
X60341Y77374D01*
X60564Y77417D01*
X60747Y77470D01*
X60889Y77532D01*
X60991Y77604D01*
X61052Y77685D01*
X61072Y77775D01*
Y74788D01*
D02*
G37*
G36*
X383984Y80594D02*
X384027Y80317D01*
X384099Y80038D01*
X384200Y79759D01*
X384329Y79478D01*
X384487Y79196D01*
X384674Y78913D01*
X384889Y78629D01*
X385020Y78475D01*
X385309Y78239D01*
X385535Y78080D01*
X386021Y77784D01*
X386281Y77648D01*
X386835Y77397D01*
X387129Y77284D01*
X383240Y75528D01*
X383326Y75788D01*
X383381Y76043D01*
X383403Y76293D01*
X383395Y76539D01*
X383354Y76780D01*
X383282Y77016D01*
X383178Y77248D01*
X383051Y77459D01*
X382738Y77725D01*
X382408Y77956D01*
X382107Y78131D01*
X381833Y78250D01*
X381588Y78312D01*
X381371Y78318D01*
X381182Y78268D01*
X381022Y78161D01*
X383970Y80870D01*
X383984Y80594D01*
D02*
G37*
G36*
X439347Y77123D02*
X439276Y77008D01*
X439214Y76818D01*
X439160Y76551D01*
X439115Y76208D01*
X439048Y75294D01*
X439011Y73351D01*
X435201D01*
X435197Y74075D01*
X435052Y76551D01*
X434998Y76818D01*
X434936Y77008D01*
X434865Y77123D01*
X434787Y77161D01*
X439426D01*
X439347Y77123D01*
D02*
G37*
G36*
X418618Y88810D02*
X440576D01*
X440789Y88694D01*
X441530Y86909D01*
X441614Y86597D01*
X440201Y84400D01*
X433486D01*
Y77340D01*
X433412Y77161D01*
X433486Y75860D01*
X431561Y74375D01*
X416270D01*
Y85770D01*
X412455D01*
X412165Y85899D01*
X411771Y86139D01*
X410569Y87612D01*
X410549Y87654D01*
X410403Y88000D01*
X410067Y89685D01*
X409113Y91113D01*
X407685Y92067D01*
X406000Y92403D01*
X404315Y92067D01*
X404086Y91915D01*
X403920Y91902D01*
X403764Y91824D01*
X403637Y91770D01*
X402624Y92229D01*
X401855Y92813D01*
X401385Y93457D01*
X401353Y93525D01*
X401244Y93865D01*
Y96625D01*
X418618D01*
Y88810D01*
D02*
G37*
G36*
X336031Y78131D02*
X336010Y78198D01*
X335949Y78258D01*
X335848Y78311D01*
X335705Y78357D01*
X335523Y78396D01*
X335299Y78428D01*
X334730Y78470D01*
X333999Y78484D01*
Y80516D01*
X334385Y80520D01*
X335523Y80604D01*
X335705Y80643D01*
X335848Y80689D01*
X335949Y80742D01*
X336010Y80802D01*
X336031Y80870D01*
Y78131D01*
D02*
G37*
G36*
X312218Y78782D02*
X312000Y78553D01*
X311636Y78110D01*
X311491Y77895D01*
X311371Y77685D01*
X311275Y77480D01*
X311204Y77280D01*
X311158Y77084D01*
X311136Y76893D01*
X311140Y76707D01*
X308846Y79410D01*
X309028Y79377D01*
X309212Y79370D01*
X309398Y79387D01*
X309588Y79430D01*
X309780Y79499D01*
X309975Y79592D01*
X310173Y79711D01*
X310373Y79855D01*
X310576Y80024D01*
X310782Y80218D01*
X312218Y78782D01*
D02*
G37*
G36*
X57988Y78184D02*
X57995Y78099D01*
X58024Y78002D01*
X58073Y77894D01*
X58143Y77774D01*
X58233Y77642D01*
X58345Y77499D01*
X58629Y77178D01*
X58802Y77000D01*
X57366Y75564D01*
X57188Y75737D01*
X56724Y76133D01*
X56592Y76223D01*
X56472Y76293D01*
X56364Y76342D01*
X56267Y76371D01*
X56182Y76378D01*
X56109Y76365D01*
X58000Y78257D01*
X57988Y78184D01*
D02*
G37*
G36*
X137800Y74397D02*
X137529Y74562D01*
X136987Y74840D01*
X136715Y74953D01*
X136444Y75048D01*
X136172Y75127D01*
X135900Y75188D01*
X135841Y75197D01*
X135743Y75189D01*
X135519Y75146D01*
X135337Y75094D01*
X135194Y75032D01*
X135093Y74960D01*
X135032Y74879D01*
X135011Y74788D01*
Y75566D01*
X134588Y77298D01*
X134878Y77311D01*
X135011Y77329D01*
Y77775D01*
X135032Y77685D01*
X135093Y77604D01*
X135194Y77532D01*
X135337Y77470D01*
X135472Y77431D01*
X135664Y77499D01*
X135897Y77612D01*
X136116Y77751D01*
X136320Y77914D01*
X136511Y78103D01*
X136686Y78317D01*
X136848Y78556D01*
X137800Y74397D01*
D02*
G37*
G36*
X388112Y66132D02*
Y58420D01*
X388112D01*
Y48006D01*
X374650Y34544D01*
X314452Y34544D01*
X297434Y51562D01*
X282321Y51562D01*
X272796D01*
X271018Y49784D01*
Y36576D01*
X268732Y34290D01*
X263398D01*
X263398Y54610D01*
Y64596D01*
X263906D01*
X263906Y71628D01*
X289814Y71628D01*
X289814Y71628D01*
X326372Y71628D01*
X335692Y62308D01*
X337548Y60452D01*
X342392D01*
X347726Y55118D01*
X365252D01*
X371066Y60932D01*
Y76574D01*
X377670D01*
X388112Y66132D01*
D02*
G37*
G36*
X109487Y48263D02*
X109525Y47987D01*
X109588Y47726D01*
X109677Y47481D01*
X109791Y47250D01*
X109930Y47036D01*
X110095Y46836D01*
X110285Y46652D01*
X110501Y46483D01*
X110742Y46329D01*
X106610Y45262D01*
X106768Y45538D01*
X107034Y46087D01*
X107142Y46361D01*
X107234Y46634D01*
X107309Y46907D01*
X107367Y47179D01*
X107409Y47451D01*
X107434Y47722D01*
X107442Y47993D01*
X109474Y48554D01*
X109487Y48263D01*
D02*
G37*
G36*
X87630Y48034D02*
X87640Y47755D01*
X87671Y47479D01*
X87723Y47208D01*
X87796Y46941D01*
X87889Y46679D01*
X88004Y46420D01*
X88138Y46165D01*
X88294Y45914D01*
X88470Y45668D01*
X88668Y45425D01*
X84415Y45781D01*
X84640Y45982D01*
X84841Y46192D01*
X85018Y46412D01*
X85172Y46641D01*
X85302Y46879D01*
X85409Y47127D01*
X85492Y47385D01*
X85551Y47652D01*
X85586Y47928D01*
X85598Y48214D01*
X87630Y48034D01*
D02*
G37*
G36*
X149065Y45011D02*
X148849Y44935D01*
X148658Y44808D01*
X148493Y44630D01*
X148354Y44401D01*
X148239Y44122D01*
X148150Y43792D01*
X148087Y43411D01*
X148049Y42979D01*
X148036Y42497D01*
X145496D01*
X145485Y42979D01*
X145399Y43792D01*
X145324Y44122D01*
X145228Y44401D01*
X145110Y44630D01*
X144970Y44808D01*
X144809Y44935D01*
X144627Y45011D01*
X144423Y45037D01*
X149306D01*
X149065Y45011D01*
D02*
G37*
G36*
X144453Y45061D02*
X144423Y45331D01*
X144334Y45573D01*
X144185Y45786D01*
X143977Y45971D01*
X143709Y46127D01*
X143382Y46255D01*
X142995Y46354D01*
X142549Y46425D01*
X142043Y46468D01*
X141478Y46482D01*
Y49530D01*
X142043Y49544D01*
X142549Y49587D01*
X142995Y49658D01*
X143382Y49757D01*
X143709Y49885D01*
X143977Y50041D01*
X144185Y50226D01*
X144334Y50439D01*
X144423Y50681D01*
X144453Y50950D01*
Y45061D01*
D02*
G37*
G36*
X71894Y50808D02*
X71927Y50137D01*
X72066D01*
X71949Y49680D01*
X72066Y47287D01*
X71311Y47182D01*
X71287Y47089D01*
X70607Y47084D01*
X69018Y46863D01*
X69013Y47071D01*
X67494Y47059D01*
X67783Y47092D01*
X68042Y47186D01*
X68271Y47341D01*
X68469Y47557D01*
X68637Y47835D01*
X68774Y48173D01*
X68800Y48270D01*
X68746Y48384D01*
X68647Y48530D01*
X68534Y48644D01*
X68405Y48728D01*
X68262Y48781D01*
X69003Y49575D01*
X69018Y50137D01*
X69528D01*
X71024Y51740D01*
X71894Y50808D01*
D02*
G37*
G36*
X58078Y49817D02*
X58679D01*
X58564Y49687D01*
X58460Y49534D01*
X58369Y49360D01*
X58289Y49164D01*
X58222Y48945D01*
X58179Y48754D01*
X58207Y48583D01*
X58314Y48187D01*
X58451Y47851D01*
X58618Y47577D01*
X58817Y47364D01*
X59045Y47211D01*
X59304Y47120D01*
X59594Y47089D01*
X55520D01*
X55426Y47120D01*
X55341Y47211D01*
X55266Y47364D01*
X55217Y47525D01*
X55022D01*
X55016Y47853D01*
X54967Y48443D01*
X54924Y48705D01*
X54869Y48945D01*
X54802Y49164D01*
X54723Y49360D01*
X54632Y49534D01*
X54528Y49687D01*
X54412Y49817D01*
X55028D01*
X55022Y50137D01*
X58070D01*
X58078Y49817D01*
D02*
G37*
G36*
X98310Y47928D02*
X98345Y47652D01*
X98405Y47385D01*
X98487Y47127D01*
X98594Y46879D01*
X98724Y46641D01*
X98878Y46412D01*
X99055Y46192D01*
X99256Y45982D01*
X99481Y45781D01*
X95228Y45425D01*
X95426Y45668D01*
X95602Y45914D01*
X95758Y46165D01*
X95892Y46420D01*
X96007Y46679D01*
X96100Y46941D01*
X96173Y47208D01*
X96224Y47479D01*
X96256Y47755D01*
X96266Y48034D01*
X98298Y48214D01*
X98310Y47928D01*
D02*
G37*
G36*
X131235Y46856D02*
X131130Y46873D01*
X131015Y46868D01*
X130890Y46841D01*
X130757Y46791D01*
X130613Y46718D01*
X130460Y46623D01*
X130297Y46506D01*
X130124Y46366D01*
X129750Y46018D01*
X128314Y47454D01*
X128499Y47646D01*
X128802Y48001D01*
X128919Y48164D01*
X129014Y48317D01*
X129087Y48460D01*
X129137Y48594D01*
X129164Y48719D01*
X129169Y48833D01*
X129152Y48939D01*
X131235Y46856D01*
D02*
G37*
G36*
X80027Y15598D02*
X79781Y15338D01*
X79568Y15081D01*
X79385Y14827D01*
X79235Y14577D01*
X79117Y14329D01*
X79030Y14084D01*
X78976Y13843D01*
X78953Y13605D01*
X78962Y13370D01*
X79004Y13138D01*
X76130Y16012D01*
X76362Y15970D01*
X76597Y15961D01*
X76835Y15984D01*
X77076Y16039D01*
X77321Y16125D01*
X77569Y16243D01*
X77819Y16394D01*
X78073Y16576D01*
X78330Y16789D01*
X78590Y17035D01*
X80027Y15598D01*
D02*
G37*
G36*
X143997Y20187D02*
X143948Y20235D01*
X143868Y20278D01*
X143757Y20316D01*
X143616Y20349D01*
X143443Y20377D01*
X143006Y20417D01*
X142446Y20438D01*
X142120Y20440D01*
Y22472D01*
X142446Y22475D01*
X143443Y22535D01*
X143616Y22563D01*
X143757Y22596D01*
X143868Y22634D01*
X143948Y22677D01*
X143997Y22725D01*
Y20187D01*
D02*
G37*
G36*
X94427Y15510D02*
X95546Y13542D01*
X95277Y12192D01*
X95681Y10161D01*
X96831Y8439D01*
X98177Y7540D01*
X98087Y5951D01*
X97755Y5000D01*
X78013D01*
X77681Y5951D01*
X77590Y7540D01*
X78937Y8439D01*
X80087Y10161D01*
X80491Y12192D01*
X80327Y13015D01*
X80378Y13138D01*
X80330Y13255D01*
X80357Y13378D01*
X80332Y13518D01*
X80330Y13566D01*
X80336Y13626D01*
X80353Y13702D01*
X80389Y13802D01*
X80448Y13925D01*
X80536Y14072D01*
X80656Y14240D01*
X80811Y14426D01*
X81027Y14655D01*
X81078Y14790D01*
X82370Y16082D01*
X93869D01*
X94427Y15510D01*
D02*
G37*
G36*
X104448Y11339D02*
X104455Y11101D01*
X104493Y10860D01*
X104560Y10616D01*
X104657Y10369D01*
X104784Y10120D01*
X104941Y9869D01*
X105127Y9614D01*
X105343Y9357D01*
X105590Y9097D01*
X104280Y7533D01*
X104019Y7779D01*
X103763Y7991D01*
X103510Y8169D01*
X103261Y8313D01*
X103016Y8423D01*
X102775Y8500D01*
X102539Y8542D01*
X102306Y8551D01*
X102077Y8526D01*
X101852Y8467D01*
X104470Y11575D01*
X104448Y11339D01*
D02*
G37*
G36*
X137856Y39478D02*
X137799Y39226D01*
X137773Y38979D01*
X137779Y38735D01*
X137817Y38496D01*
X137888Y38261D01*
X137991Y38031D01*
X138126Y37805D01*
X138294Y37583D01*
X138493Y37365D01*
X136432Y36553D01*
X136241Y36734D01*
X135827Y37076D01*
X135603Y37236D01*
X135122Y37536D01*
X134864Y37676D01*
X134316Y37934D01*
X134024Y38053D01*
X137947Y39734D01*
X137856Y39478D01*
D02*
G37*
G36*
X148048Y39980D02*
X148086Y39534D01*
X148149Y39140D01*
X148237Y38798D01*
X148349Y38509D01*
X148487Y38273D01*
X148650Y38089D01*
X148838Y37957D01*
X149051Y37878D01*
X149289Y37852D01*
X144243D01*
X144481Y37878D01*
X144694Y37957D01*
X144882Y38089D01*
X145045Y38273D01*
X145183Y38509D01*
X145295Y38798D01*
X145383Y39140D01*
X145446Y39534D01*
X145484Y39980D01*
X145496Y40480D01*
X148036D01*
X148048Y39980D01*
D02*
G37*
G36*
X91921Y29282D02*
X91675Y29021D01*
X91468Y28767D01*
X91299Y28521D01*
X91168Y28283D01*
X91076Y28052D01*
X91023Y27830D01*
X91009Y27615D01*
X91033Y27407D01*
X91095Y27208D01*
X91196Y27016D01*
X87551Y28813D01*
X87777Y28844D01*
X88007Y28899D01*
X88240Y28979D01*
X88477Y29082D01*
X88718Y29210D01*
X88962Y29361D01*
X89210Y29537D01*
X89461Y29737D01*
X89974Y30209D01*
X91921Y29282D01*
D02*
G37*
G36*
X67156Y28569D02*
X66910Y28308D01*
X66698Y28052D01*
X66520Y27799D01*
X66375Y27550D01*
X66265Y27305D01*
X66188Y27064D01*
X66144Y26827D01*
X66135Y26593D01*
X66159Y26364D01*
X66216Y26138D01*
X63124Y28775D01*
X63359Y28751D01*
X63597Y28757D01*
X63839Y28794D01*
X64082Y28860D01*
X64328Y28956D01*
X64577Y29083D01*
X64829Y29239D01*
X65084Y29425D01*
X65341Y29641D01*
X65601Y29887D01*
X67156Y28569D01*
D02*
G37*
G36*
X260821Y51600D02*
X260563Y51406D01*
X260331Y51203D01*
X260127Y50991D01*
X259951Y50770D01*
X259801Y50539D01*
X259679Y50300D01*
X259605Y50106D01*
X259683Y49914D01*
X259781Y49754D01*
X259897Y49630D01*
X260030Y49541D01*
X260181Y49487D01*
X260350Y49470D01*
X259472D01*
X259461Y49249D01*
X258216Y49470D01*
X257530D01*
X257560Y49487D01*
X257585Y49541D01*
X257608Y49630D01*
X257628Y49754D01*
X257645Y49914D01*
X257649Y50009D01*
X257640Y50082D01*
X257587Y50346D01*
X257512Y50615D01*
X257416Y50888D01*
X257298Y51165D01*
X257159Y51445D01*
X256999Y51730D01*
X256614Y52311D01*
X260821Y51600D01*
D02*
G37*
G36*
X126980Y56792D02*
X126931Y56731D01*
X126888Y56630D01*
X126850Y56487D01*
X126818Y56304D01*
X126792Y56081D01*
X126758Y55512D01*
X126746Y54780D01*
X124714D01*
X124707Y55166D01*
X124654Y55817D01*
X124607Y56081D01*
X124548Y56304D01*
X124474Y56487D01*
X124388Y56630D01*
X124288Y56731D01*
X124175Y56792D01*
X124048Y56812D01*
X127035D01*
X126980Y56792D01*
D02*
G37*
G36*
X258124Y58528D02*
X258164Y58263D01*
X258213Y58091D01*
X258442D01*
X258379Y58073D01*
X258323Y58019D01*
X258273Y57930D01*
Y57930D01*
X258324Y57814D01*
X258444Y57632D01*
X258591Y57476D01*
X258764Y57348D01*
X258964Y57247D01*
X259191Y57174D01*
X259445Y57128D01*
X256115Y54809D01*
X256157Y55009D01*
X256226Y55511D01*
X256278Y56150D01*
X256300Y57021D01*
X256250Y57646D01*
X256214Y57806D01*
X256171Y57930D01*
X256122Y58019D01*
X256065Y58073D01*
X256003Y58091D01*
X256327D01*
X256333Y58347D01*
X258111Y58821D01*
X258124Y58528D01*
D02*
G37*
G36*
X101953Y56792D02*
X101879Y56731D01*
X101813Y56630D01*
X101757Y56487D01*
X101709Y56304D01*
X101670Y56081D01*
X101639Y55817D01*
X101604Y55166D01*
X101600Y54780D01*
X99568D01*
X99563Y55166D01*
X99485Y56081D01*
X99438Y56304D01*
X99381Y56487D01*
X99313Y56630D01*
X99235Y56731D01*
X99147Y56792D01*
X99048Y56812D01*
X102035D01*
X101953Y56792D01*
D02*
G37*
G36*
X106945D02*
X106863Y56731D01*
X106792Y56630D01*
X106730Y56487D01*
X106677Y56304D01*
X106634Y56081D01*
X106601Y55817D01*
X106563Y55166D01*
X106558Y54780D01*
X104526D01*
X104521Y55166D01*
X104449Y56081D01*
X104406Y56304D01*
X104354Y56487D01*
X104292Y56630D01*
X104220Y56731D01*
X104139Y56792D01*
X104048Y56812D01*
X107035D01*
X106945Y56792D01*
D02*
G37*
G36*
X121945Y56794D02*
X121863Y56740D01*
X121792Y56649D01*
X121730Y56521D01*
X121677Y56358D01*
X121634Y56157D01*
X121601Y55921D01*
X121577Y55648D01*
X121558Y54993D01*
X119526D01*
X119521Y55339D01*
X119449Y56157D01*
X119406Y56358D01*
X119354Y56521D01*
X119292Y56649D01*
X119220Y56740D01*
X119139Y56794D01*
X119048Y56812D01*
X122035D01*
X121945Y56794D01*
D02*
G37*
G36*
X252638Y58091D02*
X253442D01*
X253379Y58073D01*
X253323Y58019D01*
X253273Y57930D01*
X253230Y57806D01*
X253194Y57646D01*
X253164Y57450D01*
X253142Y57179D01*
X253155Y57014D01*
X253232Y56474D01*
X253348Y55917D01*
X253503Y55344D01*
X253594Y55052D01*
X249939Y57054D01*
X250203Y57137D01*
X250441Y57243D01*
X250650Y57372D01*
X250831Y57523D01*
X250984Y57698D01*
X251110Y57895D01*
X251146Y57976D01*
X251122Y58019D01*
X251065Y58073D01*
X251003Y58091D01*
X251197D01*
X251208Y58115D01*
X251277Y58358D01*
X251319Y58623D01*
X251333Y58912D01*
X252638Y58091D01*
D02*
G37*
G36*
X111945Y56792D02*
X111863Y56732D01*
X111792Y56632D01*
X111730Y56492D01*
X111677Y56312D01*
X111634Y56092D01*
X111601Y55832D01*
X111563Y55192D01*
X111558Y54812D01*
X109526D01*
X109521Y55192D01*
X109449Y56092D01*
X109406Y56312D01*
X109354Y56492D01*
X109292Y56632D01*
X109220Y56732D01*
X109139Y56792D01*
X109048Y56812D01*
X112035D01*
X111945Y56792D01*
D02*
G37*
G36*
X86945Y56793D02*
X86863Y56734D01*
X86792Y56635D01*
X86730Y56497D01*
X86677Y56320D01*
X86634Y56104D01*
X86601Y55848D01*
X86563Y55218D01*
X86558Y54844D01*
X84526D01*
X84521Y55218D01*
X84449Y56104D01*
X84406Y56320D01*
X84354Y56497D01*
X84292Y56635D01*
X84220Y56734D01*
X84139Y56793D01*
X84048Y56812D01*
X87035D01*
X86945Y56793D01*
D02*
G37*
G36*
X113156Y53640D02*
X113782Y53105D01*
X113996Y52944D01*
X114657Y52517D01*
X114883Y52393D01*
X115112Y52277D01*
X111118Y50994D01*
X111229Y51226D01*
X111305Y51457D01*
X111346Y51687D01*
X111352Y51915D01*
X111324Y52142D01*
X111261Y52368D01*
X111163Y52592D01*
X111031Y52814D01*
X110864Y53036D01*
X110662Y53255D01*
X112954Y53837D01*
X113156Y53640D01*
D02*
G37*
G36*
X72066Y56193D02*
X71894Y52671D01*
X71024Y51740D01*
X68262Y54699D01*
X68405Y54752D01*
X68534Y54836D01*
X68647Y54950D01*
X68746Y55096D01*
X68829Y55272D01*
X68897Y55479D01*
X68950Y55717D01*
X68988Y55986D01*
X69010Y56286D01*
X69018Y56617D01*
X72066Y56193D01*
D02*
G37*
G36*
X91571Y52814D02*
X91609Y52540D01*
X91673Y52288D01*
X91763Y52060D01*
X91878Y51855D01*
X92018Y51673D01*
X92184Y51514D01*
X92376Y51378D01*
X92594Y51265D01*
X92837Y51175D01*
X89079Y49289D01*
X89164Y49540D01*
X89307Y50051D01*
X89365Y50311D01*
X89454Y50841D01*
X89508Y51384D01*
X89526Y51939D01*
X91558Y53112D01*
X91571Y52814D01*
D02*
G37*
G36*
X253752Y53731D02*
X253778Y53406D01*
X253823Y53097D01*
X253887Y52804D01*
X253971Y52526D01*
X254074Y52265D01*
X254197Y52019D01*
X254339Y51789D01*
X254501Y51574D01*
X254681Y51376D01*
X253851Y50546D01*
X255143D01*
X255141Y50342D01*
X255100Y49739D01*
X255081Y49642D01*
X255058Y49566D01*
X255032Y49513D01*
X255002Y49480D01*
X254970Y49470D01*
X253178D01*
X253213Y49480D01*
X253245Y49513D01*
X253273Y49566D01*
X253298Y49642D01*
X253318Y49739D01*
X253335Y49857D01*
X253358Y50159D01*
X253358Y50179D01*
X253226Y50300D01*
X253011Y50461D01*
X252781Y50603D01*
X252535Y50726D01*
X252274Y50829D01*
X251996Y50913D01*
X251703Y50977D01*
X251394Y51022D01*
X251069Y51048D01*
X250728Y51054D01*
X253746Y54071D01*
X253752Y53731D01*
D02*
G37*
G36*
X91945Y56792D02*
X91863Y56731D01*
X91792Y56630D01*
X91730Y56487D01*
X91677Y56304D01*
X91634Y56081D01*
X91601Y55817D01*
X91563Y55166D01*
X91558Y54780D01*
X89526D01*
X89521Y55166D01*
X89449Y56081D01*
X89406Y56304D01*
X89354Y56487D01*
X89292Y56630D01*
X89220Y56731D01*
X89139Y56792D01*
X89048Y56812D01*
X92035D01*
X91945Y56792D01*
D02*
G37*
G36*
X96945D02*
X96863Y56731D01*
X96792Y56630D01*
X96730Y56487D01*
X96677Y56304D01*
X96634Y56081D01*
X96601Y55817D01*
X96563Y55166D01*
X96558Y54780D01*
X94526D01*
X94521Y55166D01*
X94449Y56081D01*
X94406Y56304D01*
X94354Y56487D01*
X94292Y56630D01*
X94220Y56731D01*
X94139Y56792D01*
X94048Y56812D01*
X97035D01*
X96945Y56792D01*
D02*
G37*
G36*
X391516Y86734D02*
X392000Y86250D01*
X400922Y86250D01*
X404340Y82832D01*
X404340Y74842D01*
X404340Y74660D01*
X406000Y73000D01*
X453000D01*
X455422Y70578D01*
Y54422D01*
X454000Y53000D01*
X392262D01*
X390652Y54610D01*
Y70958D01*
X390652Y70958D01*
X390652D01*
Y70958D01*
Y76546D01*
X388338Y78860D01*
X384528Y82670D01*
X375384Y82670D01*
Y84321D01*
Y85972D01*
X376146Y86734D01*
X391516Y86734D01*
D02*
G37*
G36*
X58076Y56135D02*
X58125Y55545D01*
X58167Y55282D01*
X58222Y55042D01*
X58289Y54824D01*
X58369Y54628D01*
X58460Y54454D01*
X58564Y54301D01*
X58679Y54171D01*
X54412D01*
X54528Y54301D01*
X54632Y54454D01*
X54723Y54628D01*
X54802Y54824D01*
X54869Y55042D01*
X54924Y55282D01*
X54967Y55545D01*
X54998Y55828D01*
X55022Y56462D01*
X58070D01*
X58076Y56135D01*
D02*
G37*
G36*
X156899Y125222D02*
X156873Y125463D01*
X156796Y125679D01*
X156668Y125870D01*
X156488Y126035D01*
X156256Y126174D01*
X155974Y126289D01*
X155639Y126378D01*
X155254Y126441D01*
X154817Y126479D01*
X154328Y126492D01*
Y129032D01*
X154817Y129045D01*
X155254Y129083D01*
X155639Y129146D01*
X155974Y129235D01*
X156256Y129349D01*
X156488Y129489D01*
X156668Y129654D01*
X156796Y129845D01*
X156873Y130061D01*
X156899Y130302D01*
Y125222D01*
D02*
G37*
G36*
X130411Y130705D02*
X130543Y130752D01*
X130790Y130871D01*
X130988Y131005D01*
Y127059D01*
X130790Y127193D01*
X130543Y127312D01*
X130411Y127359D01*
Y126898D01*
X130235Y127063D01*
X130043Y127209D01*
X129838Y127339D01*
X129617Y127451D01*
X129382Y127546D01*
X129133Y127624D01*
X129067Y127639D01*
X128574Y127698D01*
X128268Y127648D01*
X127935Y127559D01*
X127652Y127444D01*
X127421Y127305D01*
X127240Y127140D01*
X127111Y126949D01*
X127032Y126733D01*
X127005Y126492D01*
X127014Y127757D01*
X126792Y127762D01*
Y130302D01*
X127032Y130305D01*
X127035Y130751D01*
X127061Y130666D01*
X127137Y130590D01*
X127264Y130522D01*
X127442Y130464D01*
X127670Y130414D01*
X127950Y130374D01*
X128173Y130357D01*
X129004Y130411D01*
X129133Y130440D01*
X129382Y130518D01*
X129617Y130613D01*
X129838Y130725D01*
X130043Y130855D01*
X130235Y131002D01*
X130411Y131166D01*
Y130705D01*
D02*
G37*
G36*
X170970Y124805D02*
X170841Y124751D01*
X170727Y124660D01*
X170628Y124534D01*
X170544Y124371D01*
X170476Y124172D01*
X170422Y123938D01*
X170384Y123666D01*
X170362Y123359D01*
X170354Y123016D01*
X168322D01*
X168314Y123359D01*
X168253Y123938D01*
X168200Y124172D01*
X168132Y124371D01*
X168048Y124534D01*
X167949Y124660D01*
X167835Y124751D01*
X167706Y124805D01*
X167561Y124823D01*
X171115D01*
X170970Y124805D01*
D02*
G37*
G36*
X153591Y126492D02*
X153109Y126479D01*
X152677Y126441D01*
X152296Y126378D01*
X151966Y126289D01*
X151686Y126174D01*
X151458Y126035D01*
X151280Y125870D01*
X151153Y125679D01*
X151077Y125463D01*
X151052Y125222D01*
Y127772D01*
X151077Y128011D01*
X151153Y128225D01*
X151280Y128414D01*
X151458Y128578D01*
X151686Y128717D01*
X151966Y128830D01*
X152296Y128919D01*
X152677Y128982D01*
X153109Y129019D01*
X153591Y129032D01*
Y126492D01*
D02*
G37*
G36*
X87830Y133890D02*
X87588Y133808D01*
X87372Y133702D01*
X87181Y133573D01*
X87016Y133419D01*
X86876Y133241D01*
X86761Y133039D01*
X86672Y132812D01*
X86609Y132562D01*
X86571Y132291D01*
X86634Y131483D01*
X86677Y131259D01*
X86730Y131076D01*
X86792Y130934D01*
X86863Y130833D01*
X86945Y130772D01*
X87035Y130751D01*
X84048D01*
X84139Y130772D01*
X84220Y130833D01*
X84292Y130934D01*
X84354Y131076D01*
X84406Y131259D01*
X84449Y131483D01*
X84483Y131747D01*
X84521Y132397D01*
X84526Y132783D01*
X85285D01*
X84526Y133258D01*
X84522Y133545D01*
X84464Y134369D01*
X84429Y134632D01*
X84278Y135383D01*
X84212Y135621D01*
X84139Y135853D01*
X87830Y133890D01*
D02*
G37*
G36*
X97069Y135329D02*
X96785Y134477D01*
X96716Y134199D01*
X96615Y133653D01*
X96583Y133385D01*
X96558Y132857D01*
X96393Y132783D01*
X96558D01*
X96563Y132397D01*
X96634Y131483D01*
X96677Y131259D01*
X96730Y131076D01*
X96792Y130934D01*
X96863Y130833D01*
X96945Y130772D01*
X97035Y130751D01*
X94048D01*
X94139Y130772D01*
X94220Y130833D01*
X94292Y130934D01*
X94354Y131076D01*
X94406Y131259D01*
X94449Y131483D01*
X94483Y131747D01*
X94513Y132254D01*
X94474Y132526D01*
X94410Y132781D01*
X94320Y133017D01*
X94204Y133232D01*
X94062Y133427D01*
X93894Y133603D01*
X93701Y133758D01*
X93482Y133894D01*
X93237Y134009D01*
X97189Y135619D01*
X97069Y135329D01*
D02*
G37*
G36*
X141329Y130954D02*
X141505Y130817D01*
X141698Y130696D01*
X141909Y130592D01*
X142136Y130503D01*
X142382Y130431D01*
X142645Y130374D01*
X142863Y130343D01*
X143317Y130309D01*
X143764Y130302D01*
Y127762D01*
X143317Y127754D01*
X142863Y127721D01*
X142645Y127690D01*
X142382Y127633D01*
X142136Y127561D01*
X141909Y127472D01*
X141698Y127368D01*
X141505Y127247D01*
X141329Y127111D01*
X141171Y126958D01*
Y127387D01*
X140923Y127281D01*
X140686Y127153D01*
X140475Y127010D01*
Y131054D01*
X140686Y130911D01*
X140923Y130783D01*
X141171Y130677D01*
Y131106D01*
X141329Y130954D01*
D02*
G37*
G36*
X82185Y135082D02*
X81937Y134524D01*
X81837Y134247D01*
X81682Y133697D01*
X81628Y133425D01*
X81589Y133154D01*
X81566Y132884D01*
X81559Y132666D01*
X81563Y132397D01*
X81634Y131483D01*
X81677Y131259D01*
X81730Y131076D01*
X81792Y130934D01*
X81863Y130833D01*
X81945Y130772D01*
X82035Y130751D01*
X79048D01*
X79139Y130772D01*
X79220Y130833D01*
X79292Y130934D01*
X79354Y131076D01*
X79406Y131259D01*
X79449Y131483D01*
X79483Y131747D01*
X79513Y132252D01*
X79475Y132524D01*
X79411Y132783D01*
X79321Y133026D01*
X79206Y133251D01*
X79066Y133460D01*
X78899Y133652D01*
X78708Y133828D01*
X78490Y133987D01*
X78247Y134129D01*
X82332Y135364D01*
X82185Y135082D01*
D02*
G37*
G36*
X136917Y122299D02*
X137043Y122298D01*
Y121307D01*
X137302Y119275D01*
X137050Y119463D01*
X136795Y119632D01*
X136537Y119780D01*
X136277Y119909D01*
X136014Y120018D01*
X135748Y120107D01*
X135563Y120155D01*
X135519Y120147D01*
X135337Y120094D01*
X135194Y120032D01*
X135093Y119960D01*
X135032Y119879D01*
X135011Y119788D01*
Y120247D01*
X134933Y120256D01*
X134656Y120266D01*
X134381Y122298D01*
X134669Y122310D01*
X134945Y122346D01*
X135011Y122361D01*
Y122775D01*
X135032Y122685D01*
X135093Y122604D01*
X135194Y122532D01*
X135337Y122470D01*
X135371Y122460D01*
X135465Y122492D01*
X135709Y122600D01*
X135942Y122734D01*
X136164Y122891D01*
X136375Y123073D01*
X136575Y123278D01*
X136764Y123508D01*
X136917Y122299D01*
D02*
G37*
G36*
X61103Y110124D02*
X61091Y110151D01*
X61055Y110175D01*
X60996Y110196D01*
X60913Y110215D01*
X60806Y110230D01*
X60520Y110253D01*
X59914Y110266D01*
Y112298D01*
X60140Y112299D01*
X60913Y112349D01*
X60996Y112367D01*
X61055Y112389D01*
X61091Y112413D01*
X61103Y112440D01*
Y110124D01*
D02*
G37*
G36*
X57726Y115391D02*
X57984Y114942D01*
X58127Y114722D01*
X58608Y114079D01*
X58787Y113870D01*
X59171Y113462D01*
X58589Y111170D01*
X58370Y111371D01*
X58148Y111538D01*
X57926Y111671D01*
X57702Y111769D01*
X57476Y111832D01*
X57249Y111860D01*
X57021Y111854D01*
X56791Y111812D01*
X56560Y111737D01*
X56328Y111626D01*
X57611Y115620D01*
X57726Y115391D01*
D02*
G37*
G36*
X305042Y108978D02*
X304740Y108993D01*
X304449Y108985D01*
X304167Y108954D01*
X303897Y108900D01*
X303636Y108822D01*
X303385Y108721D01*
X303144Y108597D01*
X302988Y108497D01*
X302809Y108285D01*
X302583Y107961D01*
X302410Y107662D01*
X302290Y107387D01*
X302222Y107136D01*
X302206Y106909D01*
X302243Y106707D01*
X302333Y106530D01*
X299990Y109873D01*
X300123Y109739D01*
X300290Y109667D01*
X300492Y109658D01*
X300728Y109711D01*
X300998Y109826D01*
X301303Y110004D01*
X301641Y110245D01*
X301661Y110261D01*
X301682Y110291D01*
X301819Y110532D01*
X301938Y110784D01*
X302039Y111047D01*
X302123Y111323D01*
X302189Y111610D01*
X302237Y111909D01*
X302267Y112220D01*
X305042Y108978D01*
D02*
G37*
G36*
X135032Y112685D02*
X135093Y112604D01*
X135194Y112532D01*
X135337Y112470D01*
X135519Y112417D01*
X135743Y112374D01*
X136007Y112341D01*
X136657Y112303D01*
X137043Y112298D01*
Y110266D01*
X136657Y110261D01*
X135743Y110190D01*
X135519Y110147D01*
X135337Y110094D01*
X135194Y110032D01*
X135093Y109960D01*
X135032Y109879D01*
X135011Y109788D01*
Y112775D01*
X135032Y112685D01*
D02*
G37*
G36*
Y117685D02*
X135093Y117604D01*
X135194Y117532D01*
X135337Y117470D01*
X135519Y117417D01*
X135743Y117374D01*
X136007Y117341D01*
X136657Y117303D01*
X137043Y117298D01*
Y115266D01*
X136657Y115261D01*
X135743Y115190D01*
X135519Y115147D01*
X135337Y115094D01*
X135194Y115032D01*
X135093Y114960D01*
X135032Y114879D01*
X135011Y114788D01*
Y117775D01*
X135032Y117685D01*
D02*
G37*
G36*
X67042Y131213D02*
Y124782D01*
X59042D01*
Y119756D01*
X56549Y118368D01*
X54864Y118703D01*
X53179Y118368D01*
X53038Y118273D01*
X50498Y119631D01*
Y119674D01*
X41958D01*
Y112134D01*
X43266D01*
X44683Y109948D01*
X44523Y109144D01*
X44693Y108290D01*
X43443Y106195D01*
X42946Y105750D01*
X39788D01*
X38900Y107922D01*
X38900Y107922D01*
X38900D01*
X38900Y107922D01*
Y116462D01*
X31360D01*
Y107922D01*
X31360Y107922D01*
X31360D01*
X31360Y107922D01*
X30471Y105750D01*
X17750D01*
Y64250D01*
X29907D01*
X30250Y61852D01*
X30250Y61852D01*
X30250Y61852D01*
Y53312D01*
X37790D01*
Y61852D01*
X37790Y61852D01*
X37790D01*
X38133Y64250D01*
X51250D01*
Y64250D01*
X52278Y64966D01*
X53914Y64006D01*
X53697Y62916D01*
X53697Y62916D01*
Y56621D01*
X53648Y56515D01*
X53626Y55928D01*
X53604Y55729D01*
X53575Y55546D01*
X53541Y55398D01*
X53506Y55284D01*
X53474Y55206D01*
X53451Y55161D01*
X53441Y55147D01*
X53384Y55083D01*
X53349Y54982D01*
X52478Y53679D01*
X52143Y51994D01*
X52478Y50309D01*
X53349Y49006D01*
X53384Y48905D01*
X53441Y48840D01*
X53451Y48826D01*
X53474Y48782D01*
X53506Y48704D01*
X53541Y48590D01*
X53575Y48442D01*
X53601Y48276D01*
X53642Y47784D01*
X53647Y47500D01*
X53697Y47386D01*
Y45564D01*
X53697Y45564D01*
X53914Y44474D01*
X54220Y44016D01*
Y39850D01*
X61760D01*
Y48390D01*
X61760D01*
X60737Y50930D01*
X60948Y51994D01*
X60613Y53679D01*
X59743Y54982D01*
X59707Y55083D01*
X59651Y55147D01*
X59641Y55161D01*
X59618Y55206D01*
X59586Y55284D01*
X59551Y55398D01*
X59517Y55546D01*
X59490Y55712D01*
X59450Y56204D01*
X59444Y56488D01*
X59395Y56602D01*
Y61736D01*
X60441Y62782D01*
X67042D01*
Y55630D01*
X65879Y54853D01*
X64924Y53425D01*
X64589Y51740D01*
X64773Y50816D01*
X65048Y48390D01*
X65048Y48390D01*
X65048Y48390D01*
Y39850D01*
X72588D01*
Y43877D01*
X73174Y44754D01*
X73391Y45844D01*
X73391Y45844D01*
Y47219D01*
X73439Y47354D01*
X73391Y48343D01*
Y49769D01*
X73398Y49797D01*
X73391Y49847D01*
Y50017D01*
X73440Y50137D01*
X73391Y50258D01*
Y51720D01*
X73394Y51740D01*
X73391Y51759D01*
Y54782D01*
X74118D01*
X74048Y56812D01*
X77035D01*
X77017Y56784D01*
X77001Y56701D01*
X76986Y56561D01*
X76954Y55806D01*
X76945Y54782D01*
X83170D01*
X83269Y54551D01*
X83389Y53952D01*
X83894Y53195D01*
X84283Y52806D01*
Y48440D01*
X84229Y48336D01*
X84239Y48302D01*
X84225Y48271D01*
X84215Y48044D01*
X84195Y47888D01*
X84163Y47745D01*
X84120Y47610D01*
X84065Y47481D01*
X83996Y47354D01*
X83911Y47228D01*
X83808Y47100D01*
X83684Y46971D01*
X83499Y46806D01*
X83435Y46673D01*
X83247Y46547D01*
X82292Y45119D01*
X81957Y43434D01*
X82292Y41749D01*
X83247Y40321D01*
X84675Y39367D01*
X85245Y39253D01*
X86189Y36605D01*
X84173Y34589D01*
X69408D01*
X68516Y34411D01*
X67760Y33906D01*
X64791Y30937D01*
X64655Y30885D01*
X64425Y30667D01*
X64234Y30507D01*
X64060Y30379D01*
X63903Y30282D01*
X63766Y30213D01*
X63650Y30167D01*
X63555Y30141D01*
X63476Y30129D01*
X63410Y30128D01*
X63261Y30143D01*
X63137Y30105D01*
X63014Y30145D01*
X62942Y30108D01*
X62484Y30199D01*
X60453Y29795D01*
X58731Y28645D01*
X58579Y28416D01*
X57596Y28527D01*
X56034Y29179D01*
X55648Y31121D01*
X54272Y33180D01*
X52213Y34556D01*
X49784Y35039D01*
X47355Y34556D01*
X45296Y33180D01*
X43920Y31121D01*
X43437Y28692D01*
X43920Y26263D01*
X45296Y24204D01*
X47355Y22828D01*
X49784Y22345D01*
X52213Y22828D01*
X54272Y24204D01*
X54772Y24953D01*
X54982Y24948D01*
X57317Y24189D01*
X57581Y22861D01*
X58731Y21139D01*
X60453Y19989D01*
X61218Y19837D01*
Y17247D01*
X60453Y17095D01*
X58731Y15945D01*
X57581Y14223D01*
X57317Y12895D01*
X54982Y12136D01*
X54772Y12131D01*
X54272Y12880D01*
X52213Y14256D01*
X49784Y14739D01*
X47355Y14256D01*
X45296Y12880D01*
X43920Y10821D01*
X43437Y8392D01*
X43607Y7540D01*
X41741Y5000D01*
X22830D01*
X21968Y7540D01*
X22246Y7754D01*
X23875Y9876D01*
X24899Y12348D01*
X25248Y15000D01*
X24899Y17652D01*
X23875Y20124D01*
X22246Y22246D01*
X20124Y23875D01*
X17652Y24899D01*
X15000Y25248D01*
X12348Y24899D01*
X9876Y23875D01*
X7754Y22246D01*
X7540Y21968D01*
X5000Y22830D01*
Y133753D01*
X64904Y133753D01*
X67042Y131213D01*
D02*
G37*
G36*
X308363Y111676D02*
X308391Y111380D01*
X308439Y111094D01*
X308508Y110820D01*
X308597Y110557D01*
X308707Y110305D01*
X308803Y110127D01*
X308994Y109990D01*
X309302Y109809D01*
X309569Y109696D01*
X309795Y109653D01*
X309979Y109679D01*
X310123Y109775D01*
X310226Y109939D01*
X308561Y105918D01*
X308620Y106126D01*
X308634Y106351D01*
X308602Y106594D01*
X308524Y106855D01*
X308400Y107134D01*
X308230Y107430D01*
X308015Y107744D01*
X307754Y108075D01*
X307611Y108238D01*
X307488Y108334D01*
X307258Y108485D01*
X307017Y108615D01*
X306765Y108725D01*
X306502Y108814D01*
X306228Y108883D01*
X305942Y108931D01*
X305646Y108959D01*
X305338Y108966D01*
X307306Y110933D01*
X307353Y111406D01*
X307569Y111196D01*
X308356Y111983D01*
X308363Y111676D01*
D02*
G37*
G36*
X47711Y113449D02*
X47613Y113400D01*
X47527Y113319D01*
X47452Y113205D01*
X47388Y113059D01*
X47336Y112881D01*
X47296Y112670D01*
X47267Y112426D01*
X47250Y112150D01*
X47244Y111842D01*
X45212D01*
X45206Y112150D01*
X45160Y112670D01*
X45120Y112881D01*
X45068Y113059D01*
X45004Y113205D01*
X44929Y113319D01*
X44843Y113400D01*
X44745Y113449D01*
X44635Y113465D01*
X47821D01*
X47711Y113449D01*
D02*
G37*
G36*
X134221Y152988D02*
X134204Y153133D01*
X134156Y153262D01*
X134077Y153377D01*
X133968Y153476D01*
X133828Y153560D01*
X133657Y153628D01*
X133455Y153681D01*
X133223Y153720D01*
X132960Y153742D01*
X132667Y153750D01*
Y155274D01*
X132956Y155277D01*
X133809Y155343D01*
X133947Y155374D01*
X134053Y155410D01*
X134129Y155452D01*
X134175Y155499D01*
X134191Y155552D01*
X134221Y152988D01*
D02*
G37*
G36*
X269609Y157426D02*
X269539Y157255D01*
X269518Y157063D01*
X269544Y156852D01*
X269619Y156621D01*
X269742Y156370D01*
X269913Y156100D01*
X270132Y155810D01*
X270399Y155500D01*
X270715Y155170D01*
X269278Y153733D01*
X268948Y154049D01*
X268348Y154535D01*
X268078Y154706D01*
X267827Y154829D01*
X267596Y154904D01*
X267385Y154930D01*
X267193Y154909D01*
X267022Y154839D01*
X266870Y154721D01*
X269727Y157578D01*
X269609Y157426D01*
D02*
G37*
G36*
X150891Y152458D02*
X150937Y152199D01*
X151013Y151971D01*
X151120Y151773D01*
X151257Y151605D01*
X151425Y151468D01*
X151623Y151361D01*
X151851Y151285D01*
X151875Y151281D01*
X151934Y151289D01*
X152102Y151326D01*
X152239Y151371D01*
X152346Y151424D01*
X152422Y151485D01*
X152467Y151554D01*
X152483Y151632D01*
X152513Y148938D01*
X152496Y149083D01*
X152448Y149212D01*
X152370Y149327D01*
X152260Y149426D01*
X152120Y149510D01*
X151949Y149578D01*
X151748Y149632D01*
X151516Y149670D01*
X151252Y149692D01*
X150959Y149700D01*
Y150263D01*
X150114Y149700D01*
X149446Y150146D01*
Y149700D01*
X149156Y149692D01*
X148897Y149670D01*
X148668Y149632D01*
X148470Y149578D01*
X148303Y149510D01*
X148166Y149426D01*
X148059Y149327D01*
X147983Y149212D01*
X147937Y149083D01*
X147922Y148938D01*
Y151162D01*
X147828Y151224D01*
X147922Y151229D01*
Y151986D01*
X147937Y151841D01*
X147983Y151712D01*
X148059Y151597D01*
X148166Y151498D01*
X148303Y151415D01*
X148470Y151346D01*
X148520Y151333D01*
X148605Y151361D01*
X148803Y151468D01*
X148971Y151605D01*
X149108Y151773D01*
X149215Y151971D01*
X149291Y152199D01*
X149337Y152458D01*
X149352Y152748D01*
X150876D01*
X150891Y152458D01*
D02*
G37*
G36*
X128969Y155891D02*
X129015Y155762D01*
X129091Y155647D01*
X129197Y155548D01*
X129334Y155464D01*
X129502Y155396D01*
X129700Y155343D01*
X129929Y155304D01*
X130188Y155282D01*
X130478Y155274D01*
Y153750D01*
X130188Y153742D01*
X129929Y153720D01*
X129700Y153681D01*
X129502Y153628D01*
X129334Y153560D01*
X129197Y153476D01*
X129091Y153377D01*
X129015Y153262D01*
X128969Y153133D01*
X128954Y152988D01*
Y156036D01*
X128969Y155891D01*
D02*
G37*
G36*
X371684Y172460D02*
X357797Y158573D01*
X355451Y159545D01*
Y175000D01*
X370632D01*
X371684Y172460D01*
D02*
G37*
G36*
X149860Y172466D02*
Y163830D01*
X148513Y162483D01*
X148719Y162250D01*
X148999Y161958D01*
X148387Y160415D01*
X148054Y160738D01*
X147466Y161240D01*
X147351Y161321D01*
X147320Y161290D01*
X143510D01*
X140716Y158496D01*
X117602Y158496D01*
X108712Y149606D01*
X109728Y148590D01*
X107696D01*
X107696Y148590D01*
X105156D01*
X97790Y141224D01*
X75946D01*
X69850Y135128D01*
X5000Y135128D01*
Y175006D01*
X147320Y175006D01*
X149860Y172466D01*
D02*
G37*
G36*
X143983Y154993D02*
X143967Y154983D01*
X143922Y154974D01*
X143846Y154966D01*
X143434Y154948D01*
X142459Y154940D01*
Y156464D01*
X142752Y156472D01*
X143015Y156495D01*
X143247Y156533D01*
X143448Y156586D01*
X143619Y156655D01*
X143759Y156738D01*
X143869Y156837D01*
X143948Y156952D01*
X143996Y157081D01*
X144013Y157226D01*
X143983Y154993D01*
D02*
G37*
G36*
X185937Y158341D02*
X185983Y158212D01*
X186059Y158097D01*
X186166Y157998D01*
X186303Y157915D01*
X186470Y157846D01*
X186668Y157793D01*
X186897Y157755D01*
X187156Y157732D01*
X187446Y157724D01*
Y156200D01*
X187156Y156193D01*
X186897Y156170D01*
X186668Y156131D01*
X186470Y156078D01*
X186303Y156010D01*
X186166Y155926D01*
X186059Y155827D01*
X185983Y155712D01*
X185937Y155583D01*
X185922Y155438D01*
Y158486D01*
X185937Y158341D01*
D02*
G37*
G36*
X182013Y148938D02*
X181998Y149083D01*
X181951Y149212D01*
X181873Y149327D01*
X181764Y149426D01*
X181625Y149510D01*
X181453Y149578D01*
X181251Y149632D01*
X181018Y149670D01*
X180754Y149692D01*
X180459Y149700D01*
Y151224D01*
X180754Y151232D01*
X181018Y151255D01*
X181251Y151293D01*
X181453Y151346D01*
X181625Y151415D01*
X181764Y151498D01*
X181873Y151597D01*
X181951Y151712D01*
X181998Y151841D01*
X182013Y151986D01*
Y148938D01*
D02*
G37*
G36*
X121714Y157121D02*
Y150742D01*
X130254D01*
Y150742D01*
X130456Y150797D01*
X132876Y149368D01*
X132890Y149312D01*
Y146852D01*
X132890D01*
Y139312D01*
X132890D01*
X134610Y136772D01*
X134535Y136398D01*
X134693Y135606D01*
X133207Y133693D01*
X132738Y133405D01*
X132588Y133435D01*
X131409Y133200D01*
X129042Y132782D01*
X129042Y132782D01*
X121965D01*
X122035Y130751D01*
X119048D01*
X119067Y130779D01*
X119083Y130863D01*
X119098Y131003D01*
X119129Y131757D01*
X119138Y132782D01*
X119134D01*
X118187Y135231D01*
X118179Y135248D01*
X118186Y135266D01*
X118174Y135748D01*
X118156Y135788D01*
X118169Y135830D01*
X118132Y136262D01*
X118132Y136263D01*
Y138308D01*
X117935Y139299D01*
X117373Y140139D01*
X116880Y140632D01*
Y148010D01*
X112652D01*
X111611Y150523D01*
X112315Y151265D01*
X118171Y157121D01*
X121714D01*
D02*
G37*
G36*
X115814Y137745D02*
X116023Y137669D01*
X116208Y137542D01*
X116368Y137364D01*
X116504Y137135D01*
X116615Y136856D01*
X116701Y136526D01*
X116763Y136145D01*
X116799Y135713D01*
X116812Y135231D01*
X114272D01*
X114259Y135713D01*
X114221Y136145D01*
X114157Y136526D01*
X114069Y136856D01*
X113954Y137135D01*
X113815Y137364D01*
X113650Y137542D01*
X113459Y137669D01*
X113243Y137745D01*
X113002Y137771D01*
X115580D01*
X115814Y137745D01*
D02*
G37*
G36*
X102831Y133894D02*
X102589Y133811D01*
X102373Y133704D01*
X102182Y133573D01*
X102016Y133418D01*
X101876Y133240D01*
X101762Y133037D01*
X101672Y132810D01*
X101609Y132560D01*
X101571Y132289D01*
X101634Y131483D01*
X101677Y131259D01*
X101730Y131076D01*
X101792Y130934D01*
X101863Y130833D01*
X101945Y130772D01*
X102035Y130751D01*
X99048D01*
X99139Y130772D01*
X99220Y130833D01*
X99292Y130934D01*
X99354Y131076D01*
X99406Y131259D01*
X99449Y131483D01*
X99483Y131747D01*
X99521Y132397D01*
X99526Y132783D01*
X100264D01*
X99526Y133238D01*
X99522Y133523D01*
X99462Y134347D01*
X99426Y134610D01*
X99271Y135367D01*
X99204Y135608D01*
X99128Y135843D01*
X102831Y133894D01*
D02*
G37*
G36*
X116814Y132809D02*
X116921Y130980D01*
X116955Y130853D01*
X116993Y130777D01*
X117035Y130751D01*
X114048D01*
X114091Y130777D01*
X114129Y130853D01*
X114162Y130980D01*
X114191Y131158D01*
X114216Y131386D01*
X114263Y132377D01*
X114272Y133291D01*
X116812D01*
X116814Y132809D01*
D02*
G37*
G36*
X272045Y149200D02*
X272079Y148924D01*
X272135Y148654D01*
X272213Y148392D01*
X272313Y148136D01*
X272436Y147887D01*
X272582Y147644D01*
X272749Y147408D01*
X272939Y147179D01*
X273152Y146957D01*
X268884D01*
X269097Y147179D01*
X269287Y147408D01*
X269454Y147644D01*
X269600Y147887D01*
X269723Y148136D01*
X269823Y148392D01*
X269901Y148654D01*
X269957Y148924D01*
X269991Y149200D01*
X270002Y149482D01*
X272034D01*
X272045Y149200D01*
D02*
G37*
G36*
X177437Y151554D02*
X177483Y151485D01*
X177559Y151424D01*
X177666Y151371D01*
X177803Y151326D01*
X177970Y151289D01*
X178168Y151261D01*
X178397Y151240D01*
X178946Y151224D01*
Y149700D01*
X178656Y149692D01*
X178397Y149670D01*
X178168Y149632D01*
X177970Y149578D01*
X177803Y149510D01*
X177666Y149426D01*
X177559Y149327D01*
X177483Y149212D01*
X177437Y149083D01*
X177422Y148938D01*
Y151632D01*
X177437Y151554D01*
D02*
G37*
G36*
X468032Y172460D02*
X467754Y172246D01*
X466125Y170124D01*
X465102Y167652D01*
X464752Y165000D01*
X465102Y162348D01*
X466125Y159876D01*
X467754Y157754D01*
X469876Y156125D01*
X472348Y155101D01*
X475000Y154752D01*
X477652Y155101D01*
X480124Y156125D01*
X482246Y157754D01*
X482460Y158032D01*
X485000Y157170D01*
Y32830D01*
X482460Y31968D01*
X482246Y32246D01*
X480124Y33875D01*
X477652Y34899D01*
X475000Y35248D01*
X472348Y34899D01*
X469876Y33875D01*
X467754Y32246D01*
X466125Y30124D01*
X465102Y27652D01*
X464752Y25000D01*
X465102Y22348D01*
X466125Y19876D01*
X467754Y17754D01*
X468032Y17540D01*
X467170Y15000D01*
X446910D01*
X446204Y15906D01*
X445351Y17540D01*
X445601Y18796D01*
X445266Y20481D01*
X444311Y21909D01*
X443899Y22185D01*
X443913Y22537D01*
X444663Y24729D01*
X445685Y24932D01*
X447113Y25887D01*
X448068Y27315D01*
X448403Y29000D01*
X448068Y30685D01*
X447113Y32113D01*
X445685Y33067D01*
X444000Y33403D01*
X442315Y33067D01*
X440887Y32113D01*
X439933Y30685D01*
X439597Y29000D01*
X439933Y27315D01*
X440887Y25887D01*
X441299Y25611D01*
X441284Y25259D01*
X440536Y23067D01*
X439513Y22864D01*
X438085Y21909D01*
X437131Y20481D01*
X436795Y18796D01*
X437045Y17540D01*
X436192Y15906D01*
X435486Y15000D01*
X315000D01*
Y5000D01*
X166070D01*
X164818Y7540D01*
X165103Y7967D01*
X165439Y9652D01*
X165103Y11337D01*
X164149Y12765D01*
X162721Y13720D01*
X161036Y14055D01*
X159351Y13720D01*
X157923Y12765D01*
X156968Y11337D01*
X156633Y9652D01*
X156968Y7967D01*
X157254Y7540D01*
X156002Y5000D01*
X132265D01*
X131293Y7347D01*
X136522Y12576D01*
X137027Y13332D01*
X137205Y14224D01*
Y19483D01*
X139745Y20535D01*
X140472Y19808D01*
X141228Y19303D01*
X141833Y19182D01*
X142109Y19065D01*
X142134Y19065D01*
Y17956D01*
X151384Y17956D01*
Y30180D01*
X149366Y30059D01*
X149297Y30028D01*
Y32884D01*
X149366Y32854D01*
X149478Y32826D01*
X149634Y32803D01*
X150075Y32764D01*
X151059Y32731D01*
X151384Y32729D01*
Y39956D01*
X151384D01*
X150042Y42496D01*
X150662Y43736D01*
X150681Y45037D01*
X150672Y45057D01*
X150673Y45180D01*
X150662Y45201D01*
Y52276D01*
X144678D01*
X144604Y52317D01*
X143548Y52841D01*
X142735Y53304D01*
X142295Y54473D01*
Y57022D01*
X143241Y57810D01*
X144852Y57172D01*
Y56810D01*
X156392D01*
Y59472D01*
X157471Y60034D01*
X158381Y59827D01*
X160068Y58525D01*
Y58286D01*
X168608D01*
Y65826D01*
X165146D01*
X163683Y67289D01*
X162633Y67991D01*
X161394Y68237D01*
X159004D01*
X158902Y68280D01*
X158893Y68276D01*
X158885Y68279D01*
X158161Y68271D01*
X158131Y68258D01*
X158101Y68269D01*
X157535Y68237D01*
X143780D01*
X143684Y68279D01*
X142781Y68299D01*
X142387Y68330D01*
X142276Y68344D01*
X142222Y68355D01*
X142217Y68357D01*
X142211Y68357D01*
X142182Y68365D01*
X141131Y69067D01*
X139593Y69373D01*
X139077Y70208D01*
X139048Y71861D01*
X139507Y72572D01*
X141131Y72895D01*
X142559Y73849D01*
X143513Y75277D01*
X143849Y76962D01*
X143731Y77555D01*
X145180Y79803D01*
X145601Y80095D01*
X150368D01*
X151210Y80262D01*
X151925Y80739D01*
X165758Y94573D01*
X166004D01*
X166134Y94512D01*
X166338Y94502D01*
X166477Y94483D01*
X166618Y94450D01*
X166763Y94401D01*
X166914Y94335D01*
X167073Y94250D01*
X167239Y94144D01*
X167414Y94014D01*
X167596Y93858D01*
X167811Y93651D01*
X167891Y93619D01*
X169257Y92706D01*
X170942Y92371D01*
X172627Y92706D01*
X174055Y93661D01*
X175009Y95089D01*
X175074Y95411D01*
X177500Y96148D01*
X177552Y96133D01*
X178004Y95841D01*
X178305Y94327D01*
X179259Y92899D01*
X180687Y91945D01*
X182372Y91609D01*
X184057Y91945D01*
X185485Y92899D01*
X186439Y94327D01*
X186775Y96012D01*
X186952Y96432D01*
X187287Y96625D01*
X187751Y96659D01*
X190161Y95758D01*
X190497Y94073D01*
X191451Y92645D01*
X192879Y91691D01*
X194564Y91355D01*
X196249Y91691D01*
X197677Y92645D01*
X198631Y94073D01*
X198967Y95758D01*
X198631Y97443D01*
X200059Y98548D01*
X201487Y99503D01*
X202442Y100931D01*
X202777Y102616D01*
X202442Y104301D01*
X201487Y105729D01*
X200059Y106684D01*
X199832Y106729D01*
X199765Y107064D01*
X199260Y107820D01*
X183004Y124076D01*
X182248Y124581D01*
X181356Y124759D01*
X173108D01*
Y132032D01*
X165568D01*
Y132032D01*
X163108D01*
Y132032D01*
X155568D01*
Y131826D01*
X154019Y130714D01*
X153556Y130406D01*
X153073Y130394D01*
X153032Y130375D01*
X152989Y130389D01*
X152566Y130352D01*
X146107D01*
X145595Y130863D01*
X144755Y131425D01*
X144039Y131567D01*
X143787Y131676D01*
X142880Y133092D01*
X142665Y133701D01*
X142656Y133773D01*
X142655Y133826D01*
X142936Y134609D01*
X143006Y134713D01*
X143341Y136398D01*
X143006Y138083D01*
X142098Y139441D01*
X142066Y139524D01*
X141887Y139712D01*
X141760Y139864D01*
X141653Y140015D01*
X141564Y140163D01*
X141492Y140310D01*
X141442Y140436D01*
X141440Y140449D01*
X141504Y140599D01*
X141430Y140783D01*
Y145171D01*
X142572Y147014D01*
X143829Y147192D01*
X149222D01*
X151182Y145792D01*
Y144892D01*
X178722D01*
Y145792D01*
X180682Y147192D01*
X185907D01*
X188011Y145443D01*
X188188Y145052D01*
X188465Y143660D01*
X189419Y142231D01*
X190847Y141277D01*
X192532Y140942D01*
X194217Y141277D01*
X195645Y142231D01*
X196600Y143660D01*
X196935Y145344D01*
X196600Y147029D01*
X196373Y147368D01*
X197144Y149908D01*
X197144Y150438D01*
Y158448D01*
X192024D01*
X191383Y158876D01*
X190590Y159034D01*
X190590Y159034D01*
X187626D01*
X187482Y159098D01*
X187235Y159105D01*
X187222Y159106D01*
Y160232D01*
X180682D01*
X178722Y161632D01*
Y169621D01*
X179328Y170527D01*
X179663Y172212D01*
X179613Y172460D01*
X181363Y174930D01*
X181501Y175000D01*
X248298D01*
X249655Y172460D01*
X249204Y171784D01*
X248717Y169338D01*
Y159338D01*
X249204Y156892D01*
X250590Y154818D01*
X252664Y153432D01*
X255110Y152945D01*
X265110D01*
X266457Y153213D01*
X268687Y151378D01*
Y149664D01*
X268628Y149537D01*
X268619Y149310D01*
X268600Y149147D01*
X268567Y148991D01*
X268522Y148840D01*
X268464Y148692D01*
X268392Y148545D01*
X268303Y148397D01*
X268196Y148246D01*
X268069Y148094D01*
X267890Y147906D01*
X267858Y147823D01*
X266950Y146465D01*
X266615Y144780D01*
X266950Y143095D01*
X267905Y141667D01*
X269333Y140712D01*
X271018Y140377D01*
X272703Y140712D01*
X274131Y141667D01*
X275086Y143095D01*
X275421Y144780D01*
X275086Y146465D01*
X274178Y147823D01*
X274146Y147906D01*
X273967Y148094D01*
X273840Y148246D01*
X273733Y148397D01*
X273644Y148545D01*
X273572Y148692D01*
X273514Y148840D01*
X273469Y148991D01*
X273436Y149147D01*
X273417Y149310D01*
X273408Y149537D01*
X273349Y149664D01*
Y153430D01*
X273171Y154322D01*
X272666Y155078D01*
X271762Y155983D01*
X271708Y156120D01*
X271417Y156424D01*
X271202Y156674D01*
X271044Y156883D01*
X271022Y156918D01*
X271503Y159338D01*
Y160900D01*
X274001Y161733D01*
X275429Y160779D01*
X277537Y160274D01*
X277873Y158589D01*
X278827Y157161D01*
X280255Y156207D01*
X281940Y155871D01*
X283625Y156207D01*
X285053Y157161D01*
X286007Y158589D01*
X286343Y160274D01*
X287249Y160448D01*
X287274Y160443D01*
X288959Y160779D01*
X290387Y161733D01*
X291341Y163161D01*
X291677Y164846D01*
X291341Y166531D01*
X290387Y167959D01*
X288959Y168913D01*
X287274Y169249D01*
X286007Y171103D01*
X285101Y172460D01*
X285184Y172899D01*
X285930Y175000D01*
X296730D01*
Y143730D01*
X309748D01*
X325015Y128463D01*
Y120001D01*
X322475Y118308D01*
X322000Y118403D01*
X320315Y118068D01*
X318887Y117113D01*
X317932Y115685D01*
X317597Y114000D01*
X317635Y113810D01*
X317230Y111270D01*
X314770D01*
X314770Y111270D01*
X314770Y111270D01*
X309970D01*
X309918Y111279D01*
X309401Y113568D01*
X309375Y113699D01*
X308421Y115127D01*
X306993Y116081D01*
X305308Y116417D01*
X303623Y116081D01*
X302195Y115127D01*
X301241Y113699D01*
X301189Y113441D01*
X301186Y113434D01*
X299995Y111248D01*
X299889Y111204D01*
X296124D01*
Y102664D01*
X303664D01*
Y105040D01*
X304520Y105713D01*
X305919Y106025D01*
X307230Y104806D01*
Y102791D01*
X307230Y102791D01*
X307230Y102730D01*
X309674Y102722D01*
X309770Y102730D01*
X309775D01*
X309860Y102676D01*
X310100Y102730D01*
X310632D01*
X310805Y102632D01*
X311024Y102481D01*
X311655Y101951D01*
X312016Y101604D01*
X312155Y101549D01*
X314352Y99352D01*
X315108Y98847D01*
X316000Y98669D01*
X317230D01*
Y90730D01*
X324770D01*
Y92160D01*
X324930Y92186D01*
X325187Y92209D01*
X325537Y92218D01*
X325671Y92277D01*
X333843D01*
X333982Y92218D01*
X334100Y92216D01*
Y91178D01*
X334202Y91137D01*
X334433Y91064D01*
X334681Y91004D01*
X334947Y90957D01*
X335231Y90924D01*
X335851Y90897D01*
X336085Y88103D01*
X335766Y88095D01*
X335467Y88071D01*
X335187Y88032D01*
X334926Y87976D01*
X334685Y87904D01*
X334464Y87817D01*
X334261Y87713D01*
X334100Y87608D01*
Y86334D01*
X333966Y86330D01*
X333832Y86271D01*
X312905D01*
X312778Y86330D01*
X312551Y86339D01*
X312390Y86359D01*
X312237Y86391D01*
X312090Y86435D01*
X311946Y86493D01*
X311804Y86565D01*
X311660Y86653D01*
X311516Y86760D01*
X311368Y86886D01*
X311186Y87067D01*
X311128Y87090D01*
X311113Y87113D01*
X309685Y88068D01*
X308000Y88403D01*
X306315Y88068D01*
X304887Y87113D01*
X303932Y85685D01*
X303597Y84000D01*
X303932Y82315D01*
X304887Y80887D01*
X304156Y78320D01*
X304035Y78139D01*
X303699Y76454D01*
X303881Y75543D01*
X302679Y73492D01*
X302160Y73003D01*
X289814Y73003D01*
X289814Y73003D01*
X289814Y73003D01*
X286385Y73003D01*
X286385Y73003D01*
X286385Y73003D01*
X266674Y73003D01*
X266567Y73536D01*
X266062Y74292D01*
X264146Y76208D01*
X264107Y76234D01*
X264614Y78863D01*
X265420Y78969D01*
X267675Y79903D01*
X269611Y81389D01*
X271097Y83325D01*
X272031Y85580D01*
X272350Y88000D01*
X272031Y90420D01*
X271097Y92675D01*
X269611Y94611D01*
X267675Y96097D01*
X265420Y97031D01*
X263000Y97350D01*
X260580Y97031D01*
X258325Y96097D01*
X256389Y94611D01*
X254903Y92675D01*
X254375Y91400D01*
X251625D01*
X251097Y92675D01*
X249611Y94611D01*
X247675Y96097D01*
X245420Y97031D01*
X243000Y97350D01*
X240580Y97031D01*
X238325Y96097D01*
X236389Y94611D01*
X234903Y92675D01*
X233969Y90420D01*
X233650Y88000D01*
X233969Y85580D01*
X234903Y83325D01*
X236389Y81389D01*
X238325Y79903D01*
X240580Y78969D01*
X242528Y78712D01*
X243134Y78466D01*
X244702Y76312D01*
Y71290D01*
X244972D01*
Y68682D01*
X245008Y68688D01*
X245338Y68772D01*
X245618Y68880D01*
X245846Y69012D01*
X246024Y69168D01*
X246151Y69348D01*
X246227Y69552D01*
X246252Y69780D01*
Y64840D01*
X246227Y65068D01*
X246151Y65272D01*
X246024Y65452D01*
X245846Y65608D01*
X245618Y65740D01*
X245338Y65848D01*
X245008Y65932D01*
X244972Y65938D01*
Y63330D01*
X244702D01*
Y56790D01*
X244702Y56790D01*
X244702D01*
X246325Y54250D01*
X246295Y54102D01*
X244210Y51816D01*
X236093D01*
Y45319D01*
X236404Y45402D01*
X236910Y45608D01*
X237325Y45859D01*
X237647Y46156D01*
X237877Y46499D01*
X238015Y46888D01*
X238061Y47322D01*
Y38178D01*
X238015Y38612D01*
X237877Y39001D01*
X237647Y39344D01*
X237325Y39641D01*
X236910Y39893D01*
X236404Y40098D01*
X236093Y40182D01*
Y32766D01*
X271907D01*
Y35521D01*
X271990Y35604D01*
X272393Y36576D01*
X272393Y36576D01*
Y49215D01*
X273365Y50187D01*
X282321D01*
X282321Y50187D01*
X282321Y50187D01*
X287274D01*
X287274Y50187D01*
X287274Y50187D01*
X296865Y50187D01*
X313480Y33572D01*
X314452Y33169D01*
X314452Y33169D01*
X374650Y33169D01*
X375076Y33346D01*
X382310D01*
Y40260D01*
X389084Y47034D01*
X389487Y48006D01*
X389487Y48006D01*
Y50239D01*
X390017Y50765D01*
X392027Y51723D01*
X392262Y51625D01*
X392262Y51625D01*
X454000D01*
X454972Y52028D01*
X454972Y52028D01*
X456394Y53450D01*
X456797Y54422D01*
X456797Y54422D01*
Y70578D01*
X456797Y70578D01*
X456394Y71550D01*
X453972Y73972D01*
X453086Y74339D01*
X451581Y75538D01*
X451176Y75869D01*
Y81860D01*
X451176Y82825D01*
X451241Y82942D01*
X451236Y83065D01*
X451250Y83100D01*
X451176Y84400D01*
X450811D01*
X449399Y86597D01*
X449482Y86909D01*
X450223Y88694D01*
X450436Y88810D01*
X456158D01*
Y120850D01*
X434560D01*
X434500Y120875D01*
X376750D01*
X375778Y120472D01*
X375376Y119500D01*
Y117000D01*
X374000Y115625D01*
Y107250D01*
X372250Y105500D01*
X371000Y106750D01*
Y117000D01*
X365357D01*
Y130869D01*
X372171Y137683D01*
X447058Y137683D01*
X447058Y137683D01*
X448030Y138086D01*
X453254Y143310D01*
X456158D01*
Y175000D01*
X467170D01*
X468032Y172460D01*
D02*
G37*
G36*
X139965Y140818D02*
X139990Y140614D01*
X140129Y140612D01*
X140096Y140592D01*
X140066Y140531D01*
X140040Y140430D01*
X140032Y140381D01*
X140055Y140272D01*
X140133Y140010D01*
X140233Y139754D01*
X140356Y139505D01*
X140502Y139262D01*
X140669Y139026D01*
X140859Y138797D01*
X141072Y138575D01*
X136804D01*
X137017Y138797D01*
X137207Y139026D01*
X137374Y139262D01*
X137520Y139505D01*
X137643Y139754D01*
X137729Y139972D01*
X137668Y140123D01*
X137556Y140308D01*
X137424Y140453D01*
X137272Y140557D01*
X137099Y140621D01*
X136906Y140643D01*
X137888Y140634D01*
X137911Y140818D01*
X137922Y141101D01*
X139954D01*
X139965Y140818D01*
D02*
G37*
G36*
X168765Y94640D02*
X168520Y94877D01*
X168272Y95089D01*
X168022Y95275D01*
X167769Y95437D01*
X167513Y95574D01*
X167255Y95686D01*
X166995Y95773D01*
X166732Y95835D01*
X166466Y95873D01*
X166198Y95885D01*
Y97663D01*
X166466Y97675D01*
X166732Y97713D01*
X166995Y97775D01*
X167255Y97862D01*
X167513Y97974D01*
X167769Y98111D01*
X168022Y98273D01*
X168272Y98460D01*
X168520Y98671D01*
X168765Y98908D01*
Y94640D01*
D02*
G37*
G36*
X57105Y98184D02*
X57285Y98078D01*
X57482Y97985D01*
X57697Y97903D01*
X57929Y97835D01*
X58179Y97779D01*
X58446Y97735D01*
X58730Y97704D01*
X58855Y97699D01*
X61072Y97775D01*
Y94788D01*
X61044Y94807D01*
X60961Y94823D01*
X60821Y94838D01*
X60066Y94869D01*
X59377Y94875D01*
X59094Y94852D01*
X58815Y94811D01*
X58556Y94753D01*
X58318Y94679D01*
X58099Y94589D01*
X57901Y94482D01*
X57723Y94359D01*
X57565Y94219D01*
X57427Y94063D01*
X56942Y98303D01*
X57105Y98184D01*
D02*
G37*
G36*
X336031Y93131D02*
X336010Y93218D01*
X335949Y93297D01*
X335848Y93366D01*
X335705Y93426D01*
X335523Y93477D01*
X335299Y93518D01*
X335035Y93551D01*
X334385Y93588D01*
X333999Y93592D01*
Y95624D01*
X334385Y95627D01*
X335705Y95712D01*
X335848Y95744D01*
X335949Y95781D01*
X336010Y95823D01*
X336031Y95870D01*
Y93131D01*
D02*
G37*
G36*
X383995Y95851D02*
X384071Y95834D01*
X384198Y95819D01*
X384605Y95795D01*
X386510Y95770D01*
Y93230D01*
X383970Y93131D01*
Y95870D01*
X383995Y95851D01*
D02*
G37*
G36*
X434500Y98000D02*
X375500D01*
Y106000D01*
X376750D01*
Y119500D01*
X434500D01*
Y98000D01*
D02*
G37*
G36*
X183399Y100432D02*
X183433Y100156D01*
X183489Y99886D01*
X183567Y99624D01*
X183667Y99368D01*
X183790Y99119D01*
X183936Y98876D01*
X184103Y98640D01*
X184293Y98411D01*
X184506Y98189D01*
X180238D01*
X180451Y98411D01*
X180641Y98640D01*
X180808Y98876D01*
X180954Y99119D01*
X181077Y99368D01*
X181177Y99624D01*
X181255Y99886D01*
X181311Y100156D01*
X181345Y100432D01*
X181356Y100715D01*
X183388D01*
X183399Y100432D01*
D02*
G37*
G36*
X135032Y97685D02*
X135093Y97604D01*
X135194Y97532D01*
X135337Y97470D01*
X135519Y97417D01*
X135743Y97374D01*
X136007Y97341D01*
X136657Y97303D01*
X137043Y97298D01*
Y95266D01*
X136657Y95261D01*
X135743Y95190D01*
X135519Y95147D01*
X135337Y95094D01*
X135194Y95032D01*
X135093Y94960D01*
X135032Y94879D01*
X135011Y94788D01*
Y97775D01*
X135032Y97685D01*
D02*
G37*
G36*
X194069Y100293D02*
X194107Y100019D01*
X194170Y99769D01*
X194259Y99544D01*
X194373Y99344D01*
X194512Y99167D01*
X194677Y99016D01*
X194867Y98890D01*
X195083Y98787D01*
X195323Y98710D01*
X191668Y96708D01*
X191735Y96929D01*
X191849Y97395D01*
X191896Y97640D01*
X191992Y98420D01*
X192010Y98696D01*
X192024Y99272D01*
X194056Y100592D01*
X194069Y100293D01*
D02*
G37*
G36*
X346531Y86706D02*
X346503Y86972D01*
X346419Y87209D01*
X346279Y87419D01*
X346084Y87600D01*
X345832Y87754D01*
X345525Y87880D01*
X345162Y87977D01*
X344743Y88047D01*
X344268Y88089D01*
X343737Y88103D01*
Y90897D01*
X344268Y90911D01*
X344743Y90953D01*
X345162Y91023D01*
X345525Y91121D01*
X345832Y91246D01*
X346084Y91400D01*
X346279Y91582D01*
X346419Y91791D01*
X346503Y92029D01*
X346531Y92294D01*
Y86706D01*
D02*
G37*
G36*
X383995Y90851D02*
X384071Y90834D01*
X384198Y90819D01*
X384605Y90795D01*
X386510Y90770D01*
Y88230D01*
X383970Y88131D01*
Y90870D01*
X383995Y90851D01*
D02*
G37*
G36*
X135021Y87196D02*
X135048Y87190D01*
X135094Y87186D01*
X135342Y87176D01*
X135931Y87171D01*
Y85393D01*
X135011Y85362D01*
Y87201D01*
X135021Y87196D01*
D02*
G37*
G36*
X403297Y86591D02*
X403179Y86786D01*
X403040Y86960D01*
X402879Y87114D01*
X402697Y87247D01*
X402493Y87360D01*
X402267Y87452D01*
X402019Y87524D01*
X401750Y87575D01*
X401460Y87606D01*
X401147Y87616D01*
X402017Y90156D01*
X402325Y90161D01*
X402905Y90203D01*
X403175Y90239D01*
X403680Y90343D01*
X403913Y90410D01*
X404134Y90488D01*
X404342Y90576D01*
X404538Y90674D01*
X403297Y86591D01*
D02*
G37*
G36*
X394005Y91960D02*
X393979Y92201D01*
X393903Y92417D01*
X393776Y92608D01*
X393598Y92773D01*
X393370Y92913D01*
X393090Y93027D01*
X392760Y93116D01*
X392379Y93179D01*
X391947Y93217D01*
X391465Y93230D01*
Y95770D01*
X391947Y95776D01*
X393090Y95870D01*
X393370Y95927D01*
X393598Y95995D01*
X393776Y96077D01*
X393903Y96170D01*
X393979Y96277D01*
X394005Y96396D01*
Y91960D01*
D02*
G37*
G36*
X323460Y96447D02*
X323521Y96274D01*
X323625Y96122D01*
X323769Y95990D01*
X323955Y95878D01*
X324182Y95787D01*
X324450Y95716D01*
X324759Y95665D01*
X325110Y95634D01*
X325502Y95624D01*
Y93592D01*
X325110Y93582D01*
X324759Y93552D01*
X324450Y93501D01*
X324182Y93430D01*
X323955Y93338D01*
X323769Y93226D01*
X323625Y93094D01*
X323521Y92942D01*
X323460Y92769D01*
X323439Y92576D01*
Y96640D01*
X323460Y96447D01*
D02*
G37*
G36*
X48479Y92211D02*
X48471Y92060D01*
X48516Y91926D01*
X48612Y91811D01*
X48761Y91713D01*
X48962Y91633D01*
X49216Y91571D01*
X49521Y91526D01*
X49879Y91500D01*
X50288Y91491D01*
X49333Y89713D01*
X48990Y89709D01*
X48117Y89654D01*
X47878Y89620D01*
X47478Y89531D01*
X47316Y89475D01*
X47181Y89412D01*
X47071Y89342D01*
X48538Y92380D01*
X48479Y92211D01*
D02*
G37*
G36*
X61072Y89788D02*
X61055Y89774D01*
X61001Y89761D01*
X60912Y89750D01*
X60628Y89732D01*
X59294Y89713D01*
Y91491D01*
X59636Y91500D01*
X59942Y91526D01*
X60212Y91571D01*
X60447Y91633D01*
X60645Y91713D01*
X60808Y91811D01*
X60936Y91926D01*
X61027Y92060D01*
X61083Y92211D01*
X61103Y92380D01*
X61072Y89788D01*
D02*
G37*
G36*
X336061Y98469D02*
X336050Y98472D01*
X336019Y98475D01*
X335796Y98481D01*
X335000Y98484D01*
Y100516D01*
X336061Y100531D01*
Y98469D01*
D02*
G37*
G36*
X135032Y107685D02*
X135093Y107604D01*
X135194Y107532D01*
X135337Y107470D01*
X135519Y107417D01*
X135743Y107374D01*
X136007Y107341D01*
X136657Y107303D01*
X137043Y107298D01*
Y105266D01*
X136657Y105261D01*
X135743Y105190D01*
X135519Y105147D01*
X135337Y105094D01*
X135194Y105032D01*
X135093Y104960D01*
X135032Y104879D01*
X135011Y104788D01*
Y107775D01*
X135032Y107685D01*
D02*
G37*
G36*
X61103Y105125D02*
X61091Y105152D01*
X61055Y105176D01*
X60996Y105197D01*
X60913Y105215D01*
X60806Y105231D01*
X60521Y105253D01*
X59916Y105266D01*
Y107298D01*
X60141Y107299D01*
X60913Y107348D01*
X60996Y107367D01*
X61055Y107388D01*
X61091Y107412D01*
X61103Y107438D01*
Y105125D01*
D02*
G37*
G36*
X187193Y106701D02*
X187817Y106156D01*
X188025Y105994D01*
X188652Y105572D01*
X188861Y105451D01*
X189071Y105341D01*
X185071Y104148D01*
X185186Y104375D01*
X185265Y104601D01*
X185309Y104826D01*
X185318Y105051D01*
X185292Y105274D01*
X185230Y105498D01*
X185133Y105720D01*
X185001Y105942D01*
X184834Y106163D01*
X184632Y106383D01*
X186986Y106903D01*
X187193Y106701D01*
D02*
G37*
G36*
X178461Y105161D02*
X174483Y104615D01*
X174618Y104795D01*
X174715Y104980D01*
X174774Y105169D01*
X174796Y105364D01*
X174779Y105563D01*
X174724Y105768D01*
X174631Y105977D01*
X174500Y106191D01*
X174331Y106410D01*
X174124Y106633D01*
X175965Y107666D01*
X178461Y105161D01*
D02*
G37*
G36*
X51474Y110864D02*
X51684Y110663D01*
X51903Y110485D01*
X52133Y110332D01*
X52371Y110202D01*
X52619Y110095D01*
X52877Y110012D01*
X53144Y109953D01*
X53420Y109918D01*
X53706Y109906D01*
X53526Y107874D01*
X53246Y107864D01*
X52971Y107832D01*
X52700Y107781D01*
X52433Y107708D01*
X52170Y107614D01*
X51912Y107500D01*
X51657Y107366D01*
X51406Y107210D01*
X51160Y107033D01*
X50917Y106836D01*
X51273Y111089D01*
X51474Y110864D01*
D02*
G37*
G36*
X354076Y107442D02*
X335026D01*
X326390Y116078D01*
Y129032D01*
X310211Y145211D01*
Y175000D01*
X354076D01*
Y107442D01*
D02*
G37*
G36*
X319729Y112484D02*
X319730Y112509D01*
X322270D01*
X322282Y112027D01*
X322318Y111595D01*
X322320Y111585D01*
X323301Y111244D01*
X323105Y111135D01*
X322930Y111004D01*
X322775Y110850D01*
X322641Y110673D01*
X322586Y110576D01*
X322702Y110376D01*
X322858Y110198D01*
X323038Y110071D01*
X323242Y109995D01*
X323470Y109970D01*
X322356D01*
X322311Y109738D01*
X322280Y109448D01*
X322270Y109135D01*
X320155Y109970D01*
X318531D01*
X318758Y109995D01*
X318962Y110071D01*
X319142Y110198D01*
X319298Y110376D01*
X319430Y110604D01*
X319538Y110884D01*
X319622Y111214D01*
X319646Y111364D01*
X319615Y111555D01*
X319505Y112030D01*
X319436Y112247D01*
X319358Y112452D01*
X319270Y112644D01*
X319729Y112484D01*
D02*
G37*
G36*
X454000Y146000D02*
X447058Y139058D01*
X371602Y139058D01*
X363982Y131438D01*
Y125222D01*
Y106934D01*
X355600D01*
Y154432D01*
X355719D01*
X355701Y154534D01*
X375024Y173856D01*
X454000Y173856D01*
Y146000D01*
D02*
G37*
G36*
X37049Y109202D02*
X36876Y109141D01*
X36724Y109039D01*
X36592Y108897D01*
X36480Y108714D01*
X36388Y108491D01*
X36317Y108227D01*
X36267Y107922D01*
X36236Y107576D01*
X36226Y107190D01*
X34194D01*
X34184Y107576D01*
X34153Y107922D01*
X34102Y108227D01*
X34031Y108491D01*
X33940Y108714D01*
X33828Y108897D01*
X33696Y109039D01*
X33544Y109141D01*
X33371Y109202D01*
X33178Y109222D01*
X37242D01*
X37049Y109202D01*
D02*
G37*
G36*
X135032Y102685D02*
X135093Y102604D01*
X135194Y102532D01*
X135337Y102470D01*
X135519Y102417D01*
X135743Y102374D01*
X136007Y102341D01*
X136657Y102303D01*
X137043Y102298D01*
Y100266D01*
X136657Y100261D01*
X135743Y100190D01*
X135519Y100147D01*
X135337Y100094D01*
X135194Y100032D01*
X135093Y99960D01*
X135032Y99879D01*
X135011Y99788D01*
Y102775D01*
X135032Y102685D01*
D02*
G37*
G36*
X313332Y106269D02*
X313257Y106099D01*
X313245Y105896D01*
X313295Y105660D01*
X313407Y105389D01*
X313582Y105085D01*
X313819Y104747D01*
X314119Y104375D01*
X314906Y103531D01*
X312969Y102594D01*
X312575Y102973D01*
X311858Y103576D01*
X311535Y103798D01*
X311236Y103968D01*
X310961Y104085D01*
X310709Y104150D01*
X310481Y104163D01*
X310276Y104123D01*
X310096Y104031D01*
X313470Y106404D01*
X313332Y106269D01*
D02*
G37*
G36*
X61072Y99788D02*
X61044Y99807D01*
X60961Y99823D01*
X60821Y99838D01*
X60066Y99869D01*
X58278Y99885D01*
Y102679D01*
X61072Y102775D01*
Y99788D01*
D02*
G37*
G36*
X36918Y103552D02*
X37568Y103015D01*
X37855Y102827D01*
X38116Y102693D01*
X38351Y102613D01*
X38561Y102586D01*
X38746Y102614D01*
X38904Y102695D01*
X39037Y102830D01*
X36609Y99567D01*
X36704Y99740D01*
X36749Y99934D01*
X36743Y100150D01*
X36688Y100389D01*
X36582Y100649D01*
X36426Y100932D01*
X36220Y101237D01*
X35963Y101563D01*
X35657Y101912D01*
X35300Y102283D01*
X36555Y103902D01*
X36918Y103552D01*
D02*
G37*
G36*
X165837Y99615D02*
X165517Y99660D01*
X165210Y99679D01*
X164915Y99673D01*
X164634Y99642D01*
X164365Y99584D01*
X164109Y99501D01*
X163865Y99392D01*
X163635Y99258D01*
X163417Y99097D01*
X163212Y98912D01*
X162175Y100389D01*
X162349Y100579D01*
X162511Y100786D01*
X162660Y101011D01*
X162797Y101254D01*
X162922Y101515D01*
X163034Y101794D01*
X163134Y102091D01*
X163221Y102405D01*
X163359Y103089D01*
X165837Y99615D01*
D02*
G37*
G36*
X336061Y103204D02*
X336048Y103258D01*
X336008Y103305D01*
X335942Y103347D01*
X335849Y103384D01*
X335730Y103414D01*
X335584Y103439D01*
X335411Y103459D01*
X334987Y103481D01*
X334735Y103484D01*
Y105516D01*
X334987Y105519D01*
X335584Y105561D01*
X335730Y105586D01*
X335849Y105617D01*
X335942Y105653D01*
X336008Y105695D01*
X336048Y105743D01*
X336061Y105796D01*
Y103204D01*
D02*
G37*
G36*
X122017Y124784D02*
X122001Y124701D01*
X121986Y124561D01*
X121960Y123932D01*
X121995Y123529D01*
X122065Y123105D01*
X122162Y122738D01*
X122288Y122427D01*
X122442Y122173D01*
X122623Y121975D01*
X122833Y121834D01*
X122979Y121782D01*
X126042D01*
Y73719D01*
X126094Y73573D01*
X126235Y73363D01*
X126433Y73182D01*
X126687Y73028D01*
X126998Y72902D01*
X127365Y72805D01*
X127788Y72735D01*
X127819Y72732D01*
X129072Y72775D01*
Y69788D01*
X129044Y69807D01*
X128961Y69823D01*
X128821Y69838D01*
X128191Y69864D01*
X127788Y69829D01*
X127365Y69759D01*
X126998Y69661D01*
X126687Y69536D01*
X126433Y69382D01*
X126235Y69200D01*
X126094Y68991D01*
X126042Y68845D01*
Y65782D01*
X78063D01*
X77833Y65701D01*
X77623Y65561D01*
X77442Y65365D01*
X77288Y65114D01*
X77162Y64806D01*
X77065Y64443D01*
X76995Y64024D01*
X76992Y63997D01*
X77035Y62751D01*
X74048D01*
X74067Y62779D01*
X74083Y62863D01*
X74097Y63003D01*
X74124Y63628D01*
X74089Y64024D01*
X74019Y64443D01*
X73921Y64806D01*
X73796Y65114D01*
X73642Y65365D01*
X73460Y65561D01*
X73251Y65701D01*
X73021Y65782D01*
X70042D01*
Y98845D01*
X69990Y98991D01*
X69849Y99200D01*
X69651Y99382D01*
X69397Y99536D01*
X69086Y99661D01*
X68719Y99759D01*
X68295Y99829D01*
X68265Y99832D01*
X67011Y99788D01*
Y102775D01*
X67039Y102757D01*
X67123Y102741D01*
X67263Y102726D01*
X67892Y102700D01*
X68295Y102735D01*
X68719Y102805D01*
X69086Y102902D01*
X69397Y103028D01*
X69651Y103182D01*
X69849Y103363D01*
X69990Y103573D01*
X70042Y103719D01*
Y121782D01*
X118105D01*
X118251Y121834D01*
X118460Y121975D01*
X118642Y122173D01*
X118796Y122427D01*
X118921Y122738D01*
X119019Y123105D01*
X119089Y123529D01*
X119092Y123559D01*
X119048Y124812D01*
X122035D01*
X122017Y124784D01*
D02*
G37*
%LPC*%
G36*
X218000Y97350D02*
X215580Y97031D01*
X213325Y96097D01*
X211389Y94611D01*
X209903Y92675D01*
X208969Y90420D01*
X208650Y88000D01*
X208969Y85580D01*
X209903Y83325D01*
X211389Y81389D01*
X213325Y79903D01*
X215580Y78969D01*
X218000Y78650D01*
X220420Y78969D01*
X222675Y79903D01*
X224611Y81389D01*
X226097Y83325D01*
X227031Y85580D01*
X227350Y88000D01*
X227031Y90420D01*
X226097Y92675D01*
X224611Y94611D01*
X222675Y96097D01*
X220420Y97031D01*
X218000Y97350D01*
D02*
G37*
G36*
X465582Y51647D02*
X463897Y51311D01*
X462469Y50357D01*
X461515Y48929D01*
X461179Y47244D01*
X461515Y45559D01*
X462469Y44131D01*
X463897Y43176D01*
X465582Y42841D01*
X467267Y43176D01*
X468695Y44131D01*
X469650Y45559D01*
X469985Y47244D01*
X469650Y48929D01*
X468695Y50357D01*
X467267Y51311D01*
X465582Y51647D01*
D02*
G37*
G36*
X168095Y39878D02*
Y17878D01*
X177345Y17878D01*
Y20172D01*
X175367Y20059D01*
X175297Y20028D01*
Y22884D01*
X175367Y22854D01*
X175484Y22826D01*
X175647Y22803D01*
X176110Y22764D01*
X177345Y22733D01*
Y35172D01*
X175367Y35059D01*
X175297Y35028D01*
Y37884D01*
X175367Y37854D01*
X175484Y37826D01*
X175647Y37803D01*
X176110Y37764D01*
X177345Y37733D01*
Y39878D01*
X168095Y39878D01*
D02*
G37*
G36*
X33020Y23707D02*
X31335Y23372D01*
X29907Y22417D01*
X28953Y20989D01*
X28617Y19304D01*
X28953Y17619D01*
X29907Y16191D01*
X31335Y15237D01*
X33020Y14901D01*
X34705Y15237D01*
X36133Y16191D01*
X37088Y17619D01*
X37423Y19304D01*
X37088Y20989D01*
X36133Y22417D01*
X34705Y23372D01*
X33020Y23707D01*
D02*
G37*
%LPD*%
D10*
X258572Y53594D02*
X259080Y54102D01*
X258572Y43678D02*
Y53594D01*
X250698Y54102D02*
X254254Y50546D01*
Y44004D02*
Y50546D01*
X253000Y42750D02*
X254254Y44004D01*
X258572Y43678D02*
X258826Y43932D01*
X257222Y55960D02*
X259080Y54102D01*
X257222Y55960D02*
Y60060D01*
X250698Y54102D02*
X252222Y55626D01*
Y60060D01*
X258572Y43678D02*
X259500Y42750D01*
X165154Y96774D02*
X170942D01*
X165105Y96725D02*
X165154Y96774D01*
X164970Y96725D02*
X165105D01*
X164836Y96591D02*
X164970Y96725D01*
X164739Y96591D02*
X164836D01*
X164580Y96431D02*
X164739Y96591D01*
X164522Y96431D02*
X164580D01*
X164336Y96245D02*
X164522Y96431D01*
X164317Y96245D02*
X164336D01*
X150368Y82296D02*
X164317Y96245D01*
X132042Y81282D02*
X135931D01*
X136945Y82296D01*
X150368D01*
X132042Y86282D02*
X135931D01*
X136361Y85852D01*
X367500Y64478D02*
Y72250D01*
X362500D02*
X362938Y71812D01*
X21302Y74073D02*
X25366Y74020D01*
X38002Y86282D02*
X64042D01*
X27844Y76124D02*
X38002Y86282D01*
X63362Y90602D02*
X64042Y91282D01*
X42720Y90602D02*
X63362D01*
X34020Y57582D02*
Y65376D01*
X30384Y69012D02*
X34020Y65376D01*
X360807Y60071D02*
Y65867D01*
X362500Y67560D02*
Y72250D01*
X360807Y65867D02*
X362500Y67560D01*
X360172Y59436D02*
X360807Y60071D01*
X366522Y63500D02*
X367500Y64478D01*
X136361Y85852D02*
X148895D01*
X165659Y102616D01*
X166370D01*
D17*
X169338Y127762D02*
D03*
X159338D02*
D03*
X321000Y95000D02*
D03*
X311000D02*
D03*
X299894Y106934D02*
D03*
X289894D02*
D03*
X311000Y107000D02*
D03*
X321000D02*
D03*
X193374Y154178D02*
D03*
X203374D02*
D03*
X156892Y48006D02*
D03*
X146892D02*
D03*
X47990Y44120D02*
D03*
X57990D02*
D03*
X35130Y112192D02*
D03*
X25130D02*
D03*
X34020Y57582D02*
D03*
X44020D02*
D03*
X78818Y44120D02*
D03*
X68818D02*
D03*
D18*
X313250Y123000D02*
D03*
X330750D02*
D03*
D22*
X137160Y143082D02*
D03*
Y153082D02*
D03*
X125984Y164512D02*
D03*
Y154512D02*
D03*
X148082Y135302D02*
D03*
Y125302D02*
D03*
X164338Y72056D02*
D03*
Y62056D02*
D03*
X46228Y125904D02*
D03*
Y115904D02*
D03*
X396974Y93926D02*
D03*
Y103926D02*
D03*
D23*
X257222Y74560D02*
D03*
X252222D02*
D03*
X247222D02*
D03*
Y60060D02*
D03*
X252222D02*
D03*
X257222D02*
D03*
D24*
X252222Y67310D02*
D03*
D25*
X150622Y62080D02*
D03*
Y75080D02*
D03*
D26*
X377040Y39116D02*
D03*
X390040D02*
D03*
X111610Y142240D02*
D03*
X124610D02*
D03*
X411000Y80000D02*
D03*
X424000D02*
D03*
D27*
X373634Y125870D02*
D03*
Y143370D02*
D03*
X446524Y40250D02*
D03*
Y57750D02*
D03*
X426586Y40206D02*
D03*
Y57706D02*
D03*
X406520Y40206D02*
D03*
Y57706D02*
D03*
X392176Y125870D02*
D03*
Y143370D02*
D03*
D28*
X475000Y25000D02*
D03*
X15000Y15000D02*
D03*
X475000Y165000D02*
D03*
D30*
X262498Y74560D02*
X264414Y72644D01*
X257222Y74560D02*
X262498D01*
X264414Y55626D02*
Y72644D01*
X299894Y106934D02*
X304974Y112014D01*
X305308D01*
X142962Y26456D02*
X146766D01*
X140462Y28956D02*
X142962Y26456D01*
X140462Y28956D02*
Y33959D01*
X135128Y39293D02*
X140462Y33959D01*
X135128Y39293D02*
Y40894D01*
X142120Y21456D02*
X146766D01*
X135128Y28448D02*
X142120Y21456D01*
X135128Y28448D02*
Y31750D01*
X305308Y112014D02*
X310322Y107000D01*
X311000D01*
X107063Y22227D02*
Y28323D01*
X103249Y18413D02*
X107063Y22227D01*
X81405Y18413D02*
X103249D01*
X122990Y31242D02*
X125730Y33982D01*
X109982Y31242D02*
X122990D01*
X107063Y28323D02*
X109982Y31242D01*
X129032Y46736D02*
X132080Y49784D01*
X129032Y28448D02*
Y46736D01*
Y28448D02*
X134874Y22606D01*
Y14224D02*
Y22606D01*
X124968Y4318D02*
X134874Y14224D01*
X108932Y4318D02*
X124968D01*
X75184Y12192D02*
X81405Y18413D01*
X90980Y38100D02*
X114046D01*
X85138Y32258D02*
X90980Y38100D01*
X114046D02*
X119126Y43180D01*
X100584Y50800D02*
X103124Y48260D01*
X105542Y53386D02*
Y59782D01*
Y53386D02*
X108458Y50469D01*
X95542Y52210D02*
Y59782D01*
Y52210D02*
X97282Y50469D01*
X108458Y44450D02*
Y50469D01*
X97282Y43688D02*
Y50469D01*
X100600Y12650D02*
X108932Y4318D01*
X62500Y25350D02*
X69408Y32258D01*
X85138D01*
X87900Y25350D02*
Y26698D01*
X96000Y34798D01*
X113792Y49530D02*
Y51562D01*
X110542Y54812D02*
X113792Y51562D01*
X110542Y54812D02*
Y59782D01*
X138938Y136398D02*
Y141304D01*
X137160Y143082D02*
X138938Y141304D01*
X96000Y34798D02*
X116840D01*
X97282Y43688D02*
X97536Y43434D01*
X86360D02*
X86614Y43688D01*
X115542Y55324D02*
X119126Y51739D01*
Y43180D02*
Y51739D01*
X120542Y54993D02*
Y59782D01*
Y54993D02*
X122428Y53107D01*
Y40386D02*
Y53107D01*
X125730Y33982D02*
Y59594D01*
X108458Y44450D02*
X109220Y43688D01*
X132042Y76282D02*
X141032D01*
X116840Y34798D02*
X122428Y40386D01*
X100584Y50800D02*
Y59740D01*
X125542Y59782D02*
X125730Y59594D01*
X115542Y55324D02*
Y59782D01*
X100584Y59740D02*
X100742Y59582D01*
X100542Y59782D02*
X100584Y59740D01*
X86614Y43688D02*
Y53771D01*
X85542Y54844D02*
X86614Y53771D01*
X85542Y54844D02*
Y59782D01*
X193040Y97282D02*
X194564Y95758D01*
X327914Y107442D02*
X331793D01*
X334735Y104500D01*
X340250D01*
X335000Y99500D02*
X340250D01*
Y83940D02*
Y84500D01*
X340474Y72250D02*
X347500D01*
Y69500D02*
Y72250D01*
X340250Y94500D02*
Y94608D01*
Y79114D02*
Y79500D01*
X59916Y106282D02*
X64042D01*
X57308Y108890D02*
X59916Y106282D01*
X34114Y112192D02*
X35210Y111096D01*
Y103810D02*
Y111096D01*
Y103810D02*
X39782Y99238D01*
X49180Y108890D02*
X57308D01*
X48926Y109144D02*
X49180Y108890D01*
X63894Y111430D02*
X64042Y111282D01*
X100542Y127782D02*
Y135360D01*
X102012Y136830D01*
X85542Y127782D02*
Y135346D01*
X87026Y136830D01*
X80542Y127782D02*
Y135948D01*
X79660Y136830D02*
X80542Y135948D01*
X94392Y136830D02*
X95542Y135680D01*
Y127782D02*
Y135680D01*
X87026Y136830D02*
Y138688D01*
X95408Y59648D02*
X95542Y59782D01*
X311500Y79500D02*
X340250D01*
X308000Y84000D02*
X308060Y83940D01*
X333500Y101000D02*
X335000Y99500D01*
X316000Y101000D02*
X333500D01*
X311000Y106000D02*
X316000Y101000D01*
X306000Y84000D02*
X308000D01*
X321000Y95000D02*
X321392Y94608D01*
X340250D01*
X59914Y111282D02*
X64042D01*
X56896Y114300D02*
X59914Y111282D01*
X54864Y114300D02*
X56896D01*
X46228Y111842D02*
X48926Y109144D01*
X46228Y111842D02*
Y115904D01*
X345948Y63246D02*
X347980D01*
X352500Y67766D01*
Y72250D01*
X338836Y70612D02*
X340474Y72250D01*
X338836Y65786D02*
Y70612D01*
X357500Y64638D02*
Y72250D01*
X352298Y59436D02*
X357500Y64638D01*
X382526Y79500D02*
X386080Y75946D01*
Y74422D02*
Y75946D01*
X379750Y79500D02*
X382526D01*
X382618D01*
X308454Y76454D02*
X311500Y79500D01*
X308102Y76454D02*
X308454D01*
X197612Y103378D02*
Y106172D01*
X308060Y83940D02*
X340250D01*
X176882Y115570D02*
X187706Y104746D01*
X181356Y122428D02*
X197612Y106172D01*
X169338Y123016D02*
Y127762D01*
Y123016D02*
X169926Y122428D01*
X181356D01*
X179324Y119126D02*
X193040Y105410D01*
X175768Y112014D02*
X182372Y105410D01*
X173736Y108458D02*
X176784Y105410D01*
X193040Y97282D02*
Y105410D01*
X187706Y102616D02*
Y104746D01*
X182372Y96012D02*
Y105410D01*
X176784Y102616D02*
Y105410D01*
X132042Y96282D02*
X151400D01*
X163576Y108458D01*
X173736D01*
X132042Y101282D02*
X150812D01*
X161544Y112014D01*
X175768D01*
X132042Y106282D02*
X150224D01*
X159512Y115570D01*
X176882D01*
X132042Y111282D02*
X149636D01*
X157480Y119126D01*
X179324D01*
X132042Y116282D02*
X149810D01*
X155956Y122428D01*
X169926D01*
X132042Y121282D02*
X139316D01*
X139700Y121666D01*
X55280Y71282D02*
X64042D01*
X55118Y71120D02*
X55280Y71282D01*
X58084Y76282D02*
X64042D01*
X55118Y79248D02*
X58084Y76282D01*
X271018Y144780D02*
Y153430D01*
X260110Y164338D02*
X271018Y153430D01*
X90542Y49666D02*
Y59782D01*
Y49666D02*
X91948Y48260D01*
D32*
X240000Y42750D02*
X240000D01*
X225250D02*
X240000D01*
Y32000D02*
Y42750D01*
X240000D02*
Y54672D01*
X224000Y41500D02*
X225250Y42750D01*
X445506Y80130D02*
Y101244D01*
X442000Y104750D02*
X445506Y101244D01*
D33*
X331442Y89274D02*
X331668Y89500D01*
X340250D01*
X348500D01*
X351000Y92000D01*
X57250Y101282D02*
Y103302D01*
X54000Y102250D02*
X54418Y102126D01*
X57250Y101282D01*
X54768Y103302D02*
X57250D01*
X75542Y52282D02*
Y59782D01*
X132042Y71282D02*
X138080D01*
X90542Y101282D02*
X98042Y93782D01*
X64042Y101282D02*
X90542D01*
X75542Y71282D02*
X98042Y93782D01*
X75542Y59782D02*
Y71282D01*
X98042Y93782D02*
X120542Y71282D01*
X132042D01*
X98042Y93782D02*
X120542Y116282D01*
Y127782D01*
X57250Y101282D02*
X64042D01*
X55368Y96282D02*
X64042D01*
X55022Y95936D02*
X55368Y96282D01*
X120542Y127782D02*
Y138172D01*
X124610Y142240D01*
D34*
X241554Y67310D02*
X252222D01*
X138164Y66282D02*
X139446Y65000D01*
X132042Y66282D02*
X138164D01*
X172766Y21456D02*
X179204D01*
X172766Y36456D02*
X179712D01*
X146766Y31456D02*
X151932D01*
X146766Y47880D02*
X146892Y48006D01*
X146766Y36456D02*
Y47880D01*
X404835Y87884D02*
Y88886D01*
Y87884D02*
X406000D01*
Y88000D02*
X411000Y80000D01*
X392922Y88886D02*
X404835D01*
X145034Y127762D02*
X159338D01*
X143764Y129032D02*
X145034Y127762D01*
X138938Y129032D02*
X143764D01*
X126792D02*
X132588D01*
X125542Y127782D02*
X126792Y129032D01*
X132588Y128056D02*
X132862Y127782D01*
X132588Y128056D02*
Y128778D01*
X133096Y128016D02*
X133350Y127762D01*
X392308Y89500D02*
X392922Y88886D01*
X379750Y89500D02*
X392308D01*
X379750Y94500D02*
X397000D01*
X138080Y71282D02*
X143652D01*
X321000Y107000D02*
Y113000D01*
X322000Y114000D01*
X115542Y127782D02*
Y138308D01*
X111610Y142240D02*
X115542Y138308D01*
X145034Y127762D02*
X146050Y126746D01*
X-142706Y148281D02*
Y133046D01*
X-150323D01*
X-152863Y135585D01*
Y138125D01*
X-150323Y140664D01*
X-142706D01*
X-150323D01*
X-152863Y143203D01*
Y145742D01*
X-150323Y148281D01*
X-142706D01*
X-160480Y133046D02*
X-165558D01*
X-168098Y135585D01*
Y140664D01*
X-165558Y143203D01*
X-160480D01*
X-157941Y140664D01*
Y135585D01*
X-160480Y133046D01*
X-175715Y145742D02*
Y143203D01*
X-173176D01*
X-178254D01*
X-175715D01*
Y135585D01*
X-178254Y133046D01*
X-188411Y145742D02*
Y143203D01*
X-185872D01*
X-190950D01*
X-188411D01*
Y135585D01*
X-190950Y133046D01*
X-201107D02*
X-206185D01*
X-208724Y135585D01*
Y140664D01*
X-206185Y143203D01*
X-201107D01*
X-198568Y140664D01*
Y135585D01*
X-201107Y133046D01*
X-213803D02*
Y143203D01*
X-216342D01*
X-218881Y140664D01*
Y133046D01*
Y140664D01*
X-221420Y143203D01*
X-223960Y140664D01*
Y133046D01*
X-254430Y145742D02*
X-251891Y148281D01*
X-246812D01*
X-244273Y145742D01*
Y143203D01*
X-246812Y140664D01*
X-251891D01*
X-254430Y138125D01*
Y135585D01*
X-251891Y133046D01*
X-246812D01*
X-244273Y135585D01*
X-259508Y133046D02*
X-264586D01*
X-262047D01*
Y143203D01*
X-259508D01*
X-282361Y148281D02*
Y133046D01*
X-274743D01*
X-272204Y135585D01*
Y140664D01*
X-274743Y143203D01*
X-282361D01*
X-295057Y133046D02*
X-289978D01*
X-287439Y135585D01*
Y140664D01*
X-289978Y143203D01*
X-295057D01*
X-297596Y140664D01*
Y138125D01*
X-287439D01*
X-300330Y313416D02*
Y328651D01*
X-295252Y323573D01*
X-290173Y328651D01*
Y313416D01*
X-285095Y323573D02*
Y315955D01*
X-282556Y313416D01*
X-274938D01*
Y323573D01*
X-269860Y313416D02*
X-264781D01*
X-267321D01*
Y328651D01*
X-269860D01*
X-254625Y326112D02*
Y323573D01*
X-257164D01*
X-252085D01*
X-254625D01*
Y315955D01*
X-252085Y313416D01*
X-244468D02*
X-239390D01*
X-241929D01*
Y323573D01*
X-244468D01*
X-231772Y321034D02*
X-221615D01*
X-216537Y328651D02*
Y313416D01*
X-206380D01*
X-198763Y323573D02*
X-193684D01*
X-191145Y321034D01*
Y313416D01*
X-198763D01*
X-201302Y315955D01*
X-198763Y318494D01*
X-191145D01*
X-186067Y323573D02*
Y315955D01*
X-183528Y313416D01*
X-175910D01*
Y310877D01*
X-178449Y308338D01*
X-180989D01*
X-175910Y313416D02*
Y323573D01*
X-163214Y313416D02*
X-168293D01*
X-170832Y315955D01*
Y321034D01*
X-168293Y323573D01*
X-163214D01*
X-160675Y321034D01*
Y318494D01*
X-170832D01*
X-155597Y323573D02*
Y313416D01*
Y318494D01*
X-153058Y321034D01*
X-150518Y323573D01*
X-147979D01*
D35*
X132588Y129032D02*
X138938D01*
D36*
X139446Y65000D02*
X161394D01*
X164338Y62056D01*
X437106Y66106D02*
Y80130D01*
D37*
X141478Y48006D02*
X146892D01*
X139446Y50038D02*
X141478Y48006D01*
X139446Y50038D02*
Y65000D01*
X113300Y12650D02*
X114350D01*
X70542Y45844D02*
Y59782D01*
X114350Y12650D02*
X117348Y9652D01*
X56546Y45564D02*
Y51994D01*
Y62916D01*
X59912Y66282D02*
X64042D01*
X56546Y62916D02*
X59912Y66282D01*
X68818Y44120D02*
X70542Y45844D01*
X56546Y45564D02*
X57990Y44120D01*
D40*
X189000Y14500D02*
D03*
X317000D02*
D03*
D41*
X218000Y88000D02*
D03*
X288000D02*
D03*
X243000D02*
D03*
X263000D02*
D03*
D42*
X360000Y92000D02*
D03*
Y83000D02*
D03*
X351000Y92000D02*
D03*
X360000Y101000D02*
D03*
X369000Y92000D02*
D03*
Y83000D02*
D03*
X351000D02*
D03*
Y101000D02*
D03*
X369000D02*
D03*
X302006Y150368D02*
D03*
X192532Y145344D02*
D03*
X277114Y164846D02*
D03*
X287274D02*
D03*
X281940Y160274D02*
D03*
Y169418D02*
D03*
X259080Y54102D02*
D03*
X135128Y31750D02*
D03*
X410000Y25000D02*
D03*
X278130Y7112D02*
D03*
X252984D02*
D03*
X227584D02*
D03*
X204724Y59944D02*
D03*
X189484D02*
D03*
X175006Y62738D02*
D03*
X171958Y76708D02*
D03*
X236982Y98806D02*
D03*
X218948Y59944D02*
D03*
X192278Y132080D02*
D03*
X186182Y129032D02*
D03*
X135128Y40894D02*
D03*
X68834Y6604D02*
D03*
X103124Y48260D02*
D03*
X93980Y6858D02*
D03*
X33020Y19304D02*
D03*
X444000Y29000D02*
D03*
X361188Y171196D02*
D03*
X305000Y130000D02*
D03*
X270000Y120000D02*
D03*
X285000Y130000D02*
D03*
X270000D02*
D03*
X255000Y145000D02*
D03*
X240000D02*
D03*
X225000D02*
D03*
X245110Y167386D02*
D03*
X52832Y129794D02*
D03*
X23622Y60706D02*
D03*
X169926Y7112D02*
D03*
X416560Y39624D02*
D03*
X451104Y48514D02*
D03*
X460000Y55000D02*
D03*
Y65000D02*
D03*
X465000Y85000D02*
D03*
Y100000D02*
D03*
Y115000D02*
D03*
X455000Y125000D02*
D03*
Y135000D02*
D03*
X465000Y150000D02*
D03*
X480000Y140000D02*
D03*
Y120000D02*
D03*
Y105000D02*
D03*
Y90000D02*
D03*
Y75000D02*
D03*
X481330Y47244D02*
D03*
X379984Y20828D02*
D03*
X364984D02*
D03*
X349984D02*
D03*
X200000Y7112D02*
D03*
X35000Y30000D02*
D03*
X30000Y10000D02*
D03*
X10000Y35000D02*
D03*
Y50000D02*
D03*
Y65000D02*
D03*
Y80000D02*
D03*
Y95000D02*
D03*
Y110000D02*
D03*
Y125000D02*
D03*
X35000D02*
D03*
X132588Y129032D02*
D03*
X138938D02*
D03*
X118618Y152146D02*
D03*
X101092Y29464D02*
D03*
X97536Y43434D02*
D03*
X86360D02*
D03*
X113792Y49530D02*
D03*
X109220Y43688D02*
D03*
X132080Y49784D02*
D03*
X117348Y9652D02*
D03*
X55118Y79248D02*
D03*
Y71120D02*
D03*
X139446Y76962D02*
D03*
X166370Y102616D02*
D03*
X331442Y89274D02*
D03*
X283082Y120000D02*
D03*
X386080Y74422D02*
D03*
X446000Y67000D02*
D03*
X440000D02*
D03*
X434000D02*
D03*
X416000D02*
D03*
X410000D02*
D03*
X404000D02*
D03*
X398000D02*
D03*
X428000D02*
D03*
X452000D02*
D03*
X422000D02*
D03*
X182372Y96012D02*
D03*
X194564Y95758D02*
D03*
X98000Y108000D02*
D03*
X112250D02*
D03*
X98000Y93750D02*
D03*
X83750D02*
D03*
Y107750D02*
D03*
X112250Y93750D02*
D03*
X276541Y120000D02*
D03*
X327914Y107442D02*
D03*
X139446Y65000D02*
D03*
X296164Y120000D02*
D03*
X434500Y144500D02*
D03*
X428000D02*
D03*
X441000D02*
D03*
X447250D02*
D03*
X289623Y120000D02*
D03*
X68992Y51740D02*
D03*
X55022Y95936D02*
D03*
X54768Y103302D02*
D03*
X54864Y114300D02*
D03*
X48926Y109144D02*
D03*
X102012Y136830D02*
D03*
X94392D02*
D03*
X87026D02*
D03*
X79660D02*
D03*
X49180Y52502D02*
D03*
Y62408D02*
D03*
X56546Y51994D02*
D03*
X406000Y88000D02*
D03*
X308000Y84000D02*
D03*
X322000Y114000D02*
D03*
X415290Y130048D02*
D03*
X409194Y130302D02*
D03*
Y124206D02*
D03*
X415290D02*
D03*
X175260Y172212D02*
D03*
X164846D02*
D03*
X154940D02*
D03*
X139192Y121666D02*
D03*
X131572Y136398D02*
D03*
X138938D02*
D03*
X70358Y171196D02*
D03*
X70612Y163830D02*
D03*
Y156718D02*
D03*
X77216Y167386D02*
D03*
Y160020D02*
D03*
X199898Y164338D02*
D03*
X191770D02*
D03*
X199898Y172212D02*
D03*
X191770D02*
D03*
X183896D02*
D03*
X207772D02*
D03*
Y164338D02*
D03*
X122174Y172212D02*
D03*
X138430D02*
D03*
X146812D02*
D03*
X130302D02*
D03*
X138430Y164338D02*
D03*
X441198Y18796D02*
D03*
X360172Y59436D02*
D03*
X345948Y63246D02*
D03*
X352298Y59436D02*
D03*
X338836Y65786D02*
D03*
X366522Y63500D02*
D03*
X250698Y54102D02*
D03*
X305308Y112014D02*
D03*
X205740Y72390D02*
D03*
X188214Y91186D02*
D03*
X198374Y89408D02*
D03*
X308102Y76454D02*
D03*
X465582Y47244D02*
D03*
X410972Y93472D02*
D03*
X415036Y88900D02*
D03*
X350774Y136906D02*
D03*
X198374Y102616D02*
D03*
X187706D02*
D03*
X176784D02*
D03*
X176022Y91186D02*
D03*
X166370Y90932D02*
D03*
X170942Y96774D02*
D03*
X271018Y144780D02*
D03*
X161036Y9652D02*
D03*
X82042Y6858D02*
D03*
X91948Y48260D02*
D03*
X476758Y38608D02*
D03*
D49*
X145952Y163462D02*
D03*
Y156962D02*
D03*
Y150462D02*
D03*
X183952D02*
D03*
Y156962D02*
D03*
Y163462D02*
D03*
D50*
X164952Y161762D02*
D03*
D51*
Y148912D02*
D03*
D52*
X360000Y92000D02*
D03*
D53*
X379750Y79500D02*
D03*
Y84500D02*
D03*
Y89500D02*
D03*
Y94500D02*
D03*
Y99500D02*
D03*
Y104500D02*
D03*
X340250D02*
D03*
Y99500D02*
D03*
Y94500D02*
D03*
Y89500D02*
D03*
Y84500D02*
D03*
Y79500D02*
D03*
D54*
X372500Y111750D02*
D03*
X367500D02*
D03*
X362500D02*
D03*
X357500D02*
D03*
X352500D02*
D03*
X347500D02*
D03*
Y72250D02*
D03*
X352500D02*
D03*
X357500D02*
D03*
X362500D02*
D03*
X367500D02*
D03*
X372500D02*
D03*
D55*
X64042Y66282D02*
D03*
Y71282D02*
D03*
Y76282D02*
D03*
Y81282D02*
D03*
Y86282D02*
D03*
Y91282D02*
D03*
Y96282D02*
D03*
Y101282D02*
D03*
Y106282D02*
D03*
Y111282D02*
D03*
Y116282D02*
D03*
Y121282D02*
D03*
X132042D02*
D03*
Y116282D02*
D03*
Y111282D02*
D03*
Y106282D02*
D03*
Y101282D02*
D03*
Y96282D02*
D03*
Y91282D02*
D03*
Y86282D02*
D03*
Y81282D02*
D03*
Y76282D02*
D03*
Y71282D02*
D03*
Y66282D02*
D03*
D56*
X70542Y127782D02*
D03*
X75542D02*
D03*
X80542D02*
D03*
X85542D02*
D03*
X90542D02*
D03*
X95542D02*
D03*
X100542D02*
D03*
X105542D02*
D03*
X110542D02*
D03*
X115542D02*
D03*
X120542D02*
D03*
X125542D02*
D03*
Y59782D02*
D03*
X120542D02*
D03*
X115542D02*
D03*
X110542D02*
D03*
X105542D02*
D03*
X100542D02*
D03*
X95542D02*
D03*
X90542D02*
D03*
X85542D02*
D03*
X80542D02*
D03*
X75542D02*
D03*
X70542D02*
D03*
D57*
X98042Y93782D02*
D03*
D58*
X113284Y12192D02*
D03*
X100584D02*
D03*
X87884D02*
D03*
X75184D02*
D03*
X62484D02*
D03*
X113284Y24892D02*
D03*
X100584D02*
D03*
X87884D02*
D03*
X75184D02*
D03*
X62484D02*
D03*
D59*
X437388Y159330D02*
D03*
Y104830D02*
D03*
D60*
X230110Y164338D02*
D03*
X260110D02*
D03*
D61*
X42574Y73936D02*
D03*
X26574D02*
D03*
Y95936D02*
D03*
D62*
X42574D02*
D03*
D63*
X445506Y80130D02*
D03*
D64*
X437106D02*
D03*
D65*
X323000Y160000D02*
D03*
X35000D02*
D03*
D66*
X146766Y21456D02*
D03*
Y26456D02*
D03*
Y31456D02*
D03*
Y36456D02*
D03*
X172766Y21456D02*
D03*
Y26456D02*
D03*
Y31456D02*
D03*
Y36456D02*
D03*
D67*
X222000Y41500D02*
D03*
X284000D02*
D03*
D68*
X214500Y16000D02*
D03*
X241000D02*
D03*
X265000D02*
D03*
X291500D02*
D03*
D69*
X246500Y42750D02*
D03*
X253000D02*
D03*
X259500D02*
D03*
X240000D02*
D03*
X266000D02*
D03*
D70*
X166502Y150462D02*
X183952D01*
X163402D02*
X164952Y148912D01*
X183952Y156962D02*
X185178Y155736D01*
X125984Y154512D02*
X135730D01*
X137160Y153082D01*
X183952Y156962D02*
X190590D01*
X193374Y154178D01*
X150114Y150462D02*
Y159766D01*
X146418Y163462D02*
X150114Y159766D01*
X145952Y163462D02*
X146418D01*
X146304Y150462D02*
X150114D01*
X163402D01*
X137160Y153082D02*
X139780Y155702D01*
X145796D01*
D71*
X369414Y111750D02*
D03*
D72*
X164973Y167005D02*
D03*
M02*
