G04 Layer_Color=128*
%FSLAX44Y44*%
%MOMM*%
G71*
G01*
G75*
%ADD17R,0.5000X0.6000*%
%ADD18R,0.8500X1.4000*%
%ADD22R,0.6000X0.5000*%
%ADD23R,0.2500X0.4000*%
%ADD25R,0.9000X0.8000*%
%ADD26R,0.8000X0.9000*%
%ADD27R,1.4000X0.8500*%
%ADD34C,0.2540*%
%ADD49R,0.4000X0.4000*%
%ADD50R,2.5000X1.5000*%
%ADD51R,2.5000X0.5500*%
%ADD53R,0.8500X0.2800*%
%ADD54R,0.2800X0.8500*%
%ADD55R,0.6000X0.3048*%
%ADD56R,0.3048X0.6000*%
%ADD59R,3.5000X2.9500*%
G04:AMPARAMS|DCode=60|XSize=2mm|YSize=2mm|CornerRadius=0.5mm|HoleSize=0mm|Usage=FLASHONLY|Rotation=0.000|XOffset=0mm|YOffset=0mm|HoleType=Round|Shape=RoundedRectangle|*
%AMROUNDEDRECTD60*
21,1,2.0000,1.0000,0,0,0.0*
21,1,1.0000,2.0000,0,0,0.0*
1,1,1.0000,0.5000,-0.5000*
1,1,1.0000,-0.5000,-0.5000*
1,1,1.0000,-0.5000,0.5000*
1,1,1.0000,0.5000,0.5000*
%
%ADD60ROUNDEDRECTD60*%
%ADD61R,1.2000X1.4000*%
G04:AMPARAMS|DCode=62|XSize=1.4mm|YSize=1.2mm|CornerRadius=0.3mm|HoleSize=0mm|Usage=FLASHONLY|Rotation=270.000|XOffset=0mm|YOffset=0mm|HoleType=Round|Shape=RoundedRectangle|*
%AMROUNDEDRECTD62*
21,1,1.4000,0.6000,0,0,270.0*
21,1,0.8000,1.2000,0,0,270.0*
1,1,0.6000,-0.3000,-0.4000*
1,1,0.6000,-0.3000,0.4000*
1,1,0.6000,0.3000,0.4000*
1,1,0.6000,0.3000,-0.4000*
%
%ADD62ROUNDEDRECTD62*%
%ADD63R,0.8800X0.6000*%
%ADD64R,0.4700X0.6000*%
G04:AMPARAMS|DCode=66|XSize=0.6mm|YSize=0.3mm|CornerRadius=0.075mm|HoleSize=0mm|Usage=FLASHONLY|Rotation=180.000|XOffset=0mm|YOffset=0mm|HoleType=Round|Shape=RoundedRectangle|*
%AMROUNDEDRECTD66*
21,1,0.6000,0.1500,0,0,180.0*
21,1,0.4500,0.3000,0,0,180.0*
1,1,0.1500,-0.2250,0.0750*
1,1,0.1500,0.2250,0.0750*
1,1,0.1500,0.2250,-0.0750*
1,1,0.1500,-0.2250,-0.0750*
%
%ADD66ROUNDEDRECTD66*%
%ADD67R,2.1000X1.6000*%
%ADD68R,1.9000X1.9000*%
%ADD69R,0.4000X1.3500*%
G36*
X97042Y80558D02*
X84818D01*
Y92782D01*
X97042D01*
Y80558D01*
D02*
G37*
G36*
X82818D02*
X70594D01*
Y92782D01*
X82818D01*
Y80558D01*
D02*
G37*
G36*
X111266D02*
X99042D01*
Y92782D01*
X111266D01*
Y80558D01*
D02*
G37*
G36*
X358700Y81075D02*
X349076D01*
Y90700D01*
X358700D01*
Y81075D01*
D02*
G37*
G36*
X125490Y80558D02*
X113266D01*
Y92782D01*
X125490D01*
Y80558D01*
D02*
G37*
G36*
X82818Y66334D02*
X70594D01*
Y78558D01*
X82818D01*
Y66334D01*
D02*
G37*
G36*
X256540Y65728D02*
X247904D01*
Y68890D01*
X256540D01*
Y65728D01*
D02*
G37*
G36*
X97042Y66334D02*
X84818D01*
Y78558D01*
X97042D01*
Y66334D01*
D02*
G37*
G36*
X125490D02*
X113266D01*
Y78558D01*
X125490D01*
Y66334D01*
D02*
G37*
G36*
X111266D02*
X99042D01*
Y78558D01*
X111266D01*
Y66334D01*
D02*
G37*
G36*
X370909Y81093D02*
X361293D01*
Y90691D01*
X370909D01*
Y81093D01*
D02*
G37*
G36*
X82818Y109006D02*
X70594D01*
Y121230D01*
X82818D01*
Y109006D01*
D02*
G37*
G36*
X125490Y94782D02*
X113266D01*
Y107006D01*
X125490D01*
Y94782D01*
D02*
G37*
G36*
X97042Y109006D02*
X84818D01*
Y121230D01*
X97042D01*
Y109006D01*
D02*
G37*
G36*
X125490D02*
X113266D01*
Y121230D01*
X125490D01*
Y109006D01*
D02*
G37*
G36*
X111266D02*
X99042D01*
Y121230D01*
X111266D01*
Y109006D01*
D02*
G37*
G36*
X370900Y93302D02*
X361302D01*
Y102900D01*
X370900D01*
Y93302D01*
D02*
G37*
G36*
X358680Y93284D02*
X349084D01*
Y102920D01*
X358680D01*
Y93284D01*
D02*
G37*
G36*
X82818Y94782D02*
X70594D01*
Y107006D01*
X82818D01*
Y94782D01*
D02*
G37*
G36*
X111266D02*
X99042D01*
Y107006D01*
X111266D01*
Y94782D01*
D02*
G37*
G36*
X97042D02*
X84818D01*
Y107006D01*
X97042D01*
Y94782D01*
D02*
G37*
D17*
X169338Y127762D02*
D03*
X159338D02*
D03*
X321000Y95000D02*
D03*
X311000D02*
D03*
X299894Y106934D02*
D03*
X289894D02*
D03*
X311000Y107000D02*
D03*
X321000D02*
D03*
X193374Y154178D02*
D03*
X203374D02*
D03*
X156892Y48006D02*
D03*
X146892D02*
D03*
X47990Y44120D02*
D03*
X57990D02*
D03*
X35130Y112192D02*
D03*
X25130D02*
D03*
X34020Y57582D02*
D03*
X44020D02*
D03*
X78818Y44120D02*
D03*
X68818D02*
D03*
D18*
X313250Y123000D02*
D03*
X330750D02*
D03*
D22*
X137160Y143082D02*
D03*
Y153082D02*
D03*
X125984Y164512D02*
D03*
Y154512D02*
D03*
X148082Y135302D02*
D03*
Y125302D02*
D03*
X164338Y72056D02*
D03*
Y62056D02*
D03*
X46228Y125904D02*
D03*
Y115904D02*
D03*
X396974Y93926D02*
D03*
Y103926D02*
D03*
D23*
X257222Y74560D02*
D03*
X252222D02*
D03*
X247222D02*
D03*
Y60060D02*
D03*
X252222D02*
D03*
X257222D02*
D03*
D25*
X150622Y62080D02*
D03*
Y75080D02*
D03*
D26*
X377040Y39116D02*
D03*
X390040D02*
D03*
X111610Y142240D02*
D03*
X124610D02*
D03*
X411000Y80000D02*
D03*
X424000D02*
D03*
D27*
X373634Y125870D02*
D03*
Y143370D02*
D03*
X446524Y40250D02*
D03*
Y57750D02*
D03*
X426586Y40206D02*
D03*
Y57706D02*
D03*
X406520Y40206D02*
D03*
Y57706D02*
D03*
X392176Y125870D02*
D03*
Y143370D02*
D03*
D34*
X-130956Y70781D02*
Y55546D01*
X-138573D01*
X-141113Y58085D01*
Y60624D01*
X-138573Y63164D01*
X-130956D01*
X-138573D01*
X-141113Y65703D01*
Y68242D01*
X-138573Y70781D01*
X-130956D01*
X-148730Y55546D02*
X-153808D01*
X-156348Y58085D01*
Y63164D01*
X-153808Y65703D01*
X-148730D01*
X-146191Y63164D01*
Y58085D01*
X-148730Y55546D01*
X-163965Y68242D02*
Y65703D01*
X-161426D01*
X-166504D01*
X-163965D01*
Y58085D01*
X-166504Y55546D01*
X-176661Y68242D02*
Y65703D01*
X-174122D01*
X-179200D01*
X-176661D01*
Y58085D01*
X-179200Y55546D01*
X-189357D02*
X-194435D01*
X-196975Y58085D01*
Y63164D01*
X-194435Y65703D01*
X-189357D01*
X-186818Y63164D01*
Y58085D01*
X-189357Y55546D01*
X-202053D02*
Y65703D01*
X-204592D01*
X-207131Y63164D01*
Y55546D01*
Y63164D01*
X-209670Y65703D01*
X-212210Y63164D01*
Y55546D01*
X-232523D02*
Y70781D01*
X-240141D01*
X-242680Y68242D01*
Y63164D01*
X-240141Y60624D01*
X-232523D01*
X-250297Y65703D02*
X-255376D01*
X-257915Y63164D01*
Y55546D01*
X-250297D01*
X-247758Y58085D01*
X-250297Y60624D01*
X-257915D01*
X-262993Y55546D02*
X-270611D01*
X-273150Y58085D01*
X-270611Y60624D01*
X-265532D01*
X-262993Y63164D01*
X-265532Y65703D01*
X-273150D01*
X-280767Y68242D02*
Y65703D01*
X-278228D01*
X-283307D01*
X-280767D01*
Y58085D01*
X-283307Y55546D01*
X-298542D02*
X-293463D01*
X-290924Y58085D01*
Y63164D01*
X-293463Y65703D01*
X-298542D01*
X-301081Y63164D01*
Y60624D01*
X-290924D01*
D49*
X145952Y163462D02*
D03*
Y156962D02*
D03*
Y150462D02*
D03*
X183952D02*
D03*
Y156962D02*
D03*
Y163462D02*
D03*
D50*
X164952Y161762D02*
D03*
D51*
Y148912D02*
D03*
D53*
X379750Y79500D02*
D03*
Y84500D02*
D03*
Y89500D02*
D03*
Y94500D02*
D03*
Y99500D02*
D03*
Y104500D02*
D03*
X340250D02*
D03*
Y99500D02*
D03*
Y94500D02*
D03*
Y89500D02*
D03*
Y84500D02*
D03*
Y79500D02*
D03*
D54*
X372500Y111750D02*
D03*
X367500D02*
D03*
X362500D02*
D03*
X357500D02*
D03*
X352500D02*
D03*
X347500D02*
D03*
Y72250D02*
D03*
X352500D02*
D03*
X357500D02*
D03*
X362500D02*
D03*
X367500D02*
D03*
X372500D02*
D03*
D55*
X64042Y66282D02*
D03*
Y71282D02*
D03*
Y76282D02*
D03*
Y81282D02*
D03*
Y86282D02*
D03*
Y91282D02*
D03*
Y96282D02*
D03*
Y101282D02*
D03*
Y106282D02*
D03*
Y111282D02*
D03*
Y116282D02*
D03*
Y121282D02*
D03*
X132042D02*
D03*
Y116282D02*
D03*
Y111282D02*
D03*
Y106282D02*
D03*
Y101282D02*
D03*
Y96282D02*
D03*
Y91282D02*
D03*
Y86282D02*
D03*
Y81282D02*
D03*
Y76282D02*
D03*
Y71282D02*
D03*
Y66282D02*
D03*
D56*
X70542Y127782D02*
D03*
X75542D02*
D03*
X80542D02*
D03*
X85542D02*
D03*
X90542D02*
D03*
X95542D02*
D03*
X100542D02*
D03*
X105542D02*
D03*
X110542D02*
D03*
X115542D02*
D03*
X120542D02*
D03*
X125542D02*
D03*
Y59782D02*
D03*
X120542D02*
D03*
X115542D02*
D03*
X110542D02*
D03*
X105542D02*
D03*
X100542D02*
D03*
X95542D02*
D03*
X90542D02*
D03*
X85542D02*
D03*
X80542D02*
D03*
X75542D02*
D03*
X70542D02*
D03*
D59*
X437388Y159330D02*
D03*
Y104830D02*
D03*
D60*
X230110Y164338D02*
D03*
X260110D02*
D03*
D61*
X42574Y73936D02*
D03*
X26574D02*
D03*
Y95936D02*
D03*
D62*
X42574D02*
D03*
D63*
X445506Y80130D02*
D03*
D64*
X437106D02*
D03*
D66*
X146766Y21456D02*
D03*
Y26456D02*
D03*
Y31456D02*
D03*
Y36456D02*
D03*
X172766Y21456D02*
D03*
Y26456D02*
D03*
Y31456D02*
D03*
Y36456D02*
D03*
D67*
X222000Y41500D02*
D03*
X284000D02*
D03*
D68*
X214500Y16000D02*
D03*
X241000D02*
D03*
X265000D02*
D03*
X291500D02*
D03*
D69*
X246500Y42750D02*
D03*
X253000D02*
D03*
X259500D02*
D03*
X240000D02*
D03*
X266000D02*
D03*
M02*
