G04 Layer_Color=8421504*
%FSLAX44Y44*%
%MOMM*%
G71*
G01*
G75*
%ADD11R,0.3000X0.5000*%
%ADD12R,0.5000X0.3000*%
%ADD14R,0.2700X0.8600*%
%ADD15R,0.8600X0.2700*%
%ADD17R,0.5000X0.6000*%
%ADD18R,0.8500X1.4000*%
%ADD19R,1.0500X2.4000*%
%ADD20R,1.4000X1.0500*%
%ADD21R,1.8000X0.9000*%
%ADD22R,0.6000X0.5000*%
%ADD23R,0.2500X0.4000*%
%ADD25R,0.9000X0.8000*%
%ADD26R,0.8000X0.9000*%
%ADD27R,1.4000X0.8500*%
%ADD34C,0.2540*%
%ADD78R,0.8000X0.8000*%
G36*
X259588Y110686D02*
X250952D01*
Y113848D01*
X259588D01*
Y110686D01*
D02*
G37*
D11*
X178770Y139000D02*
D03*
X183770D02*
D03*
X188770D02*
D03*
X193770D02*
D03*
Y113000D02*
D03*
X188770D02*
D03*
X183770D02*
D03*
X178770D02*
D03*
D12*
X199270Y133500D02*
D03*
Y128500D02*
D03*
Y123500D02*
D03*
Y118500D02*
D03*
X173270D02*
D03*
Y123500D02*
D03*
Y128500D02*
D03*
Y133500D02*
D03*
X468500Y30000D02*
D03*
Y35000D02*
D03*
Y40000D02*
D03*
X451500Y30000D02*
D03*
Y35000D02*
D03*
Y40000D02*
D03*
D14*
X419750Y115400D02*
D03*
X414750D02*
D03*
X409750D02*
D03*
X404750D02*
D03*
Y139100D02*
D03*
X409750D02*
D03*
X414750D02*
D03*
X419750D02*
D03*
D15*
X424100Y129750D02*
D03*
Y124750D02*
D03*
X400400D02*
D03*
Y129750D02*
D03*
D17*
X15000Y17500D02*
D03*
X25000D02*
D03*
X119554Y60198D02*
D03*
X109554D02*
D03*
X150000Y17500D02*
D03*
X160000D02*
D03*
X105000D02*
D03*
X115000D02*
D03*
X60000D02*
D03*
X70000D02*
D03*
X178736Y152908D02*
D03*
X168736D02*
D03*
X462200Y19304D02*
D03*
X452200D02*
D03*
X76788Y60198D02*
D03*
X86788D02*
D03*
X66214D02*
D03*
X56214D02*
D03*
X31068D02*
D03*
X41068D02*
D03*
X84408Y145542D02*
D03*
X94408D02*
D03*
X73326Y96012D02*
D03*
X63326D02*
D03*
D18*
X85484Y163830D02*
D03*
X102984D02*
D03*
D19*
X404250Y162500D02*
D03*
X425250D02*
D03*
D20*
X431000Y22750D02*
D03*
Y37250D02*
D03*
X395000Y22750D02*
D03*
Y37250D02*
D03*
D21*
X235000Y160500D02*
D03*
Y131500D02*
D03*
D22*
X126492Y118444D02*
D03*
Y128444D02*
D03*
X94488Y73740D02*
D03*
Y83740D02*
D03*
X106172Y73740D02*
D03*
Y83740D02*
D03*
X66040Y128444D02*
D03*
Y118444D02*
D03*
X71120Y83740D02*
D03*
Y73740D02*
D03*
X82804D02*
D03*
Y83740D02*
D03*
X101092Y128444D02*
D03*
Y118444D02*
D03*
X89408Y128444D02*
D03*
Y118444D02*
D03*
X77724Y128444D02*
D03*
Y118444D02*
D03*
D23*
X250270Y105018D02*
D03*
X255270D02*
D03*
X260270D02*
D03*
Y119518D02*
D03*
X255270D02*
D03*
X250270D02*
D03*
D25*
X153162Y138534D02*
D03*
Y151534D02*
D03*
X214000Y131500D02*
D03*
Y144500D02*
D03*
X113792Y126896D02*
D03*
Y113896D02*
D03*
D26*
X404472Y101854D02*
D03*
X417472D02*
D03*
D27*
X384500Y121604D02*
D03*
Y139104D02*
D03*
X364250Y121604D02*
D03*
Y139104D02*
D03*
X440750Y109500D02*
D03*
Y127000D02*
D03*
X119888Y158102D02*
D03*
Y140602D02*
D03*
D34*
X-300330Y303651D02*
X-290173D01*
X-295252D01*
Y288416D01*
X-282556D02*
X-277477D01*
X-274938Y290955D01*
Y296034D01*
X-277477Y298573D01*
X-282556D01*
X-285095Y296034D01*
Y290955D01*
X-282556Y288416D01*
X-269860Y283338D02*
Y298573D01*
X-262242D01*
X-259703Y296034D01*
Y290955D01*
X-262242Y288416D01*
X-269860D01*
X-239390D02*
Y303651D01*
X-231772D01*
X-229233Y301112D01*
Y296034D01*
X-231772Y293494D01*
X-239390D01*
X-221615Y298573D02*
X-216537D01*
X-213998Y296034D01*
Y288416D01*
X-221615D01*
X-224154Y290955D01*
X-221615Y293494D01*
X-213998D01*
X-208920Y288416D02*
X-201302D01*
X-198763Y290955D01*
X-201302Y293494D01*
X-206380D01*
X-208920Y296034D01*
X-206380Y298573D01*
X-198763D01*
X-191145Y301112D02*
Y298573D01*
X-193684D01*
X-188606D01*
X-191145D01*
Y290955D01*
X-188606Y288416D01*
X-173371D02*
X-178449D01*
X-180989Y290955D01*
Y296034D01*
X-178449Y298573D01*
X-173371D01*
X-170832Y296034D01*
Y293494D01*
X-180989D01*
D78*
X191270Y121000D02*
D03*
Y131000D02*
D03*
X181270Y121000D02*
D03*
Y131000D02*
D03*
M02*
