G04 Layer_Color=32896*
%FSLAX44Y44*%
%MOMM*%
G71*
G01*
G75*
%ADD34C,0.2540*%
%ADD43C,0.2500*%
%ADD70C,0.1524*%
%ADD73C,0.2000*%
%ADD74C,0.1000*%
%ADD75C,0.1270*%
%ADD76C,0.1500*%
%ADD123C,0.4000*%
%ADD124C,0.0127*%
%ADD125R,1.5000X5.2500*%
%ADD126R,1.5000X6.0000*%
G36*
X243449Y125444D02*
X250258Y125448D01*
X250490Y125355D01*
X250810Y124907D01*
X250963Y124560D01*
X251057Y124309D01*
X242018Y124242D01*
X241800Y124000D01*
X241773Y123715D01*
X241773Y115996D01*
X241838Y115580D01*
X242166Y115386D01*
X243297Y115386D01*
X252533Y115399D01*
X253109Y115263D01*
X253292Y114932D01*
X253546Y114461D01*
X253660Y114218D01*
X241736Y114263D01*
X241062Y114584D01*
X240804Y114902D01*
X240585Y115616D01*
X240556Y116269D01*
X240604Y117418D01*
X239436D01*
Y122295D01*
X240604D01*
X240616Y124277D01*
X240829Y124833D01*
X241142Y125164D01*
X241518Y125355D01*
X241985Y125456D01*
X243449Y125444D01*
D02*
G37*
G36*
X250795Y126682D02*
X250932Y126561D01*
X254403Y119965D01*
X254574Y119501D01*
X251933D01*
X255318Y113038D01*
X255403Y112844D01*
X255344Y112741D01*
X255031Y112739D01*
X254848Y112796D01*
X254663Y113028D01*
X251233Y119582D01*
X251134Y119860D01*
X253738Y119952D01*
X250400Y126322D01*
X250256Y126664D01*
X250659Y126705D01*
X250795Y126682D01*
D02*
G37*
G36*
X242372Y112643D02*
X243560Y112188D01*
X245084Y111575D01*
X245391Y111401D01*
X245210Y111242D01*
X244567Y110916D01*
X244704Y110765D01*
X245893Y110031D01*
X247885Y109136D01*
X249827Y108597D01*
X251782Y108360D01*
X253873Y108435D01*
X255978Y108860D01*
X257931Y109587D01*
X259809Y110625D01*
X262152Y112410D01*
X262631Y111854D01*
X263109Y111170D01*
X262686Y110765D01*
X261157Y109529D01*
X258846Y108175D01*
X256619Y107324D01*
X254394Y106867D01*
X251984Y106813D01*
X249943Y107169D01*
X247574Y108042D01*
X245609Y109095D01*
X243906Y110306D01*
X243796Y110132D01*
X243370Y109489D01*
X243230Y109490D01*
X242191Y112644D01*
X242372Y112643D01*
D02*
G37*
G36*
X260975Y119145D02*
X256759D01*
Y120466D01*
X260975D01*
Y119145D01*
D02*
G37*
G36*
X247056Y120466D02*
X248478D01*
Y119145D01*
X247056D01*
Y117723D01*
X245684D01*
Y119145D01*
X244262D01*
Y120466D01*
X245684D01*
Y121888D01*
X247056D01*
Y120466D01*
D02*
G37*
G36*
X264452Y125107D02*
X264909Y124006D01*
X264790D01*
X264904Y115598D01*
X264466Y114540D01*
X263408Y114102D01*
Y114216D01*
X255186Y114199D01*
X255029Y114264D01*
X254964Y114421D01*
X254981D01*
X254523Y115386D01*
X263169Y115377D01*
X263445Y115477D01*
X263553Y115693D01*
X263567Y116199D01*
X263566Y123870D01*
X263485Y124156D01*
X263365Y124245D01*
X262847Y124282D01*
X252694Y124267D01*
X252451Y124401D01*
X251933Y125444D01*
X263351Y125563D01*
X264452Y125107D01*
D02*
G37*
D34*
X380320Y68124D02*
G03*
X380320Y68124I-1270J0D01*
G01*
X379304D02*
G03*
X379304Y68124I-254J0D01*
G01*
X58134Y57782D02*
G03*
X58134Y57782I-1093J0D01*
G01*
X57482D02*
G03*
X57482Y57782I-440J0D01*
G01*
X121984Y5542D02*
G03*
X121984Y5542I-1000J0D01*
G01*
X54574Y107936D02*
G03*
X54574Y107936I-1000J0D01*
G01*
X429740Y80130D02*
G03*
X429740Y80130I-254J0D01*
G01*
X183766Y35956D02*
G03*
X183766Y35956I-1000J0D01*
G01*
X270658Y117703D02*
G03*
X270658Y117703I-17761J0D01*
G01*
X39984Y38542D02*
X128984D01*
X137984Y29542D01*
Y5588D02*
Y29542D01*
X35984Y6096D02*
Y34542D01*
X39984Y38542D01*
X463550Y28953D02*
Y20066D01*
X457625D01*
X454663Y25991D02*
Y21547D01*
X453182Y20066D01*
X448738D01*
Y25991D01*
X439851D02*
X444295D01*
X445776Y24510D01*
Y21547D01*
X444295Y20066D01*
X439851D01*
X436889D02*
Y28953D01*
Y23028D02*
X432445Y25991D01*
X436889Y23028D02*
X432445Y20066D01*
X428002Y25991D02*
Y21547D01*
X426520Y20066D01*
X422077D01*
Y18585D01*
X423558Y17104D01*
X425039D01*
X422077Y20066D02*
Y25991D01*
X404302Y27472D02*
X405784Y28953D01*
X408746D01*
X410227Y27472D01*
Y21547D01*
X408746Y20066D01*
X405784D01*
X404302Y21547D01*
X401340Y28953D02*
Y20066D01*
Y24510D01*
X399859Y25991D01*
X396897D01*
X395415Y24510D01*
Y20066D01*
X390972Y25991D02*
X388009D01*
X386528Y24510D01*
Y20066D01*
X390972D01*
X392453Y21547D01*
X390972Y23028D01*
X386528D01*
X383566Y25991D02*
Y20066D01*
Y23028D01*
X382085Y24510D01*
X380603Y25991D01*
X379122D01*
X371716Y17104D02*
X370235D01*
X368754Y18585D01*
Y25991D01*
X373198D01*
X374679Y24510D01*
Y21547D01*
X373198Y20066D01*
X368754D01*
X361348D02*
X364310D01*
X365792Y21547D01*
Y24510D01*
X364310Y25991D01*
X361348D01*
X359867Y24510D01*
Y23028D01*
X365792D01*
X356108Y27683D02*
Y21758D01*
X353146Y18796D01*
X350183Y21758D01*
Y27683D01*
X341296Y18796D02*
X347221D01*
X341296Y24721D01*
Y26202D01*
X342777Y27683D01*
X345740D01*
X347221Y26202D01*
X338334Y18796D02*
Y20277D01*
X336853D01*
Y18796D01*
X338334D01*
X330928Y26202D02*
X329447Y27683D01*
X326484D01*
X325003Y26202D01*
Y20277D01*
X326484Y18796D01*
X329447D01*
X330928Y20277D01*
Y26202D01*
X222758Y144778D02*
X215987D01*
X271272D02*
X264501D01*
X267886Y148164D02*
Y141393D01*
X262128Y148334D02*
X257050D01*
X259589D01*
Y140716D01*
X254510Y148334D02*
Y140716D01*
Y144525D01*
X249432D01*
Y148334D01*
Y140716D01*
X241815Y148334D02*
X246893D01*
Y140716D01*
X241815D01*
X246893Y144525D02*
X244354D01*
X239275Y140716D02*
Y148334D01*
X235467D01*
X234197Y147064D01*
Y144525D01*
X235467Y143255D01*
X239275D01*
X236736D02*
X234197Y140716D01*
X231658D02*
Y148334D01*
X229119Y145794D01*
X226579Y148334D01*
Y140716D01*
X278133Y171196D02*
X288290D01*
Y166118D01*
X286597Y164425D01*
X284904D01*
X283212Y166118D01*
Y171196D01*
Y166118D01*
X281519Y164425D01*
X279826D01*
X278133Y166118D01*
Y171196D01*
X288290Y161039D02*
X281519D01*
X278133Y157654D01*
X281519Y154268D01*
X288290D01*
X283212D01*
Y161039D01*
X278133Y150883D02*
Y144111D01*
Y147497D01*
X288290D01*
X283212Y140726D02*
Y133955D01*
X279826Y137340D02*
X286597D01*
X84325Y138684D02*
X74168D01*
Y143762D01*
X75861Y145455D01*
X77554D01*
X79246Y143762D01*
Y138684D01*
Y143762D01*
X80939Y145455D01*
X82632D01*
X84325Y143762D01*
Y138684D01*
X74168Y148841D02*
X80939D01*
X84325Y152226D01*
X80939Y155612D01*
X74168D01*
X79246D01*
Y148841D01*
X84325Y158997D02*
Y165769D01*
Y162383D01*
X74168D01*
X79246Y169154D02*
Y175925D01*
X-104456Y99281D02*
Y84046D01*
X-112073D01*
X-114613Y86585D01*
Y89124D01*
X-112073Y91664D01*
X-104456D01*
X-112073D01*
X-114613Y94203D01*
Y96742D01*
X-112073Y99281D01*
X-104456D01*
X-122230Y84046D02*
X-127309D01*
X-129848Y86585D01*
Y91664D01*
X-127309Y94203D01*
X-122230D01*
X-119691Y91664D01*
Y86585D01*
X-122230Y84046D01*
X-137465Y96742D02*
Y94203D01*
X-134926D01*
X-140004D01*
X-137465D01*
Y86585D01*
X-140004Y84046D01*
X-150161Y96742D02*
Y94203D01*
X-147622D01*
X-152700D01*
X-150161D01*
Y86585D01*
X-152700Y84046D01*
X-162857D02*
X-167935D01*
X-170474Y86585D01*
Y91664D01*
X-167935Y94203D01*
X-162857D01*
X-160318Y91664D01*
Y86585D01*
X-162857Y84046D01*
X-175553D02*
Y94203D01*
X-178092D01*
X-180631Y91664D01*
Y84046D01*
Y91664D01*
X-183170Y94203D01*
X-185710Y91664D01*
Y84046D01*
X-213641Y99281D02*
X-208562D01*
X-206023Y96742D01*
Y86585D01*
X-208562Y84046D01*
X-213641D01*
X-216180Y86585D01*
Y96742D01*
X-213641Y99281D01*
X-221258Y94203D02*
X-226336Y84046D01*
X-231415Y94203D01*
X-244111Y84046D02*
X-239032D01*
X-236493Y86585D01*
Y91664D01*
X-239032Y94203D01*
X-244111D01*
X-246650Y91664D01*
Y89124D01*
X-236493D01*
X-251728Y94203D02*
Y84046D01*
Y89124D01*
X-254267Y91664D01*
X-256807Y94203D01*
X-259346D01*
X-266963Y84046D02*
X-272042D01*
X-269503D01*
Y99281D01*
X-266963D01*
X-282198Y94203D02*
X-287277D01*
X-289816Y91664D01*
Y84046D01*
X-282198D01*
X-279659Y86585D01*
X-282198Y89124D01*
X-289816D01*
X-294894Y94203D02*
Y86585D01*
X-297433Y84046D01*
X-305051D01*
Y81507D01*
X-302512Y78968D01*
X-299973D01*
X-305051Y84046D02*
Y94203D01*
D43*
X352500Y142500D02*
Y175000D01*
X295000Y142500D02*
X352500D01*
X295000D02*
Y175000D01*
X62500Y142500D02*
Y175000D01*
X2500Y142500D02*
X62500D01*
D70*
X149458Y171186D02*
X185272D01*
X144632Y168822D02*
Y171186D01*
X185272Y168822D02*
Y171186D01*
X144632Y142738D02*
X185272D01*
X144632D02*
Y145103D01*
Y171186D02*
X150777D01*
X185272Y142738D02*
Y145103D01*
X61212Y56952D02*
X65690D01*
X134872D02*
Y61431D01*
X61212Y130612D02*
X65690D01*
X134872Y126133D02*
Y130612D01*
X130393Y56952D02*
X134872D01*
X61212D02*
Y61431D01*
Y126133D02*
Y130612D01*
X130393D02*
X134872D01*
X132160Y138582D02*
Y143082D01*
Y138582D02*
X142160D01*
Y143082D01*
Y153082D02*
Y157582D01*
X132160D02*
X142160D01*
X132160Y153082D02*
Y157582D01*
X432606Y75129D02*
X437106D01*
X432606D02*
Y85129D01*
X437106D01*
X447568D02*
X452068D01*
Y75129D02*
Y85129D01*
X447568Y75129D02*
X452068D01*
X364384Y119620D02*
X382884D01*
X364384Y149620D02*
X382884D01*
X364384Y119620D02*
Y127620D01*
X382884Y119620D02*
Y127120D01*
Y141620D02*
Y149620D01*
X364384Y141620D02*
Y149620D01*
X371040Y45866D02*
X378540D01*
X371040Y32366D02*
Y45866D01*
Y32366D02*
X378540D01*
X388540D02*
X396040D01*
Y45866D01*
X388540D02*
X396040D01*
X120984Y164512D02*
Y169012D01*
X130984D01*
Y164512D02*
Y169012D01*
Y150012D02*
Y154512D01*
X120984Y150012D02*
X130984D01*
X120984D02*
Y154512D01*
X169338Y122762D02*
X173838D01*
Y132762D01*
X169338D02*
X173838D01*
X154838D02*
X159338D01*
X154838Y122762D02*
Y132762D01*
Y122762D02*
X159338D01*
X321000Y90000D02*
X325500D01*
Y100000D01*
X321000D02*
X325500D01*
X306500D02*
X311000D01*
X306500Y90000D02*
Y100000D01*
Y90000D02*
X311000D01*
X299894Y101934D02*
X304394D01*
Y111934D01*
X299894D02*
X304394D01*
X285394D02*
X289894D01*
X285394Y101934D02*
Y111934D01*
Y101934D02*
X289894D01*
X306500Y112000D02*
X311000D01*
X306500Y102000D02*
Y112000D01*
Y102000D02*
X311000D01*
X321000D02*
X325500D01*
Y112000D01*
X321000D02*
X325500D01*
X188874Y159178D02*
X193374D01*
X188874Y149178D02*
Y159178D01*
Y149178D02*
X193374D01*
X203374D02*
X207874D01*
Y159178D01*
X203374D02*
X207874D01*
X105610Y148990D02*
X113110D01*
X105610Y135490D02*
Y148990D01*
Y135490D02*
X113110D01*
X123110D02*
X130610D01*
Y148990D01*
X123110D02*
X130610D01*
X156892Y53006D02*
X161392D01*
Y43006D02*
Y53006D01*
X156892Y43006D02*
X161392D01*
X142392D02*
X146892D01*
X142392D02*
Y53006D01*
X146892D01*
X43490Y39120D02*
X47990D01*
X43490D02*
Y49120D01*
X47990D01*
X57990D02*
X62490D01*
Y39120D02*
Y49120D01*
X57990Y39120D02*
X62490D01*
X35130Y117192D02*
X39630D01*
Y107192D02*
Y117192D01*
X35130Y107192D02*
X39630D01*
X20630D02*
X25130D01*
X20630D02*
Y117192D01*
X25130D01*
X29520Y52582D02*
X34020D01*
X29520D02*
Y62582D01*
X34020D01*
X44020D02*
X48520D01*
Y52582D02*
Y62582D01*
X44020Y52582D02*
X48520D01*
X143872Y56080D02*
Y63580D01*
Y56080D02*
X157372D01*
Y63580D01*
Y73580D02*
Y81080D01*
X143872D02*
X157372D01*
X143872Y73580D02*
Y81080D01*
X143082Y135302D02*
Y139802D01*
X153082D01*
Y135302D02*
Y139802D01*
Y120802D02*
Y125302D01*
X143082Y120802D02*
X153082D01*
X143082D02*
Y125302D01*
X159338Y72056D02*
Y76556D01*
X169338D01*
Y72056D02*
Y76556D01*
Y57556D02*
Y62056D01*
X159338Y57556D02*
X169338D01*
X159338D02*
Y62056D01*
X78818Y49120D02*
X83318D01*
Y39120D02*
Y49120D01*
X78818Y39120D02*
X83318D01*
X64318D02*
X68818D01*
X64318D02*
Y49120D01*
X68818D01*
X41228Y125904D02*
Y130404D01*
X51228D01*
Y125904D02*
Y130404D01*
Y111404D02*
Y115904D01*
X41228Y111404D02*
X51228D01*
X41228D02*
Y115904D01*
X405000Y86750D02*
X412500D01*
X405000Y73250D02*
Y86750D01*
Y73250D02*
X412500D01*
X422500D02*
X430000D01*
Y86750D01*
X422500D02*
X430000D01*
X307000Y113750D02*
Y132250D01*
X337000Y113750D02*
Y132250D01*
X307000D02*
X315000D01*
X307000Y113750D02*
X314500D01*
X329000D02*
X337000D01*
X329000Y132250D02*
X337000D01*
X437274Y34000D02*
X455774D01*
X437274Y64000D02*
X455774D01*
X437274Y34000D02*
Y42000D01*
X455774Y34000D02*
Y41500D01*
Y56000D02*
Y64000D01*
X437274Y56000D02*
Y64000D01*
X417336Y33956D02*
X435836D01*
X417336Y63956D02*
X435836D01*
X417336Y33956D02*
Y41956D01*
X435836Y33956D02*
Y41456D01*
Y55956D02*
Y63956D01*
X417336Y55956D02*
Y63956D01*
X397270Y33956D02*
X415770D01*
X397270Y63956D02*
X415770D01*
X397270Y33956D02*
Y41956D01*
X415770Y33956D02*
Y41456D01*
Y55956D02*
Y63956D01*
X397270Y55956D02*
Y63956D01*
X401974Y89426D02*
Y93926D01*
X391974Y89426D02*
X401974D01*
X391974D02*
Y93926D01*
Y103926D02*
Y108426D01*
X401974D01*
Y103926D02*
Y108426D01*
X382926Y119620D02*
X401426D01*
X382926Y149620D02*
X401426D01*
X382926Y119620D02*
Y127620D01*
X401426Y119620D02*
Y127120D01*
Y141620D02*
Y149620D01*
X382926Y141620D02*
Y149620D01*
D73*
X235110Y151838D02*
G03*
X242610Y159338I0J7500D01*
G01*
Y169338D02*
G03*
X235110Y176838I-7500J0D01*
G01*
X225110D02*
G03*
X217610Y169338I0J-7500D01*
G01*
Y159338D02*
G03*
X225110Y151838I7500J0D01*
G01*
X247610Y159338D02*
G03*
X255110Y151838I7500J0D01*
G01*
Y176838D02*
G03*
X247610Y169338I0J-7500D01*
G01*
X272610Y169338D02*
G03*
X265110Y176838I-7500J0D01*
G01*
X265110Y151838D02*
G03*
X272610Y159338I0J7500D01*
G01*
X177766Y37956D02*
G03*
X175766Y39956I-2000J0D01*
G01*
Y17956D02*
G03*
X177766Y19956I0J2000D01*
G01*
X141766D02*
G03*
X143766Y17956I2000J0D01*
G01*
Y39956D02*
G03*
X141766Y37956I0J-2000D01*
G01*
X458390Y92083D02*
X470390D01*
X458390Y172083D02*
X470390D01*
Y92083D02*
Y172083D01*
X404388Y92080D02*
Y172080D01*
Y92080D02*
X416388D01*
X404388Y172080D02*
X416388D01*
X230110Y151838D02*
X235110D01*
X242610Y159338D02*
Y169338D01*
X225110Y176838D02*
X235110D01*
X217610Y159338D02*
Y169338D01*
X225110Y151838D02*
X230110D01*
X255110D02*
X260110D01*
X247610Y159338D02*
Y169338D01*
X255110Y176838D02*
X265110D01*
X272610Y159338D02*
Y169338D01*
X260110Y151838D02*
X265110D01*
X172766Y39956D02*
X175766D01*
X177766Y19956D02*
Y37956D01*
X143766Y17956D02*
X175766D01*
X141766Y19956D02*
Y37956D01*
X143766Y39956D02*
X146766D01*
X172766D01*
D74*
X260472Y55560D02*
G03*
X260472Y55560I-500J0D01*
G01*
D75*
X340000Y72000D02*
X343700D01*
X340000D02*
Y75700D01*
Y108300D02*
Y112000D01*
X343700D01*
X376300D02*
X380000D01*
Y108300D02*
Y112000D01*
Y72000D02*
Y75700D01*
X376300Y72000D02*
X380000D01*
X244222Y59310D02*
Y75310D01*
X260222Y59310D02*
Y75310D01*
D76*
X18574Y64936D02*
Y104936D01*
Y64936D02*
X50574D01*
Y104936D01*
X18574D02*
X50574D01*
X213000Y27500D02*
Y31500D01*
X293000Y27250D02*
Y31500D01*
X270000Y51500D02*
X281300D01*
X224700Y51250D02*
X236000D01*
X213000Y4250D02*
X292500D01*
D123*
X268164Y55750D02*
G03*
X268164Y55750I-1414J0D01*
G01*
D124*
X242179Y112694D02*
X242227Y112682D01*
X242276Y112669D01*
X242324Y112656D01*
X242372Y112643D01*
X242420Y112629D01*
X242468Y112614D01*
X242516Y112599D01*
X242564Y112584D01*
X242612Y112568D01*
X242660Y112552D01*
X242708Y112535D01*
X242756Y112518D01*
X242803Y112500D01*
X242851Y112483D01*
X242899Y112464D01*
X242946Y112446D01*
X242994Y112427D01*
X243041Y112408D01*
X243089Y112389D01*
X243136Y112369D01*
X243183Y112350D01*
X243231Y112330D01*
X243278Y112310D01*
X243325Y112290D01*
X243372Y112270D01*
X243419Y112249D01*
X243466Y112229D01*
X243513Y112209D01*
X243560Y112188D01*
X243607Y112168D01*
X243654Y112147D01*
X243701Y112127D01*
X243747Y112107D01*
X243794Y112086D01*
X243841Y112066D01*
X243887Y112046D01*
X243934Y112026D01*
X243980Y112007D01*
X244026Y111987D01*
X244073Y111968D01*
X244119Y111949D01*
X244165Y111930D01*
X244211Y111911D01*
X244256Y111893D01*
X244303Y111876D01*
X244350Y111858D01*
X244397Y111841D01*
X244445Y111823D01*
X244494Y111806D01*
X244543Y111788D01*
X244593Y111770D01*
X244643Y111753D01*
X244692Y111734D01*
X244742Y111716D01*
X244792Y111697D01*
X244841Y111678D01*
X244891Y111659D01*
X244940Y111639D01*
X244988Y111618D01*
X245036Y111597D01*
X245084Y111575D01*
X245131Y111553D01*
X245176Y111530D01*
X245222Y111506D01*
X245266Y111481D01*
X245309Y111455D01*
X245350Y111429D01*
X245391Y111401D01*
X245430Y111373D01*
X245387Y111347D02*
X245430Y111373D01*
X245343Y111321D02*
X245387Y111347D01*
X245298Y111295D02*
X245343Y111321D01*
X245254Y111268D02*
X245298Y111295D01*
X245210Y111242D02*
X245254Y111268D01*
X245165Y111216D02*
X245210Y111242D01*
X245120Y111189D02*
X245165Y111216D01*
X245075Y111163D02*
X245120Y111189D01*
X245030Y111138D02*
X245075Y111163D01*
X244985Y111112D02*
X245030Y111138D01*
X244939Y111087D02*
X244985Y111112D01*
X244893Y111063D02*
X244939Y111087D01*
X244847Y111039D02*
X244893Y111063D01*
X244801Y111016D02*
X244847Y111039D01*
X244755Y110994D02*
X244801Y111016D01*
X244708Y110973D02*
X244755Y110994D01*
X244661Y110953D02*
X244708Y110973D01*
X244614Y110934D02*
X244661Y110953D01*
X244567Y110916D02*
X244614Y110934D01*
X244567Y110916D02*
X244599Y110876D01*
X244632Y110838D01*
X244667Y110801D01*
X244704Y110765D01*
X244742Y110730D01*
X244781Y110697D01*
X244822Y110664D01*
X244863Y110632D01*
X244905Y110602D01*
X244949Y110572D01*
X244993Y110543D01*
X245037Y110514D01*
X245082Y110486D01*
X245128Y110459D01*
X245173Y110432D01*
X245219Y110406D01*
X245266Y110380D01*
X245312Y110354D01*
X245358Y110329D01*
X245404Y110304D01*
X245449Y110279D01*
X245494Y110254D01*
X245539Y110229D01*
X245583Y110204D01*
X245627Y110179D01*
X245671Y110154D01*
X245715Y110129D01*
X245760Y110105D01*
X245804Y110080D01*
X245849Y110056D01*
X245893Y110031D01*
X245938Y110007D01*
X245983Y109983D01*
X246028Y109959D01*
X246073Y109936D01*
X246118Y109912D01*
X246163Y109889D01*
X246208Y109866D01*
X246254Y109842D01*
X246299Y109819D01*
X246344Y109797D01*
X246390Y109774D01*
X246435Y109752D01*
X246481Y109729D01*
X246527Y109707D01*
X246573Y109685D01*
X246618Y109663D01*
X246665Y109642D01*
X246710Y109620D01*
X246757Y109599D01*
X246803Y109577D01*
X246849Y109556D01*
X246895Y109535D01*
X246942Y109515D01*
X246988Y109494D01*
X247035Y109474D01*
X247082Y109453D01*
X247128Y109433D01*
X247175Y109414D01*
X247222Y109394D01*
X247269Y109374D01*
X247316Y109355D01*
X247363Y109336D01*
X247410Y109317D01*
X247457Y109298D01*
X247505Y109279D01*
X247552Y109261D01*
X247599Y109242D01*
X247647Y109224D01*
X247694Y109206D01*
X247742Y109188D01*
X247789Y109171D01*
X247837Y109153D01*
X247885Y109136D01*
X247933Y109119D01*
X247981Y109102D01*
X248029Y109085D01*
X248077Y109068D01*
X248125Y109052D01*
X248173Y109036D01*
X248222Y109020D01*
X248270Y109004D01*
X248319Y108988D01*
X248367Y108973D01*
X248416Y108958D01*
X248464Y108942D01*
X248513Y108928D01*
X248561Y108913D01*
X248610Y108898D01*
X248659Y108884D01*
X248707Y108870D01*
X248756Y108856D01*
X248804Y108842D01*
X248853Y108829D01*
X248902Y108815D01*
X248950Y108802D01*
X248999Y108789D01*
X249048Y108776D01*
X249096Y108764D01*
X249145Y108751D01*
X249193Y108739D01*
X249242Y108727D01*
X249291Y108715D01*
X249340Y108703D01*
X249388Y108692D01*
X249437Y108680D01*
X249486Y108669D01*
X249535Y108659D01*
X249583Y108648D01*
X249632Y108637D01*
X249681Y108627D01*
X249730Y108617D01*
X249779Y108607D01*
X249827Y108597D01*
X249876Y108587D01*
X249925Y108578D01*
X249974Y108569D01*
X250023Y108560D01*
X250072Y108551D01*
X250121Y108542D01*
X250169Y108534D01*
X250218Y108526D01*
X250267Y108518D01*
X250316Y108510D01*
X250365Y108502D01*
X250414Y108494D01*
X250462Y108487D01*
X250511Y108480D01*
X250560Y108473D01*
X250609Y108466D01*
X250658Y108460D01*
X250707Y108453D01*
X250756Y108447D01*
X250805Y108441D01*
X250854Y108435D01*
X250903Y108429D01*
X250951Y108424D01*
X251000Y108419D01*
X251049Y108414D01*
X251098Y108409D01*
X251147Y108404D01*
X251196Y108400D01*
X251245Y108395D01*
X251294Y108391D01*
X251343Y108387D01*
X251391Y108383D01*
X251440Y108380D01*
X251489Y108376D01*
X251538Y108373D01*
X251587Y108370D01*
X251636Y108367D01*
X251684Y108365D01*
X251733Y108362D01*
X251782Y108360D01*
X251831Y108358D01*
X251880Y108356D01*
X251929Y108354D01*
X251978Y108352D01*
X252026Y108351D01*
X252075Y108350D01*
X252124Y108349D01*
X252173Y108348D01*
X252222Y108348D01*
X252270Y108347D01*
X252319Y108347D01*
X252368Y108347D01*
X252417Y108347D01*
X252465Y108347D01*
X252514Y108348D01*
X252563Y108348D01*
X252612Y108349D01*
X252660Y108350D01*
X252709Y108351D01*
X252757Y108353D01*
X252806Y108354D01*
X252855Y108356D01*
X252903Y108358D01*
X252952Y108360D01*
X253001Y108362D01*
X253049Y108365D01*
X253098Y108368D01*
X253146Y108371D01*
X253195Y108373D01*
X253244Y108377D01*
X253292Y108380D01*
X253341Y108384D01*
X253389Y108387D01*
X253438Y108392D01*
X253486Y108396D01*
X253535Y108400D01*
X253583Y108405D01*
X253631Y108409D01*
X253680Y108414D01*
X253728Y108419D01*
X253777Y108424D01*
X253825Y108430D01*
X253873Y108435D01*
X253922Y108441D01*
X253970Y108447D01*
X254018Y108453D01*
X254067Y108460D01*
X254115Y108466D01*
X254163Y108473D01*
X254211Y108480D01*
X254259Y108487D01*
X254308Y108494D01*
X254356Y108501D01*
X254404Y108509D01*
X254452Y108517D01*
X254500Y108525D01*
X254548Y108533D01*
X254596Y108541D01*
X254644Y108549D01*
X254692Y108558D01*
X254740Y108567D01*
X254788Y108576D01*
X254836Y108585D01*
X254884Y108595D01*
X254932Y108604D01*
X254980Y108614D01*
X255028Y108624D01*
X255075Y108634D01*
X255123Y108644D01*
X255171Y108655D01*
X255219Y108665D01*
X255266Y108676D01*
X255314Y108687D01*
X255361Y108699D01*
X255409Y108710D01*
X255457Y108721D01*
X255504Y108733D01*
X255552Y108745D01*
X255599Y108757D01*
X255647Y108769D01*
X255694Y108782D01*
X255742Y108794D01*
X255789Y108807D01*
X255836Y108820D01*
X255884Y108833D01*
X255931Y108847D01*
X255978Y108860D01*
X256025Y108874D01*
X256073Y108888D01*
X256120Y108902D01*
X256167Y108916D01*
X256214Y108930D01*
X256261Y108945D01*
X256308Y108960D01*
X256355Y108975D01*
X256402Y108990D01*
X256449Y109005D01*
X256496Y109020D01*
X256543Y109036D01*
X256590Y109052D01*
X256636Y109068D01*
X256683Y109084D01*
X256730Y109100D01*
X256777Y109117D01*
X256823Y109134D01*
X256870Y109150D01*
X256917Y109167D01*
X256963Y109185D01*
X257010Y109202D01*
X257056Y109220D01*
X257102Y109237D01*
X257149Y109255D01*
X257195Y109273D01*
X257241Y109292D01*
X257288Y109310D01*
X257334Y109329D01*
X257380Y109348D01*
X257426Y109367D01*
X257472Y109386D01*
X257519Y109405D01*
X257565Y109424D01*
X257610Y109444D01*
X257656Y109464D01*
X257702Y109484D01*
X257748Y109504D01*
X257794Y109525D01*
X257840Y109545D01*
X257885Y109566D01*
X257931Y109587D01*
X257977Y109608D01*
X258022Y109629D01*
X258068Y109650D01*
X258113Y109672D01*
X258159Y109694D01*
X258204Y109716D01*
X258250Y109738D01*
X258295Y109760D01*
X258340Y109783D01*
X258386Y109805D01*
X258431Y109828D01*
X258476Y109851D01*
X258521Y109874D01*
X258566Y109898D01*
X258611Y109921D01*
X258656Y109945D01*
X258701Y109969D01*
X258746Y109993D01*
X258791Y110017D01*
X258836Y110041D01*
X258881Y110066D01*
X258926Y110091D01*
X258971Y110116D01*
X259016Y110142D01*
X259060Y110167D01*
X259105Y110193D01*
X259150Y110218D01*
X259194Y110245D01*
X259239Y110271D01*
X259283Y110297D01*
X259327Y110323D01*
X259372Y110350D01*
X259416Y110377D01*
X259460Y110404D01*
X259504Y110431D01*
X259548Y110458D01*
X259591Y110486D01*
X259635Y110513D01*
X259679Y110541D01*
X259722Y110569D01*
X259766Y110597D01*
X259809Y110625D01*
X259852Y110653D01*
X259895Y110682D01*
X259939Y110710D01*
X259982Y110739D01*
X260025Y110768D01*
X260067Y110797D01*
X260110Y110826D01*
X260153Y110855D01*
X260195Y110885D01*
X260238Y110914D01*
X260280Y110944D01*
X260322Y110974D01*
X260365Y111003D01*
X260407Y111033D01*
X260449Y111063D01*
X260490Y111094D01*
X260532Y111124D01*
X260574Y111154D01*
X260616Y111185D01*
X260657Y111216D01*
X260698Y111246D01*
X260740Y111277D01*
X260781Y111308D01*
X260822Y111339D01*
X260863Y111370D01*
X260904Y111402D01*
X260945Y111433D01*
X260985Y111464D01*
X261026Y111496D01*
X261066Y111528D01*
X261107Y111560D01*
X261147Y111593D01*
X261187Y111625D01*
X261227Y111658D01*
X261267Y111692D01*
X261307Y111725D01*
X261346Y111758D01*
X261386Y111792D01*
X261425Y111826D01*
X261465Y111859D01*
X261504Y111893D01*
X261544Y111927D01*
X261583Y111960D01*
X261623Y111994D01*
X261663Y112028D01*
X261702Y112061D01*
X261742Y112094D01*
X261782Y112127D01*
X261823Y112160D01*
X261863Y112192D01*
X261903Y112225D01*
X261944Y112256D01*
X261985Y112288D01*
X262026Y112319D01*
X262068Y112350D01*
X262110Y112380D01*
X262152Y112410D01*
X262194Y112440D01*
X262225Y112397D01*
X262255Y112355D01*
X262286Y112313D01*
X262317Y112271D01*
X262348Y112229D01*
X262379Y112188D01*
X262411Y112146D01*
X262442Y112104D01*
X262474Y112062D01*
X262505Y112021D01*
X262537Y111979D01*
X262568Y111937D01*
X262599Y111895D01*
X262631Y111854D01*
X262662Y111812D01*
X262693Y111770D01*
X262724Y111728D01*
X262755Y111686D01*
X262786Y111643D01*
X262817Y111601D01*
X262847Y111559D01*
X262877Y111516D01*
X262907Y111474D01*
X262937Y111431D01*
X262966Y111388D01*
X262996Y111344D01*
X263024Y111301D01*
X263053Y111257D01*
X263081Y111214D01*
X263109Y111170D01*
X263074Y111135D02*
X263109Y111170D01*
X263039Y111101D02*
X263074Y111135D01*
X263005Y111067D02*
X263039Y111101D01*
X262970Y111033D02*
X263005Y111067D01*
X262935Y110999D02*
X262970Y111033D01*
X262900Y110965D02*
X262935Y110999D01*
X262864Y110932D02*
X262900Y110965D01*
X262829Y110898D02*
X262864Y110932D01*
X262794Y110865D02*
X262829Y110898D01*
X262758Y110831D02*
X262794Y110865D01*
X262722Y110798D02*
X262758Y110831D01*
X262686Y110765D02*
X262722Y110798D01*
X262650Y110732D02*
X262686Y110765D01*
X262614Y110699D02*
X262650Y110732D01*
X262578Y110666D02*
X262614Y110699D01*
X262542Y110633D02*
X262578Y110666D01*
X262505Y110601D02*
X262542Y110633D01*
X262468Y110568D02*
X262505Y110601D01*
X262432Y110536D02*
X262468Y110568D01*
X262395Y110503D02*
X262432Y110536D01*
X262358Y110471D02*
X262395Y110503D01*
X262321Y110439D02*
X262358Y110471D01*
X262284Y110407D02*
X262321Y110439D01*
X262246Y110375D02*
X262284Y110407D01*
X262209Y110343D02*
X262246Y110375D01*
X262171Y110312D02*
X262209Y110343D01*
X262134Y110280D02*
X262171Y110312D01*
X262096Y110249D02*
X262134Y110280D01*
X262058Y110217D02*
X262096Y110249D01*
X262020Y110186D02*
X262058Y110217D01*
X261982Y110155D02*
X262020Y110186D01*
X261944Y110124D02*
X261982Y110155D01*
X261905Y110093D02*
X261944Y110124D01*
X261867Y110063D02*
X261905Y110093D01*
X261828Y110032D02*
X261867Y110063D01*
X261790Y110001D02*
X261828Y110032D01*
X261751Y109971D02*
X261790Y110001D01*
X261712Y109941D02*
X261751Y109971D01*
X261673Y109910D02*
X261712Y109941D01*
X261634Y109880D02*
X261673Y109910D01*
X261595Y109850D02*
X261634Y109880D01*
X261556Y109820D02*
X261595Y109850D01*
X261516Y109791D02*
X261556Y109820D01*
X261477Y109761D02*
X261516Y109791D01*
X261437Y109732D02*
X261477Y109761D01*
X261397Y109702D02*
X261437Y109732D01*
X261357Y109673D02*
X261397Y109702D01*
X261318Y109644D02*
X261357Y109673D01*
X261278Y109615D02*
X261318Y109644D01*
X261237Y109586D02*
X261278Y109615D01*
X261197Y109557D02*
X261237Y109586D01*
X261157Y109529D02*
X261197Y109557D01*
X261116Y109500D02*
X261157Y109529D01*
X261076Y109472D02*
X261116Y109500D01*
X261035Y109444D02*
X261076Y109472D01*
X260994Y109415D02*
X261035Y109444D01*
X260954Y109387D02*
X260994Y109415D01*
X260913Y109360D02*
X260954Y109387D01*
X260872Y109332D02*
X260913Y109360D01*
X260831Y109304D02*
X260872Y109332D01*
X260789Y109277D02*
X260831Y109304D01*
X260748Y109249D02*
X260789Y109277D01*
X260707Y109222D02*
X260748Y109249D01*
X260665Y109195D02*
X260707Y109222D01*
X260624Y109168D02*
X260665Y109195D01*
X260582Y109141D02*
X260624Y109168D01*
X260540Y109114D02*
X260582Y109141D01*
X260498Y109087D02*
X260540Y109114D01*
X260456Y109061D02*
X260498Y109087D01*
X260414Y109035D02*
X260456Y109061D01*
X260372Y109008D02*
X260414Y109035D01*
X260330Y108982D02*
X260372Y109008D01*
X260288Y108956D02*
X260330Y108982D01*
X260245Y108930D02*
X260288Y108956D01*
X260203Y108905D02*
X260245Y108930D01*
X260160Y108879D02*
X260203Y108905D01*
X260118Y108854D02*
X260160Y108879D01*
X260075Y108828D02*
X260118Y108854D01*
X260032Y108803D02*
X260075Y108828D01*
X259989Y108778D02*
X260032Y108803D01*
X259946Y108753D02*
X259989Y108778D01*
X259903Y108728D02*
X259946Y108753D01*
X259860Y108704D02*
X259903Y108728D01*
X259817Y108679D02*
X259860Y108704D01*
X259773Y108655D02*
X259817Y108679D01*
X259730Y108631D02*
X259773Y108655D01*
X259687Y108606D02*
X259730Y108631D01*
X259643Y108582D02*
X259687Y108606D01*
X259599Y108559D02*
X259643Y108582D01*
X259555Y108535D02*
X259599Y108559D01*
X259512Y108511D02*
X259555Y108535D01*
X259468Y108488D02*
X259512Y108511D01*
X259424Y108465D02*
X259468Y108488D01*
X259380Y108441D02*
X259424Y108465D01*
X259336Y108418D02*
X259380Y108441D01*
X259292Y108396D02*
X259336Y108418D01*
X259247Y108373D02*
X259292Y108396D01*
X259203Y108350D02*
X259247Y108373D01*
X259159Y108328D02*
X259203Y108350D01*
X259114Y108306D02*
X259159Y108328D01*
X259069Y108283D02*
X259114Y108306D01*
X259025Y108261D02*
X259069Y108283D01*
X258980Y108239D02*
X259025Y108261D01*
X258935Y108218D02*
X258980Y108239D01*
X258891Y108196D02*
X258935Y108218D01*
X258846Y108175D02*
X258891Y108196D01*
X258801Y108153D02*
X258846Y108175D01*
X258756Y108132D02*
X258801Y108153D01*
X258711Y108111D02*
X258756Y108132D01*
X258665Y108090D02*
X258711Y108111D01*
X258620Y108070D02*
X258665Y108090D01*
X258575Y108049D02*
X258620Y108070D01*
X258529Y108029D02*
X258575Y108049D01*
X258484Y108008D02*
X258529Y108029D01*
X258438Y107988D02*
X258484Y108008D01*
X258393Y107968D02*
X258438Y107988D01*
X258347Y107949D02*
X258393Y107968D01*
X258302Y107929D02*
X258347Y107949D01*
X258256Y107909D02*
X258302Y107929D01*
X258210Y107890D02*
X258256Y107909D01*
X258164Y107871D02*
X258210Y107890D01*
X258118Y107852D02*
X258164Y107871D01*
X258072Y107833D02*
X258118Y107852D01*
X258026Y107814D02*
X258072Y107833D01*
X257980Y107795D02*
X258026Y107814D01*
X257934Y107777D02*
X257980Y107795D01*
X257887Y107759D02*
X257934Y107777D01*
X257841Y107741D02*
X257887Y107759D01*
X257795Y107723D02*
X257841Y107741D01*
X257749Y107705D02*
X257795Y107723D01*
X257702Y107687D02*
X257749Y107705D01*
X257656Y107670D02*
X257702Y107687D01*
X257609Y107652D02*
X257656Y107670D01*
X257562Y107635D02*
X257609Y107652D01*
X257516Y107618D02*
X257562Y107635D01*
X257469Y107601D02*
X257516Y107618D01*
X257422Y107584D02*
X257469Y107601D01*
X257375Y107568D02*
X257422Y107584D01*
X257328Y107551D02*
X257375Y107568D01*
X257281Y107535D02*
X257328Y107551D01*
X257234Y107519D02*
X257281Y107535D01*
X257187Y107503D02*
X257234Y107519D01*
X257140Y107487D02*
X257187Y107503D01*
X257093Y107472D02*
X257140Y107487D01*
X257046Y107456D02*
X257093Y107472D01*
X256999Y107441D02*
X257046Y107456D01*
X256951Y107426D02*
X256999Y107441D01*
X256904Y107411D02*
X256951Y107426D01*
X256857Y107396D02*
X256904Y107411D01*
X256809Y107381D02*
X256857Y107396D01*
X256762Y107367D02*
X256809Y107381D01*
X256714Y107353D02*
X256762Y107367D01*
X256667Y107338D02*
X256714Y107353D01*
X256619Y107324D02*
X256667Y107338D01*
X256572Y107310D02*
X256619Y107324D01*
X256524Y107297D02*
X256572Y107310D01*
X256476Y107283D02*
X256524Y107297D01*
X256428Y107270D02*
X256476Y107283D01*
X256381Y107257D02*
X256428Y107270D01*
X256333Y107244D02*
X256381Y107257D01*
X256285Y107231D02*
X256333Y107244D01*
X256237Y107218D02*
X256285Y107231D01*
X256189Y107206D02*
X256237Y107218D01*
X256141Y107194D02*
X256189Y107206D01*
X256093Y107182D02*
X256141Y107194D01*
X256045Y107170D02*
X256093Y107182D01*
X255997Y107158D02*
X256045Y107170D01*
X255949Y107146D02*
X255997Y107158D01*
X255901Y107135D02*
X255949Y107146D01*
X255852Y107123D02*
X255901Y107135D01*
X255804Y107112D02*
X255852Y107123D01*
X255756Y107101D02*
X255804Y107112D01*
X255708Y107091D02*
X255756Y107101D01*
X255659Y107080D02*
X255708Y107091D01*
X255611Y107070D02*
X255659Y107080D01*
X255563Y107059D02*
X255611Y107070D01*
X255514Y107049D02*
X255563Y107059D01*
X255466Y107039D02*
X255514Y107049D01*
X255417Y107030D02*
X255466Y107039D01*
X255369Y107020D02*
X255417Y107030D01*
X255320Y107011D02*
X255369Y107020D01*
X255272Y107001D02*
X255320Y107011D01*
X255223Y106993D02*
X255272Y107001D01*
X255174Y106984D02*
X255223Y106993D01*
X255126Y106975D02*
X255174Y106984D01*
X255077Y106967D02*
X255126Y106975D01*
X255028Y106958D02*
X255077Y106967D01*
X254980Y106950D02*
X255028Y106958D01*
X254931Y106942D02*
X254980Y106950D01*
X254882Y106934D02*
X254931Y106942D01*
X254834Y106927D02*
X254882Y106934D01*
X254785Y106919D02*
X254834Y106927D01*
X254736Y106912D02*
X254785Y106919D01*
X254687Y106905D02*
X254736Y106912D01*
X254638Y106898D02*
X254687Y106905D01*
X254589Y106892D02*
X254638Y106898D01*
X254541Y106885D02*
X254589Y106892D01*
X254492Y106879D02*
X254541Y106885D01*
X254443Y106873D02*
X254492Y106879D01*
X254394Y106867D02*
X254443Y106873D01*
X254345Y106861D02*
X254394Y106867D01*
X254296Y106856D02*
X254345Y106861D01*
X254247Y106850D02*
X254296Y106856D01*
X254198Y106845D02*
X254247Y106850D01*
X254149Y106840D02*
X254198Y106845D01*
X254100Y106835D02*
X254149Y106840D01*
X254051Y106831D02*
X254100Y106835D01*
X254002Y106826D02*
X254051Y106831D01*
X253953Y106822D02*
X254002Y106826D01*
X253904Y106818D02*
X253953Y106822D01*
X253854Y106814D02*
X253904Y106818D01*
X253805Y106811D02*
X253854Y106814D01*
X253756Y106807D02*
X253805Y106811D01*
X253707Y106804D02*
X253756Y106807D01*
X253658Y106801D02*
X253707Y106804D01*
X253609Y106798D02*
X253658Y106801D01*
X253560Y106795D02*
X253609Y106798D01*
X253510Y106792D02*
X253560Y106795D01*
X253461Y106790D02*
X253510Y106792D01*
X253412Y106788D02*
X253461Y106790D01*
X253363Y106786D02*
X253412Y106788D01*
X253314Y106784D02*
X253363Y106786D01*
X253265Y106783D02*
X253314Y106784D01*
X253216Y106782D02*
X253265Y106783D01*
X253166Y106780D02*
X253216Y106782D01*
X253117Y106779D02*
X253166Y106780D01*
X253068Y106779D02*
X253117Y106779D01*
X253019Y106778D02*
X253068Y106779D01*
X252970Y106778D02*
X253019Y106778D01*
X252920Y106777D02*
X252970Y106778D01*
X252871Y106777D02*
X252920Y106777D01*
X252822Y106778D02*
X252871Y106777D01*
X252773Y106778D02*
X252822Y106778D01*
X252724Y106779D02*
X252773Y106778D01*
X252675Y106780D02*
X252724Y106779D01*
X252626Y106781D02*
X252675Y106780D01*
X252576Y106782D02*
X252626Y106781D01*
X252527Y106783D02*
X252576Y106782D01*
X252478Y106785D02*
X252527Y106783D01*
X252429Y106787D02*
X252478Y106785D01*
X252380Y106789D02*
X252429Y106787D01*
X252331Y106791D02*
X252380Y106789D01*
X252281Y106793D02*
X252331Y106791D01*
X252232Y106796D02*
X252281Y106793D01*
X252183Y106799D02*
X252232Y106796D01*
X252134Y106802D02*
X252183Y106799D01*
X252085Y106805D02*
X252134Y106802D01*
X252034Y106809D02*
X252085Y106805D01*
X251984Y106813D02*
X252034Y106809D01*
X251933Y106817D02*
X251984Y106813D01*
X251882Y106821D02*
X251933Y106817D01*
X251831Y106826D02*
X251882Y106821D01*
X251781Y106831D02*
X251831Y106826D01*
X251730Y106836D02*
X251781Y106831D01*
X251680Y106841D02*
X251730Y106836D01*
X251630Y106847D02*
X251680Y106841D01*
X251579Y106852D02*
X251630Y106847D01*
X251529Y106858D02*
X251579Y106852D01*
X251479Y106865D02*
X251529Y106858D01*
X251428Y106871D02*
X251479Y106865D01*
X251378Y106878D02*
X251428Y106871D01*
X251328Y106885D02*
X251378Y106878D01*
X251278Y106892D02*
X251328Y106885D01*
X251228Y106899D02*
X251278Y106892D01*
X251178Y106907D02*
X251228Y106899D01*
X251128Y106915D02*
X251178Y106907D01*
X251078Y106923D02*
X251128Y106915D01*
X251028Y106931D02*
X251078Y106923D01*
X250978Y106940D02*
X251028Y106931D01*
X250928Y106949D02*
X250978Y106940D01*
X250879Y106958D02*
X250928Y106949D01*
X250829Y106967D02*
X250879Y106958D01*
X250779Y106976D02*
X250829Y106967D01*
X250730Y106986D02*
X250779Y106976D01*
X250680Y106996D02*
X250730Y106986D01*
X250630Y107006D02*
X250680Y106996D01*
X250581Y107016D02*
X250630Y107006D01*
X250532Y107027D02*
X250581Y107016D01*
X250482Y107037D02*
X250532Y107027D01*
X250433Y107048D02*
X250482Y107037D01*
X250384Y107060D02*
X250433Y107048D01*
X250335Y107071D02*
X250384Y107060D01*
X250285Y107082D02*
X250335Y107071D01*
X250236Y107094D02*
X250285Y107082D01*
X250187Y107106D02*
X250236Y107094D01*
X250138Y107118D02*
X250187Y107106D01*
X250089Y107131D02*
X250138Y107118D01*
X250040Y107143D02*
X250089Y107131D01*
X249992Y107156D02*
X250040Y107143D01*
X249943Y107169D02*
X249992Y107156D01*
X249894Y107182D02*
X249943Y107169D01*
X249845Y107196D02*
X249894Y107182D01*
X249797Y107209D02*
X249845Y107196D01*
X249748Y107223D02*
X249797Y107209D01*
X249700Y107237D02*
X249748Y107223D01*
X249651Y107251D02*
X249700Y107237D01*
X249603Y107265D02*
X249651Y107251D01*
X249555Y107280D02*
X249603Y107265D01*
X249506Y107294D02*
X249555Y107280D01*
X249458Y107309D02*
X249506Y107294D01*
X249410Y107324D02*
X249458Y107309D01*
X249362Y107339D02*
X249410Y107324D01*
X249313Y107355D02*
X249362Y107339D01*
X249265Y107370D02*
X249313Y107355D01*
X249217Y107386D02*
X249265Y107370D01*
X249170Y107402D02*
X249217Y107386D01*
X249122Y107418D02*
X249170Y107402D01*
X249074Y107435D02*
X249122Y107418D01*
X249026Y107451D02*
X249074Y107435D01*
X248978Y107468D02*
X249026Y107451D01*
X248931Y107485D02*
X248978Y107468D01*
X248883Y107501D02*
X248931Y107485D01*
X248836Y107519D02*
X248883Y107501D01*
X248788Y107536D02*
X248836Y107519D01*
X248741Y107554D02*
X248788Y107536D01*
X248693Y107571D02*
X248741Y107554D01*
X248646Y107589D02*
X248693Y107571D01*
X248599Y107607D02*
X248646Y107589D01*
X248552Y107625D02*
X248599Y107607D01*
X248504Y107643D02*
X248552Y107625D01*
X248457Y107662D02*
X248504Y107643D01*
X248410Y107681D02*
X248457Y107662D01*
X248363Y107699D02*
X248410Y107681D01*
X248316Y107718D02*
X248363Y107699D01*
X248270Y107737D02*
X248316Y107718D01*
X248223Y107757D02*
X248270Y107737D01*
X248176Y107776D02*
X248223Y107757D01*
X248129Y107796D02*
X248176Y107776D01*
X248083Y107815D02*
X248129Y107796D01*
X248036Y107835D02*
X248083Y107815D01*
X247990Y107855D02*
X248036Y107835D01*
X247943Y107875D02*
X247990Y107855D01*
X247897Y107896D02*
X247943Y107875D01*
X247851Y107916D02*
X247897Y107896D01*
X247804Y107937D02*
X247851Y107916D01*
X247758Y107957D02*
X247804Y107937D01*
X247712Y107978D02*
X247758Y107957D01*
X247666Y107999D02*
X247712Y107978D01*
X247620Y108020D02*
X247666Y107999D01*
X247574Y108042D02*
X247620Y108020D01*
X247528Y108063D02*
X247574Y108042D01*
X247482Y108084D02*
X247528Y108063D01*
X247437Y108106D02*
X247482Y108084D01*
X247391Y108128D02*
X247437Y108106D01*
X247345Y108150D02*
X247391Y108128D01*
X247300Y108172D02*
X247345Y108150D01*
X247254Y108194D02*
X247300Y108172D01*
X247209Y108216D02*
X247254Y108194D01*
X247163Y108239D02*
X247209Y108216D01*
X247118Y108261D02*
X247163Y108239D01*
X247073Y108284D02*
X247118Y108261D01*
X247028Y108307D02*
X247073Y108284D01*
X246983Y108330D02*
X247028Y108307D01*
X246938Y108353D02*
X246983Y108330D01*
X246893Y108376D02*
X246938Y108353D01*
X246848Y108399D02*
X246893Y108376D01*
X246803Y108423D02*
X246848Y108399D01*
X246758Y108446D02*
X246803Y108423D01*
X246713Y108470D02*
X246758Y108446D01*
X246669Y108494D02*
X246713Y108470D01*
X246624Y108518D02*
X246669Y108494D01*
X246579Y108541D02*
X246624Y108518D01*
X246535Y108566D02*
X246579Y108541D01*
X246491Y108590D02*
X246535Y108566D01*
X246446Y108614D02*
X246491Y108590D01*
X246402Y108638D02*
X246446Y108614D01*
X246358Y108663D02*
X246402Y108638D01*
X246314Y108687D02*
X246358Y108663D01*
X246270Y108712D02*
X246314Y108687D01*
X246225Y108736D02*
X246270Y108712D01*
X246181Y108761D02*
X246225Y108736D01*
X246137Y108786D02*
X246181Y108761D01*
X246093Y108811D02*
X246137Y108786D01*
X246049Y108836D02*
X246093Y108811D01*
X246005Y108862D02*
X246049Y108836D01*
X245961Y108887D02*
X246005Y108862D01*
X245916Y108913D02*
X245961Y108887D01*
X245872Y108938D02*
X245916Y108913D01*
X245828Y108964D02*
X245872Y108938D01*
X245784Y108990D02*
X245828Y108964D01*
X245740Y109016D02*
X245784Y108990D01*
X245697Y109042D02*
X245740Y109016D01*
X245653Y109068D02*
X245697Y109042D01*
X245609Y109095D02*
X245653Y109068D01*
X245565Y109121D02*
X245609Y109095D01*
X245521Y109148D02*
X245565Y109121D01*
X245478Y109175D02*
X245521Y109148D01*
X245434Y109202D02*
X245478Y109175D01*
X245391Y109229D02*
X245434Y109202D01*
X245347Y109256D02*
X245391Y109229D01*
X245304Y109283D02*
X245347Y109256D01*
X245261Y109311D02*
X245304Y109283D01*
X245217Y109338D02*
X245261Y109311D01*
X245174Y109366D02*
X245217Y109338D01*
X245131Y109394D02*
X245174Y109366D01*
X245089Y109422D02*
X245131Y109394D01*
X245046Y109450D02*
X245089Y109422D01*
X245003Y109479D02*
X245046Y109450D01*
X244961Y109507D02*
X245003Y109479D01*
X244918Y109536D02*
X244961Y109507D01*
X244876Y109565D02*
X244918Y109536D01*
X244834Y109594D02*
X244876Y109565D01*
X244792Y109623D02*
X244834Y109594D01*
X244750Y109652D02*
X244792Y109623D01*
X244708Y109682D02*
X244750Y109652D01*
X244666Y109711D02*
X244708Y109682D01*
X244625Y109741D02*
X244666Y109711D01*
X244583Y109771D02*
X244625Y109741D01*
X244542Y109801D02*
X244583Y109771D01*
X244501Y109831D02*
X244542Y109801D01*
X244460Y109862D02*
X244501Y109831D01*
X244419Y109892D02*
X244460Y109862D01*
X244379Y109923D02*
X244419Y109892D01*
X244338Y109954D02*
X244379Y109923D01*
X244298Y109985D02*
X244338Y109954D01*
X244258Y110016D02*
X244298Y109985D01*
X244218Y110048D02*
X244258Y110016D01*
X244179Y110079D02*
X244218Y110048D01*
X244139Y110111D02*
X244179Y110079D01*
X244100Y110143D02*
X244139Y110111D01*
X244061Y110175D02*
X244100Y110143D01*
X244022Y110208D02*
X244061Y110175D01*
X243983Y110240D02*
X244022Y110208D01*
X243944Y110273D02*
X243983Y110240D01*
X243906Y110306D02*
X243944Y110273D01*
X243880Y110261D02*
X243906Y110306D01*
X243853Y110218D02*
X243880Y110261D01*
X243825Y110174D02*
X243853Y110218D01*
X243796Y110132D02*
X243825Y110174D01*
X243767Y110089D02*
X243796Y110132D01*
X243738Y110047D02*
X243767Y110089D01*
X243708Y110005D02*
X243738Y110047D01*
X243678Y109963D02*
X243708Y110005D01*
X243648Y109922D02*
X243678Y109963D01*
X243618Y109880D02*
X243648Y109922D01*
X243588Y109838D02*
X243618Y109880D01*
X243559Y109796D02*
X243588Y109838D01*
X243530Y109754D02*
X243559Y109796D01*
X243501Y109711D02*
X243530Y109754D01*
X243473Y109668D02*
X243501Y109711D01*
X243446Y109624D02*
X243473Y109668D01*
X243420Y109580D02*
X243446Y109624D01*
X243395Y109535D02*
X243420Y109580D01*
X243370Y109489D02*
X243395Y109535D01*
X243347Y109442D02*
X243370Y109489D01*
X243246Y109442D02*
X243347D01*
X243230Y109490D02*
X243246Y109442D01*
X243214Y109539D02*
X243230Y109490D01*
X243198Y109587D02*
X243214Y109539D01*
X243182Y109635D02*
X243198Y109587D01*
X243166Y109683D02*
X243182Y109635D01*
X243150Y109731D02*
X243166Y109683D01*
X243133Y109779D02*
X243150Y109731D01*
X243116Y109827D02*
X243133Y109779D01*
X243100Y109875D02*
X243116Y109827D01*
X243083Y109924D02*
X243100Y109875D01*
X243066Y109972D02*
X243083Y109924D01*
X243049Y110020D02*
X243066Y109972D01*
X243032Y110068D02*
X243049Y110020D01*
X243015Y110116D02*
X243032Y110068D01*
X242998Y110164D02*
X243015Y110116D01*
X242980Y110213D02*
X242998Y110164D01*
X242963Y110261D02*
X242980Y110213D01*
X242946Y110309D02*
X242963Y110261D01*
X242929Y110357D02*
X242946Y110309D01*
X242911Y110406D02*
X242929Y110357D01*
X242894Y110454D02*
X242911Y110406D01*
X242876Y110502D02*
X242894Y110454D01*
X242859Y110550D02*
X242876Y110502D01*
X242841Y110599D02*
X242859Y110550D01*
X242824Y110647D02*
X242841Y110599D01*
X242807Y110695D02*
X242824Y110647D01*
X242789Y110744D02*
X242807Y110695D01*
X242772Y110792D02*
X242789Y110744D01*
X242754Y110840D02*
X242772Y110792D01*
X242737Y110889D02*
X242754Y110840D01*
X242720Y110937D02*
X242737Y110889D01*
X242703Y110985D02*
X242720Y110937D01*
X242685Y111034D02*
X242703Y110985D01*
X242668Y111082D02*
X242685Y111034D01*
X242651Y111131D02*
X242668Y111082D01*
X242634Y111179D02*
X242651Y111131D01*
X242617Y111228D02*
X242634Y111179D01*
X242600Y111276D02*
X242617Y111228D01*
X242584Y111325D02*
X242600Y111276D01*
X242567Y111373D02*
X242584Y111325D01*
X242551Y111422D02*
X242567Y111373D01*
X242534Y111471D02*
X242551Y111422D01*
X242518Y111519D02*
X242534Y111471D01*
X242502Y111568D02*
X242518Y111519D01*
X242486Y111616D02*
X242502Y111568D01*
X242470Y111665D02*
X242486Y111616D01*
X242454Y111714D02*
X242470Y111665D01*
X242439Y111763D02*
X242454Y111714D01*
X242423Y111811D02*
X242439Y111763D01*
X242408Y111860D02*
X242423Y111811D01*
X242393Y111909D02*
X242408Y111860D01*
X242378Y111958D02*
X242393Y111909D01*
X242363Y112007D02*
X242378Y111958D01*
X242348Y112056D02*
X242363Y112007D01*
X242334Y112104D02*
X242348Y112056D01*
X242320Y112153D02*
X242334Y112104D01*
X242306Y112202D02*
X242320Y112153D01*
X242292Y112251D02*
X242306Y112202D01*
X242279Y112300D02*
X242292Y112251D01*
X242265Y112349D02*
X242279Y112300D01*
X242252Y112399D02*
X242265Y112349D01*
X242239Y112448D02*
X242252Y112399D01*
X242227Y112497D02*
X242239Y112448D01*
X242215Y112546D02*
X242227Y112497D01*
X242202Y112595D02*
X242215Y112546D01*
X242191Y112644D02*
X242202Y112595D01*
X242179Y112694D02*
X242191Y112644D01*
X256759Y120466D02*
X260975D01*
Y119145D02*
Y120466D01*
X256759Y119145D02*
X260975D01*
X256759D02*
Y120466D01*
X245684Y121888D02*
X247056D01*
Y120466D02*
Y121888D01*
Y120466D02*
X248478D01*
Y119145D02*
Y120466D01*
X247056Y119145D02*
X248478D01*
X247056Y117723D02*
Y119145D01*
X245684Y117723D02*
X247056D01*
X245684D02*
Y119145D01*
X244262D02*
X245684D01*
X244262D02*
Y120466D01*
X245684D01*
Y121888D01*
X240604Y122337D02*
X240604Y122295D01*
X240603Y122379D02*
X240604Y122337D01*
X240602Y122422D02*
X240603Y122379D01*
X240601Y122466D02*
X240602Y122422D01*
X240600Y122510D02*
X240601Y122466D01*
X240598Y122556D02*
X240600Y122510D01*
X240596Y122601D02*
X240598Y122556D01*
X240593Y122647D02*
X240596Y122601D01*
X240591Y122694D02*
X240593Y122647D01*
X240588Y122741D02*
X240591Y122694D01*
X240585Y122789D02*
X240588Y122741D01*
X240583Y122837D02*
X240585Y122789D01*
X240580Y122886D02*
X240583Y122837D01*
X240577Y122934D02*
X240580Y122886D01*
X240574Y122983D02*
X240577Y122934D01*
X240571Y123033D02*
X240574Y122983D01*
X240569Y123083D02*
X240571Y123033D01*
X240566Y123132D02*
X240569Y123083D01*
X240564Y123183D02*
X240566Y123132D01*
X240562Y123233D02*
X240564Y123183D01*
X240560Y123283D02*
X240562Y123233D01*
X240558Y123334D02*
X240560Y123283D01*
X240557Y123385D02*
X240558Y123334D01*
X240555Y123435D02*
X240557Y123385D01*
X240555Y123486D02*
X240555Y123435D01*
X240554Y123537D02*
X240555Y123486D01*
X240554Y123537D02*
X240554Y123588D01*
X240555Y123638D01*
X240556Y123689D01*
X240557Y123739D01*
X240559Y123789D01*
X240562Y123840D01*
X240565Y123889D01*
X240569Y123939D01*
X240573Y123988D01*
X240578Y124037D01*
X240584Y124086D01*
X240591Y124134D01*
X240599Y124182D01*
X240607Y124230D01*
X240616Y124277D01*
X240626Y124323D01*
X240637Y124369D01*
X240649Y124415D01*
X240662Y124460D01*
X240676Y124504D01*
X240691Y124548D01*
X240707Y124591D01*
X240725Y124633D01*
X240743Y124675D01*
X240763Y124715D01*
X240784Y124755D01*
X240806Y124794D01*
X240829Y124833D01*
X240854Y124870D01*
X240880Y124907D01*
X240907Y124942D01*
X240936Y124977D01*
X240966Y125010D01*
X240998Y125043D01*
X241031Y125075D01*
X241066Y125105D01*
X241104Y125135D01*
X241142Y125164D01*
X241181Y125191D01*
X241220Y125216D01*
X241261Y125240D01*
X241302Y125263D01*
X241344Y125284D01*
X241387Y125304D01*
X241430Y125322D01*
X241473Y125339D01*
X241518Y125355D01*
X241562Y125370D01*
X241608Y125384D01*
X241653Y125396D01*
X241700Y125407D01*
X241747Y125418D01*
X241794Y125427D01*
X241841Y125436D01*
X241889Y125443D01*
X241937Y125450D01*
X241985Y125456D01*
X242034Y125461D01*
X242083Y125465D01*
X242132Y125468D01*
X242182Y125471D01*
X242232Y125473D01*
X242281Y125475D01*
X242331Y125476D01*
X242381Y125477D01*
X242431Y125477D01*
X242481Y125477D01*
X242531Y125476D01*
X242581Y125475D01*
X242631Y125473D01*
X242681Y125472D01*
X242731Y125470D01*
X242781Y125468D01*
X242830Y125466D01*
X242880Y125464D01*
X242929Y125462D01*
X242978Y125459D01*
X243026Y125457D01*
X243075Y125455D01*
X243123Y125453D01*
X243171Y125451D01*
X243218Y125449D01*
X243265Y125447D01*
X243312Y125446D01*
X243358Y125445D01*
X243404Y125445D01*
X243449Y125444D01*
X248173D01*
X249647D01*
X249695Y125445D01*
X249744Y125447D01*
X249794Y125449D01*
X249846Y125451D01*
X249898Y125454D01*
X249950Y125456D01*
X250002Y125458D01*
X250055Y125459D01*
X250107Y125459D01*
X250158Y125457D01*
X250209Y125453D01*
X250258Y125448D01*
X250306Y125439D01*
X250353Y125428D01*
X250388Y125416D01*
X250422Y125400D01*
X250456Y125379D01*
X250490Y125355D01*
X250522Y125327D01*
X250554Y125295D01*
X250585Y125261D01*
X250616Y125224D01*
X250646Y125184D01*
X250675Y125142D01*
X250704Y125098D01*
X250731Y125052D01*
X250758Y125005D01*
X250784Y124956D01*
X250810Y124907D01*
X250834Y124857D01*
X250858Y124807D01*
X250881Y124756D01*
X250903Y124706D01*
X250924Y124656D01*
X250944Y124608D01*
X250963Y124560D01*
X250981Y124513D01*
X250998Y124468D01*
X251015Y124425D01*
X251030Y124384D01*
X251044Y124345D01*
X251057Y124309D01*
X251069Y124276D01*
X244363D02*
X251069D01*
X242636D02*
X244363D01*
X242589Y124277D02*
X242636Y124276D01*
X242540Y124279D02*
X242589Y124277D01*
X242488Y124281D02*
X242540Y124279D01*
X242435Y124284D02*
X242488Y124281D01*
X242381Y124286D02*
X242435Y124284D01*
X242327Y124287D02*
X242381Y124286D01*
X242273Y124286D02*
X242327Y124287D01*
X242219Y124284D02*
X242273Y124286D01*
X242166Y124278D02*
X242219Y124284D01*
X242114Y124270D02*
X242166Y124278D01*
X242065Y124258D02*
X242114Y124270D01*
X242018Y124242D02*
X242065Y124258D01*
X241973Y124221D02*
X242018Y124242D01*
X241933Y124194D02*
X241973Y124221D01*
X241894Y124161D02*
X241933Y124194D01*
X241861Y124124D02*
X241894Y124161D01*
X241835Y124085D02*
X241861Y124124D01*
X241815Y124043D02*
X241835Y124085D01*
X241800Y124000D02*
X241815Y124043D01*
X241789Y123954D02*
X241800Y124000D01*
X241781Y123908D02*
X241789Y123954D01*
X241776Y123860D02*
X241781Y123908D01*
X241774Y123812D02*
X241776Y123860D01*
X241773Y123763D02*
X241774Y123812D01*
X241773Y123715D02*
X241773Y123763D01*
X241773Y123715D02*
X241773Y123666D01*
Y122447D02*
Y123666D01*
Y117367D02*
Y122447D01*
Y115996D02*
Y117367D01*
Y115996D02*
X241773Y115946D01*
X241773Y115897D01*
X241775Y115849D01*
X241778Y115800D01*
X241783Y115753D01*
X241791Y115707D01*
X241802Y115663D01*
X241818Y115620D01*
X241838Y115580D01*
X241864Y115542D01*
X241896Y115507D01*
X241934Y115475D01*
X241979Y115446D01*
X242022Y115425D01*
X242068Y115408D01*
X242116Y115396D01*
X242166Y115386D01*
X242217Y115379D01*
X242270Y115375D01*
X242323Y115373D01*
X242377Y115373D01*
X242432Y115374D01*
X242485Y115376D01*
X242538Y115379D01*
X242591Y115381D01*
X242642Y115384D01*
X242691Y115385D01*
X242738Y115386D01*
X244363D01*
X250409D01*
X252288D01*
X252332Y115387D01*
X252379Y115389D01*
X252428Y115392D01*
X252480Y115395D01*
X252533Y115399D01*
X252587Y115401D01*
X252642Y115403D01*
X252696Y115404D01*
X252750Y115403D01*
X252803Y115400D01*
X252854Y115393D01*
X252903Y115384D01*
X252949Y115372D01*
X252992Y115355D01*
X253030Y115334D01*
X253072Y115302D01*
X253109Y115263D01*
X253141Y115220D01*
X253170Y115173D01*
X253196Y115124D01*
X253220Y115075D01*
X253243Y115026D01*
X253267Y114980D01*
X253292Y114932D01*
X253317Y114885D01*
X253342Y114837D01*
X253368Y114790D01*
X253394Y114743D01*
X253420Y114697D01*
X253446Y114650D01*
X253471Y114603D01*
X253497Y114556D01*
X253522Y114508D01*
X253546Y114461D01*
X253570Y114413D01*
X253594Y114365D01*
X253617Y114316D01*
X253639Y114267D01*
X253660Y114218D01*
X244567D02*
X253660D01*
X242585D02*
X244567D01*
X242533Y114218D02*
X242585Y114218D01*
X242482Y114217D02*
X242533Y114218D01*
X242430Y114217D02*
X242482Y114217D01*
X242379Y114217D02*
X242430Y114217D01*
X242328Y114217D02*
X242379Y114217D01*
X242277Y114218D02*
X242328Y114217D01*
X242226Y114219D02*
X242277Y114218D01*
X242176Y114220D02*
X242226Y114219D01*
X242126Y114221D02*
X242176Y114220D01*
X242076Y114224D02*
X242126Y114221D01*
X242027Y114227D02*
X242076Y114224D01*
X241977Y114230D02*
X242027Y114227D01*
X241928Y114235D02*
X241977Y114230D01*
X241880Y114240D02*
X241928Y114235D01*
X241831Y114247D02*
X241880Y114240D01*
X241784Y114254D02*
X241831Y114247D01*
X241736Y114263D02*
X241784Y114254D01*
X241688Y114272D02*
X241736Y114263D01*
X241641Y114283D02*
X241688Y114272D01*
X241595Y114296D02*
X241641Y114283D01*
X241548Y114310D02*
X241595Y114296D01*
X241502Y114326D02*
X241548Y114310D01*
X241457Y114343D02*
X241502Y114326D01*
X241411Y114361D02*
X241457Y114343D01*
X241366Y114382D02*
X241411Y114361D01*
X241322Y114405D02*
X241366Y114382D01*
X241277Y114429D02*
X241322Y114405D01*
X241234Y114456D02*
X241277Y114429D01*
X241190Y114485D02*
X241234Y114456D01*
X241147Y114515D02*
X241190Y114485D01*
X241105Y114549D02*
X241147Y114515D01*
X241062Y114584D02*
X241105Y114549D01*
X241028Y114615D02*
X241062Y114584D01*
X240995Y114648D02*
X241028Y114615D01*
X240963Y114681D02*
X240995Y114648D01*
X240933Y114716D02*
X240963Y114681D01*
X240905Y114751D02*
X240933Y114716D01*
X240877Y114787D02*
X240905Y114751D01*
X240851Y114824D02*
X240877Y114787D01*
X240827Y114863D02*
X240851Y114824D01*
X240804Y114902D02*
X240827Y114863D01*
X240782Y114941D02*
X240804Y114902D01*
X240761Y114982D02*
X240782Y114941D01*
X240742Y115023D02*
X240761Y114982D01*
X240723Y115065D02*
X240742Y115023D01*
X240706Y115108D02*
X240723Y115065D01*
X240690Y115151D02*
X240706Y115108D01*
X240676Y115195D02*
X240690Y115151D01*
X240662Y115240D02*
X240676Y115195D01*
X240649Y115285D02*
X240662Y115240D01*
X240637Y115331D02*
X240649Y115285D01*
X240626Y115377D02*
X240637Y115331D01*
X240616Y115424D02*
X240626Y115377D01*
X240607Y115471D02*
X240616Y115424D01*
X240599Y115519D02*
X240607Y115471D01*
X240591Y115567D02*
X240599Y115519D01*
X240585Y115616D02*
X240591Y115567D01*
X240579Y115665D02*
X240585Y115616D01*
X240574Y115714D02*
X240579Y115665D01*
X240569Y115763D02*
X240574Y115714D01*
X240565Y115813D02*
X240569Y115763D01*
X240562Y115863D02*
X240565Y115813D01*
X240560Y115913D02*
X240562Y115863D01*
X240558Y115964D02*
X240560Y115913D01*
X240556Y116014D02*
X240558Y115964D01*
X240555Y116065D02*
X240556Y116014D01*
X240555Y116116D02*
X240555Y116065D01*
X240555Y116167D02*
X240555Y116116D01*
X240555Y116167D02*
X240555Y116218D01*
X240556Y116269D01*
X240557Y116319D01*
X240558Y116370D01*
X240560Y116421D01*
X240562Y116472D01*
X240564Y116522D01*
X240567Y116573D01*
X240569Y116623D01*
X240572Y116672D01*
X240575Y116722D01*
X240577Y116772D01*
X240580Y116821D01*
X240583Y116869D01*
X240586Y116918D01*
X240588Y116966D01*
X240591Y117014D01*
X240593Y117061D01*
X240596Y117107D01*
X240598Y117153D01*
X240600Y117199D01*
X240601Y117244D01*
X240602Y117289D01*
X240603Y117332D01*
X240604Y117375D01*
X240604Y117418D01*
X239436D02*
X240604D01*
X239436D02*
Y122295D01*
X240604D01*
X251933Y125444D02*
X261178D01*
X262804D01*
X262855Y125444D01*
X262905Y125444D01*
X262956Y125444D01*
X263006Y125444D01*
X263055Y125444D01*
X263105Y125444D01*
X263154Y125443D01*
X263202Y125442D01*
X263251Y125440D01*
X263298Y125438D01*
X263346Y125436D01*
X263393Y125433D01*
X263440Y125429D01*
X263486Y125424D01*
X263532Y125419D01*
X263578Y125413D01*
X263623Y125405D01*
X263668Y125397D01*
X263713Y125388D01*
X263757Y125378D01*
X263800Y125366D01*
X263843Y125353D01*
X263886Y125339D01*
X263928Y125324D01*
X263970Y125307D01*
X264011Y125289D01*
X264052Y125269D01*
X264093Y125247D01*
X264132Y125224D01*
X264172Y125199D01*
X264211Y125173D01*
X264249Y125144D01*
X264287Y125113D01*
X264325Y125081D01*
X264362Y125046D01*
X264398Y125009D01*
X264434Y124970D01*
X264469Y124929D01*
X264504Y124885D01*
X264534Y124844D01*
X264563Y124802D01*
X264589Y124759D01*
X264613Y124716D01*
X264636Y124672D01*
X264656Y124627D01*
X264675Y124582D01*
X264692Y124536D01*
X264708Y124490D01*
X264722Y124443D01*
X264734Y124396D01*
X264745Y124348D01*
X264755Y124300D01*
X264764Y124252D01*
X264771Y124203D01*
X264777Y124154D01*
X264782Y124105D01*
X264787Y124056D01*
X264790Y124006D01*
X264793Y123956D01*
X264794Y123906D01*
X264796Y123856D01*
X264796Y123805D01*
X264796Y123755D01*
X264796Y123705D02*
X264796Y123755D01*
X264795Y123654D02*
X264796Y123705D01*
X264794Y123604D02*
X264795Y123654D01*
X264793Y123554D02*
X264794Y123604D01*
X264792Y123504D02*
X264793Y123554D01*
X264790Y123454D02*
X264792Y123504D01*
X264789Y123404D02*
X264790Y123454D01*
X264788Y123354D02*
X264789Y123404D01*
X264787Y123305D02*
X264788Y123354D01*
X264786Y123256D02*
X264787Y123305D01*
X264785Y123207D02*
X264786Y123256D01*
X264785Y123158D02*
X264785Y123207D01*
X264785Y119399D02*
Y123158D01*
Y116250D02*
Y119399D01*
Y116250D02*
X264785Y116200D01*
X264785Y116151D01*
X264785Y116102D01*
X264786Y116053D01*
X264786Y116004D01*
X264785Y115955D02*
X264786Y116004D01*
X264785Y115906D02*
X264785Y115955D01*
X264784Y115857D02*
X264785Y115906D01*
X264783Y115808D02*
X264784Y115857D01*
X264782Y115760D02*
X264783Y115808D01*
X264780Y115712D02*
X264782Y115760D01*
X264777Y115664D02*
X264780Y115712D01*
X264774Y115617D02*
X264777Y115664D01*
X264770Y115569D02*
X264774Y115617D01*
X264765Y115522D02*
X264770Y115569D01*
X264759Y115475D02*
X264765Y115522D01*
X264753Y115428D02*
X264759Y115475D01*
X264745Y115382D02*
X264753Y115428D01*
X264736Y115336D02*
X264745Y115382D01*
X264727Y115291D02*
X264736Y115336D01*
X264716Y115246D02*
X264727Y115291D01*
X264704Y115201D02*
X264716Y115246D01*
X264690Y115157D02*
X264704Y115201D01*
X264675Y115113D02*
X264690Y115157D01*
X264659Y115069D02*
X264675Y115113D01*
X264641Y115026D02*
X264659Y115069D01*
X264621Y114984D02*
X264641Y115026D01*
X264600Y114942D02*
X264621Y114984D01*
X264577Y114901D02*
X264600Y114942D01*
X264552Y114860D02*
X264577Y114901D01*
X264526Y114819D02*
X264552Y114860D01*
X264497Y114779D02*
X264526Y114819D01*
X264467Y114740D02*
X264497Y114779D01*
X264434Y114702D02*
X264467Y114740D01*
X264399Y114664D02*
X264434Y114702D01*
X264362Y114627D02*
X264399Y114664D01*
X264323Y114590D02*
X264362Y114627D01*
X264286Y114558D02*
X264323Y114590D01*
X264248Y114528D02*
X264286Y114558D01*
X264209Y114499D02*
X264248Y114528D01*
X264170Y114472D02*
X264209Y114499D01*
X264130Y114446D02*
X264170Y114472D01*
X264089Y114422D02*
X264130Y114446D01*
X264047Y114400D02*
X264089Y114422D01*
X264005Y114379D02*
X264047Y114400D01*
X263962Y114359D02*
X264005Y114379D01*
X263919Y114341D02*
X263962Y114359D01*
X263875Y114324D02*
X263919Y114341D01*
X263830Y114308D02*
X263875Y114324D01*
X263785Y114293D02*
X263830Y114308D01*
X263739Y114280D02*
X263785Y114293D01*
X263693Y114268D02*
X263739Y114280D01*
X263646Y114256D02*
X263693Y114268D01*
X263599Y114246D02*
X263646Y114256D01*
X263552Y114237D02*
X263599Y114246D01*
X263504Y114229D02*
X263552Y114237D01*
X263456Y114222D02*
X263504Y114229D01*
X263408Y114216D02*
X263456Y114222D01*
X263359Y114210D02*
X263408Y114216D01*
X263310Y114205D02*
X263359Y114210D01*
X263261Y114201D02*
X263310Y114205D01*
X263211Y114198D02*
X263261Y114201D01*
X263162Y114195D02*
X263211Y114198D01*
X263112Y114193D02*
X263162Y114195D01*
X263062Y114192D02*
X263112Y114193D01*
X263012Y114191D02*
X263062Y114192D01*
X262962Y114191D02*
X263012Y114191D01*
X262912Y114191D02*
X262962Y114191D01*
X262862Y114191D02*
X262912Y114191D01*
X262812Y114192D02*
X262862Y114191D01*
X262762Y114193D02*
X262812Y114192D01*
X262712Y114194D02*
X262762Y114193D01*
X262663Y114196D02*
X262712Y114194D01*
X262613Y114198D02*
X262663Y114196D01*
X262563Y114200D02*
X262613Y114198D01*
X262514Y114202D02*
X262563Y114200D01*
X262465Y114204D02*
X262514Y114202D01*
X262416Y114206D02*
X262465Y114204D01*
X262367Y114208D02*
X262416Y114206D01*
X262319Y114210D02*
X262367Y114208D01*
X262271Y114212D02*
X262319Y114210D01*
X262223Y114213D02*
X262271Y114212D01*
X262176Y114215D02*
X262223Y114213D01*
X262129Y114216D02*
X262176Y114215D01*
X262083Y114217D02*
X262129Y114216D01*
X262037Y114217D02*
X262083Y114217D01*
X261991Y114218D02*
X262037Y114217D01*
X257317Y114218D02*
X261991D01*
X255895D02*
X257317D01*
X255847Y114217D02*
X255895Y114218D01*
X255798Y114215D02*
X255847Y114217D01*
X255748Y114213D02*
X255798Y114215D01*
X255696Y114210D02*
X255748Y114213D01*
X255644Y114208D02*
X255696Y114210D01*
X255592Y114205D02*
X255644Y114208D01*
X255540Y114203D02*
X255592Y114205D01*
X255487Y114202D02*
X255540Y114203D01*
X255435Y114203D02*
X255487Y114202D01*
X255384Y114205D02*
X255435Y114203D01*
X255333Y114208D02*
X255384Y114205D01*
X255284Y114214D02*
X255333Y114208D01*
X255236Y114222D02*
X255284Y114214D01*
X255189Y114234D02*
X255236Y114222D01*
X255138Y114253D02*
X255189Y114234D01*
X255094Y114279D02*
X255138Y114253D01*
X255056Y114311D02*
X255094Y114279D01*
X255021Y114348D02*
X255056Y114311D01*
X254991Y114390D02*
X255021Y114348D01*
X254964Y114434D02*
X254991Y114390D01*
X254939Y114480D02*
X254964Y114434D01*
X254915Y114527D02*
X254939Y114480D01*
X254892Y114573D02*
X254915Y114527D01*
X254868Y114620D02*
X254892Y114573D01*
X254844Y114666D02*
X254868Y114620D01*
X254819Y114713D02*
X254844Y114666D01*
X254795Y114760D02*
X254819Y114713D01*
X254771Y114807D02*
X254795Y114760D01*
X254747Y114853D02*
X254771Y114807D01*
X254723Y114901D02*
X254747Y114853D01*
X254699Y114948D02*
X254723Y114901D01*
X254677Y114995D02*
X254699Y114948D01*
X254654Y115043D02*
X254677Y114995D01*
X254633Y115091D02*
X254654Y115043D01*
X254612Y115139D02*
X254633Y115091D01*
X254592Y115188D02*
X254612Y115139D01*
X254573Y115237D02*
X254592Y115188D01*
X254555Y115286D02*
X254573Y115237D01*
X254539Y115336D02*
X254555Y115286D01*
X254523Y115386D02*
X254539Y115336D01*
X254523Y115386D02*
X260975D01*
X262651D01*
X262697Y115385D01*
X262745Y115383D01*
X262795Y115381D01*
X262847Y115378D01*
X262900Y115375D01*
X262954Y115372D01*
X263009Y115371D01*
X263063D01*
X263116Y115373D01*
X263169Y115377D01*
X263220Y115384D01*
X263270Y115394D01*
X263317Y115407D01*
X263361Y115424D01*
X263402Y115446D01*
X263445Y115477D01*
X263479Y115514D01*
X263507Y115554D01*
X263528Y115598D01*
X263543Y115644D01*
X263553Y115693D01*
X263560Y115743D01*
X263564Y115794D01*
X263565Y115845D01*
X263566Y115895D01*
X263566Y115945D01*
X263566Y115996D01*
X263566Y116046D01*
X263566Y116097D01*
X263567Y116148D01*
X263567Y116199D01*
X263567Y116250D01*
X263567Y116300D01*
X263567Y116351D01*
X263567Y116402D02*
X263567Y116351D01*
X263567Y116453D02*
X263567Y116402D01*
X263567Y116504D02*
X263567Y116453D01*
X263567Y116554D02*
X263567Y116504D01*
X263567Y116605D02*
X263567Y116554D01*
X263566Y116656D02*
X263567Y116605D01*
X263566Y116707D02*
X263566Y116656D01*
X263566Y116758D02*
X263566Y116707D01*
X263566Y116808D02*
X263566Y116758D01*
X263566Y116859D02*
X263566Y116808D01*
X263566Y116910D02*
X263566Y116859D01*
X263566Y116961D02*
X263566Y116910D01*
X263566Y117012D02*
X263566Y116961D01*
X263566Y117062D02*
X263566Y117012D01*
X263566Y117113D02*
X263566Y117062D01*
X263566Y117164D02*
X263566Y117113D01*
X263566Y117164D02*
Y122346D01*
Y123717D01*
X263566Y123767D01*
X263566Y123818D01*
X263566Y123870D02*
X263566Y123818D01*
X263563Y123922D02*
X263566Y123870D01*
X263557Y123973D02*
X263563Y123922D01*
X263547Y124023D02*
X263557Y123973D01*
X263533Y124070D02*
X263547Y124023D01*
X263512Y124115D02*
X263533Y124070D01*
X263485Y124156D02*
X263512Y124115D01*
X263450Y124192D02*
X263485Y124156D01*
X263406Y124224D02*
X263450Y124192D01*
X263365Y124245D02*
X263406Y124224D01*
X263320Y124261D02*
X263365Y124245D01*
X263272Y124273D02*
X263320Y124261D01*
X263222Y124282D02*
X263272Y124273D01*
X263170Y124287D02*
X263222Y124282D01*
X263116Y124290D02*
X263170Y124287D01*
X263062Y124291D02*
X263116Y124290D01*
X263008Y124290D02*
X263062Y124291D01*
X262953Y124288D02*
X263008Y124290D01*
X262900Y124285D02*
X262953Y124288D01*
X262847Y124282D02*
X262900Y124285D01*
X262796Y124279D02*
X262847Y124282D01*
X262748Y124277D02*
X262796Y124279D01*
X262702Y124276D02*
X262748Y124277D01*
X261077Y124276D02*
X262702D01*
X255031D02*
X261077D01*
X253253D02*
X255031D01*
X253211Y124275D02*
X253253Y124276D01*
X253166Y124273D02*
X253211Y124275D01*
X253117Y124270D02*
X253166Y124273D01*
X253066Y124266D02*
X253117Y124270D01*
X253013Y124263D02*
X253066Y124266D01*
X252960Y124260D02*
X253013Y124263D01*
X252905Y124258D02*
X252960Y124260D01*
X252851Y124257D02*
X252905Y124258D01*
X252797Y124258D02*
X252851Y124257D01*
X252745Y124261D02*
X252797Y124258D01*
X252694Y124267D02*
X252745Y124261D01*
X252647Y124277D02*
X252694Y124267D01*
X252602Y124290D02*
X252647Y124277D01*
X252561Y124307D02*
X252602Y124290D01*
X252524Y124328D02*
X252561Y124307D01*
X252485Y124361D02*
X252524Y124328D01*
X252451Y124401D02*
X252485Y124361D01*
X252421Y124445D02*
X252451Y124401D01*
X252395Y124491D02*
X252421Y124445D01*
X252370Y124539D02*
X252395Y124491D01*
X252347Y124586D02*
X252370Y124539D01*
X252323Y124632D02*
X252347Y124586D01*
X252298Y124678D02*
X252323Y124632D01*
X252272Y124725D02*
X252298Y124678D01*
X252246Y124771D02*
X252272Y124725D01*
X252220Y124818D02*
X252246Y124771D01*
X252194Y124864D02*
X252220Y124818D01*
X252168Y124911D02*
X252194Y124864D01*
X252142Y124958D02*
X252168Y124911D01*
X252118Y125004D02*
X252142Y124958D01*
X252093Y125051D02*
X252118Y125004D01*
X252069Y125099D02*
X252093Y125051D01*
X252047Y125147D02*
X252069Y125099D01*
X252025Y125195D02*
X252047Y125147D01*
X252004Y125244D02*
X252025Y125195D01*
X251984Y125293D02*
X252004Y125244D01*
X251966Y125343D02*
X251984Y125293D01*
X251948Y125393D02*
X251966Y125343D01*
X251933Y125444D02*
X251948Y125393D01*
X250256Y126664D02*
X250301Y126666D01*
X250349Y126671D01*
X250399Y126678D01*
X250451Y126686D01*
X250503Y126693D01*
X250556Y126700D01*
X250608Y126704D01*
X250659Y126705D01*
X250707Y126703D01*
X250753Y126695D01*
X250795Y126682D01*
X250834Y126661D01*
X250870Y126633D01*
X250902Y126599D01*
X250932Y126561D01*
X250960Y126518D01*
X250985Y126473D01*
X251008Y126426D01*
X251030Y126379D01*
X251051Y126332D01*
X251070Y126287D01*
X251089Y126245D01*
X251107Y126206D01*
X251131Y126159D01*
X251155Y126112D01*
X251179Y126065D01*
X251203Y126018D01*
X251227Y125972D01*
X251252Y125925D01*
X251276Y125878D01*
X251300Y125831D01*
X251325Y125785D01*
X251350Y125738D01*
X251374Y125692D01*
X251399Y125645D01*
X251424Y125598D01*
X251448Y125552D01*
X251473Y125505D01*
X251498Y125459D01*
X251522Y125412D01*
X251547Y125366D01*
X251572Y125319D01*
X251596Y125272D01*
X251621Y125225D01*
X251645Y125179D01*
X251669Y125132D01*
X251693Y125085D01*
X251717Y125038D01*
X251740Y124992D01*
X251764Y124946D01*
X251787Y124901D01*
X251810Y124855D01*
X251834Y124809D01*
X251857Y124763D01*
X251880Y124718D01*
X251904Y124672D01*
X251927Y124626D01*
X251950Y124580D01*
X251974Y124534D01*
X251997Y124489D01*
X252021Y124443D01*
X252044Y124397D01*
X252067Y124351D01*
X252091Y124306D01*
X252114Y124260D01*
X252138Y124214D01*
X252161Y124168D01*
X252185Y124122D01*
X252208Y124077D01*
X252232Y124031D01*
X252255Y123985D01*
X252279Y123940D01*
X252303Y123894D01*
X252326Y123848D01*
X252350Y123802D01*
X252373Y123757D01*
X252397Y123711D01*
X252421Y123665D01*
X252444Y123619D01*
X252468Y123574D01*
X252492Y123528D01*
X252515Y123482D01*
X252539Y123437D01*
X252563Y123391D01*
X252587Y123345D01*
X252610Y123300D01*
X252634Y123254D01*
X252658Y123208D01*
X252682Y123163D01*
X252706Y123117D01*
X252729Y123071D01*
X252753Y123026D01*
X252777Y122980D01*
X252801Y122935D01*
X252825Y122889D01*
X252849Y122844D01*
X252873Y122798D01*
X252897Y122752D01*
X252921Y122707D01*
X252945Y122661D01*
X252969Y122616D01*
X252993Y122570D01*
X253017Y122525D01*
X253041Y122479D01*
X253065Y122434D01*
X253089Y122388D01*
X253113Y122343D01*
X253137Y122297D01*
X253161Y122252D01*
X253185Y122207D01*
X253209Y122161D01*
X253234Y122116D01*
X253258Y122071D01*
X253282Y122025D01*
X253306Y121980D01*
X253330Y121934D01*
X253355Y121889D01*
X253379Y121844D01*
X253403Y121798D01*
X253428Y121753D01*
X253452Y121708D01*
X253476Y121663D01*
X253501Y121617D01*
X253525Y121572D01*
X253549Y121527D01*
X253574Y121482D01*
X253597Y121439D01*
X253621Y121396D01*
X253645Y121353D01*
X253669Y121310D01*
X253694Y121267D01*
X253718Y121224D01*
X253743Y121180D01*
X253769Y121136D01*
X253794Y121093D01*
X253820Y121049D01*
X253845Y121005D01*
X253871Y120961D01*
X253897Y120916D01*
X253923Y120872D01*
X253948Y120828D01*
X253974Y120783D01*
X254000Y120738D01*
X254026Y120694D01*
X254051Y120649D01*
X254077Y120604D01*
X254102Y120559D01*
X254127Y120513D01*
X254152Y120468D01*
X254177Y120423D01*
X254201Y120377D01*
X254225Y120332D01*
X254249Y120286D01*
X254272Y120241D01*
X254295Y120195D01*
X254317Y120149D01*
X254340Y120103D01*
X254361Y120057D01*
X254382Y120011D01*
X254403Y119965D01*
X254423Y119919D01*
X254443Y119873D01*
X254461Y119826D01*
X254480Y119780D01*
X254497Y119733D01*
X254514Y119687D01*
X254530Y119641D01*
X254546Y119594D01*
X254560Y119547D01*
X254574Y119501D01*
X251933D02*
X254574D01*
X251933D02*
X251958Y119457D01*
X251984Y119413D01*
X252009Y119368D01*
X252034Y119324D01*
X252060Y119280D01*
X252085Y119236D01*
X252110Y119191D01*
X252135Y119147D01*
X252160Y119102D01*
X252185Y119058D01*
X252209Y119013D01*
X252234Y118969D01*
X252258Y118924D01*
X252283Y118879D01*
X252307Y118835D01*
X252331Y118790D01*
X252356Y118745D01*
X252380Y118700D01*
X252404Y118655D01*
X252428Y118610D01*
X252452Y118565D01*
X252476Y118520D01*
X252500Y118475D01*
X252523Y118430D01*
X252547Y118385D01*
X252571Y118339D01*
X252594Y118294D01*
X252618Y118249D01*
X252641Y118203D01*
X252665Y118158D01*
X252688Y118113D01*
X252712Y118067D01*
X252735Y118022D01*
X252758Y117977D01*
X252781Y117931D01*
X252805Y117886D01*
X252828Y117840D01*
X252851Y117795D01*
X252874Y117749D01*
X252897Y117703D01*
X252920Y117658D01*
X252943Y117612D01*
X252966Y117567D01*
X252989Y117521D01*
X253012Y117475D01*
X253035Y117430D01*
X253058Y117384D01*
X253081Y117338D01*
X253104Y117293D01*
X253127Y117247D01*
X253150Y117201D01*
X253173Y117156D01*
X253195Y117110D01*
X253218Y117065D01*
X253241Y117019D01*
X253264Y116973D01*
X253287Y116928D01*
X253310Y116882D01*
X253333Y116836D01*
X253356Y116791D01*
X253379Y116745D01*
X253402Y116699D01*
X253425Y116654D01*
X253448Y116608D01*
X253471Y116563D01*
X253494Y116517D01*
X253517Y116471D01*
X253540Y116426D01*
X253563Y116380D01*
X253586Y116335D01*
X253609Y116289D01*
X253632Y116244D01*
X253656Y116199D01*
X253679Y116153D01*
X253702Y116108D01*
X253725Y116062D01*
X253749Y116017D01*
X253772Y115972D01*
X253796Y115926D01*
X253819Y115881D01*
X253843Y115836D01*
X253867Y115791D01*
X253890Y115746D01*
X253914Y115701D01*
X253938Y115655D01*
X253962Y115611D01*
X253986Y115566D01*
X254010Y115520D01*
X254034Y115476D01*
X254058Y115431D01*
X254082Y115386D01*
X254107Y115341D01*
X254131Y115295D01*
X254156Y115250D01*
X254180Y115204D01*
X254205Y115159D01*
X254229Y115113D01*
X254254Y115068D01*
X254278Y115022D01*
X254303Y114977D01*
X254327Y114931D01*
X254352Y114886D01*
X254376Y114840D01*
X254400Y114795D01*
X254425Y114749D01*
X254449Y114704D01*
X254473Y114658D01*
X254498Y114612D01*
X254522Y114567D01*
X254546Y114521D01*
X254570Y114475D01*
X254594Y114430D01*
X254619Y114384D01*
X254643Y114338D01*
X254667Y114292D01*
X254691Y114247D01*
X254715Y114201D01*
X254739Y114155D01*
X254762Y114109D01*
X254786Y114063D01*
X254810Y114017D01*
X254834Y113972D01*
X254857Y113926D01*
X254881Y113880D01*
X254904Y113834D01*
X254928Y113788D01*
X254951Y113742D01*
X254974Y113695D01*
X254998Y113649D01*
X255021Y113603D01*
X255044Y113557D01*
X255068Y113510D01*
X255092Y113463D01*
X255117Y113416D01*
X255143Y113369D01*
X255168Y113322D01*
X255194Y113275D01*
X255219Y113228D01*
X255245Y113181D01*
X255270Y113133D01*
X255294Y113086D01*
X255318Y113038D01*
X255341Y112990D01*
X255362Y112942D01*
X255383Y112893D01*
X255403Y112844D01*
X255421Y112794D01*
X255438Y112744D01*
X255392Y112744D02*
X255438Y112744D01*
X255344Y112741D02*
X255392Y112744D01*
X255293Y112739D02*
X255344Y112741D01*
X255241Y112736D02*
X255293Y112739D01*
X255188Y112734D02*
X255241Y112736D01*
X255135Y112733D02*
X255188Y112734D01*
X255082Y112735D02*
X255135Y112733D01*
X255031Y112739D02*
X255082Y112735D01*
X254981Y112747D02*
X255031Y112739D01*
X254933Y112759D02*
X254981Y112747D01*
X254889Y112775D02*
X254933Y112759D01*
X254848Y112796D02*
X254889Y112775D01*
X254810Y112825D02*
X254848Y112796D01*
X254776Y112858D02*
X254810Y112825D01*
X254744Y112896D02*
X254776Y112858D01*
X254715Y112937D02*
X254744Y112896D01*
X254688Y112982D02*
X254715Y112937D01*
X254663Y113028D02*
X254688Y112982D01*
X254640Y113075D02*
X254663Y113028D01*
X254618Y113123D02*
X254640Y113075D01*
X254597Y113171D02*
X254618Y113123D01*
X254576Y113217D02*
X254597Y113171D01*
X254556Y113262D02*
X254576Y113217D01*
X254536Y113303D02*
X254556Y113262D01*
X254512Y113350D02*
X254536Y113303D01*
X254488Y113396D02*
X254512Y113350D01*
X254464Y113443D02*
X254488Y113396D01*
X254440Y113489D02*
X254464Y113443D01*
X254415Y113536D02*
X254440Y113489D01*
X254391Y113582D02*
X254415Y113536D01*
X254366Y113628D02*
X254391Y113582D01*
X254342Y113674D02*
X254366Y113628D01*
X254317Y113721D02*
X254342Y113674D01*
X254293Y113767D02*
X254317Y113721D01*
X254268Y113813D02*
X254293Y113767D01*
X254244Y113859D02*
X254268Y113813D01*
X254219Y113905D02*
X254244Y113859D01*
X254194Y113952D02*
X254219Y113905D01*
X254170Y113998D02*
X254194Y113952D01*
X254145Y114044D02*
X254170Y113998D01*
X254121Y114090D02*
X254145Y114044D01*
X254097Y114137D02*
X254121Y114090D01*
X254072Y114183D02*
X254097Y114137D01*
X254048Y114230D02*
X254072Y114183D01*
X254025Y114277D02*
X254048Y114230D01*
X254001Y114323D02*
X254025Y114277D01*
X253977Y114370D02*
X254001Y114323D01*
X253954Y114416D02*
X253977Y114370D01*
X253931Y114462D02*
X253954Y114416D01*
X253908Y114508D02*
X253931Y114462D01*
X253885Y114553D02*
X253908Y114508D01*
X253862Y114599D02*
X253885Y114553D01*
X253839Y114645D02*
X253862Y114599D01*
X253816Y114691D02*
X253839Y114645D01*
X253792Y114737D02*
X253816Y114691D01*
X253769Y114783D02*
X253792Y114737D01*
X253746Y114829D02*
X253769Y114783D01*
X253723Y114874D02*
X253746Y114829D01*
X253699Y114920D02*
X253723Y114874D01*
X253676Y114966D02*
X253699Y114920D01*
X253653Y115012D02*
X253676Y114966D01*
X253629Y115058D02*
X253653Y115012D01*
X253606Y115103D02*
X253629Y115058D01*
X253583Y115149D02*
X253606Y115103D01*
X253559Y115195D02*
X253583Y115149D01*
X253536Y115241D02*
X253559Y115195D01*
X253512Y115287D02*
X253536Y115241D01*
X253489Y115332D02*
X253512Y115287D01*
X253465Y115378D02*
X253489Y115332D01*
X253442Y115424D02*
X253465Y115378D01*
X253418Y115470D02*
X253442Y115424D01*
X253395Y115515D02*
X253418Y115470D01*
X253371Y115561D02*
X253395Y115515D01*
X253347Y115607D02*
X253371Y115561D01*
X253324Y115653D02*
X253347Y115607D01*
X253300Y115698D02*
X253324Y115653D01*
X253277Y115744D02*
X253300Y115698D01*
X253253Y115790D02*
X253277Y115744D01*
X253229Y115836D02*
X253253Y115790D01*
X253205Y115881D02*
X253229Y115836D01*
X253182Y115927D02*
X253205Y115881D01*
X253158Y115972D02*
X253182Y115927D01*
X253134Y116018D02*
X253158Y115972D01*
X253110Y116064D02*
X253134Y116018D01*
X253086Y116110D02*
X253110Y116064D01*
X253062Y116155D02*
X253086Y116110D01*
X253039Y116201D02*
X253062Y116155D01*
X253015Y116246D02*
X253039Y116201D01*
X252991Y116292D02*
X253015Y116246D01*
X252967Y116337D02*
X252991Y116292D01*
X252943Y116383D02*
X252967Y116337D01*
X252919Y116429D02*
X252943Y116383D01*
X252895Y116474D02*
X252919Y116429D01*
X252871Y116520D02*
X252895Y116474D01*
X252847Y116565D02*
X252871Y116520D01*
X252823Y116611D02*
X252847Y116565D01*
X252799Y116656D02*
X252823Y116611D01*
X252775Y116702D02*
X252799Y116656D01*
X252751Y116747D02*
X252775Y116702D01*
X252727Y116793D02*
X252751Y116747D01*
X252703Y116838D02*
X252727Y116793D01*
X252679Y116884D02*
X252703Y116838D01*
X252654Y116929D02*
X252679Y116884D01*
X252630Y116975D02*
X252654Y116929D01*
X252606Y117020D02*
X252630Y116975D01*
X252582Y117066D02*
X252606Y117020D01*
X252558Y117111D02*
X252582Y117066D01*
X252534Y117156D02*
X252558Y117111D01*
X252509Y117202D02*
X252534Y117156D01*
X252485Y117247D02*
X252509Y117202D01*
X252461Y117292D02*
X252485Y117247D01*
X252437Y117338D02*
X252461Y117292D01*
X252412Y117383D02*
X252437Y117338D01*
X252388Y117429D02*
X252412Y117383D01*
X252364Y117474D02*
X252388Y117429D01*
X252339Y117519D02*
X252364Y117474D01*
X252315Y117564D02*
X252339Y117519D01*
X252291Y117610D02*
X252315Y117564D01*
X252266Y117655D02*
X252291Y117610D01*
X252242Y117700D02*
X252266Y117655D01*
X252218Y117745D02*
X252242Y117700D01*
X252193Y117790D02*
X252218Y117745D01*
X252169Y117836D02*
X252193Y117790D01*
X252145Y117881D02*
X252169Y117836D01*
X252120Y117926D02*
X252145Y117881D01*
X252097Y117969D02*
X252120Y117926D01*
X252073Y118012D02*
X252097Y117969D01*
X252049Y118055D02*
X252073Y118012D01*
X252025Y118098D02*
X252049Y118055D01*
X252001Y118141D02*
X252025Y118098D01*
X251976Y118184D02*
X252001Y118141D01*
X251951Y118228D02*
X251976Y118184D01*
X251926Y118272D02*
X251951Y118228D01*
X251900Y118315D02*
X251926Y118272D01*
X251875Y118359D02*
X251900Y118315D01*
X251849Y118403D02*
X251875Y118359D01*
X251823Y118447D02*
X251849Y118403D01*
X251797Y118492D02*
X251823Y118447D01*
X251772Y118536D02*
X251797Y118492D01*
X251746Y118580D02*
X251772Y118536D01*
X251720Y118625D02*
X251746Y118580D01*
X251694Y118670D02*
X251720Y118625D01*
X251668Y118714D02*
X251694Y118670D01*
X251643Y118759D02*
X251668Y118714D01*
X251617Y118804D02*
X251643Y118759D01*
X251592Y118849D02*
X251617Y118804D01*
X251567Y118895D02*
X251592Y118849D01*
X251542Y118940D02*
X251567Y118895D01*
X251518Y118985D02*
X251542Y118940D01*
X251493Y119031D02*
X251518Y118985D01*
X251469Y119076D02*
X251493Y119031D01*
X251446Y119122D02*
X251469Y119076D01*
X251422Y119167D02*
X251446Y119122D01*
X251399Y119213D02*
X251422Y119167D01*
X251377Y119259D02*
X251399Y119213D01*
X251355Y119305D02*
X251377Y119259D01*
X251333Y119351D02*
X251355Y119305D01*
X251312Y119397D02*
X251333Y119351D01*
X251291Y119443D02*
X251312Y119397D01*
X251271Y119489D02*
X251291Y119443D01*
X251252Y119535D02*
X251271Y119489D01*
X251233Y119582D02*
X251252Y119535D01*
X251214Y119628D02*
X251233Y119582D01*
X251197Y119674D02*
X251214Y119628D01*
X251180Y119721D02*
X251197Y119674D01*
X251164Y119767D02*
X251180Y119721D01*
X251148Y119814D02*
X251164Y119767D01*
X251134Y119860D02*
X251148Y119814D01*
X251120Y119907D02*
X251134Y119860D01*
X251120Y119907D02*
X253761D01*
X253738Y119952D02*
X253761Y119907D01*
X253714Y119998D02*
X253738Y119952D01*
X253690Y120043D02*
X253714Y119998D01*
X253666Y120088D02*
X253690Y120043D01*
X253643Y120133D02*
X253666Y120088D01*
X253619Y120179D02*
X253643Y120133D01*
X253595Y120224D02*
X253619Y120179D01*
X253572Y120269D02*
X253595Y120224D01*
X253548Y120315D02*
X253572Y120269D01*
X253524Y120360D02*
X253548Y120315D01*
X253501Y120406D02*
X253524Y120360D01*
X253477Y120451D02*
X253501Y120406D01*
X253454Y120496D02*
X253477Y120451D01*
X253430Y120542D02*
X253454Y120496D01*
X253406Y120587D02*
X253430Y120542D01*
X253383Y120632D02*
X253406Y120587D01*
X253359Y120678D02*
X253383Y120632D01*
X253336Y120723D02*
X253359Y120678D01*
X253312Y120769D02*
X253336Y120723D01*
X253289Y120814D02*
X253312Y120769D01*
X253265Y120859D02*
X253289Y120814D01*
X253242Y120905D02*
X253265Y120859D01*
X253218Y120950D02*
X253242Y120905D01*
X253195Y120996D02*
X253218Y120950D01*
X253171Y121041D02*
X253195Y120996D01*
X253148Y121087D02*
X253171Y121041D01*
X253124Y121132D02*
X253148Y121087D01*
X253101Y121178D02*
X253124Y121132D01*
X253078Y121223D02*
X253101Y121178D01*
X253054Y121268D02*
X253078Y121223D01*
X253031Y121314D02*
X253054Y121268D01*
X253007Y121359D02*
X253031Y121314D01*
X252984Y121405D02*
X253007Y121359D01*
X252960Y121450D02*
X252984Y121405D01*
X252937Y121496D02*
X252960Y121450D01*
X252913Y121541D02*
X252937Y121496D01*
X252890Y121587D02*
X252913Y121541D01*
X252867Y121632D02*
X252890Y121587D01*
X252843Y121678D02*
X252867Y121632D01*
X252820Y121723D02*
X252843Y121678D01*
X252796Y121769D02*
X252820Y121723D01*
X252773Y121814D02*
X252796Y121769D01*
X252749Y121860D02*
X252773Y121814D01*
X252726Y121905D02*
X252749Y121860D01*
X252703Y121950D02*
X252726Y121905D01*
X252679Y121996D02*
X252703Y121950D01*
X252656Y122041D02*
X252679Y121996D01*
X252632Y122087D02*
X252656Y122041D01*
X252609Y122132D02*
X252632Y122087D01*
X252585Y122178D02*
X252609Y122132D01*
X252562Y122223D02*
X252585Y122178D01*
X252538Y122268D02*
X252562Y122223D01*
X252515Y122314D02*
X252538Y122268D01*
X252491Y122359D02*
X252515Y122314D01*
X252468Y122405D02*
X252491Y122359D01*
X252444Y122450D02*
X252468Y122405D01*
X252421Y122496D02*
X252444Y122450D01*
X252397Y122541D02*
X252421Y122496D01*
X252374Y122586D02*
X252397Y122541D01*
X252350Y122632D02*
X252374Y122586D01*
X252326Y122677D02*
X252350Y122632D01*
X252303Y122723D02*
X252326Y122677D01*
X252279Y122768D02*
X252303Y122723D01*
X252256Y122813D02*
X252279Y122768D01*
X252232Y122859D02*
X252256Y122813D01*
X252208Y122904D02*
X252232Y122859D01*
X252185Y122949D02*
X252208Y122904D01*
X252161Y122995D02*
X252185Y122949D01*
X252137Y123040D02*
X252161Y122995D01*
X252113Y123085D02*
X252137Y123040D01*
X252090Y123131D02*
X252113Y123085D01*
X252066Y123176D02*
X252090Y123131D01*
X252042Y123221D02*
X252066Y123176D01*
X252018Y123266D02*
X252042Y123221D01*
X251994Y123312D02*
X252018Y123266D01*
X251971Y123357D02*
X251994Y123312D01*
X251947Y123402D02*
X251971Y123357D01*
X251923Y123447D02*
X251947Y123402D01*
X251899Y123492D02*
X251923Y123447D01*
X251875Y123538D02*
X251899Y123492D01*
X251851Y123583D02*
X251875Y123538D01*
X251827Y123628D02*
X251851Y123583D01*
X251803Y123673D02*
X251827Y123628D01*
X251779Y123718D02*
X251803Y123673D01*
X251755Y123763D02*
X251779Y123718D01*
X251731Y123808D02*
X251755Y123763D01*
X251707Y123854D02*
X251731Y123808D01*
X251683Y123898D02*
X251707Y123854D01*
X251658Y123944D02*
X251683Y123898D01*
X251634Y123989D02*
X251658Y123944D01*
X251610Y124034D02*
X251634Y123989D01*
X251586Y124079D02*
X251610Y124034D01*
X251561Y124124D02*
X251586Y124079D01*
X251537Y124169D02*
X251561Y124124D01*
X251513Y124214D02*
X251537Y124169D01*
X251488Y124259D02*
X251513Y124214D01*
X251464Y124304D02*
X251488Y124259D01*
X251439Y124349D02*
X251464Y124304D01*
X251415Y124395D02*
X251439Y124349D01*
X251390Y124440D02*
X251415Y124395D01*
X251366Y124485D02*
X251390Y124440D01*
X251342Y124530D02*
X251366Y124485D01*
X251317Y124576D02*
X251342Y124530D01*
X251293Y124621D02*
X251317Y124576D01*
X251269Y124666D02*
X251293Y124621D01*
X251244Y124711D02*
X251269Y124666D01*
X251220Y124757D02*
X251244Y124711D01*
X251196Y124802D02*
X251220Y124757D01*
X251171Y124847D02*
X251196Y124802D01*
X251147Y124893D02*
X251171Y124847D01*
X251123Y124938D02*
X251147Y124893D01*
X251099Y124984D02*
X251123Y124938D01*
X251075Y125029D02*
X251099Y124984D01*
X251051Y125074D02*
X251075Y125029D01*
X251027Y125120D02*
X251051Y125074D01*
X251003Y125165D02*
X251027Y125120D01*
X250979Y125211D02*
X251003Y125165D01*
X250955Y125256D02*
X250979Y125211D01*
X250931Y125302D02*
X250955Y125256D01*
X250907Y125347D02*
X250931Y125302D01*
X250884Y125393D02*
X250907Y125347D01*
X250860Y125439D02*
X250884Y125393D01*
X250836Y125484D02*
X250860Y125439D01*
X250813Y125530D02*
X250836Y125484D01*
X250789Y125576D02*
X250813Y125530D01*
X250766Y125622D02*
X250789Y125576D01*
X250743Y125667D02*
X250766Y125622D01*
X250719Y125713D02*
X250743Y125667D01*
X250696Y125759D02*
X250719Y125713D01*
X250673Y125805D02*
X250696Y125759D01*
X250650Y125851D02*
X250673Y125805D01*
X250626Y125898D02*
X250650Y125851D01*
X250602Y125945D02*
X250626Y125898D01*
X250577Y125992D02*
X250602Y125945D01*
X250551Y126039D02*
X250577Y125992D01*
X250526Y126086D02*
X250551Y126039D01*
X250500Y126133D02*
X250526Y126086D01*
X250475Y126180D02*
X250500Y126133D01*
X250449Y126227D02*
X250475Y126180D01*
X250424Y126274D02*
X250449Y126227D01*
X250400Y126322D02*
X250424Y126274D01*
X250376Y126370D02*
X250400Y126322D01*
X250354Y126418D02*
X250376Y126370D01*
X250332Y126466D02*
X250354Y126418D01*
X250311Y126515D02*
X250332Y126466D01*
X250291Y126564D02*
X250311Y126515D01*
X250273Y126614D02*
X250291Y126564D01*
X250256Y126664D02*
X250273Y126614D01*
X253050Y134878D02*
X253101Y134872D01*
X252998Y134882D02*
X253050Y134878D01*
X252947Y134885D02*
X252998Y134882D01*
X252896Y134886D02*
X252947Y134885D01*
X252845Y134886D02*
X252896Y134886D01*
X252795Y134886D02*
X252845Y134886D01*
X252744Y134884D02*
X252795Y134886D01*
X252694Y134881D02*
X252744Y134884D01*
X252643Y134878D02*
X252694Y134881D01*
X252593Y134875D02*
X252643Y134878D01*
X252542Y134871D02*
X252593Y134875D01*
X252492Y134866D02*
X252542Y134871D01*
X252441Y134862D02*
X252492Y134866D01*
X252391Y134858D02*
X252441Y134862D01*
X252340Y134854D02*
X252391Y134858D01*
X252290Y134850D02*
X252340Y134854D01*
X252239Y134847D02*
X252290Y134850D01*
X252188Y134845D02*
X252239Y134847D01*
X252136Y134843D02*
X252188Y134845D01*
X252085Y134842D02*
X252136Y134843D01*
X252035Y134842D02*
X252085Y134842D01*
X251985Y134841D02*
X252035Y134842D01*
X251935Y134841D02*
X251985Y134841D01*
X251885Y134840D02*
X251935Y134841D01*
X251835Y134838D02*
X251885Y134840D01*
X251785Y134837D02*
X251835Y134838D01*
X251735Y134835D02*
X251785Y134837D01*
X251684Y134834D02*
X251735Y134835D01*
X251634Y134831D02*
X251684Y134834D01*
X251584Y134829D02*
X251634Y134831D01*
X251534Y134827D02*
X251584Y134829D01*
X251483Y134824D02*
X251534Y134827D01*
X251433Y134821D02*
X251483Y134824D01*
X251382Y134818D02*
X251433Y134821D01*
X251332Y134815D02*
X251382Y134818D01*
X251282Y134811D02*
X251332Y134815D01*
X251231Y134808D02*
X251282Y134811D01*
X251181Y134804D02*
X251231Y134808D01*
X251130Y134800D02*
X251181Y134804D01*
X251080Y134796D02*
X251130Y134800D01*
X251029Y134791D02*
X251080Y134796D01*
X250979Y134786D02*
X251029Y134791D01*
X250928Y134782D02*
X250979Y134786D01*
X250878Y134776D02*
X250928Y134782D01*
X250827Y134771D02*
X250878Y134776D01*
X250777Y134766D02*
X250827Y134771D01*
X250726Y134760D02*
X250777Y134766D01*
X250676Y134754D02*
X250726Y134760D01*
X250625Y134748D02*
X250676Y134754D01*
X250575Y134742D02*
X250625Y134748D01*
X250524Y134736D02*
X250575Y134742D01*
X250473Y134729D02*
X250524Y134736D01*
X250423Y134723D02*
X250473Y134729D01*
X250373Y134716D02*
X250423Y134723D01*
X250322Y134709D02*
X250373Y134716D01*
X250271Y134701D02*
X250322Y134709D01*
X250221Y134694D02*
X250271Y134701D01*
X250171Y134686D02*
X250221Y134694D01*
X250120Y134678D02*
X250171Y134686D01*
X250070Y134670D02*
X250120Y134678D01*
X250019Y134662D02*
X250070Y134670D01*
X249969Y134654D02*
X250019Y134662D01*
X249918Y134646D02*
X249969Y134654D01*
X249868Y134637D02*
X249918Y134646D01*
X249818Y134628D02*
X249868Y134637D01*
X249767Y134619D02*
X249818Y134628D01*
X249717Y134610D02*
X249767Y134619D01*
X249667Y134601D02*
X249717Y134610D01*
X249617Y134591D02*
X249667Y134601D01*
X249567Y134581D02*
X249617Y134591D01*
X249516Y134572D02*
X249567Y134581D01*
X249466Y134562D02*
X249516Y134572D01*
X249416Y134552D02*
X249466Y134562D01*
X249366Y134541D02*
X249416Y134552D01*
X249316Y134531D02*
X249366Y134541D01*
X249266Y134520D02*
X249316Y134531D01*
X249216Y134509D02*
X249266Y134520D01*
X249166Y134499D02*
X249216Y134509D01*
X249116Y134487D02*
X249166Y134499D01*
X249067Y134476D02*
X249116Y134487D01*
X249017Y134465D02*
X249067Y134476D01*
X248967Y134453D02*
X249017Y134465D01*
X248918Y134442D02*
X248967Y134453D01*
X248868Y134430D02*
X248918Y134442D01*
X248818Y134418D02*
X248868Y134430D01*
X248769Y134406D02*
X248818Y134418D01*
X248720Y134394D02*
X248769Y134406D01*
X248670Y134381D02*
X248720Y134394D01*
X248621Y134369D02*
X248670Y134381D01*
X248571Y134356D02*
X248621Y134369D01*
X248522Y134343D02*
X248571Y134356D01*
X248473Y134330D02*
X248522Y134343D01*
X248424Y134317D02*
X248473Y134330D01*
X248375Y134304D02*
X248424Y134317D01*
X248326Y134291D02*
X248375Y134304D01*
X248277Y134277D02*
X248326Y134291D01*
X248228Y134263D02*
X248277Y134277D01*
X248180Y134250D02*
X248228Y134263D01*
X248131Y134236D02*
X248180Y134250D01*
X248083Y134222D02*
X248131Y134236D01*
X248034Y134208D02*
X248083Y134222D01*
X247986Y134193D02*
X248034Y134208D01*
X247937Y134179D02*
X247986Y134193D01*
X247889Y134164D02*
X247937Y134179D01*
X247841Y134150D02*
X247889Y134164D01*
X247793Y134135D02*
X247841Y134150D01*
X247745Y134120D02*
X247793Y134135D01*
X247697Y134105D02*
X247745Y134120D01*
X247649Y134090D02*
X247697Y134105D01*
X247601Y134075D02*
X247649Y134090D01*
X247554Y134059D02*
X247601Y134075D01*
X247506Y134044D02*
X247554Y134059D01*
X247459Y134028D02*
X247506Y134044D01*
X247411Y134013D02*
X247459Y134028D01*
X247363Y133996D02*
X247411Y134013D01*
X247315Y133980D02*
X247363Y133996D01*
X247267Y133964D02*
X247315Y133980D01*
X247219Y133947D02*
X247267Y133964D01*
X247171Y133931D02*
X247219Y133947D01*
X247123Y133914D02*
X247171Y133931D01*
X247075Y133897D02*
X247123Y133914D01*
X247027Y133880D02*
X247075Y133897D01*
X246979Y133863D02*
X247027Y133880D01*
X246932Y133845D02*
X246979Y133863D01*
X246884Y133828D02*
X246932Y133845D01*
X246836Y133810D02*
X246884Y133828D01*
X246789Y133793D02*
X246836Y133810D01*
X246741Y133775D02*
X246789Y133793D01*
X246694Y133757D02*
X246741Y133775D01*
X246646Y133739D02*
X246694Y133757D01*
X246599Y133721D02*
X246646Y133739D01*
X246552Y133702D02*
X246599Y133721D01*
X246504Y133684D02*
X246552Y133702D01*
X246457Y133665D02*
X246504Y133684D01*
X246410Y133646D02*
X246457Y133665D01*
X246363Y133628D02*
X246410Y133646D01*
X246316Y133609D02*
X246363Y133628D01*
X246269Y133589D02*
X246316Y133609D01*
X246222Y133570D02*
X246269Y133589D01*
X246175Y133551D02*
X246222Y133570D01*
X246128Y133531D02*
X246175Y133551D01*
X246082Y133512D02*
X246128Y133531D01*
X246035Y133492D02*
X246082Y133512D01*
X245988Y133472D02*
X246035Y133492D01*
X245942Y133452D02*
X245988Y133472D01*
X245895Y133432D02*
X245942Y133452D01*
X245849Y133412D02*
X245895Y133432D01*
X245802Y133391D02*
X245849Y133412D01*
X245756Y133371D02*
X245802Y133391D01*
X245710Y133350D02*
X245756Y133371D01*
X245664Y133329D02*
X245710Y133350D01*
X245618Y133308D02*
X245664Y133329D01*
X245571Y133287D02*
X245618Y133308D01*
X245525Y133266D02*
X245571Y133287D01*
X245480Y133245D02*
X245525Y133266D01*
X245434Y133223D02*
X245480Y133245D01*
X245388Y133202D02*
X245434Y133223D01*
X245342Y133180D02*
X245388Y133202D01*
X245296Y133158D02*
X245342Y133180D01*
X245251Y133136D02*
X245296Y133158D01*
X245205Y133114D02*
X245251Y133136D01*
X245160Y133092D02*
X245205Y133114D01*
X245114Y133069D02*
X245160Y133092D01*
X245069Y133047D02*
X245114Y133069D01*
X245023Y133024D02*
X245069Y133047D01*
X244978Y133002D02*
X245023Y133024D01*
X244933Y132979D02*
X244978Y133002D01*
X244888Y132956D02*
X244933Y132979D01*
X244843Y132933D02*
X244888Y132956D01*
X244798Y132909D02*
X244843Y132933D01*
X244753Y132886D02*
X244798Y132909D01*
X244708Y132863D02*
X244753Y132886D01*
X244664Y132839D02*
X244708Y132863D01*
X244619Y132815D02*
X244664Y132839D01*
X244574Y132791D02*
X244619Y132815D01*
X244530Y132767D02*
X244574Y132791D01*
X244485Y132743D02*
X244530Y132767D01*
X244441Y132719D02*
X244485Y132743D01*
X244397Y132694D02*
X244441Y132719D01*
X244352Y132670D02*
X244397Y132694D01*
X244308Y132645D02*
X244352Y132670D01*
X244264Y132620D02*
X244308Y132645D01*
X244220Y132596D02*
X244264Y132620D01*
X244176Y132570D02*
X244220Y132596D01*
X244132Y132545D02*
X244176Y132570D01*
X244088Y132520D02*
X244132Y132545D01*
X244045Y132494D02*
X244088Y132520D01*
X244001Y132469D02*
X244045Y132494D01*
X243957Y132443D02*
X244001Y132469D01*
X243914Y132417D02*
X243957Y132443D01*
X243871Y132392D02*
X243914Y132417D01*
X243827Y132365D02*
X243871Y132392D01*
X243784Y132339D02*
X243827Y132365D01*
X243741Y132313D02*
X243784Y132339D01*
X243697Y132287D02*
X243741Y132313D01*
X243654Y132260D02*
X243697Y132287D01*
X243612Y132233D02*
X243654Y132260D01*
X243569Y132206D02*
X243612Y132233D01*
X243526Y132179D02*
X243569Y132206D01*
X243483Y132152D02*
X243526Y132179D01*
X243440Y132125D02*
X243483Y132152D01*
X243398Y132098D02*
X243440Y132125D01*
X243355Y132070D02*
X243398Y132098D01*
X243313Y132043D02*
X243355Y132070D01*
X243270Y132015D02*
X243313Y132043D01*
X243228Y131987D02*
X243270Y132015D01*
X243186Y131959D02*
X243228Y131987D01*
X243144Y131931D02*
X243186Y131959D01*
X243102Y131903D02*
X243144Y131931D01*
X243060Y131874D02*
X243102Y131903D01*
X243018Y131846D02*
X243060Y131874D01*
X242976Y131817D02*
X243018Y131846D01*
X242935Y131788D02*
X242976Y131817D01*
X242893Y131759D02*
X242935Y131788D01*
X242852Y131730D02*
X242893Y131759D01*
X242810Y131701D02*
X242852Y131730D01*
X242769Y131672D02*
X242810Y131701D01*
X242728Y131643D02*
X242769Y131672D01*
X242687Y131613D02*
X242728Y131643D01*
X242645Y131583D02*
X242687Y131613D01*
X242604Y131553D02*
X242645Y131583D01*
X242563Y131524D02*
X242604Y131553D01*
X242523Y131494D02*
X242563Y131524D01*
X242482Y131463D02*
X242523Y131494D01*
X242441Y131433D02*
X242482Y131463D01*
X242401Y131403D02*
X242441Y131433D01*
X242360Y131372D02*
X242401Y131403D01*
X242320Y131341D02*
X242360Y131372D01*
X242280Y131311D02*
X242320Y131341D01*
X242239Y131280D02*
X242280Y131311D01*
X242199Y131249D02*
X242239Y131280D01*
X242159Y131217D02*
X242199Y131249D01*
X242119Y131186D02*
X242159Y131217D01*
X242080Y131155D02*
X242119Y131186D01*
X242040Y131123D02*
X242080Y131155D01*
X242000Y131091D02*
X242040Y131123D01*
X241961Y131060D02*
X242000Y131091D01*
X241921Y131028D02*
X241961Y131060D01*
X241882Y130996D02*
X241921Y131028D01*
X241842Y130963D02*
X241882Y130996D01*
X241803Y130931D02*
X241842Y130963D01*
X241764Y130899D02*
X241803Y130931D01*
X241725Y130866D02*
X241764Y130899D01*
X241686Y130833D02*
X241725Y130866D01*
X241647Y130800D02*
X241686Y130833D01*
X241609Y130767D02*
X241647Y130800D01*
X241570Y130734D02*
X241609Y130767D01*
X241532Y130701D02*
X241570Y130734D01*
X241493Y130668D02*
X241532Y130701D01*
X241455Y130634D02*
X241493Y130668D01*
X241417Y130601D02*
X241455Y130634D01*
X241378Y130567D02*
X241417Y130601D01*
X241340Y130533D02*
X241378Y130567D01*
X241303Y130499D02*
X241340Y130533D01*
X241265Y130465D02*
X241303Y130499D01*
X241228Y130432D02*
X241265Y130465D01*
X241191Y130398D02*
X241228Y130432D01*
X241155Y130365D02*
X241191Y130398D01*
X241118Y130331D02*
X241155Y130365D01*
X241082Y130297D02*
X241118Y130331D01*
X241046Y130263D02*
X241082Y130297D01*
X241010Y130230D02*
X241046Y130263D01*
X240974Y130195D02*
X241010Y130230D01*
X240938Y130161D02*
X240974Y130195D01*
X240902Y130127D02*
X240938Y130161D01*
X240867Y130092D02*
X240902Y130127D01*
X240831Y130058D02*
X240867Y130092D01*
X240795Y130023D02*
X240831Y130058D01*
X240760Y129989D02*
X240795Y130023D01*
X240725Y129954D02*
X240760Y129989D01*
X240690Y129919D02*
X240725Y129954D01*
X240655Y129884D02*
X240690Y129919D01*
X240620Y129849D02*
X240655Y129884D01*
X240585Y129813D02*
X240620Y129849D01*
X240550Y129778D02*
X240585Y129813D01*
X240515Y129743D02*
X240550Y129778D01*
X240481Y129707D02*
X240515Y129743D01*
X240446Y129671D02*
X240481Y129707D01*
X240412Y129636D02*
X240446Y129671D01*
X240378Y129600D02*
X240412Y129636D01*
X240344Y129564D02*
X240378Y129600D01*
X240310Y129528D02*
X240344Y129564D01*
X240276Y129492D02*
X240310Y129528D01*
X240242Y129455D02*
X240276Y129492D01*
X240208Y129419D02*
X240242Y129455D01*
X240175Y129382D02*
X240208Y129419D01*
X240141Y129346D02*
X240175Y129382D01*
X240108Y129309D02*
X240141Y129346D01*
X240075Y129272D02*
X240108Y129309D01*
X240042Y129235D02*
X240075Y129272D01*
X240009Y129198D02*
X240042Y129235D01*
X239976Y129161D02*
X240009Y129198D01*
X239943Y129124D02*
X239976Y129161D01*
X239910Y129087D02*
X239943Y129124D01*
X239878Y129050D02*
X239910Y129087D01*
X239845Y129012D02*
X239878Y129050D01*
X239813Y128975D02*
X239845Y129012D01*
X239781Y128937D02*
X239813Y128975D01*
X239748Y128899D02*
X239781Y128937D01*
X239716Y128861D02*
X239748Y128899D01*
X239685Y128823D02*
X239716Y128861D01*
X239653Y128785D02*
X239685Y128823D01*
X239621Y128747D02*
X239653Y128785D01*
X239589Y128709D02*
X239621Y128747D01*
X239558Y128671D02*
X239589Y128709D01*
X239527Y128632D02*
X239558Y128671D01*
X239495Y128594D02*
X239527Y128632D01*
X239464Y128555D02*
X239495Y128594D01*
X239433Y128516D02*
X239464Y128555D01*
X239402Y128477D02*
X239433Y128516D01*
X239371Y128439D02*
X239402Y128477D01*
X239341Y128400D02*
X239371Y128439D01*
X239310Y128361D02*
X239341Y128400D01*
X239280Y128321D02*
X239310Y128361D01*
X239249Y128282D02*
X239280Y128321D01*
X239219Y128243D02*
X239249Y128282D01*
X239189Y128203D02*
X239219Y128243D01*
X239159Y128164D02*
X239189Y128203D01*
X239129Y128124D02*
X239159Y128164D01*
X239100Y128085D02*
X239129Y128124D01*
X239070Y128045D02*
X239100Y128085D01*
X239040Y128005D02*
X239070Y128045D01*
X239011Y127965D02*
X239040Y128005D01*
X238982Y127925D02*
X239011Y127965D01*
X238953Y127885D02*
X238982Y127925D01*
X238923Y127845D02*
X238953Y127885D01*
X238895Y127804D02*
X238923Y127845D01*
X238866Y127764D02*
X238895Y127804D01*
X238837Y127724D02*
X238866Y127764D01*
X238808Y127683D02*
X238837Y127724D01*
X238780Y127642D02*
X238808Y127683D01*
X238752Y127602D02*
X238780Y127642D01*
X238723Y127561D02*
X238752Y127602D01*
X238695Y127520D02*
X238723Y127561D01*
X238667Y127479D02*
X238695Y127520D01*
X238639Y127438D02*
X238667Y127479D01*
X238612Y127397D02*
X238639Y127438D01*
X238584Y127356D02*
X238612Y127397D01*
X238556Y127315D02*
X238584Y127356D01*
X238529Y127273D02*
X238556Y127315D01*
X238502Y127232D02*
X238529Y127273D01*
X238475Y127190D02*
X238502Y127232D01*
X238448Y127149D02*
X238475Y127190D01*
X238421Y127107D02*
X238448Y127149D01*
X238394Y127065D02*
X238421Y127107D01*
X238367Y127023D02*
X238394Y127065D01*
X238341Y126981D02*
X238367Y127023D01*
X238314Y126939D02*
X238341Y126981D01*
X238288Y126897D02*
X238314Y126939D01*
X238262Y126855D02*
X238288Y126897D01*
X238236Y126813D02*
X238262Y126855D01*
X238210Y126771D02*
X238236Y126813D01*
X238184Y126728D02*
X238210Y126771D01*
X238158Y126686D02*
X238184Y126728D01*
X238133Y126643D02*
X238158Y126686D01*
X238107Y126601D02*
X238133Y126643D01*
X238082Y126558D02*
X238107Y126601D01*
X238057Y126515D02*
X238082Y126558D01*
X238032Y126473D02*
X238057Y126515D01*
X238007Y126430D02*
X238032Y126473D01*
X237982Y126387D02*
X238007Y126430D01*
X237957Y126344D02*
X237982Y126387D01*
X237933Y126300D02*
X237957Y126344D01*
X237908Y126257D02*
X237933Y126300D01*
X237884Y126214D02*
X237908Y126257D01*
X237860Y126171D02*
X237884Y126214D01*
X237836Y126127D02*
X237860Y126171D01*
X237812Y126084D02*
X237836Y126127D01*
X237788Y126040D02*
X237812Y126084D01*
X237764Y125997D02*
X237788Y126040D01*
X237741Y125953D02*
X237764Y125997D01*
X237717Y125909D02*
X237741Y125953D01*
X237694Y125866D02*
X237717Y125909D01*
X237671Y125822D02*
X237694Y125866D01*
X237648Y125778D02*
X237671Y125822D01*
X237625Y125734D02*
X237648Y125778D01*
X237602Y125690D02*
X237625Y125734D01*
X237579Y125646D02*
X237602Y125690D01*
X237557Y125601D02*
X237579Y125646D01*
X237534Y125557D02*
X237557Y125601D01*
X237512Y125513D02*
X237534Y125557D01*
X237490Y125468D02*
X237512Y125513D01*
X237468Y125424D02*
X237490Y125468D01*
X237446Y125379D02*
X237468Y125424D01*
X237424Y125335D02*
X237446Y125379D01*
X237403Y125290D02*
X237424Y125335D01*
X237381Y125246D02*
X237403Y125290D01*
X237360Y125201D02*
X237381Y125246D01*
X237339Y125156D02*
X237360Y125201D01*
X237318Y125111D02*
X237339Y125156D01*
X237297Y125066D02*
X237318Y125111D01*
X237276Y125021D02*
X237297Y125066D01*
X237255Y124976D02*
X237276Y125021D01*
X237234Y124931D02*
X237255Y124976D01*
X237214Y124886D02*
X237234Y124931D01*
X237194Y124840D02*
X237214Y124886D01*
X237174Y124795D02*
X237194Y124840D01*
X237153Y124750D02*
X237174Y124795D01*
X237134Y124704D02*
X237153Y124750D01*
X237114Y124659D02*
X237134Y124704D01*
X237094Y124613D02*
X237114Y124659D01*
X237075Y124568D02*
X237094Y124613D01*
X237055Y124522D02*
X237075Y124568D01*
X237036Y124476D02*
X237055Y124522D01*
X237017Y124430D02*
X237036Y124476D01*
X236998Y124385D02*
X237017Y124430D01*
X236979Y124339D02*
X236998Y124385D01*
X236960Y124293D02*
X236979Y124339D01*
X236942Y124247D02*
X236960Y124293D01*
X236923Y124201D02*
X236942Y124247D01*
X236905Y124155D02*
X236923Y124201D01*
X236887Y124108D02*
X236905Y124155D01*
X236869Y124062D02*
X236887Y124108D01*
X236851Y124016D02*
X236869Y124062D01*
X236833Y123970D02*
X236851Y124016D01*
X236816Y123923D02*
X236833Y123970D01*
X236798Y123877D02*
X236816Y123923D01*
X236781Y123830D02*
X236798Y123877D01*
X236764Y123784D02*
X236781Y123830D01*
X236747Y123737D02*
X236764Y123784D01*
X236730Y123691D02*
X236747Y123737D01*
X236713Y123644D02*
X236730Y123691D01*
X236696Y123597D02*
X236713Y123644D01*
X236680Y123551D02*
X236696Y123597D01*
X236663Y123504D02*
X236680Y123551D01*
X236647Y123457D02*
X236663Y123504D01*
X236631Y123410D02*
X236647Y123457D01*
X236615Y123363D02*
X236631Y123410D01*
X236600Y123316D02*
X236615Y123363D01*
X236584Y123269D02*
X236600Y123316D01*
X236568Y123222D02*
X236584Y123269D01*
X236553Y123175D02*
X236568Y123222D01*
X236538Y123128D02*
X236553Y123175D01*
X236523Y123080D02*
X236538Y123128D01*
X236508Y123033D02*
X236523Y123080D01*
X236493Y122986D02*
X236508Y123033D01*
X236478Y122938D02*
X236493Y122986D01*
X236464Y122891D02*
X236478Y122938D01*
X236449Y122844D02*
X236464Y122891D01*
X236435Y122796D02*
X236449Y122844D01*
X236421Y122749D02*
X236435Y122796D01*
X236407Y122701D02*
X236421Y122749D01*
X236393Y122654D02*
X236407Y122701D01*
X236380Y122606D02*
X236393Y122654D01*
X236366Y122558D02*
X236380Y122606D01*
X236353Y122510D02*
X236366Y122558D01*
X236339Y122463D02*
X236353Y122510D01*
X236326Y122415D02*
X236339Y122463D01*
X236313Y122367D02*
X236326Y122415D01*
X236301Y122319D02*
X236313Y122367D01*
X236288Y122271D02*
X236301Y122319D01*
X236275Y122223D02*
X236288Y122271D01*
X236263Y122175D02*
X236275Y122223D01*
X236251Y122127D02*
X236263Y122175D01*
X236239Y122079D02*
X236251Y122127D01*
X236227Y122031D02*
X236239Y122079D01*
X236215Y121983D02*
X236227Y122031D01*
X236203Y121934D02*
X236215Y121983D01*
X236192Y121886D02*
X236203Y121934D01*
X236181Y121838D02*
X236192Y121886D01*
X236169Y121790D02*
X236181Y121838D01*
X236158Y121741D02*
X236169Y121790D01*
X236147Y121693D02*
X236158Y121741D01*
X236137Y121645D02*
X236147Y121693D01*
X236126Y121596D02*
X236137Y121645D01*
X236116Y121548D02*
X236126Y121596D01*
X236105Y121499D02*
X236116Y121548D01*
X236095Y121451D02*
X236105Y121499D01*
X236085Y121402D02*
X236095Y121451D01*
X236075Y121354D02*
X236085Y121402D01*
X236066Y121305D02*
X236075Y121354D01*
X236056Y121256D02*
X236066Y121305D01*
X236047Y121208D02*
X236056Y121256D01*
X236037Y121159D02*
X236047Y121208D01*
X236028Y121110D02*
X236037Y121159D01*
X236019Y121061D02*
X236028Y121110D01*
X236011Y121012D02*
X236019Y121061D01*
X236002Y120964D02*
X236011Y121012D01*
X235993Y120915D02*
X236002Y120964D01*
X235985Y120866D02*
X235993Y120915D01*
X235977Y120817D02*
X235985Y120866D01*
X235969Y120768D02*
X235977Y120817D01*
X235961Y120719D02*
X235969Y120768D01*
X235953Y120670D02*
X235961Y120719D01*
X235946Y120621D02*
X235953Y120670D01*
X235938Y120572D02*
X235946Y120621D01*
X235931Y120523D02*
X235938Y120572D01*
X235924Y120474D02*
X235931Y120523D01*
X235917Y120425D02*
X235924Y120474D01*
X235910Y120376D02*
X235917Y120425D01*
X235903Y120326D02*
X235910Y120376D01*
X235897Y120277D02*
X235903Y120326D01*
X235891Y120228D02*
X235897Y120277D01*
X235884Y120179D02*
X235891Y120228D01*
X235878Y120130D02*
X235884Y120179D01*
X235872Y120080D02*
X235878Y120130D01*
X235867Y120031D02*
X235872Y120080D01*
X235861Y119982D02*
X235867Y120031D01*
X235856Y119932D02*
X235861Y119982D01*
X235850Y119883D02*
X235856Y119932D01*
X235845Y119834D02*
X235850Y119883D01*
X235840Y119784D02*
X235845Y119834D01*
X235835Y119735D02*
X235840Y119784D01*
X235831Y119685D02*
X235835Y119735D01*
X235826Y119636D02*
X235831Y119685D01*
X235822Y119586D02*
X235826Y119636D01*
X235818Y119537D02*
X235822Y119586D01*
X235814Y119487D02*
X235818Y119537D01*
X235810Y119438D02*
X235814Y119487D01*
X235806Y119389D02*
X235810Y119438D01*
X235803Y119339D02*
X235806Y119389D01*
X235799Y119289D02*
X235803Y119339D01*
X235796Y119240D02*
X235799Y119289D01*
X235793Y119190D02*
X235796Y119240D01*
X235790Y119141D02*
X235793Y119190D01*
X235788Y119091D02*
X235790Y119141D01*
X235785Y119041D02*
X235788Y119091D01*
X235783Y118992D02*
X235785Y119041D01*
X235780Y118942D02*
X235783Y118992D01*
X235778Y118892D02*
X235780Y118942D01*
X235776Y118842D02*
X235778Y118892D01*
X235774Y118792D02*
X235776Y118842D01*
X235773Y118742D02*
X235774Y118792D01*
X235771Y118691D02*
X235773Y118742D01*
X235770Y118641D02*
X235771Y118691D01*
X235769Y118591D02*
X235770Y118641D01*
X235767Y118541D02*
X235769Y118591D01*
X235766Y118491D02*
X235767Y118541D01*
X235766Y118440D02*
X235766Y118491D01*
X235765Y118390D02*
X235766Y118440D01*
X235764Y118340D02*
X235765Y118390D01*
X235764Y118290D02*
X235764Y118340D01*
X235764Y118239D02*
X235764Y118290D01*
X235764Y118189D02*
X235764Y118239D01*
X235764Y118189D02*
X235764Y118139D01*
X235764Y118088D01*
X235764Y118038D01*
X235765Y117988D01*
X235765Y117937D01*
X235766Y117887D01*
X235767Y117837D01*
X235768Y117786D01*
X235770Y117736D01*
X235771Y117685D01*
X235772Y117635D01*
X235774Y117585D01*
X235776Y117534D01*
X235778Y117484D01*
X235780Y117433D01*
X235782Y117383D01*
X235785Y117332D01*
X235787Y117282D01*
X235790Y117232D01*
X235793Y117181D01*
X235796Y117131D01*
X235799Y117080D01*
X235802Y117030D01*
X235806Y116980D01*
X235809Y116929D01*
X235813Y116879D01*
X235817Y116828D01*
X235821Y116778D01*
X235825Y116728D01*
X235830Y116677D01*
X235834Y116627D01*
X235839Y116576D01*
X235843Y116526D01*
X235848Y116476D01*
X235853Y116425D01*
X235858Y116375D01*
X235864Y116325D01*
X235869Y116274D01*
X235875Y116224D01*
X235881Y116174D01*
X235887Y116123D01*
X235893Y116073D01*
X235899Y116023D01*
X235905Y115973D01*
X235912Y115922D01*
X235919Y115872D01*
X235926Y115822D01*
X235933Y115772D01*
X235940Y115722D01*
X235947Y115672D01*
X235954Y115622D01*
X235962Y115571D01*
X235970Y115521D01*
X235978Y115471D01*
X235986Y115421D01*
X235994Y115371D01*
X236002Y115322D01*
X236011Y115272D01*
X236019Y115222D01*
X236028Y115172D01*
X236037Y115122D01*
X236046Y115072D01*
X236055Y115022D01*
X236065Y114972D01*
X236074Y114923D01*
X236084Y114873D01*
X236094Y114823D01*
X236103Y114774D01*
X236114Y114724D01*
X236124Y114674D01*
X236134Y114625D01*
X236145Y114575D01*
X236156Y114526D01*
X236166Y114476D01*
X236177Y114427D01*
X236189Y114378D01*
X236200Y114328D01*
X236211Y114279D01*
X236223Y114230D01*
X236235Y114180D01*
X236247Y114131D01*
X236259Y114082D01*
X236271Y114033D01*
X236283Y113984D01*
X236296Y113935D01*
X236308Y113886D01*
X236321Y113837D01*
X236334Y113788D01*
X236347Y113739D01*
X236361Y113690D01*
X236374Y113642D01*
X236388Y113593D01*
X236401Y113544D01*
X236415Y113496D01*
X236429Y113447D01*
X236443Y113399D01*
X236458Y113350D01*
X236472Y113302D01*
X236487Y113253D01*
X236501Y113205D01*
X236516Y113157D01*
X236531Y113108D01*
X236547Y113060D01*
X236562Y113012D01*
X236577Y112964D01*
X236593Y112916D01*
X236609Y112868D01*
X236625Y112820D01*
X236641Y112772D01*
X236657Y112725D01*
X236674Y112677D01*
X236690Y112629D01*
X236707Y112582D01*
X236724Y112534D01*
X236741Y112487D01*
X236758Y112439D01*
X236776Y112392D01*
X236793Y112345D01*
X236811Y112297D01*
X236828Y112250D01*
X236846Y112203D01*
X236865Y112156D01*
X236883Y112109D01*
X236901Y112062D01*
X236920Y112016D01*
X236938Y111969D01*
X236957Y111922D01*
X236976Y111876D01*
X236996Y111829D01*
X237015Y111783D01*
X237034Y111736D01*
X237054Y111690D01*
X237074Y111644D01*
X237094Y111597D01*
X237114Y111551D01*
X237134Y111505D01*
X237154Y111459D01*
X237175Y111413D01*
X237195Y111368D01*
X237216Y111322D01*
X237237Y111277D01*
X237258Y111233D01*
X237278Y111188D01*
X237299Y111143D01*
X237320Y111099D01*
X237342Y111054D01*
X237363Y111010D01*
X237384Y110966D01*
X237406Y110922D01*
X237428Y110877D01*
X237450Y110833D01*
X237472Y110789D01*
X237494Y110745D01*
X237516Y110702D01*
X237538Y110658D01*
X237561Y110614D01*
X237583Y110570D01*
X237606Y110527D01*
X237629Y110484D01*
X237652Y110440D01*
X237675Y110397D01*
X237698Y110353D01*
X237722Y110310D01*
X237745Y110267D01*
X237769Y110224D01*
X237792Y110181D01*
X237816Y110138D01*
X237840Y110096D01*
X237864Y110053D01*
X237888Y110010D01*
X237913Y109967D01*
X237937Y109925D01*
X237962Y109882D01*
X237986Y109840D01*
X238011Y109798D01*
X238036Y109756D01*
X238061Y109714D01*
X238086Y109671D01*
X238111Y109629D01*
X238137Y109588D01*
X238162Y109546D01*
X238188Y109504D01*
X238214Y109462D01*
X238240Y109421D01*
X238266Y109379D01*
X238292Y109338D01*
X238318Y109297D01*
X238344Y109255D01*
X238371Y109214D01*
X238397Y109173D01*
X238424Y109132D01*
X238451Y109091D01*
X238478Y109050D01*
X238505Y109010D01*
X238532Y108969D01*
X238559Y108928D01*
X238586Y108888D01*
X238614Y108847D01*
X238641Y108807D01*
X238669Y108767D01*
X238697Y108726D01*
X238725Y108686D01*
X238753Y108646D01*
X238781Y108606D01*
X238809Y108566D01*
X238838Y108527D01*
X238866Y108487D01*
X238895Y108447D01*
X238923Y108408D01*
X238952Y108368D01*
X238981Y108329D01*
X239010Y108290D01*
X239039Y108251D01*
X239068Y108211D01*
X239098Y108173D01*
X239127Y108133D01*
X239157Y108095D01*
X239186Y108056D01*
X239216Y108017D01*
X239246Y107979D01*
X239276Y107940D01*
X239306Y107902D01*
X239336Y107864D01*
X239367Y107825D01*
X239397Y107787D01*
X239428Y107749D01*
X239458Y107711D01*
X239489Y107673D01*
X239520Y107635D01*
X239551Y107598D01*
X239582Y107560D01*
X239613Y107523D01*
X239644Y107485D01*
X239676Y107448D01*
X239707Y107411D01*
X239739Y107374D01*
X239770Y107337D01*
X239802Y107299D01*
X239834Y107263D01*
X239866Y107226D01*
X239898Y107189D01*
X239930Y107153D01*
X239963Y107116D01*
X239995Y107080D01*
X240028Y107043D01*
X240060Y107007D01*
X240093Y106971D01*
X240126Y106935D01*
X240159Y106899D01*
X240191Y106863D01*
X240225Y106827D01*
X240258Y106792D01*
X240291Y106756D01*
X240324Y106721D01*
X240358Y106685D01*
X240392Y106650D01*
X240425Y106615D01*
X240459Y106580D01*
X240493Y106545D01*
X240527Y106510D01*
X240561Y106475D01*
X240595Y106440D01*
X240629Y106406D01*
X240664Y106371D01*
X240698Y106337D01*
X240733Y106303D01*
X240767Y106268D01*
X240802Y106234D01*
X240837Y106200D01*
X240872Y106166D01*
X240907Y106132D01*
X240942Y106099D01*
X240977Y106065D01*
X241012Y106032D01*
X241048Y105998D01*
X241083Y105965D01*
X241119Y105932D01*
X241154Y105899D01*
X241190Y105866D01*
X241226Y105833D01*
X241262Y105800D01*
X241298Y105767D01*
X241334Y105735D01*
X241370Y105702D01*
X241407Y105670D01*
X241443Y105637D01*
X241479Y105605D01*
X241516Y105573D01*
X241553Y105541D01*
X241589Y105509D01*
X241626Y105477D01*
X241663Y105446D01*
X241700Y105414D01*
X241737Y105383D01*
X241775Y105351D01*
X241812Y105320D01*
X241849Y105289D01*
X241887Y105258D01*
X241924Y105227D01*
X241962Y105196D01*
X241999Y105165D01*
X242037Y105135D01*
X242075Y105104D01*
X242113Y105074D01*
X242151Y105043D01*
X242189Y105013D01*
X242227Y104983D01*
X242266Y104953D01*
X242304Y104923D01*
X242342Y104894D01*
X242381Y104864D01*
X242420Y104834D01*
X242458Y104805D01*
X242497Y104775D01*
X242536Y104746D01*
X242575Y104717D01*
X242614Y104688D01*
X242653Y104659D01*
X242692Y104630D01*
X242732Y104602D01*
X242771Y104573D01*
X242810Y104545D01*
X242850Y104516D01*
X242889Y104488D01*
X242929Y104460D01*
X242969Y104432D01*
X243009Y104404D01*
X243049Y104376D01*
X243089Y104349D01*
X243129Y104321D01*
X243169Y104294D01*
X243209Y104267D01*
X243249Y104239D01*
X243290Y104212D01*
X243330Y104185D01*
X243371Y104158D01*
X243411Y104131D01*
X243452Y104105D01*
X243493Y104078D01*
X243534Y104052D01*
X243575Y104026D01*
X243616Y103999D01*
X243657Y103973D01*
X243698Y103947D01*
X243739Y103922D01*
X243780Y103896D01*
X243822Y103870D01*
X243863Y103845D01*
X243904Y103819D01*
X243946Y103794D01*
X243988Y103769D01*
X244029Y103744D01*
X244071Y103719D01*
X244113Y103694D01*
X244155Y103670D01*
X244197Y103645D01*
X244239Y103621D01*
X244281Y103596D01*
X244323Y103572D01*
X244366Y103548D01*
X244408Y103524D01*
X244450Y103500D01*
X244493Y103477D01*
X244536Y103453D01*
X244578Y103430D01*
X244621Y103406D01*
X244664Y103383D01*
X244706Y103360D01*
X244749Y103337D01*
X244792Y103314D01*
X244835Y103291D01*
X244878Y103269D01*
X244922Y103246D01*
X244965Y103224D01*
X245008Y103202D01*
X245051Y103180D01*
X245095Y103158D01*
X245138Y103136D01*
X245182Y103114D01*
X245226Y103092D01*
X245269Y103071D01*
X245313Y103049D01*
X245357Y103028D01*
X245401Y103007D01*
X245445Y102986D01*
X245489Y102965D01*
X245533Y102944D01*
X245577Y102924D01*
X245621Y102903D01*
X245665Y102883D01*
X245710Y102863D01*
X245754Y102843D01*
X245798Y102823D01*
X245843Y102803D01*
X245887Y102783D01*
X245932Y102764D01*
X245977Y102744D01*
X246021Y102725D01*
X246066Y102705D01*
X246111Y102686D01*
X246156Y102667D01*
X246201Y102649D01*
X246246Y102630D01*
X246291Y102611D01*
X246336Y102593D01*
X246381Y102575D01*
X246427Y102556D01*
X246472Y102538D01*
X246517Y102520D01*
X246563Y102503D01*
X246608Y102485D01*
X246654Y102467D01*
X246699Y102450D01*
X246745Y102433D01*
X246791Y102416D01*
X246837Y102399D01*
X246882Y102382D01*
X246928Y102365D01*
X246974Y102348D01*
X247020Y102332D01*
X247066Y102316D01*
X247112Y102299D01*
X247158Y102283D01*
X247205Y102268D01*
X247251Y102252D01*
X247297Y102236D01*
X247344Y102221D01*
X247390Y102205D01*
X247436Y102190D01*
X247483Y102175D01*
X247529Y102160D01*
X247576Y102145D01*
X247623Y102130D01*
X247669Y102116D01*
X247716Y102101D01*
X247763Y102087D01*
X247810Y102073D01*
X247857Y102059D01*
X247904Y102045D01*
X247951Y102031D01*
X247998Y102018D01*
X248045Y102004D01*
X248092Y101991D01*
X248139Y101978D01*
X248186Y101965D01*
X248234Y101952D01*
X248281Y101939D01*
X248328Y101926D01*
X248376Y101914D01*
X248423Y101902D01*
X248471Y101889D01*
X248518Y101877D01*
X248566Y101865D01*
X248613Y101854D01*
X248661Y101842D01*
X248709Y101830D01*
X248757Y101819D01*
X248804Y101808D01*
X248852Y101797D01*
X248900Y101786D01*
X248948Y101775D01*
X248996Y101764D01*
X249044Y101754D01*
X249092Y101744D01*
X249140Y101733D01*
X249189Y101723D01*
X249237Y101713D01*
X249285Y101704D01*
X249333Y101694D01*
X249382Y101685D01*
X249430Y101675D01*
X249478Y101666D01*
X249527Y101657D01*
X249575Y101648D01*
X249624Y101639D01*
X249672Y101631D01*
X249721Y101622D01*
X249770Y101614D01*
X249818Y101606D01*
X249867Y101598D01*
X249916Y101590D01*
X249965Y101582D01*
X250013Y101574D01*
X250062Y101567D01*
X250111Y101560D01*
X250160Y101553D01*
X250209Y101546D01*
X250258Y101539D01*
X250307Y101532D01*
X250357Y101525D01*
X250408Y101519D01*
X250458Y101512D01*
X250509Y101506D01*
X250559Y101500D01*
X250610Y101494D01*
X250660Y101488D01*
X250711Y101482D01*
X250761Y101477D01*
X250812Y101471D01*
X250862Y101466D01*
X250913Y101460D01*
X250963Y101455D01*
X251014Y101450D01*
X251065Y101446D01*
X251115Y101441D01*
X251166Y101436D01*
X251216Y101432D01*
X251267Y101428D01*
X251318Y101423D01*
X251368Y101419D01*
X251419Y101416D01*
X251469Y101412D01*
X251520Y101408D01*
X251571Y101405D01*
X251621Y101401D01*
X251672Y101398D01*
X251723Y101395D01*
X251773Y101392D01*
X251824Y101390D01*
X251875Y101387D01*
X251926Y101384D01*
X251976Y101382D01*
X252027Y101380D01*
X252078Y101378D01*
X252129Y101376D01*
X252179Y101374D01*
X252230Y101372D01*
X252281Y101371D01*
X252331Y101369D01*
X252382Y101368D01*
X252433Y101367D01*
X252484Y101366D01*
X252534Y101365D01*
X252585Y101364D01*
X252636Y101364D01*
X252686Y101363D01*
X252737Y101363D01*
X252788Y101363D01*
X252839Y101363D01*
X252889Y101363D01*
X252940Y101363D01*
X252991Y101364D01*
X253041Y101364D01*
X253092Y101365D01*
X253143Y101366D01*
X253194Y101367D01*
X253244Y101368D01*
X253295Y101369D01*
X253346Y101370D01*
X253396Y101372D01*
X253447Y101374D01*
X253498Y101375D01*
X253548Y101377D01*
X253599Y101379D01*
X253650Y101382D01*
X253700Y101384D01*
X253751Y101386D01*
X253802Y101389D01*
X253852Y101392D01*
X253903Y101395D01*
X253954Y101398D01*
X254004Y101401D01*
X254055Y101404D01*
X254105Y101408D01*
X254156Y101412D01*
X254207Y101415D01*
X254257Y101419D01*
X254308Y101423D01*
X254358Y101428D01*
X254409Y101432D01*
X254459Y101436D01*
X254510Y101441D01*
X254560Y101446D01*
X254611Y101451D01*
X254661Y101456D01*
X254712Y101461D01*
X254762Y101466D01*
X254813Y101472D01*
X254863Y101477D01*
X254914Y101483D01*
X254964Y101489D01*
X255014Y101495D01*
X255065Y101501D01*
X255115Y101508D01*
X255165Y101514D01*
X255216Y101521D01*
X255266Y101528D01*
X255316Y101535D01*
X255366Y101542D01*
X255417Y101549D01*
X255467Y101556D01*
X255517Y101564D01*
X255567Y101571D01*
X255618Y101579D01*
X255668Y101587D01*
X255718Y101595D01*
X255768Y101603D01*
X255818Y101612D01*
X255868Y101620D01*
X255918Y101629D01*
X255968Y101638D01*
X256018Y101646D01*
X256068Y101656D01*
X256118Y101665D01*
X256168Y101674D01*
X256218Y101684D01*
X256268Y101693D01*
X256318Y101703D01*
X256368Y101713D01*
X256418Y101723D01*
X256467Y101734D01*
X256517Y101744D01*
X256567Y101755D01*
X256617Y101765D01*
X256667Y101776D01*
X256716Y101787D01*
X256766Y101798D01*
X256816Y101809D01*
X256865Y101821D01*
X256915Y101832D01*
X256964Y101844D01*
X257014Y101856D01*
X257063Y101868D01*
X257111Y101880D01*
X257159Y101892D01*
X257207Y101904D01*
X257255Y101916D01*
X257302Y101928D01*
X257350Y101941D01*
X257397Y101953D01*
X257445Y101966D01*
X257492Y101979D01*
X257540Y101992D01*
X257587Y102006D01*
X257635Y102019D01*
X257682Y102032D01*
X257729Y102046D01*
X257777Y102060D01*
X257824Y102074D01*
X257871Y102088D01*
X257918Y102102D01*
X257965Y102117D01*
X258012Y102131D01*
X258059Y102146D01*
X258106Y102161D01*
X258153Y102176D01*
X258200Y102191D01*
X258247Y102206D01*
X258294Y102222D01*
X258340Y102237D01*
X258387Y102253D01*
X258434Y102269D01*
X258480Y102285D01*
X258527Y102301D01*
X258573Y102317D01*
X258620Y102334D01*
X258666Y102350D01*
X258713Y102367D01*
X258759Y102384D01*
X258805Y102401D01*
X258851Y102418D01*
X258897Y102435D01*
X258944Y102452D01*
X258990Y102470D01*
X259036Y102488D01*
X259081Y102506D01*
X259127Y102523D01*
X259173Y102542D01*
X259219Y102560D01*
X259265Y102578D01*
X259310Y102597D01*
X259356Y102615D01*
X259402Y102634D01*
X259447Y102653D01*
X259493Y102672D01*
X259538Y102691D01*
X259583Y102711D01*
X259629Y102730D01*
X259674Y102750D01*
X259719Y102769D01*
X259764Y102789D01*
X259809Y102809D01*
X259854Y102829D01*
X259899Y102850D01*
X259944Y102870D01*
X259989Y102891D01*
X260034Y102911D01*
X260079Y102932D01*
X260123Y102953D01*
X260168Y102974D01*
X260212Y102995D01*
X260257Y103017D01*
X260301Y103038D01*
X260346Y103060D01*
X260390Y103082D01*
X260434Y103103D01*
X260478Y103125D01*
X260523Y103147D01*
X260567Y103170D01*
X260611Y103192D01*
X260655Y103215D01*
X260698Y103237D01*
X260742Y103260D01*
X260786Y103283D01*
X260830Y103306D01*
X260873Y103329D01*
X260917Y103352D01*
X260960Y103376D01*
X261004Y103399D01*
X261047Y103423D01*
X261090Y103447D01*
X261133Y103471D01*
X261176Y103495D01*
X261220Y103519D01*
X261263Y103543D01*
X261306Y103567D01*
X261348Y103592D01*
X261391Y103617D01*
X261434Y103642D01*
X261476Y103666D01*
X261519Y103691D01*
X261562Y103717D01*
X261604Y103742D01*
X261646Y103767D01*
X261689Y103793D01*
X261731Y103818D01*
X261773Y103844D01*
X261815Y103870D01*
X261857Y103896D01*
X261899Y103922D01*
X261941Y103948D01*
X261983Y103975D01*
X262024Y104001D01*
X262066Y104028D01*
X262108Y104055D01*
X262149Y104082D01*
X262190Y104108D01*
X262232Y104136D01*
X262273Y104163D01*
X262314Y104190D01*
X262355Y104218D01*
X262396Y104245D01*
X262437Y104273D01*
X262478Y104301D01*
X262519Y104329D01*
X262560Y104357D01*
X262600Y104385D01*
X262641Y104413D01*
X262681Y104441D01*
X262722Y104470D01*
X262762Y104499D01*
X262802Y104527D01*
X262842Y104556D01*
X262882Y104585D01*
X262922Y104614D01*
X262962Y104643D01*
X263002Y104673D01*
X263042Y104702D01*
X263081Y104732D01*
X263121Y104761D01*
X263160Y104791D01*
X263200Y104821D01*
X263239Y104851D01*
X263278Y104881D01*
X263318Y104911D01*
X263356Y104941D01*
X263396Y104972D01*
X263434Y105002D01*
X263473Y105033D01*
X263512Y105064D01*
X263550Y105095D01*
X263589Y105126D01*
X263627Y105157D01*
X263666Y105188D01*
X263704Y105219D01*
X263742Y105251D01*
X263780Y105282D01*
X263818Y105314D01*
X263856Y105345D01*
X263894Y105377D01*
X263932Y105409D01*
X263969Y105441D01*
X264007Y105473D01*
X264044Y105506D01*
X264081Y105538D01*
X264119Y105571D01*
X264156Y105603D01*
X264193Y105636D01*
X264230Y105669D01*
X264267Y105702D01*
X264304Y105735D01*
X264340Y105768D01*
X264377Y105801D01*
X264413Y105834D01*
X264450Y105868D01*
X264486Y105901D01*
X264522Y105935D01*
X264558Y105969D01*
X264594Y106002D01*
X264630Y106036D01*
X264666Y106070D01*
X264702Y106104D01*
X264737Y106139D01*
X264773Y106173D01*
X264808Y106208D01*
X264844Y106242D01*
X264879Y106277D01*
X264914Y106311D01*
X264949Y106346D01*
X264984Y106381D01*
X265019Y106416D01*
X265054Y106451D01*
X265088Y106487D01*
X265123Y106522D01*
X265157Y106557D01*
X265191Y106593D01*
X265226Y106628D01*
X265260Y106664D01*
X265294Y106700D01*
X265327Y106736D01*
X265361Y106772D01*
X265395Y106808D01*
X265428Y106844D01*
X265462Y106881D01*
X265495Y106917D01*
X265529Y106953D01*
X265562Y106990D01*
X265595Y107027D01*
X265628Y107063D01*
X265660Y107100D01*
X265693Y107137D01*
X265726Y107174D01*
X265758Y107211D01*
X265791Y107249D01*
X265823Y107286D01*
X265855Y107323D01*
X265887Y107361D01*
X265919Y107398D01*
X265951Y107436D01*
X265982Y107474D01*
X266014Y107512D01*
X266046Y107550D01*
X266077Y107588D01*
X266108Y107626D01*
X266139Y107664D01*
X266170Y107702D01*
X266201Y107741D01*
X266232Y107779D01*
X266263Y107818D01*
X266293Y107857D01*
X266324Y107895D01*
X266354Y107934D01*
X266384Y107973D01*
X266415Y108012D01*
X266444Y108051D01*
X266474Y108090D01*
X266504Y108130D01*
X266534Y108169D01*
X266563Y108209D01*
X266593Y108248D01*
X266622Y108288D01*
X266651Y108327D01*
X266680Y108367D01*
X266709Y108407D01*
X266738Y108447D01*
X266767Y108487D01*
X266795Y108527D01*
X266824Y108567D01*
X266852Y108608D01*
X266880Y108648D01*
X266908Y108689D01*
X266936Y108729D01*
X266964Y108770D01*
X266992Y108810D01*
X267019Y108851D01*
X267047Y108892D01*
X267074Y108933D01*
X267101Y108974D01*
X267128Y109015D01*
X267155Y109056D01*
X267182Y109098D01*
X267209Y109139D01*
X267236Y109180D01*
X267262Y109222D01*
X267288Y109263D01*
X267314Y109305D01*
X267341Y109347D01*
X267367Y109389D01*
X267392Y109431D01*
X267418Y109473D01*
X267444Y109515D01*
X267469Y109557D01*
X267494Y109599D01*
X267519Y109641D01*
X267544Y109684D01*
X267569Y109726D01*
X267594Y109768D01*
X267619Y109811D01*
X267643Y109854D01*
X267668Y109896D01*
X267692Y109939D01*
X267716Y109982D01*
X267740Y110025D01*
X267764Y110068D01*
X267787Y110111D01*
X267811Y110154D01*
X267834Y110197D01*
X267858Y110241D01*
X267881Y110284D01*
X267904Y110328D01*
X267927Y110371D01*
X267950Y110415D01*
X267972Y110458D01*
X267996Y110504D01*
X268019Y110549D01*
X268042Y110595D01*
X268065Y110640D01*
X268087Y110686D01*
X268110Y110731D01*
X268132Y110777D01*
X268155Y110823D01*
X268177Y110869D01*
X268199Y110915D01*
X268220Y110961D01*
X268242Y111007D01*
X268263Y111053D01*
X268285Y111099D01*
X268306Y111145D01*
X268327Y111191D01*
X268348Y111238D01*
X268369Y111284D01*
X268389Y111330D01*
X268410Y111377D01*
X268430Y111423D01*
X268450Y111470D01*
X268470Y111517D01*
X268490Y111563D01*
X268510Y111610D01*
X268529Y111657D01*
X268548Y111704D01*
X268568Y111750D01*
X268587Y111797D01*
X268606Y111844D01*
X268624Y111891D01*
X268643Y111939D01*
X268661Y111986D01*
X268680Y112033D01*
X268698Y112080D01*
X268716Y112128D01*
X268734Y112175D01*
X268752Y112222D01*
X268769Y112270D01*
X268787Y112317D01*
X268804Y112365D01*
X268821Y112412D01*
X268838Y112460D01*
X268855Y112508D01*
X268872Y112555D01*
X268888Y112603D01*
X268905Y112651D01*
X268921Y112699D01*
X268937Y112747D01*
X268953Y112795D01*
X268969Y112843D01*
X268985Y112891D01*
X269000Y112939D01*
X269016Y112987D01*
X269031Y113035D01*
X269046Y113084D01*
X269061Y113132D01*
X269076Y113180D01*
X269091Y113229D01*
X269105Y113277D01*
X269120Y113326D01*
X269134Y113374D01*
X269148Y113422D01*
X269163Y113471D01*
X269176Y113520D01*
X269190Y113568D01*
X269204Y113617D01*
X269217Y113666D01*
X269230Y113715D01*
X269244Y113764D01*
X269257Y113812D01*
X269270Y113861D01*
X269282Y113910D01*
X269295Y113959D01*
X269307Y114008D01*
X269320Y114057D01*
X269332Y114107D01*
X269344Y114156D01*
X269356Y114205D01*
X269368Y114254D01*
X269380Y114303D01*
X269391Y114353D01*
X269402Y114402D01*
X269414Y114451D01*
X269425Y114501D01*
X269436Y114550D01*
X269447Y114600D01*
X269457Y114649D01*
X269468Y114699D01*
X269478Y114748D01*
X269489Y114798D01*
X269499Y114847D01*
X269509Y114897D01*
X269519Y114947D01*
X269529Y114997D01*
X269538Y115047D01*
X269548Y115096D01*
X269557Y115146D01*
X269566Y115196D01*
X269575Y115246D01*
X269584Y115296D01*
X269593Y115346D01*
X269602Y115396D01*
X269611Y115446D01*
X269619Y115496D01*
X269627Y115546D01*
X269636Y115596D01*
X269643Y115646D01*
X269652Y115696D01*
X269659Y115747D01*
X269667Y115797D01*
X269674Y115847D01*
X269682Y115898D01*
X269689Y115948D01*
X269696Y115998D01*
X269703Y116049D01*
X269710Y116099D01*
X269717Y116149D01*
X269724Y116200D01*
X269730Y116250D01*
X269737Y116301D01*
X269743Y116351D01*
X269749Y116402D01*
X269755Y116452D01*
X269761Y116503D01*
X269766Y116553D01*
X269771Y116603D01*
X269777Y116654D01*
X269782Y116704D01*
X269786Y116754D01*
X269791Y116805D01*
X269795Y116855D01*
X269799Y116906D01*
X269803Y116956D01*
X269807Y117007D01*
X269811Y117057D01*
X269814Y117108D01*
X269817Y117158D01*
X269820Y117209D01*
X269823Y117260D01*
X269826Y117310D01*
X269828Y117361D01*
X269831Y117411D01*
X269833Y117462D01*
X269835Y117513D01*
X269836Y117563D01*
X269838Y117614D01*
X269839Y117665D01*
X269841Y117716D01*
X269841Y117766D01*
X269842Y117817D01*
X269843Y117868D01*
X269844Y117919D01*
X269844Y117969D01*
X269844Y118020D01*
X269844Y118071D02*
X269844Y118020D01*
X269844Y118121D02*
X269844Y118071D01*
X269843Y118172D02*
X269844Y118121D01*
X269843Y118223D02*
X269843Y118172D01*
X269842Y118274D02*
X269843Y118223D01*
X269841Y118324D02*
X269842Y118274D01*
X269840Y118375D02*
X269841Y118324D01*
X269839Y118426D02*
X269840Y118375D01*
X269837Y118477D02*
X269839Y118426D01*
X269836Y118527D02*
X269837Y118477D01*
X269834Y118578D02*
X269836Y118527D01*
X269832Y118629D02*
X269834Y118578D01*
X269830Y118680D02*
X269832Y118629D01*
X269828Y118731D02*
X269830Y118680D01*
X269825Y118781D02*
X269828Y118731D01*
X269823Y118832D02*
X269825Y118781D01*
X269820Y118883D02*
X269823Y118832D01*
X269817Y118933D02*
X269820Y118883D01*
X269814Y118984D02*
X269817Y118933D01*
X269811Y119035D02*
X269814Y118984D01*
X269808Y119086D02*
X269811Y119035D01*
X269804Y119136D02*
X269808Y119086D01*
X269801Y119187D02*
X269804Y119136D01*
X269797Y119238D02*
X269801Y119187D01*
X269793Y119289D02*
X269797Y119238D01*
X269789Y119339D02*
X269793Y119289D01*
X269785Y119390D02*
X269789Y119339D01*
X269780Y119440D02*
X269785Y119390D01*
X269776Y119491D02*
X269780Y119440D01*
X269771Y119542D02*
X269776Y119491D01*
X269766Y119592D02*
X269771Y119542D01*
X269761Y119643D02*
X269766Y119592D01*
X269756Y119693D02*
X269761Y119643D01*
X269750Y119744D02*
X269756Y119693D01*
X269745Y119795D02*
X269750Y119744D01*
X269739Y119845D02*
X269745Y119795D01*
X269734Y119896D02*
X269739Y119845D01*
X269728Y119946D02*
X269734Y119896D01*
X269722Y119997D02*
X269728Y119946D01*
X269716Y120047D02*
X269722Y119997D01*
X269709Y120098D02*
X269716Y120047D01*
X269703Y120148D02*
X269709Y120098D01*
X269696Y120198D02*
X269703Y120148D01*
X269690Y120249D02*
X269696Y120198D01*
X269683Y120299D02*
X269690Y120249D01*
X269676Y120349D02*
X269683Y120299D01*
X269669Y120400D02*
X269676Y120349D01*
X269661Y120450D02*
X269669Y120400D01*
X269654Y120500D02*
X269661Y120450D01*
X269646Y120550D02*
X269654Y120500D01*
X269639Y120601D02*
X269646Y120550D01*
X269631Y120651D02*
X269639Y120601D01*
X269623Y120701D02*
X269631Y120651D01*
X269615Y120751D02*
X269623Y120701D01*
X269607Y120801D02*
X269615Y120751D01*
X269598Y120851D02*
X269607Y120801D01*
X269590Y120901D02*
X269598Y120851D01*
X269581Y120951D02*
X269590Y120901D01*
X269573Y121001D02*
X269581Y120951D01*
X269564Y121051D02*
X269573Y121001D01*
X269555Y121101D02*
X269564Y121051D01*
X269546Y121151D02*
X269555Y121101D01*
X269536Y121201D02*
X269546Y121151D01*
X269527Y121251D02*
X269536Y121201D01*
X269518Y121300D02*
X269527Y121251D01*
X269508Y121350D02*
X269518Y121300D01*
X269499Y121400D02*
X269508Y121350D01*
X269489Y121449D02*
X269499Y121400D01*
X269479Y121499D02*
X269489Y121449D01*
X269469Y121549D02*
X269479Y121499D01*
X269459Y121598D02*
X269469Y121549D01*
X269448Y121648D02*
X269459Y121598D01*
X269438Y121697D02*
X269448Y121648D01*
X269428Y121747D02*
X269438Y121697D01*
X269417Y121796D02*
X269428Y121747D01*
X269406Y121846D02*
X269417Y121796D01*
X269395Y121895D02*
X269406Y121846D01*
X269384Y121944D02*
X269395Y121895D01*
X269373Y121993D02*
X269384Y121944D01*
X269362Y122042D02*
X269373Y121993D01*
X269351Y122092D02*
X269362Y122042D01*
X269340Y122141D02*
X269351Y122092D01*
X269328Y122190D02*
X269340Y122141D01*
X269316Y122239D02*
X269328Y122190D01*
X269304Y122288D02*
X269316Y122239D01*
X269292Y122337D02*
X269304Y122288D01*
X269280Y122386D02*
X269292Y122337D01*
X269268Y122435D02*
X269280Y122386D01*
X269255Y122484D02*
X269268Y122435D01*
X269242Y122533D02*
X269255Y122484D01*
X269229Y122582D02*
X269242Y122533D01*
X269216Y122630D02*
X269229Y122582D01*
X269202Y122679D02*
X269216Y122630D01*
X269189Y122728D02*
X269202Y122679D01*
X269175Y122777D02*
X269189Y122728D01*
X269161Y122826D02*
X269175Y122777D01*
X269147Y122874D02*
X269161Y122826D01*
X269133Y122923D02*
X269147Y122874D01*
X269119Y122972D02*
X269133Y122923D01*
X269104Y123021D02*
X269119Y122972D01*
X269089Y123069D02*
X269104Y123021D01*
X269074Y123118D02*
X269089Y123069D01*
X269059Y123167D02*
X269074Y123118D01*
X269044Y123215D02*
X269059Y123167D01*
X269028Y123264D02*
X269044Y123215D01*
X269013Y123312D02*
X269028Y123264D01*
X268997Y123361D02*
X269013Y123312D01*
X268981Y123409D02*
X268997Y123361D01*
X268965Y123457D02*
X268981Y123409D01*
X268949Y123506D02*
X268965Y123457D01*
X268932Y123554D02*
X268949Y123506D01*
X268916Y123602D02*
X268932Y123554D01*
X268899Y123651D02*
X268916Y123602D01*
X268882Y123699D02*
X268899Y123651D01*
X268865Y123747D02*
X268882Y123699D01*
X268848Y123795D02*
X268865Y123747D01*
X268830Y123843D02*
X268848Y123795D01*
X268813Y123891D02*
X268830Y123843D01*
X268795Y123939D02*
X268813Y123891D01*
X268777Y123987D02*
X268795Y123939D01*
X268759Y124035D02*
X268777Y123987D01*
X268741Y124082D02*
X268759Y124035D01*
X268722Y124130D02*
X268741Y124082D01*
X268704Y124178D02*
X268722Y124130D01*
X268685Y124226D02*
X268704Y124178D01*
X268666Y124273D02*
X268685Y124226D01*
X268647Y124321D02*
X268666Y124273D01*
X268628Y124368D02*
X268647Y124321D01*
X268609Y124416D02*
X268628Y124368D01*
X268589Y124463D02*
X268609Y124416D01*
X268570Y124510D02*
X268589Y124463D01*
X268550Y124558D02*
X268570Y124510D01*
X268530Y124605D02*
X268550Y124558D01*
X268510Y124652D02*
X268530Y124605D01*
X268489Y124699D02*
X268510Y124652D01*
X268469Y124746D02*
X268489Y124699D01*
X268449Y124793D02*
X268469Y124746D01*
X268428Y124840D02*
X268449Y124793D01*
X268407Y124887D02*
X268428Y124840D01*
X268386Y124934D02*
X268407Y124887D01*
X268365Y124980D02*
X268386Y124934D01*
X268344Y125027D02*
X268365Y124980D01*
X268322Y125073D02*
X268344Y125027D01*
X268301Y125120D02*
X268322Y125073D01*
X268279Y125166D02*
X268301Y125120D01*
X268257Y125213D02*
X268279Y125166D01*
X268235Y125259D02*
X268257Y125213D01*
X268213Y125305D02*
X268235Y125259D01*
X268190Y125351D02*
X268213Y125305D01*
X268168Y125397D02*
X268190Y125351D01*
X268145Y125443D02*
X268168Y125397D01*
X268123Y125489D02*
X268145Y125443D01*
X268100Y125535D02*
X268123Y125489D01*
X268077Y125581D02*
X268100Y125535D01*
X268054Y125626D02*
X268077Y125581D01*
X268030Y125672D02*
X268054Y125626D01*
X268007Y125717D02*
X268030Y125672D01*
X267983Y125763D02*
X268007Y125717D01*
X267959Y125808D02*
X267983Y125763D01*
X267936Y125853D02*
X267959Y125808D01*
X267912Y125898D02*
X267936Y125853D01*
X267888Y125943D02*
X267912Y125898D01*
X267863Y125988D02*
X267888Y125943D01*
X267839Y126033D02*
X267863Y125988D01*
X267814Y126078D02*
X267839Y126033D01*
X267790Y126123D02*
X267814Y126078D01*
X267765Y126167D02*
X267790Y126123D01*
X267740Y126212D02*
X267765Y126167D01*
X267715Y126256D02*
X267740Y126212D01*
X267690Y126300D02*
X267715Y126256D01*
X267664Y126345D02*
X267690Y126300D01*
X267639Y126389D02*
X267664Y126345D01*
X267613Y126433D02*
X267639Y126389D01*
X267588Y126477D02*
X267613Y126433D01*
X267562Y126521D02*
X267588Y126477D01*
X267536Y126564D02*
X267562Y126521D01*
X267510Y126608D02*
X267536Y126564D01*
X267484Y126651D02*
X267510Y126608D01*
X267457Y126695D02*
X267484Y126651D01*
X267431Y126738D02*
X267457Y126695D01*
X267404Y126781D02*
X267431Y126738D01*
X267377Y126825D02*
X267404Y126781D01*
X267350Y126868D02*
X267377Y126825D01*
X267323Y126910D02*
X267350Y126868D01*
X267296Y126953D02*
X267323Y126910D01*
X267269Y126996D02*
X267296Y126953D01*
X267242Y127038D02*
X267269Y126996D01*
X267214Y127081D02*
X267242Y127038D01*
X267187Y127123D02*
X267214Y127081D01*
X267159Y127165D02*
X267187Y127123D01*
X267131Y127207D02*
X267159Y127165D01*
X267103Y127249D02*
X267131Y127207D01*
X267075Y127291D02*
X267103Y127249D01*
X267047Y127333D02*
X267075Y127291D01*
X267019Y127375D02*
X267047Y127333D01*
X266991Y127416D02*
X267019Y127375D01*
X266962Y127457D02*
X266991Y127416D01*
X266934Y127498D02*
X266962Y127457D01*
X266905Y127539D02*
X266934Y127498D01*
X266877Y127580D02*
X266905Y127539D01*
X266848Y127620D02*
X266877Y127580D01*
X266819Y127661D02*
X266848Y127620D01*
X266790Y127702D02*
X266819Y127661D01*
X266761Y127742D02*
X266790Y127702D01*
X266732Y127782D02*
X266761Y127742D01*
X266703Y127823D02*
X266732Y127782D01*
X266673Y127863D02*
X266703Y127823D01*
X266644Y127903D02*
X266673Y127863D01*
X266614Y127943D02*
X266644Y127903D01*
X266584Y127983D02*
X266614Y127943D01*
X266554Y128023D02*
X266584Y127983D01*
X266524Y128063D02*
X266554Y128023D01*
X266494Y128103D02*
X266524Y128063D01*
X266464Y128142D02*
X266494Y128103D01*
X266434Y128182D02*
X266464Y128142D01*
X266403Y128221D02*
X266434Y128182D01*
X266373Y128260D02*
X266403Y128221D01*
X266342Y128300D02*
X266373Y128260D01*
X266311Y128339D02*
X266342Y128300D01*
X266280Y128378D02*
X266311Y128339D01*
X266249Y128417D02*
X266280Y128378D01*
X266218Y128456D02*
X266249Y128417D01*
X266187Y128495D02*
X266218Y128456D01*
X266155Y128533D02*
X266187Y128495D01*
X266124Y128572D02*
X266155Y128533D01*
X266092Y128610D02*
X266124Y128572D01*
X266061Y128649D02*
X266092Y128610D01*
X266029Y128687D02*
X266061Y128649D01*
X265997Y128726D02*
X266029Y128687D01*
X265965Y128764D02*
X265997Y128726D01*
X265933Y128802D02*
X265965Y128764D01*
X265900Y128840D02*
X265933Y128802D01*
X265868Y128878D02*
X265900Y128840D01*
X265836Y128916D02*
X265868Y128878D01*
X265803Y128953D02*
X265836Y128916D01*
X265770Y128991D02*
X265803Y128953D01*
X265737Y129028D02*
X265770Y128991D01*
X265705Y129066D02*
X265737Y129028D01*
X265672Y129103D02*
X265705Y129066D01*
X265639Y129140D02*
X265672Y129103D01*
X265605Y129177D02*
X265639Y129140D01*
X265572Y129214D02*
X265605Y129177D01*
X265539Y129251D02*
X265572Y129214D01*
X265505Y129288D02*
X265539Y129251D01*
X265471Y129325D02*
X265505Y129288D01*
X265438Y129361D02*
X265471Y129325D01*
X265404Y129398D02*
X265438Y129361D01*
X265370Y129434D02*
X265404Y129398D01*
X265336Y129471D02*
X265370Y129434D01*
X265302Y129507D02*
X265336Y129471D01*
X265268Y129543D02*
X265302Y129507D01*
X265233Y129579D02*
X265268Y129543D01*
X265199Y129615D02*
X265233Y129579D01*
X265164Y129651D02*
X265199Y129615D01*
X265130Y129687D02*
X265164Y129651D01*
X265095Y129723D02*
X265130Y129687D01*
X265060Y129758D02*
X265095Y129723D01*
X265025Y129794D02*
X265060Y129758D01*
X264990Y129829D02*
X265025Y129794D01*
X264955Y129864D02*
X264990Y129829D01*
X264919Y129899D02*
X264955Y129864D01*
X264884Y129934D02*
X264919Y129899D01*
X264848Y129969D02*
X264884Y129934D01*
X264813Y130004D02*
X264848Y129969D01*
X264777Y130039D02*
X264813Y130004D01*
X264742Y130074D02*
X264777Y130039D01*
X264706Y130108D02*
X264742Y130074D01*
X264670Y130143D02*
X264706Y130108D01*
X264634Y130177D02*
X264670Y130143D01*
X264597Y130211D02*
X264634Y130177D01*
X264561Y130245D02*
X264597Y130211D01*
X264525Y130279D02*
X264561Y130245D01*
X264489Y130313D02*
X264525Y130279D01*
X264452Y130347D02*
X264489Y130313D01*
X264415Y130381D02*
X264452Y130347D01*
X264379Y130414D02*
X264415Y130381D01*
X264342Y130448D02*
X264379Y130414D01*
X264305Y130481D02*
X264342Y130448D01*
X264268Y130514D02*
X264305Y130481D01*
X264231Y130548D02*
X264268Y130514D01*
X264193Y130581D02*
X264231Y130548D01*
X264156Y130614D02*
X264193Y130581D01*
X264119Y130646D02*
X264156Y130614D01*
X264081Y130679D02*
X264119Y130646D01*
X264044Y130712D02*
X264081Y130679D01*
X264006Y130744D02*
X264044Y130712D01*
X263968Y130777D02*
X264006Y130744D01*
X263930Y130809D02*
X263968Y130777D01*
X263892Y130841D02*
X263930Y130809D01*
X263854Y130873D02*
X263892Y130841D01*
X263816Y130906D02*
X263854Y130873D01*
X263778Y130937D02*
X263816Y130906D01*
X263740Y130969D02*
X263778Y130937D01*
X263701Y131001D02*
X263740Y130969D01*
X263663Y131032D02*
X263701Y131001D01*
X263624Y131064D02*
X263663Y131032D01*
X263586Y131095D02*
X263624Y131064D01*
X263547Y131126D02*
X263586Y131095D01*
X263508Y131157D02*
X263547Y131126D01*
X263469Y131188D02*
X263508Y131157D01*
X263430Y131219D02*
X263469Y131188D01*
X263391Y131250D02*
X263430Y131219D01*
X263352Y131281D02*
X263391Y131250D01*
X263312Y131311D02*
X263352Y131281D01*
X263273Y131342D02*
X263312Y131311D01*
X263234Y131372D02*
X263273Y131342D01*
X263194Y131402D02*
X263234Y131372D01*
X263154Y131432D02*
X263194Y131402D01*
X263115Y131462D02*
X263154Y131432D01*
X263075Y131492D02*
X263115Y131462D01*
X263035Y131522D02*
X263075Y131492D01*
X262995Y131551D02*
X263035Y131522D01*
X262955Y131581D02*
X262995Y131551D01*
X262915Y131610D02*
X262955Y131581D01*
X262875Y131639D02*
X262915Y131610D01*
X262834Y131669D02*
X262875Y131639D01*
X262794Y131698D02*
X262834Y131669D01*
X262753Y131727D02*
X262794Y131698D01*
X262713Y131755D02*
X262753Y131727D01*
X262672Y131784D02*
X262713Y131755D01*
X262631Y131813D02*
X262672Y131784D01*
X262591Y131841D02*
X262631Y131813D01*
X262550Y131869D02*
X262591Y131841D01*
X262509Y131898D02*
X262550Y131869D01*
X262467Y131926D02*
X262509Y131898D01*
X262426Y131954D02*
X262467Y131926D01*
X262385Y131982D02*
X262426Y131954D01*
X262344Y132009D02*
X262385Y131982D01*
X262302Y132037D02*
X262344Y132009D01*
X262261Y132064D02*
X262302Y132037D01*
X262220Y132092D02*
X262261Y132064D01*
X262178Y132119D02*
X262220Y132092D01*
X262136Y132146D02*
X262178Y132119D01*
X262094Y132173D02*
X262136Y132146D01*
X262052Y132200D02*
X262094Y132173D01*
X262011Y132227D02*
X262052Y132200D01*
X261968Y132254D02*
X262011Y132227D01*
X261926Y132280D02*
X261968Y132254D01*
X261884Y132306D02*
X261926Y132280D01*
X261842Y132333D02*
X261884Y132306D01*
X261800Y132359D02*
X261842Y132333D01*
X261757Y132385D02*
X261800Y132359D01*
X261715Y132411D02*
X261757Y132385D01*
X261672Y132437D02*
X261715Y132411D01*
X261630Y132462D02*
X261672Y132437D01*
X261587Y132488D02*
X261630Y132462D01*
X261544Y132513D02*
X261587Y132488D01*
X261501Y132538D02*
X261544Y132513D01*
X261458Y132563D02*
X261501Y132538D01*
X261415Y132589D02*
X261458Y132563D01*
X261372Y132613D02*
X261415Y132589D01*
X261329Y132638D02*
X261372Y132613D01*
X261286Y132663D02*
X261329Y132638D01*
X261243Y132687D02*
X261286Y132663D01*
X261199Y132712D02*
X261243Y132687D01*
X261156Y132736D02*
X261199Y132712D01*
X261112Y132760D02*
X261156Y132736D01*
X261069Y132784D02*
X261112Y132760D01*
X261025Y132808D02*
X261069Y132784D01*
X260981Y132832D02*
X261025Y132808D01*
X260938Y132855D02*
X260981Y132832D01*
X260894Y132879D02*
X260938Y132855D01*
X260850Y132902D02*
X260894Y132879D01*
X260806Y132925D02*
X260850Y132902D01*
X260762Y132949D02*
X260806Y132925D01*
X260718Y132971D02*
X260762Y132949D01*
X260673Y132994D02*
X260718Y132971D01*
X260629Y133017D02*
X260673Y132994D01*
X260585Y133040D02*
X260629Y133017D01*
X260540Y133062D02*
X260585Y133040D01*
X260496Y133084D02*
X260540Y133062D01*
X260451Y133106D02*
X260496Y133084D01*
X260407Y133129D02*
X260451Y133106D01*
X260362Y133151D02*
X260407Y133129D01*
X260317Y133172D02*
X260362Y133151D01*
X260272Y133194D02*
X260317Y133172D01*
X260227Y133216D02*
X260272Y133194D01*
X260182Y133237D02*
X260227Y133216D01*
X260137Y133258D02*
X260182Y133237D01*
X260092Y133279D02*
X260137Y133258D01*
X260047Y133300D02*
X260092Y133279D01*
X260002Y133321D02*
X260047Y133300D01*
X259957Y133342D02*
X260002Y133321D01*
X259911Y133362D02*
X259957Y133342D01*
X259866Y133383D02*
X259911Y133362D01*
X259820Y133403D02*
X259866Y133383D01*
X259775Y133423D02*
X259820Y133403D01*
X259729Y133443D02*
X259775Y133423D01*
X259684Y133463D02*
X259729Y133443D01*
X259638Y133483D02*
X259684Y133463D01*
X259592Y133503D02*
X259638Y133483D01*
X259546Y133522D02*
X259592Y133503D01*
X259500Y133541D02*
X259546Y133522D01*
X259454Y133560D02*
X259500Y133541D01*
X259408Y133580D02*
X259454Y133560D01*
X259362Y133598D02*
X259408Y133580D01*
X259316Y133617D02*
X259362Y133598D01*
X259270Y133636D02*
X259316Y133617D01*
X259224Y133654D02*
X259270Y133636D01*
X259177Y133673D02*
X259224Y133654D01*
X259131Y133691D02*
X259177Y133673D01*
X259084Y133709D02*
X259131Y133691D01*
X259038Y133727D02*
X259084Y133709D01*
X258991Y133745D02*
X259038Y133727D01*
X258945Y133762D02*
X258991Y133745D01*
X258898Y133780D02*
X258945Y133762D01*
X258851Y133797D02*
X258898Y133780D01*
X258805Y133814D02*
X258851Y133797D01*
X258758Y133832D02*
X258805Y133814D01*
X258711Y133849D02*
X258758Y133832D01*
X258664Y133865D02*
X258711Y133849D01*
X258617Y133882D02*
X258664Y133865D01*
X258570Y133899D02*
X258617Y133882D01*
X258523Y133915D02*
X258570Y133899D01*
X258475Y133931D02*
X258523Y133915D01*
X258428Y133947D02*
X258475Y133931D01*
X258381Y133963D02*
X258428Y133947D01*
X258334Y133979D02*
X258381Y133963D01*
X258286Y133995D02*
X258334Y133979D01*
X258239Y134010D02*
X258286Y133995D01*
X258191Y134025D02*
X258239Y134010D01*
X258144Y134041D02*
X258191Y134025D01*
X258096Y134056D02*
X258144Y134041D01*
X258048Y134071D02*
X258096Y134056D01*
X258001Y134086D02*
X258048Y134071D01*
X257953Y134100D02*
X258001Y134086D01*
X257905Y134115D02*
X257953Y134100D01*
X257857Y134129D02*
X257905Y134115D01*
X257809Y134143D02*
X257857Y134129D01*
X257761Y134157D02*
X257809Y134143D01*
X257713Y134171D02*
X257761Y134157D01*
X257665Y134185D02*
X257713Y134171D01*
X257617Y134198D02*
X257665Y134185D01*
X257569Y134212D02*
X257617Y134198D01*
X257521Y134225D02*
X257569Y134212D01*
X257472Y134238D02*
X257521Y134225D01*
X257423Y134252D02*
X257472Y134238D01*
X257374Y134265D02*
X257423Y134252D01*
X257325Y134278D02*
X257374Y134265D01*
X257276Y134291D02*
X257325Y134278D01*
X257227Y134304D02*
X257276Y134291D01*
X257177Y134316D02*
X257227Y134304D01*
X257128Y134329D02*
X257177Y134316D01*
X257079Y134341D02*
X257128Y134329D01*
X257029Y134354D02*
X257079Y134341D01*
X256980Y134366D02*
X257029Y134354D01*
X256931Y134378D02*
X256980Y134366D01*
X256881Y134390D02*
X256931Y134378D01*
X256832Y134402D02*
X256881Y134390D01*
X256782Y134414D02*
X256832Y134402D01*
X256732Y134426D02*
X256782Y134414D01*
X256683Y134437D02*
X256732Y134426D01*
X256633Y134449D02*
X256683Y134437D01*
X256583Y134460D02*
X256633Y134449D01*
X256534Y134471D02*
X256583Y134460D01*
X256484Y134482D02*
X256534Y134471D01*
X256434Y134493D02*
X256484Y134482D01*
X256384Y134504D02*
X256434Y134493D01*
X256334Y134515D02*
X256384Y134504D01*
X256284Y134525D02*
X256334Y134515D01*
X256234Y134535D02*
X256284Y134525D01*
X256185Y134546D02*
X256234Y134535D01*
X256134Y134556D02*
X256185Y134546D01*
X256084Y134566D02*
X256134Y134556D01*
X256034Y134575D02*
X256084Y134566D01*
X255984Y134585D02*
X256034Y134575D01*
X255934Y134594D02*
X255984Y134585D01*
X255884Y134604D02*
X255934Y134594D01*
X255834Y134613D02*
X255884Y134604D01*
X255784Y134622D02*
X255834Y134613D01*
X255734Y134631D02*
X255784Y134622D01*
X255683Y134640D02*
X255734Y134631D01*
X255633Y134648D02*
X255683Y134640D01*
X255583Y134657D02*
X255633Y134648D01*
X255532Y134665D02*
X255583Y134657D01*
X255482Y134673D02*
X255532Y134665D01*
X255432Y134681D02*
X255482Y134673D01*
X255382Y134689D02*
X255432Y134681D01*
X255331Y134696D02*
X255382Y134689D01*
X255281Y134703D02*
X255331Y134696D01*
X255230Y134711D02*
X255281Y134703D01*
X255180Y134718D02*
X255230Y134711D01*
X255130Y134725D02*
X255180Y134718D01*
X255079Y134731D02*
X255130Y134725D01*
X255029Y134738D02*
X255079Y134731D01*
X254978Y134744D02*
X255029Y134738D01*
X254928Y134750D02*
X254978Y134744D01*
X254877Y134756D02*
X254928Y134750D01*
X254827Y134762D02*
X254877Y134756D01*
X254776Y134767D02*
X254827Y134762D01*
X254726Y134773D02*
X254776Y134767D01*
X254676Y134778D02*
X254726Y134773D01*
X254625Y134783D02*
X254676Y134778D01*
X254574Y134788D02*
X254625Y134783D01*
X254524Y134792D02*
X254574Y134788D01*
X254473Y134796D02*
X254524Y134792D01*
X254422Y134799D02*
X254473Y134796D01*
X254371Y134802D02*
X254422Y134799D01*
X254321Y134805D02*
X254371Y134802D01*
X254270Y134807D02*
X254321Y134805D01*
X254219Y134809D02*
X254270Y134807D01*
X254168Y134811D02*
X254219Y134809D01*
X254117Y134813D02*
X254168Y134811D01*
X254066Y134815D02*
X254117Y134813D01*
X254015Y134816D02*
X254066Y134815D01*
X253964Y134818D02*
X254015Y134816D01*
X253913Y134819D02*
X253964Y134818D01*
X253862Y134821D02*
X253913Y134819D01*
X253811Y134823D02*
X253862Y134821D01*
X253760Y134824D02*
X253811Y134823D01*
X253709Y134826D02*
X253760Y134824D01*
X253658Y134828D02*
X253709Y134826D01*
X253607Y134830D02*
X253658Y134828D01*
X253556Y134833D02*
X253607Y134830D01*
X253505Y134835D02*
X253556Y134833D01*
X253455Y134838D02*
X253505Y134835D01*
X253404Y134842D02*
X253455Y134838D01*
X253353Y134846D02*
X253404Y134842D01*
X253303Y134850D02*
X253353Y134846D01*
X253252Y134854D02*
X253303Y134850D01*
X253202Y134860D02*
X253252Y134854D01*
X253151Y134865D02*
X253202Y134860D01*
X253101Y134872D02*
X253151Y134865D01*
D125*
X7500Y116250D02*
D03*
D126*
X482500Y120000D02*
D03*
M02*
