G04 Layer_Color=65535*
%FSLAX44Y44*%
%MOMM*%
G71*
G01*
G75*
%ADD34C,0.2540*%
%ADD43C,0.2500*%
%ADD70C,0.1524*%
%ADD73C,0.2000*%
%ADD74C,0.1000*%
%ADD75C,0.1270*%
%ADD76C,0.1500*%
%ADD77R,4.0000X6.0000*%
D34*
X165770Y133500D02*
G03*
X165770Y133500I-500J0D01*
G01*
X473716Y26340D02*
G03*
X473716Y26340I-254J0D01*
G01*
X472465Y23368D02*
G03*
X472465Y23368I-1295J0D01*
G01*
X396252Y177002D02*
X408502D01*
X396252Y148002D02*
X408502D01*
X396252D02*
Y177002D01*
X433250Y148000D02*
Y177000D01*
X421000D02*
X433250D01*
X421000Y148000D02*
X433250D01*
X-300330Y278651D02*
X-290173D01*
X-295252D01*
Y263416D01*
X-282556D02*
X-277477D01*
X-274938Y265955D01*
Y271034D01*
X-277477Y273573D01*
X-282556D01*
X-285095Y271034D01*
Y265955D01*
X-282556Y263416D01*
X-269860Y258338D02*
Y273573D01*
X-262242D01*
X-259703Y271034D01*
Y265955D01*
X-262242Y263416D01*
X-269860D01*
X-231772Y278651D02*
X-236850D01*
X-239390Y276112D01*
Y265955D01*
X-236850Y263416D01*
X-231772D01*
X-229233Y265955D01*
Y276112D01*
X-231772Y278651D01*
X-224154Y273573D02*
X-219076Y263416D01*
X-213998Y273573D01*
X-201302Y263416D02*
X-206380D01*
X-208920Y265955D01*
Y271034D01*
X-206380Y273573D01*
X-201302D01*
X-198763Y271034D01*
Y268494D01*
X-208920D01*
X-193684Y273573D02*
Y263416D01*
Y268494D01*
X-191145Y271034D01*
X-188606Y273573D01*
X-186067D01*
X-178449Y263416D02*
X-173371D01*
X-175910D01*
Y278651D01*
X-178449D01*
X-163214Y273573D02*
X-158136D01*
X-155597Y271034D01*
Y263416D01*
X-163214D01*
X-165753Y265955D01*
X-163214Y268494D01*
X-155597D01*
X-150518Y273573D02*
Y265955D01*
X-147979Y263416D01*
X-140362D01*
Y260877D01*
X-142901Y258338D01*
X-145440D01*
X-140362Y263416D02*
Y273573D01*
X285160Y54777D02*
X283467Y53084D01*
Y49699D01*
X285160Y48006D01*
X291931D01*
X293624Y49699D01*
Y53084D01*
X291931Y54777D01*
X288546D01*
Y51392D01*
X293624Y58163D02*
X283467D01*
X293624Y64934D01*
X283467D01*
Y68319D02*
X293624D01*
Y73398D01*
X291931Y75091D01*
X285160D01*
X283467Y73398D01*
Y68319D01*
X260099Y53848D02*
X270256D01*
Y58926D01*
X268563Y60619D01*
X261792D01*
X260099Y58926D01*
Y53848D01*
X270256Y64005D02*
X260099D01*
Y69083D01*
X261792Y70776D01*
X265178D01*
X266870Y69083D01*
Y64005D01*
X239779Y53848D02*
X249936D01*
Y58926D01*
X248243Y60619D01*
X241472D01*
X239779Y58926D01*
Y53848D01*
X249936Y64005D02*
X239779D01*
X249936Y70776D01*
X239779D01*
X212093Y37338D02*
X218864D01*
X222250Y40724D01*
X218864Y44109D01*
X212093D01*
Y47495D02*
X222250D01*
Y52573D01*
X220557Y54266D01*
X218864D01*
X217172Y52573D01*
Y47495D01*
Y52573D01*
X215479Y54266D01*
X213786D01*
X212093Y52573D01*
Y47495D01*
Y57651D02*
X220557D01*
X222250Y59344D01*
Y62730D01*
X220557Y64423D01*
X212093D01*
X213786Y74579D02*
X212093Y72887D01*
Y69501D01*
X213786Y67808D01*
X215479D01*
X217172Y69501D01*
Y72887D01*
X218864Y74579D01*
X220557D01*
X222250Y72887D01*
Y69501D01*
X220557Y67808D01*
D43*
X0Y50000D02*
X180340D01*
D70*
X10500Y22500D02*
X25000D01*
X10500Y12500D02*
Y22500D01*
Y12500D02*
X25000D01*
X29500D01*
Y22500D01*
X25000D02*
X29500D01*
X79234Y173080D02*
X87234D01*
X79234Y154580D02*
X87234D01*
X101734D02*
X109234D01*
X101234Y173080D02*
X109234D01*
X79234Y154580D02*
Y173080D01*
X109234Y154580D02*
Y173080D01*
X247000Y125000D02*
Y133500D01*
Y158500D02*
Y167000D01*
X223000Y158500D02*
Y167000D01*
Y125000D02*
X247000D01*
X223000Y167000D02*
X247000D01*
X223000Y125000D02*
Y133500D01*
X119554Y65198D02*
X124054D01*
Y55198D02*
Y65198D01*
X119554Y55198D02*
X124054D01*
X105054D02*
X109554D01*
X105054D02*
Y65198D01*
X109554D01*
X145500Y22500D02*
X160000D01*
X145500Y12500D02*
Y22500D01*
Y12500D02*
X160000D01*
X164500D01*
Y22500D01*
X160000D02*
X164500D01*
X100500D02*
X115000D01*
X100500Y12500D02*
Y22500D01*
Y12500D02*
X115000D01*
X119500D01*
Y22500D01*
X115000D02*
X119500D01*
X55500D02*
X70000D01*
X55500Y12500D02*
Y22500D01*
Y12500D02*
X70000D01*
X74500D01*
Y22500D01*
X70000D02*
X74500D01*
X178736Y157908D02*
X183236D01*
Y147908D02*
Y157908D01*
X178736Y147908D02*
X183236D01*
X164236D02*
X168736D01*
X164236D02*
Y157908D01*
X168736D01*
X131492Y113944D02*
Y118444D01*
X121492Y113944D02*
X131492D01*
X121492D02*
Y118444D01*
Y128444D02*
Y132944D01*
X131492D01*
Y128444D02*
Y132944D01*
X99488Y69240D02*
Y73740D01*
X89488Y69240D02*
X99488D01*
X89488D02*
Y73740D01*
Y83740D02*
Y88240D01*
X99488D01*
Y83740D02*
Y88240D01*
X111172Y69240D02*
Y73740D01*
X101172Y69240D02*
X111172D01*
X101172D02*
Y73740D01*
Y83740D02*
Y88240D01*
X111172D01*
Y83740D02*
Y88240D01*
X61040Y128444D02*
Y132944D01*
X71040D01*
Y128444D02*
Y132944D01*
Y113944D02*
Y118444D01*
X61040Y113944D02*
X71040D01*
X61040D02*
Y118444D01*
X66120Y83740D02*
Y88240D01*
X76120D01*
Y83740D02*
Y88240D01*
Y69240D02*
Y73740D01*
X66120Y69240D02*
X76120D01*
X66120D02*
Y73740D01*
X87804Y69240D02*
Y73740D01*
X77804Y69240D02*
X87804D01*
X77804D02*
Y73740D01*
Y83740D02*
Y88240D01*
X87804D01*
Y83740D02*
Y88240D01*
X462200Y24304D02*
X466700D01*
Y14304D02*
Y24304D01*
X462200Y14304D02*
X466700D01*
X447700D02*
X452200D01*
X447700D02*
Y24304D01*
X452200D01*
X72288Y55198D02*
X76788D01*
X72288D02*
Y65198D01*
X76788D01*
X86788D02*
X91288D01*
Y55198D02*
Y65198D01*
X86788Y55198D02*
X91288D01*
X66214Y65198D02*
X70714D01*
Y55198D02*
Y65198D01*
X66214Y55198D02*
X70714D01*
X51714D02*
X56214D01*
X51714D02*
Y65198D01*
X56214D01*
X26568Y55198D02*
X31068D01*
X26568D02*
Y65198D01*
X31068D01*
X41068D02*
X45568D01*
Y55198D02*
Y65198D01*
X41068Y55198D02*
X45568D01*
X79908Y140542D02*
X84408D01*
X79908D02*
Y150542D01*
X84408D01*
X94408D02*
X98908D01*
Y140542D02*
Y150542D01*
X94408Y140542D02*
X98908D01*
X96092Y128444D02*
Y132944D01*
X106092D01*
Y128444D02*
Y132944D01*
Y113944D02*
Y118444D01*
X96092Y113944D02*
X106092D01*
X96092D02*
Y118444D01*
X84408Y128444D02*
Y132944D01*
X94408D01*
Y128444D02*
Y132944D01*
Y113944D02*
Y118444D01*
X84408Y113944D02*
X94408D01*
X84408D02*
Y118444D01*
X72724Y128444D02*
Y132944D01*
X82724D01*
Y128444D02*
Y132944D01*
Y113944D02*
Y118444D01*
X72724Y113944D02*
X82724D01*
X72724D02*
Y118444D01*
X159912Y132534D02*
Y140034D01*
X146412Y132534D02*
X159912D01*
X146412D02*
Y140034D01*
Y150034D02*
Y157534D01*
X159912D01*
Y150034D02*
Y157534D01*
X220750Y125500D02*
Y133000D01*
X207250Y125500D02*
X220750D01*
X207250D02*
Y133000D01*
Y143000D02*
Y150500D01*
X220750D01*
Y143000D02*
Y150500D01*
X398472Y95104D02*
X405972D01*
X398472D02*
Y108604D01*
X405972D01*
X415972D02*
X423472D01*
Y95104D02*
Y108604D01*
X415972Y95104D02*
X423472D01*
X375250Y115354D02*
X393750D01*
X375250Y145354D02*
X393750D01*
Y115354D02*
Y123354D01*
X375250Y115354D02*
Y122854D01*
Y137354D02*
Y145354D01*
X393750Y137354D02*
Y145354D01*
X355000Y115354D02*
X373500D01*
X355000Y145354D02*
X373500D01*
Y115354D02*
Y123354D01*
X355000Y115354D02*
Y122854D01*
Y137354D02*
Y145354D01*
X373500Y137354D02*
Y145354D01*
X431500Y103250D02*
X450000D01*
X431500Y133250D02*
X450000D01*
Y103250D02*
Y111250D01*
X431500Y103250D02*
Y110750D01*
Y125250D02*
Y133250D01*
X450000Y125250D02*
Y133250D01*
X107042Y125396D02*
Y132896D01*
X120542D01*
Y125396D02*
Y132896D01*
Y107896D02*
Y115396D01*
X107042Y107896D02*
X120542D01*
X107042D02*
Y115396D01*
X73326Y91012D02*
X77826D01*
Y101012D01*
X73326D02*
X77826D01*
X58826D02*
X63326D01*
X58826Y91012D02*
Y101012D01*
Y91012D02*
X63326D01*
X110638Y164352D02*
X129138D01*
X110638Y134352D02*
X129138D01*
X110638Y156352D02*
Y164352D01*
X129138Y156852D02*
Y164352D01*
Y134352D02*
Y142352D01*
X110638Y134352D02*
Y142352D01*
D73*
X428250Y142250D02*
G03*
X428250Y142250I-1000J0D01*
G01*
X388730Y158702D02*
G03*
X382730Y164702I-6000J0D01*
G01*
X370730Y152702D02*
G03*
X376730Y146702I6000J0D01*
G01*
Y164702D02*
G03*
X370730Y158702I0J-6000D01*
G01*
X382730Y146702D02*
G03*
X388730Y152702I0J6000D01*
G01*
X356822Y146702D02*
G03*
X362822Y152702I0J6000D01*
G01*
X350822Y164702D02*
G03*
X344822Y158702I0J-6000D01*
G01*
X362822D02*
G03*
X356822Y164702I-6000J0D01*
G01*
X344822Y152702D02*
G03*
X350822Y146702I6000J0D01*
G01*
X388730Y152702D02*
Y158702D01*
X370730Y152702D02*
Y158702D01*
X376730Y164702D02*
X382730D01*
X376730Y146702D02*
X382730D01*
X455936Y44120D02*
X463936D01*
X455936Y26340D02*
X463936D01*
X440500Y15000D02*
Y44750D01*
X385500Y15000D02*
Y44750D01*
X440500D01*
X385500Y15000D02*
X403000D01*
X423000D02*
X440500D01*
X403000D02*
X423000D01*
X298750Y88500D02*
X325750D01*
Y23000D02*
Y88500D01*
X180750Y22250D02*
Y88500D01*
X207500D01*
X350822Y146702D02*
X356822D01*
X350822Y164702D02*
X356822D01*
X362822Y152702D02*
Y158702D01*
X344822Y152702D02*
Y158702D01*
D74*
X248020Y100518D02*
G03*
X248020Y100518I-500J0D01*
G01*
X176270Y108000D02*
X204270D01*
Y144000D01*
X168270D02*
X204270D01*
X168270Y108000D02*
Y144000D01*
Y108000D02*
X176270D01*
D75*
X423250Y139750D02*
X424750D01*
X399750D02*
X401250D01*
X423250Y114750D02*
X424750D01*
X399750D02*
X401250D01*
X424750Y136250D02*
Y139750D01*
X399750Y136250D02*
Y139750D01*
X424750Y114750D02*
Y118250D01*
X399750Y114750D02*
Y118250D01*
X247270Y104268D02*
Y120268D01*
X263270Y104268D02*
Y120268D01*
D76*
X9000Y12500D02*
Y23500D01*
X15000D01*
X16000Y22500D01*
X9000Y11500D02*
Y12500D01*
Y11500D02*
X15000D01*
X16000Y12500D01*
X9000D02*
X10500D01*
X10000Y22500D02*
X10500D01*
X144000Y12500D02*
Y23500D01*
X150000D01*
X151000Y22500D01*
X144000Y11500D02*
Y12500D01*
Y11500D02*
X150000D01*
X151000Y12500D01*
X144000D02*
X145500D01*
X145000Y22500D02*
X145500D01*
X99000Y12500D02*
Y23500D01*
X105000D01*
X106000Y22500D01*
X99000Y11500D02*
Y12500D01*
Y11500D02*
X105000D01*
X106000Y12500D01*
X99000D02*
X100500D01*
X100000Y22500D02*
X100500D01*
X54000Y12500D02*
Y23500D01*
X60000D01*
X61000Y22500D01*
X54000Y11500D02*
Y12500D01*
Y11500D02*
X60000D01*
X61000Y12500D01*
X54000D02*
X55500D01*
X55000Y22500D02*
X55500D01*
D77*
X470000Y120000D02*
D03*
X20000Y120000D02*
D03*
M02*
