G04 Layer_Color=16711935*
%FSLAX44Y44*%
%MOMM*%
G71*
G01*
G75*
%ADD34C,0.2540*%
%ADD43C,0.2500*%
D34*
X-305330Y-90834D02*
Y-75599D01*
X-297712D01*
X-295173Y-78138D01*
Y-83216D01*
X-297712Y-85756D01*
X-305330D01*
X-279938Y-78138D02*
X-282477Y-75599D01*
X-287556D01*
X-290095Y-78138D01*
Y-88295D01*
X-287556Y-90834D01*
X-282477D01*
X-279938Y-88295D01*
X-274860Y-75599D02*
Y-90834D01*
X-267242D01*
X-264703Y-88295D01*
Y-85756D01*
X-267242Y-83216D01*
X-274860D01*
X-267242D01*
X-264703Y-80677D01*
Y-78138D01*
X-267242Y-75599D01*
X-274860D01*
X-236772D02*
X-241850D01*
X-244390Y-78138D01*
Y-88295D01*
X-241850Y-90834D01*
X-236772D01*
X-234233Y-88295D01*
Y-78138D01*
X-236772Y-75599D01*
X-229154Y-80677D02*
Y-88295D01*
X-226615Y-90834D01*
X-218998D01*
Y-80677D01*
X-211380Y-78138D02*
Y-80677D01*
X-213920D01*
X-208841D01*
X-211380D01*
Y-88295D01*
X-208841Y-90834D01*
X-201224D02*
X-196145D01*
X-198684D01*
Y-75599D01*
X-201224D01*
X-188528Y-90834D02*
X-183449D01*
X-185989D01*
Y-80677D01*
X-188528D01*
X-175832Y-90834D02*
Y-80677D01*
X-168214D01*
X-165675Y-83216D01*
Y-90834D01*
X-152979D02*
X-158057D01*
X-160597Y-88295D01*
Y-83216D01*
X-158057Y-80677D01*
X-152979D01*
X-150440Y-83216D01*
Y-85756D01*
X-160597D01*
D43*
X0Y0D02*
Y180000D01*
X490000D01*
X0Y0D02*
X320000D01*
X490000Y10000D02*
Y180000D01*
X320000Y0D02*
Y10000D01*
X490000D01*
M02*
