G04 Layer_Color=255*
%FSLAX44Y44*%
%MOMM*%
G71*
G01*
G75*
%ADD17R,0.5000X0.6000*%
%ADD18R,0.8500X1.4000*%
%ADD22R,0.6000X0.5000*%
%ADD23R,0.2500X0.4000*%
%ADD24R,1.2000X0.5000*%
%ADD25R,0.9000X0.8000*%
%ADD26R,0.8000X0.9000*%
%ADD27R,1.4000X0.8500*%
%ADD28C,1.0000*%
%ADD40O,1.2000X2.1000*%
%ADD41C,1.6000*%
%ADD49R,0.4000X0.4000*%
%ADD50R,2.5000X1.5000*%
%ADD51R,2.5000X0.5500*%
%ADD52R,2.7000X2.7000*%
%ADD53R,0.8500X0.2800*%
%ADD54R,0.2800X0.8500*%
%ADD55R,0.6000X0.3048*%
%ADD56R,0.3048X0.6000*%
%ADD57R,5.6000X5.6000*%
%ADD58C,0.7870*%
%ADD59R,3.5000X2.9500*%
G04:AMPARAMS|DCode=60|XSize=2mm|YSize=2mm|CornerRadius=0.5mm|HoleSize=0mm|Usage=FLASHONLY|Rotation=0.000|XOffset=0mm|YOffset=0mm|HoleType=Round|Shape=RoundedRectangle|*
%AMROUNDEDRECTD60*
21,1,2.0000,1.0000,0,0,0.0*
21,1,1.0000,2.0000,0,0,0.0*
1,1,1.0000,0.5000,-0.5000*
1,1,1.0000,-0.5000,-0.5000*
1,1,1.0000,-0.5000,0.5000*
1,1,1.0000,0.5000,0.5000*
%
%ADD60ROUNDEDRECTD60*%
%ADD61R,1.2000X1.4000*%
G04:AMPARAMS|DCode=62|XSize=1.4mm|YSize=1.2mm|CornerRadius=0.3mm|HoleSize=0mm|Usage=FLASHONLY|Rotation=270.000|XOffset=0mm|YOffset=0mm|HoleType=Round|Shape=RoundedRectangle|*
%AMROUNDEDRECTD62*
21,1,1.4000,0.6000,0,0,270.0*
21,1,0.8000,1.2000,0,0,270.0*
1,1,0.6000,-0.3000,-0.4000*
1,1,0.6000,-0.3000,0.4000*
1,1,0.6000,0.3000,0.4000*
1,1,0.6000,0.3000,-0.4000*
%
%ADD62ROUNDEDRECTD62*%
%ADD63R,0.8800X0.6000*%
%ADD64R,0.4700X0.6000*%
%ADD65R,5.0000X3.0000*%
G04:AMPARAMS|DCode=66|XSize=0.6mm|YSize=0.3mm|CornerRadius=0.075mm|HoleSize=0mm|Usage=FLASHONLY|Rotation=180.000|XOffset=0mm|YOffset=0mm|HoleType=Round|Shape=RoundedRectangle|*
%AMROUNDEDRECTD66*
21,1,0.6000,0.1500,0,0,180.0*
21,1,0.4500,0.3000,0,0,180.0*
1,1,0.1500,-0.2250,0.0750*
1,1,0.1500,0.2250,0.0750*
1,1,0.1500,0.2250,-0.0750*
1,1,0.1500,-0.2250,-0.0750*
%
%ADD66ROUNDEDRECTD66*%
%ADD67R,2.1000X1.6000*%
%ADD68R,1.9000X1.9000*%
%ADD69R,0.4000X1.3500*%
D17*
X169338Y127762D02*
D03*
X159338D02*
D03*
X321000Y95000D02*
D03*
X311000D02*
D03*
X299894Y106934D02*
D03*
X289894D02*
D03*
X311000Y107000D02*
D03*
X321000D02*
D03*
X193374Y154178D02*
D03*
X203374D02*
D03*
X156892Y48006D02*
D03*
X146892D02*
D03*
X47990Y44120D02*
D03*
X57990D02*
D03*
X35130Y112192D02*
D03*
X25130D02*
D03*
X34020Y57582D02*
D03*
X44020D02*
D03*
X78818Y44120D02*
D03*
X68818D02*
D03*
D18*
X313250Y123000D02*
D03*
X330750D02*
D03*
D22*
X137160Y143082D02*
D03*
Y153082D02*
D03*
X125984Y164512D02*
D03*
Y154512D02*
D03*
X148082Y135302D02*
D03*
Y125302D02*
D03*
X164338Y72056D02*
D03*
Y62056D02*
D03*
X46228Y125904D02*
D03*
Y115904D02*
D03*
X396974Y93926D02*
D03*
Y103926D02*
D03*
D23*
X257222Y74560D02*
D03*
X252222D02*
D03*
X247222D02*
D03*
Y60060D02*
D03*
X252222D02*
D03*
X257222D02*
D03*
D24*
X252222Y67310D02*
D03*
D25*
X150622Y62080D02*
D03*
Y75080D02*
D03*
D26*
X377040Y39116D02*
D03*
X390040D02*
D03*
X111610Y142240D02*
D03*
X124610D02*
D03*
X411000Y80000D02*
D03*
X424000D02*
D03*
D27*
X373634Y125870D02*
D03*
Y143370D02*
D03*
X446524Y40250D02*
D03*
Y57750D02*
D03*
X426586Y40206D02*
D03*
Y57706D02*
D03*
X406520Y40206D02*
D03*
Y57706D02*
D03*
X392176Y125870D02*
D03*
Y143370D02*
D03*
D28*
X475000Y25000D02*
D03*
X15000Y15000D02*
D03*
X475000Y165000D02*
D03*
D40*
X189000Y14500D02*
D03*
X317000D02*
D03*
D41*
X218000Y88000D02*
D03*
X288000D02*
D03*
X243000D02*
D03*
X263000D02*
D03*
D49*
X145952Y163462D02*
D03*
Y156962D02*
D03*
Y150462D02*
D03*
X183952D02*
D03*
Y156962D02*
D03*
Y163462D02*
D03*
D50*
X164952Y161762D02*
D03*
D51*
Y148912D02*
D03*
D52*
X360000Y92000D02*
D03*
D53*
X379750Y79500D02*
D03*
Y84500D02*
D03*
Y89500D02*
D03*
Y94500D02*
D03*
Y99500D02*
D03*
Y104500D02*
D03*
X340250D02*
D03*
Y99500D02*
D03*
Y94500D02*
D03*
Y89500D02*
D03*
Y84500D02*
D03*
Y79500D02*
D03*
D54*
X372500Y111750D02*
D03*
X367500D02*
D03*
X362500D02*
D03*
X357500D02*
D03*
X352500D02*
D03*
X347500D02*
D03*
Y72250D02*
D03*
X352500D02*
D03*
X357500D02*
D03*
X362500D02*
D03*
X367500D02*
D03*
X372500D02*
D03*
D55*
X64042Y66282D02*
D03*
Y71282D02*
D03*
Y76282D02*
D03*
Y81282D02*
D03*
Y86282D02*
D03*
Y91282D02*
D03*
Y96282D02*
D03*
Y101282D02*
D03*
Y106282D02*
D03*
Y111282D02*
D03*
Y116282D02*
D03*
Y121282D02*
D03*
X132042D02*
D03*
Y116282D02*
D03*
Y111282D02*
D03*
Y106282D02*
D03*
Y101282D02*
D03*
Y96282D02*
D03*
Y91282D02*
D03*
Y86282D02*
D03*
Y81282D02*
D03*
Y76282D02*
D03*
Y71282D02*
D03*
Y66282D02*
D03*
D56*
X70542Y127782D02*
D03*
X75542D02*
D03*
X80542D02*
D03*
X85542D02*
D03*
X90542D02*
D03*
X95542D02*
D03*
X100542D02*
D03*
X105542D02*
D03*
X110542D02*
D03*
X115542D02*
D03*
X120542D02*
D03*
X125542D02*
D03*
Y59782D02*
D03*
X120542D02*
D03*
X115542D02*
D03*
X110542D02*
D03*
X105542D02*
D03*
X100542D02*
D03*
X95542D02*
D03*
X90542D02*
D03*
X85542D02*
D03*
X80542D02*
D03*
X75542D02*
D03*
X70542D02*
D03*
D57*
X98042Y93782D02*
D03*
D58*
X113284Y12192D02*
D03*
X100584D02*
D03*
X87884D02*
D03*
X75184D02*
D03*
X62484D02*
D03*
X113284Y24892D02*
D03*
X100584D02*
D03*
X87884D02*
D03*
X75184D02*
D03*
X62484D02*
D03*
D59*
X437388Y159330D02*
D03*
Y104830D02*
D03*
D60*
X230110Y164338D02*
D03*
X260110D02*
D03*
D61*
X42574Y73936D02*
D03*
X26574D02*
D03*
Y95936D02*
D03*
D62*
X42574D02*
D03*
D63*
X445506Y80130D02*
D03*
D64*
X437106D02*
D03*
D65*
X323000Y160000D02*
D03*
X35000D02*
D03*
D66*
X146766Y21456D02*
D03*
Y26456D02*
D03*
Y31456D02*
D03*
Y36456D02*
D03*
X172766Y21456D02*
D03*
Y26456D02*
D03*
Y31456D02*
D03*
Y36456D02*
D03*
D67*
X222000Y41500D02*
D03*
X284000D02*
D03*
D68*
X214500Y16000D02*
D03*
X241000D02*
D03*
X265000D02*
D03*
X291500D02*
D03*
D69*
X246500Y42750D02*
D03*
X253000D02*
D03*
X259500D02*
D03*
X240000D02*
D03*
X266000D02*
D03*
M02*
