G04 Layer_Color=16711935*
%FSLAX44Y44*%
%MOMM*%
G71*
G01*
G75*
%ADD34C,0.2540*%
%ADD47C,0.8128*%
%ADD86R,0.7032X0.8032*%
%ADD87R,1.0532X1.6032*%
%ADD91R,0.8032X0.7032*%
%ADD92R,0.3516X0.5016*%
%ADD93R,1.3016X0.6016*%
%ADD94R,1.1032X1.0032*%
%ADD95R,1.0032X1.1032*%
%ADD96R,1.6032X1.0532*%
%ADD97C,2.0000*%
%ADD99C,0.2032*%
%ADD100O,1.4032X2.3032*%
%ADD101C,1.8032*%
%ADD102R,0.5000X0.5000*%
%ADD103R,2.6000X1.6000*%
%ADD104R,2.6000X0.6500*%
%ADD105R,2.8016X2.8016*%
%ADD106R,0.9516X0.3816*%
%ADD107R,0.3816X0.9516*%
%ADD108R,0.7016X0.4064*%
%ADD109R,0.4064X0.7016*%
%ADD110R,5.7016X5.7016*%
%ADD111C,0.9902*%
%ADD112R,3.7032X3.1532*%
G04:AMPARAMS|DCode=113|XSize=2.2032mm|YSize=2.2032mm|CornerRadius=0.6016mm|HoleSize=0mm|Usage=FLASHONLY|Rotation=0.000|XOffset=0mm|YOffset=0mm|HoleType=Round|Shape=RoundedRectangle|*
%AMROUNDEDRECTD113*
21,1,2.2032,1.0000,0,0,0.0*
21,1,1.0000,2.2032,0,0,0.0*
1,1,1.2032,0.5000,-0.5000*
1,1,1.2032,-0.5000,-0.5000*
1,1,1.2032,-0.5000,0.5000*
1,1,1.2032,0.5000,0.5000*
%
%ADD113ROUNDEDRECTD113*%
%ADD114R,1.4032X1.6032*%
G04:AMPARAMS|DCode=115|XSize=1.6032mm|YSize=1.4032mm|CornerRadius=0.4016mm|HoleSize=0mm|Usage=FLASHONLY|Rotation=270.000|XOffset=0mm|YOffset=0mm|HoleType=Round|Shape=RoundedRectangle|*
%AMROUNDEDRECTD115*
21,1,1.6032,0.6000,0,0,270.0*
21,1,0.8000,1.4032,0,0,270.0*
1,1,0.8032,-0.3000,-0.4000*
1,1,0.8032,-0.3000,0.4000*
1,1,0.8032,0.3000,0.4000*
1,1,0.8032,0.3000,-0.4000*
%
%ADD115ROUNDEDRECTD115*%
%ADD116R,0.9816X0.7016*%
%ADD117R,0.5716X0.7016*%
%ADD118R,5.2032X3.2032*%
G04:AMPARAMS|DCode=119|XSize=0.7mm|YSize=0.4mm|CornerRadius=0.125mm|HoleSize=0mm|Usage=FLASHONLY|Rotation=180.000|XOffset=0mm|YOffset=0mm|HoleType=Round|Shape=RoundedRectangle|*
%AMROUNDEDRECTD119*
21,1,0.7000,0.1500,0,0,180.0*
21,1,0.4500,0.4000,0,0,180.0*
1,1,0.2500,-0.2250,0.0750*
1,1,0.2500,0.2250,0.0750*
1,1,0.2500,0.2250,-0.0750*
1,1,0.2500,-0.2250,-0.0750*
%
%ADD119ROUNDEDRECTD119*%
%ADD120R,2.3032X1.8032*%
%ADD121R,2.1032X2.1032*%
%ADD122R,0.4508X1.4008*%
D34*
X-119206Y121781D02*
Y106546D01*
X-126823D01*
X-129363Y109085D01*
Y111624D01*
X-126823Y114164D01*
X-119206D01*
X-126823D01*
X-129363Y116703D01*
Y119242D01*
X-126823Y121781D01*
X-119206D01*
X-136980Y106546D02*
X-142058D01*
X-144598Y109085D01*
Y114164D01*
X-142058Y116703D01*
X-136980D01*
X-134441Y114164D01*
Y109085D01*
X-136980Y106546D01*
X-152215Y119242D02*
Y116703D01*
X-149676D01*
X-154754D01*
X-152215D01*
Y109085D01*
X-154754Y106546D01*
X-164911Y119242D02*
Y116703D01*
X-162372D01*
X-167450D01*
X-164911D01*
Y109085D01*
X-167450Y106546D01*
X-177607D02*
X-182685D01*
X-185224Y109085D01*
Y114164D01*
X-182685Y116703D01*
X-177607D01*
X-175068Y114164D01*
Y109085D01*
X-177607Y106546D01*
X-190303D02*
Y116703D01*
X-192842D01*
X-195381Y114164D01*
Y106546D01*
Y114164D01*
X-197920Y116703D01*
X-200460Y114164D01*
Y106546D01*
X-230930Y119242D02*
X-228391Y121781D01*
X-223312D01*
X-220773Y119242D01*
Y116703D01*
X-223312Y114164D01*
X-228391D01*
X-230930Y111624D01*
Y109085D01*
X-228391Y106546D01*
X-223312D01*
X-220773Y109085D01*
X-238547Y106546D02*
X-243626D01*
X-246165Y109085D01*
Y114164D01*
X-243626Y116703D01*
X-238547D01*
X-236008Y114164D01*
Y109085D01*
X-238547Y106546D01*
X-251243D02*
X-256322D01*
X-253782D01*
Y121781D01*
X-251243D01*
X-274096D02*
Y106546D01*
X-266478D01*
X-263939Y109085D01*
Y114164D01*
X-266478Y116703D01*
X-274096D01*
X-286792Y106546D02*
X-281713D01*
X-279174Y109085D01*
Y114164D01*
X-281713Y116703D01*
X-286792D01*
X-289331Y114164D01*
Y111624D01*
X-279174D01*
X-294409Y116703D02*
Y106546D01*
Y111624D01*
X-296948Y114164D01*
X-299488Y116703D01*
X-302027D01*
D47*
X360000Y92000D02*
D03*
Y83000D02*
D03*
X351000Y92000D02*
D03*
X360000Y101000D02*
D03*
X369000Y92000D02*
D03*
Y83000D02*
D03*
X351000D02*
D03*
Y101000D02*
D03*
X369000D02*
D03*
D86*
X169338Y127762D02*
D03*
X159338D02*
D03*
X321000Y95000D02*
D03*
X311000D02*
D03*
X299894Y106934D02*
D03*
X289894D02*
D03*
X311000Y107000D02*
D03*
X321000D02*
D03*
X193374Y154178D02*
D03*
X203374D02*
D03*
X156892Y48006D02*
D03*
X146892D02*
D03*
X47990Y44120D02*
D03*
X57990D02*
D03*
X35130Y112192D02*
D03*
X25130D02*
D03*
X34020Y57582D02*
D03*
X44020D02*
D03*
X78818Y44120D02*
D03*
X68818D02*
D03*
D87*
X313250Y123000D02*
D03*
X330750D02*
D03*
D91*
X137160Y143082D02*
D03*
Y153082D02*
D03*
X125984Y164512D02*
D03*
Y154512D02*
D03*
X148082Y135302D02*
D03*
Y125302D02*
D03*
X164338Y72056D02*
D03*
Y62056D02*
D03*
X46228Y125904D02*
D03*
Y115904D02*
D03*
X396974Y93926D02*
D03*
Y103926D02*
D03*
D92*
X257222Y74560D02*
D03*
X252222D02*
D03*
X247222D02*
D03*
Y60060D02*
D03*
X252222D02*
D03*
X257222D02*
D03*
D93*
X252222Y67310D02*
D03*
D94*
X150622Y62080D02*
D03*
Y75080D02*
D03*
D95*
X377040Y39116D02*
D03*
X390040D02*
D03*
X111610Y142240D02*
D03*
X124610D02*
D03*
X411000Y80000D02*
D03*
X424000D02*
D03*
D96*
X373634Y125870D02*
D03*
Y143370D02*
D03*
X446524Y40250D02*
D03*
Y57750D02*
D03*
X426586Y40206D02*
D03*
Y57706D02*
D03*
X406520Y40206D02*
D03*
Y57706D02*
D03*
X392176Y125870D02*
D03*
Y143370D02*
D03*
D97*
X475000Y25000D02*
D03*
X15000Y15000D02*
D03*
X475000Y165000D02*
D03*
D99*
X125984Y18542D02*
D03*
X49784Y8392D02*
D03*
Y28692D02*
D03*
D100*
X189000Y14500D02*
D03*
X317000D02*
D03*
D101*
X218000Y88000D02*
D03*
X288000D02*
D03*
X243000D02*
D03*
X263000D02*
D03*
D102*
X145952Y163462D02*
D03*
Y156962D02*
D03*
Y150462D02*
D03*
X183952D02*
D03*
Y156962D02*
D03*
Y163462D02*
D03*
D103*
X164952Y161762D02*
D03*
D104*
Y148912D02*
D03*
D105*
X360000Y92000D02*
D03*
D106*
X379750Y79500D02*
D03*
Y84500D02*
D03*
Y89500D02*
D03*
Y94500D02*
D03*
Y99500D02*
D03*
Y104500D02*
D03*
X340250D02*
D03*
Y99500D02*
D03*
Y94500D02*
D03*
Y89500D02*
D03*
Y84500D02*
D03*
Y79500D02*
D03*
D107*
X372500Y111750D02*
D03*
X367500D02*
D03*
X362500D02*
D03*
X357500D02*
D03*
X352500D02*
D03*
X347500D02*
D03*
Y72250D02*
D03*
X352500D02*
D03*
X357500D02*
D03*
X362500D02*
D03*
X367500D02*
D03*
X372500D02*
D03*
D108*
X64042Y66282D02*
D03*
Y71282D02*
D03*
Y76282D02*
D03*
Y81282D02*
D03*
Y86282D02*
D03*
Y91282D02*
D03*
Y96282D02*
D03*
Y101282D02*
D03*
Y106282D02*
D03*
Y111282D02*
D03*
Y116282D02*
D03*
Y121282D02*
D03*
X132042D02*
D03*
Y116282D02*
D03*
Y111282D02*
D03*
Y106282D02*
D03*
Y101282D02*
D03*
Y96282D02*
D03*
Y91282D02*
D03*
Y86282D02*
D03*
Y81282D02*
D03*
Y76282D02*
D03*
Y71282D02*
D03*
Y66282D02*
D03*
D109*
X70542Y127782D02*
D03*
X75542D02*
D03*
X80542D02*
D03*
X85542D02*
D03*
X90542D02*
D03*
X95542D02*
D03*
X100542D02*
D03*
X105542D02*
D03*
X110542D02*
D03*
X115542D02*
D03*
X120542D02*
D03*
X125542D02*
D03*
Y59782D02*
D03*
X120542D02*
D03*
X115542D02*
D03*
X110542D02*
D03*
X105542D02*
D03*
X100542D02*
D03*
X95542D02*
D03*
X90542D02*
D03*
X85542D02*
D03*
X80542D02*
D03*
X75542D02*
D03*
X70542D02*
D03*
D110*
X98042Y93782D02*
D03*
D111*
X113284Y12192D02*
D03*
X100584D02*
D03*
X87884D02*
D03*
X75184D02*
D03*
X62484D02*
D03*
X113284Y24892D02*
D03*
X100584D02*
D03*
X87884D02*
D03*
X75184D02*
D03*
X62484D02*
D03*
D112*
X437388Y159330D02*
D03*
Y104830D02*
D03*
D113*
X230110Y164338D02*
D03*
X260110D02*
D03*
D114*
X42574Y73936D02*
D03*
X26574D02*
D03*
Y95936D02*
D03*
D115*
X42574D02*
D03*
D116*
X445506Y80130D02*
D03*
D117*
X437106D02*
D03*
D118*
X323000Y160000D02*
D03*
X35000D02*
D03*
D119*
X146766Y21456D02*
D03*
Y26456D02*
D03*
Y31456D02*
D03*
Y36456D02*
D03*
X172766Y21456D02*
D03*
Y26456D02*
D03*
Y31456D02*
D03*
Y36456D02*
D03*
D120*
X222000Y41500D02*
D03*
X284000D02*
D03*
D121*
X214500Y16000D02*
D03*
X241000D02*
D03*
X265000D02*
D03*
X291500D02*
D03*
D122*
X246500Y42750D02*
D03*
X253000D02*
D03*
X259500D02*
D03*
X240000D02*
D03*
X266000D02*
D03*
M02*
