M48
;Layer_Color=9474304
;FILE_FORMAT=4:4
METRIC,TZ
;TYPE=PLATED
T1F00S00C0.3048
T3F00S00C0.9200
;TYPE=NON_PLATED
T4F00S00C0.9910
%
T01
X364984Y20828
X379984
X410000Y25000
X416560Y39624
X416000Y67000
X422000
X428000
X434000
X440000
X446000
X452000
X460000Y65000
Y55000
X465582Y47244
X451104Y48514
X444000Y29000
X441198Y18796
X476758Y38608
X481330Y47244
X480000Y75000
X465000Y85000
X415036Y88900
X406000Y88000
X404000Y67000
X410000
X398000
X386080Y74422
X369000Y83000
X360000
X360172Y59436
X366522Y63500
X352298Y59436
X345948Y63246
X338836Y65786
X351000Y83000
X331442Y89274
X308000Y84000
X308102Y76454
X259080Y54102
X250698
X218948Y59944
X204724
X205740Y72390
X198374Y89408
X189484Y59944
X175006Y62738
X171958Y76708
X139446Y76962
Y65000
X132080Y49784
X135128Y40894
Y31750
X101092Y29464
X97536Y43434
X103124Y48260
X109220Y43688
X113792Y49530
X91948Y48260
X86360Y43434
X68992Y51740
X56546Y51994
X49180Y52502
Y62408
X55118Y71120
Y79248
X10000Y80000
Y65000
Y50000
Y35000
X35000Y30000
X33020Y19304
X30000Y10000
X68834Y6604
X82042Y6858
X93980
X117348Y9652
X161036
X169926Y7112
X200000
X227584
X252984
X278130
X349984Y20828
X23622Y60706
X10000Y95000
Y110000
Y125000
X35000
X52832Y129794
X54864Y114300
X54768Y103302
X55022Y95936
X48926Y109144
X83750Y107750
Y93750
X98000
Y108000
X112250
Y93750
X102012Y136830
X94392
X87026
X79660
X77216Y160020
Y167386
X70612Y163830
Y156718
X70358Y171196
X122174Y172212
X130302
X138430
Y164338
X146812Y172212
X154940
X164846
X175260
X183896
X191770
Y164338
X199898
Y172212
X207772
Y164338
X192532Y145344
X192278Y132080
X186182Y129032
X187706Y102616
X198374
X194564Y95758
X188214Y91186
X182372Y96012
X176022Y91186
X166370Y90932
X170942Y96774
X166370Y102616
X176784
X139192Y121666
X138938Y129032
X132588
X131572Y136398
X138938
X118618Y152146
X225000Y145000
X240000
X255000
X271018Y144780
X270000Y130000
Y120000
X276541
X283082
X289623
X296164
X305308Y112014
X305000Y130000
X285000
X281940Y160274
Y169418
X277114Y164846
X287274
X302006Y150368
X322000Y114000
X327914Y107442
X351000Y101000
Y92000
X350774Y136906
X245110Y167386
X236982Y98806
X360000Y101000
Y92000
X369000
Y101000
X410972Y93472
X409194Y124206
Y130302
X415290Y130048
Y124206
X428000Y144500
X434500
X441000
X447250
X455000Y135000
Y125000
X465000Y115000
Y100000
X480000Y105000
Y120000
Y140000
X465000Y150000
X480000Y90000
X361188Y171196
T03
X218000Y88000
X243000
X263000
X288000
T04
X49784Y8392
Y28692
X125984Y18542
M30
